<svg width="12" height="12" viewBox="0 0 12 12" fill="none" xmlns="http://www.w3.org/2000/svg">
<g clip-path="url(#clip0_192_43)">
<path d="M10.0001 6V2.8745C10.0002 2.83503 9.99242 2.79595 9.97731 2.75948C9.96221 2.72302 9.94007 2.68989 9.91214 2.662L8.33814 1.088C8.28194 1.03172 8.20568 1.00007 8.12614 1H1.7043C1.62473 1 1.54843 1.03161 1.49216 1.08787C1.4359 1.14413 1.4043 1.22044 1.4043 1.3L1.41227 10.7879C1.41227 10.8674 1.44388 10.9437 1.50014 11C1.5564 11.0563 1.63271 11.0879 1.71227 11.0879L5.50014 11M3.50014 5H8.00014M3.50014 3L6.00014 3M3.50014 7L5.50014 7" stroke="#A7AED7" stroke-linecap="round" stroke-linejoin="round"/>
<path d="M8 2.70017V1.17717C8.00006 1.14221 8.01048 1.10805 8.02993 1.079C8.04938 1.04995 8.077 1.02731 8.10931 1.01394C8.14161 1.00057 8.17715 0.997069 8.21144 1.00387C8.24574 1.01068 8.27725 1.02748 8.302 1.05217L9.948 2.69817C9.97294 2.72283 9.98996 2.75436 9.9969 2.78873C10.0038 2.82311 10.0004 2.85877 9.98698 2.89118C9.97357 2.92358 9.95081 2.95125 9.9216 2.97067C9.8924 2.99008 9.85807 3.00035 9.823 3.00017H8.3C8.22044 3.00017 8.14413 2.96857 8.08787 2.91231C8.03161 2.85604 8 2.77974 8 2.70017Z" fill="#A7AED7" stroke="#A7AED7" stroke-width="0.8" stroke-linecap="round" stroke-linejoin="round"/>
<path d="M8.97723 8.47L9.47723 7.97C9.52928 7.9179 9.59109 7.87657 9.65912 7.84837C9.72716 7.82018 9.80008 7.80566 9.87373 7.80566C9.94737 7.80566 10.0203 7.82018 10.0883 7.84837C10.1564 7.87657 10.2182 7.9179 10.2702 7.97C10.3753 8.0751 10.4343 8.21763 10.4343 8.36625C10.4343 8.51486 10.3753 8.65739 10.2702 8.7625L9.77023 9.2625M8.97723 8.4695L7.48173 9.965C7.40695 10.04 7.35793 10.1368 7.34173 10.2415L7.21973 11.02L7.99823 10.8985C8.1029 10.8823 8.19971 10.8333 8.27473 10.7585L9.76973 9.2625M8.97723 8.4695L9.77023 9.2625" stroke="#A7AED7" stroke-width="0.8" stroke-linecap="round" stroke-linejoin="round"/>
</g>
<defs>
<clipPath id="clip0_192_43">
<rect width="12" height="12" fill="white"/>
</clipPath>
</defs>
</svg>
