<svg width="180" height="200" viewBox="0 0 180 200" fill="none" xmlns="http://www.w3.org/2000/svg">
<path d="M122.2 0H0.700012V126.8H50.6V124.4H94.6V75.4H50.6V45.1H125.4V124.2V125.5C156 119.8 179.1 93.1 179.1 61V56.9C179.1 25.5 153.6 0 122.2 0Z" fill="#D147E0"/>
<path d="M125.4 76V155.2H50.6V124.4H94.6V75.4H50.6H0.700012V200H122.6C153.8 200 179 174.7 179 143.6V137.8C179.1 106.2 155.8 80.2 125.4 76Z" fill="#7731FF"/>
<path d="M125.4 0H50.6V45.1H125.4V0Z" fill="#EF9BFF"/>
<path d="M125.4 155H50.6V199.9H125.4V155Z" fill="#9A75FF"/>
</svg>
