<svg xmlns="http://www.w3.org/2000/svg" width="166" height="42" viewBox="0 0 166 42" fill="none">
	<g clip-path="url(#clip0_213_60)">
	  <path d="M54.8785 17.5027V11.8244H64.3613V8.67747H54.8785V3.63583H65.7162V0.51687H51.2605V20.6216H65.9937V17.5027H54.8785Z" fill="#222249"/>
	  <path d="M75.3866 11.379L75.2105 11.3382C74.933 11.2741 74.6648 11.217 74.4072 11.1622C72.6372 10.7855 71.7126 10.5395 71.7126 9.47733C71.7126 8.53989 72.6547 7.98023 74.2334 7.98023C76.4243 7.98023 76.9058 9.04475 77.0889 10.086L77.1122 10.2212H80.2463L80.2323 10.0452C79.9607 6.58923 76.9408 5.35913 74.2054 5.35913C70.7658 5.35913 68.4549 7.10342 68.4549 9.69886C68.4549 12.8097 71.1844 13.4265 73.3764 13.9232C73.542 13.9605 73.7052 13.9978 73.8626 14.0351C74.111 14.0946 74.3547 14.1494 74.5902 14.2018C76.2797 14.5808 77.5005 14.8548 77.5005 16.2831C77.5005 17.1109 76.6505 18.0017 74.7861 18.0017C71.8117 18.0017 71.2847 16.7168 71.1588 15.3282L71.1448 15.1801H68.0037L68.0118 15.3503C68.1692 18.7503 70.5944 20.6228 74.8409 20.6228C78.4356 20.6228 80.7582 18.833 80.7582 16.0615C80.7582 12.6336 77.9039 11.9667 75.3854 11.379H75.3866Z" fill="#222249"/>
	  <path d="M90.4078 11.379L90.2317 11.3382C89.9542 11.2741 89.6861 11.217 89.4284 11.1622C87.6585 10.7855 86.7338 10.5395 86.7338 9.47733C86.7338 8.53989 87.6759 7.98023 89.2547 7.98023C91.4455 7.98023 91.9271 9.04475 92.1101 10.086L92.1334 10.2212H95.2676L95.2536 10.0452C94.9819 6.58923 91.962 5.35913 89.2267 5.35913C85.7871 5.35913 83.4761 7.10342 83.4761 9.69886C83.4761 12.8097 86.2057 13.4265 88.3977 13.9232C88.5632 13.9605 88.7265 13.9978 88.8839 14.0351C89.1322 14.0946 89.3759 14.1494 89.6115 14.2018C91.3009 14.5808 92.5217 14.8548 92.5217 16.2831C92.5217 17.1109 91.6717 18.0017 89.8073 18.0017C86.8329 18.0017 86.3059 16.7168 86.18 15.3282L86.166 15.1801H83.0249L83.0331 15.3503C83.1905 18.7503 85.6157 20.6228 89.8621 20.6228C93.4568 20.6228 95.7794 18.833 95.7794 16.0615C95.7794 12.6336 92.9251 11.9667 90.4066 11.379H90.4078Z" fill="#222249"/>
	  <path d="M111.82 13.7366C111.82 8.33351 109.346 5.35797 104.852 5.35797C100.358 5.35797 97.7454 8.28221 97.7454 12.9892C97.7454 17.6962 100.589 20.6216 104.99 20.6216C108.359 20.6216 110.766 18.8529 111.592 15.7712L111.647 15.566H108.408L108.374 15.6838C108.266 16.0569 107.59 17.9178 104.907 17.9178C102.644 17.9178 101.047 16.2749 100.977 13.8998H111.819V13.7366H111.82ZM104.852 7.97906C107.031 7.97906 108.513 9.35257 108.587 11.4163H100.979C101.061 9.41553 102.665 7.97906 104.852 7.97906Z" fill="#222249"/>
	  <path d="M122.144 5.60165C119.662 5.60165 118.29 6.71165 117.604 7.55931V5.98876H114.374V20.6228H117.604V11.6845C117.604 9.68254 118.985 8.38948 121.121 8.38948C122.892 8.38948 123.752 9.3584 123.752 11.3522V20.6216H127.01V10.522C127.01 7.48702 125.145 5.60165 122.144 5.60165Z" fill="#222249"/>
	  <path d="M137.149 8.06301V5.35796H134.493V0.983255H131.235V5.35796H129.188V8.06301H131.235V16.4207C131.235 19.3263 132.394 20.6228 134.995 20.6228C135.731 20.6228 136.376 20.5505 137.024 20.3966L137.149 20.3663V17.6857L136.977 17.6962C136.687 17.7126 136.447 17.7219 136.241 17.7219C134.885 17.7219 134.493 17.3744 134.493 16.1711V8.06301H137.149Z" fill="#222249"/>
	  <path d="M141.671 4.01011C142.577 4.01011 143.493 3.42246 143.493 2.29847C143.493 1.17448 142.549 0.613646 141.671 0.613646C140.793 0.613646 139.876 1.20362 139.876 2.29847C139.876 3.39331 140.801 4.01011 141.671 4.01011Z" fill="#222249"/>
	  <path d="M143.3 6.06338H140.07V20.5249H143.3V6.06338Z" fill="#222249"/>
	  <path d="M159.719 18.3538C159.624 18.3632 159.537 18.3678 159.456 18.3678C158.764 18.3678 158.542 18.0612 158.542 17.1051V10.3833C158.542 6.98915 156.654 5.26935 152.929 5.26935C147.666 5.26935 146.72 8.39881 146.625 10.2644L146.617 10.4358H149.76L149.772 10.2853C149.906 8.51774 150.731 7.89045 152.929 7.89045C154.532 7.89045 155.311 8.42563 155.311 9.5263C155.311 10.7179 154.214 10.9803 151.93 11.4128C148.246 12.1322 145.961 13.2061 145.961 16.3309C145.961 18.8435 147.895 20.533 150.772 20.533C152.761 20.533 154.396 19.8439 155.409 18.587C155.746 19.8463 156.53 20.3675 158.047 20.3675C158.606 20.3675 159.093 20.315 159.791 20.0527L159.897 20.013V18.3375L159.719 18.355V18.3538ZM155.311 12.742V14.5878C155.311 16.6678 153.852 17.9108 151.408 17.9108C149.955 17.9108 149.219 17.2858 149.219 16.0545C149.219 14.8233 150.122 14.0876 152.547 13.5582C153.471 13.3693 154.644 13.0837 155.311 12.7432V12.742Z" fill="#222249"/>
	  <path d="M165.522 0.51687H162.264V20.6216H165.522V0.51687Z" fill="#222249"/>
	  <path d="M25.5381 0.299999H0.398682V26.5401H10.7303V26.0399H19.8354V15.9088H10.7303V9.5298H26.2144V26.2894C32.5432 25.1141 37.3214 19.5851 37.3214 12.9309V12.0809C37.3202 5.57833 32.0419 0.299999 25.5381 0.299999Z" fill="#D047DF"/>
	  <path d="M26.2144 16.0347V32.4189H10.7303V26.0399H19.8354V15.9088H0.398682V41.6988H26.2144C32.3928 41.391 37.3214 36.2724 37.3214 30.017V28.8161C37.3214 22.2866 32.4931 16.9092 26.2144 16.0336V16.0347Z" fill="#6C3BFF"/>
	  <path d="M26.2143 32.4026H10.7302V41.7H26.2143V32.4026Z" fill="#9975FF"/>
	  <path d="M26.2144 16.0347V32.4189H10.7303V26.0399H19.8354V15.9088H0.398682V41.6988H26.2144C32.3928 41.391 37.3214 36.2724 37.3214 30.017V28.8161C37.3214 22.2866 32.4931 16.9092 26.2144 16.0336V16.0347Z" fill="#6C3BFF"/>
	  <path d="M25.5382 0.299999H10.7292V9.63124H26.2133V0.319821C25.9906 0.306995 25.7656 0.299999 25.5382 0.299999Z" fill="#EE9AFF"/>
	  <path d="M26.2143 32.4026H10.7302V41.7H26.2143V32.4026Z" fill="#9975FF"/>
	  <path d="M68.8083 24.1289H51.2605V41.6767H68.8083V24.1289Z" fill="#6C3BFF"/>
	  <path d="M55.2388 38.6801V27.5836H60.622C62.9703 27.5836 64.1106 28.4826 64.1106 30.3307C64.1106 32.1787 62.3593 32.7465 62.3593 32.7465C62.3593 32.7465 64.5525 33.1313 64.5525 35.4434C64.5525 37.5911 63.2828 38.6801 60.7794 38.6801H55.2388ZM57.8937 36.5464H60.0216C61.1479 36.5464 61.8976 36.3027 61.8976 35.1123C61.8976 33.9218 61.1479 33.7353 60.0216 33.7353H57.8937V36.5464ZM57.8937 32.1087H59.9434C60.6477 32.1087 61.4569 32.0061 61.4569 30.9311C61.4569 29.8561 60.6489 29.7185 59.9434 29.7185H57.8937V32.1099V32.1087Z" fill="white"/>
	  <path d="M88.1669 24.1289H70.6191V41.6767H88.1669V24.1289Z" fill="#886BF6"/>
	  <path d="M75.7656 38.6801V27.5836H78.4205V36.375H83.4389V38.6801H75.7656Z" fill="white"/>
	  <path d="M107.525 24.1289H89.9775V41.6767H107.525V24.1289Z" fill="#9975FF"/>
	  <path d="M98.5791 38.9332C95.2421 38.9332 93.0862 36.6525 93.0862 33.1243C93.0862 29.5961 95.2421 27.3318 98.5791 27.3318C101.916 27.3318 104.072 29.6054 104.072 33.1243C104.072 36.6432 101.916 38.9332 98.5791 38.9332ZM98.5791 29.4655C96.7217 29.4655 95.7399 30.7306 95.7399 33.1243C95.7399 35.518 96.7217 36.7994 98.5791 36.7994C100.436 36.7994 101.417 35.5285 101.417 33.1243C101.417 30.7201 100.408 29.4655 98.5791 29.4655Z" fill="white"/>
	  <path d="M126.884 24.1289H109.336V41.6767H126.884V24.1289Z" fill="#C788FF"/>
	  <path d="M118.232 38.9332C114.912 38.9332 112.85 36.7073 112.85 33.1243C112.85 29.5413 114.913 27.3318 118.232 27.3318C121.024 27.3318 122.798 28.8837 123.116 31.5957H120.457C120.194 30.1429 119.445 29.4655 118.107 29.4655C116.355 29.4655 115.504 30.663 115.504 33.1243C115.504 35.5857 116.355 36.7994 118.107 36.7994C119.466 36.7994 120.215 36.1115 120.458 34.6377H123.117C122.817 37.3696 121.042 38.9332 118.234 38.9332H118.232Z" fill="white"/>
	  <path d="M146.243 24.1289H128.695V41.6767H146.243V24.1289Z" fill="#D867F4"/>
	  <path d="M139.975 38.6801L136.985 34.3462L135.748 35.7559V38.6801H133.093V27.5836H135.748V32.3175L139.812 27.5836H142.88L138.673 32.4562L143.062 38.6801H139.975Z" fill="white"/>
	  <path d="M165.601 24.1289H148.053V41.6767H165.601V24.1289Z" fill="#D047DF"/>
	  <path d="M157.159 38.9332C154.131 38.9332 152.161 37.4547 152.11 35.1578H154.766C154.813 36.2025 155.681 36.7983 157.161 36.7983C158.22 36.7983 158.879 36.3879 158.879 35.7268C158.879 34.8779 157.932 34.6098 156.621 34.2378C156.424 34.1818 156.217 34.1235 156.004 34.0606C154.145 33.5161 152.426 32.7279 152.426 30.6618C152.426 27.7632 155.096 27.3306 156.688 27.3306C159.378 27.3306 161.246 28.7298 161.372 30.8215H158.708C158.542 29.9704 157.795 29.4643 156.688 29.4643C155.667 29.4643 155.081 29.8258 155.081 30.4566C155.081 31.2448 155.908 31.4745 157.278 31.8557C159.607 32.4935 161.534 33.2059 161.534 35.4586C161.534 37.7112 159.859 38.932 157.162 38.932L157.159 38.9332Z" fill="white"/>
	</g>
	<defs>
	  <clipPath id="clip0_213_60">
		<rect width="165.202" height="41.4" fill="white" transform="translate(0.398682 0.299999)"/>
	  </clipPath>
	</defs>
  </svg>
