<?xml version="1.0" encoding="UTF-8"?>
<svg width="407px" height="434px" viewBox="0 0 407 434" version="1.1" xmlns="http://www.w3.org/2000/svg" xmlns:xlink="http://www.w3.org/1999/xlink">
    <!-- Generator: Sketch 52.4 (67378) - http://www.bohemiancoding.com/sketch -->
    <title>EB Logo</title>
    <desc>Created with Sketch.</desc>
    <defs>
        <linearGradient x1="50%" y1="0%" x2="50%" y2="100%" id="linearGradient-1">
            <stop stop-color="#2460FF" offset="0%"></stop>
            <stop stop-color="#B80AFF" offset="100%"></stop>
        </linearGradient>
        <path d="M135.028419,117 L238.971581,117 L239.468917,117.20979 L239.841918,117.20979 C246.058646,117.20979 251.114841,119.902071 255.010657,125.286713 C256.336892,127.524487 257,129.832156 257,132.20979 C257,138.014015 253.601573,142.489495 246.804618,145.636364 C244.483707,146.545459 242.16283,147 239.841918,147 L133.909414,147 C128.936032,147 124.542944,145.076942 120.730018,141.230769 C118.243327,138.433552 117,135.566448 117,132.629371 L117,131.370629 C117,126.755222 119.735319,122.804212 125.206039,119.517483 C128.190068,117.979013 131.132608,117.20979 134.033748,117.20979 L134.531083,117.20979 L135.028419,117 Z M136.269504,194 L194.347518,194.213868 C198.210421,194.213868 202.342768,195.782218 206.744681,198.918964 C210.248244,202.127 212,205.620143 212,209.398496 C212,214.673933 208.90074,218.986895 202.702128,222.33751 C199.647739,223.763304 196.68323,224.47619 193.808511,224.47619 L135.056738,224.47619 C129.3073,224.47619 124.321534,222.194955 120.099291,217.632414 C118.033087,215.065985 117,212.499595 117,209.933166 L117,208.649958 C117,203.802259 120.189093,199.631875 126.567376,196.13868 C129.801435,194.855466 132.855778,194.213868 135.730496,194.213868 L136,194.213868 C136.17967,194.213868 136.269504,194.142579 136.269504,194 Z M241.631579,194 L242.368421,194 C248.05266,194 252.508756,196.968168 255.736842,202.904594 C256.578952,205.024746 257,207.074195 257,209.053004 C257,214.989429 254.087748,219.547687 248.263158,222.727915 C246.157884,223.575976 244.298254,224 242.684211,224 L241.210526,224 C236.438573,224 232.368438,221.491191 229,216.473498 C227.66666,213.929316 227,211.420507 227,208.946996 C227,203.151914 229.877164,198.628992 235.631579,195.378092 C237.807028,194.459359 239.807008,194 241.631579,194 Z M135.028419,269 L238.971581,269 C238.971581,269.141343 240.256352,269.31802 242.825933,269.530035 C247.136197,270.448768 250.410291,272.109529 252.648313,274.512367 C255.549452,277.409908 257,280.73143 257,284.477032 C257,290.201442 253.601573,294.724365 246.804618,298.045936 C244.732376,298.681982 243.323272,299 242.577265,299 L131.422735,299 C128.521596,299 125.040281,297.339239 120.978686,294.017668 C118.326215,290.978783 117,287.904609 117,284.795053 L117,283.840989 C117,278.611281 120.108317,274.335706 126.325044,271.014134 C128.148618,270.095402 130.966825,269.459366 134.779751,269.106007 C134.779751,269.035335 134.86264,269 135.028419,269 Z" id="path-2"></path>
        <filter x="-28.9%" y="-14.0%" width="157.9%" height="144.5%" filterUnits="objectBoundingBox" id="filter-3">
            <feOffset dx="0" dy="15" in="SourceAlpha" result="shadowOffsetOuter1"></feOffset>
            <feGaussianBlur stdDeviation="11" in="shadowOffsetOuter1" result="shadowBlurOuter1"></feGaussianBlur>
            <feColorMatrix values="0 0 0 0 0   0 0 0 0 0   0 0 0 0 0  0 0 0 0.25 0" type="matrix" in="shadowBlurOuter1"></feColorMatrix>
        </filter>
        <circle id="path-4" cx="318.5" cy="60.5" r="55.5"></circle>
        <filter x="-65.8%" y="-44.1%" width="222.5%" height="222.5%" filterUnits="objectBoundingBox" id="filter-5">
            <feOffset dx="-5" dy="19" in="SourceAlpha" result="shadowOffsetOuter1"></feOffset>
            <feGaussianBlur stdDeviation="19.5" in="shadowOffsetOuter1" result="shadowBlurOuter1"></feGaussianBlur>
            <feColorMatrix values="0 0 0 0 0   0 0 0 0 0   0 0 0 0 0  0 0 0 0.28161798 0" type="matrix" in="shadowBlurOuter1"></feColorMatrix>
        </filter>
        <circle id="path-6" cx="319" cy="61" r="17"></circle>
        <filter x="-152.9%" y="-111.8%" width="388.2%" height="388.2%" filterUnits="objectBoundingBox" id="filter-7">
            <feOffset dx="-3" dy="11" in="SourceAlpha" result="shadowOffsetOuter1"></feOffset>
            <feGaussianBlur stdDeviation="14.5" in="shadowOffsetOuter1" result="shadowBlurOuter1"></feGaussianBlur>
            <feColorMatrix values="0 0 0 0 0.382304935   0 0 0 0 0.0324290316   0 0 0 0 0.516581633  0 0 0 0.654381793 0" type="matrix" in="shadowBlurOuter1"></feColorMatrix>
        </filter>
        <circle id="path-8" cx="63.5" cy="348.5" r="9.5"></circle>
        <filter x="-147.4%" y="-89.5%" width="363.2%" height="363.2%" filterUnits="objectBoundingBox" id="filter-9">
            <feOffset dx="-3" dy="8" in="SourceAlpha" result="shadowOffsetOuter1"></feOffset>
            <feGaussianBlur stdDeviation="7" in="shadowOffsetOuter1" result="shadowBlurOuter1"></feGaussianBlur>
            <feColorMatrix values="0 0 0 0 0   0 0 0 0 0   0 0 0 0 0  0 0 0 0.28161798 0" type="matrix" in="shadowBlurOuter1"></feColorMatrix>
        </filter>
        <linearGradient x1="79.4076969%" y1="0%" x2="6.26301354%" y2="100%" id="linearGradient-10">
            <stop stop-color="#FF710F" offset="0%"></stop>
            <stop stop-color="#CB16A9" offset="100%"></stop>
        </linearGradient>
    </defs>
    <g id="Page-1" stroke="none" stroke-width="1" fill="none" fill-rule="evenodd">
        <g id="EB-Logo-Copy-3" transform="translate(-58.000000, -11.000000)">
            <g id="EB-Logo" transform="translate(58.000000, 25.000000)">
                <circle id="Oval-2" fill="url(#linearGradient-1)" cx="187" cy="208" r="187"></circle>
                <g id="EB">
                    <use fill="black" fill-opacity="1" filter="url(#filter-3)" xlink:href="#path-2"></use>
                    <use fill="#FFFFFF" fill-rule="evenodd" xlink:href="#path-2"></use>
                </g>
                <g id="Oval-3" opacity="0.913225446">
                    <use fill="black" fill-opacity="1" filter="url(#filter-5)" xlink:href="#path-4"></use>
                    <use fill="#FFFFFF" fill-rule="evenodd" xlink:href="#path-4"></use>
                </g>
                <g id="Oval-3">
                    <use fill="black" fill-opacity="1" filter="url(#filter-7)" xlink:href="#path-6"></use>
                    <use fill="#A43DFF" fill-rule="evenodd" xlink:href="#path-6"></use>
                </g>
                <g id="Oval-3-Copy-2" opacity="0.913225446" transform="translate(63.500000, 348.500000) rotate(-7.000000) translate(-63.500000, -348.500000) ">
                    <use fill="black" fill-opacity="1" filter="url(#filter-9)" xlink:href="#path-8"></use>
                    <use fill="#FFFFFF" fill-rule="evenodd" xlink:href="#path-8"></use>
                </g>
                <circle id="Oval-3-Copy-4" fill="#F5A623" cx="385" cy="117" r="12"></circle>
                <circle id="Oval-3-Copy-5" fill="#D8D8D8" cx="257" cy="9" r="9"></circle>
                <path d="M145.182623,334.548531 C139.966285,339.764869 137.156925,346.476118 136.753323,353.300766 C136.311922,360.746058 133.113592,367.759704 127.839945,373.033351 C122.604098,378.270418 115.653858,381.543128 108.259778,381.941852 C100.95349,382.335699 93.769137,385.480378 88.3930654,391.383204 C83.408402,396.856823 80.9099736,403.833889 80.8989995,410.813393 L80.8989995,410.914598 C80.9111929,417.89898 83.4144987,424.878484 88.4064781,430.352103 C99.6170933,442.645492 118.683918,442.977153 130.316425,431.343426 C135.532764,426.127088 138.340904,419.418278 138.745725,412.591191 C139.185907,405.144679 142.384237,398.132253 147.659103,392.857387 C152.894951,387.62032 159.843972,384.350049 167.239271,383.951325 C174.544339,383.557478 181.729912,380.41036 187.104764,374.508753 C192.077234,369.048547 194.575662,362.093429 194.59883,355.130996 L194.59883,354.934682 C194.575662,347.964933 192.073576,341.002499 187.092571,335.541074 C181.332407,329.223671 173.498145,326.06558 165.663883,326.06558 C158.251513,326.06558 150.839143,328.89323 145.182623,334.548531" id="Fill-1" fill="url(#linearGradient-10)" opacity="0.897879464" transform="translate(137.748915, 382.946435) rotate(34.000000) translate(-137.748915, -382.946435) "></path>
                <path d="M220.972652,42 C213.584652,42.035 207.609652,48.035 207.609652,55.43 C207.609652,58.85 208.887652,61.971 210.992652,64.341 C213.289652,66.927 214.540652,70.274 214.540652,73.732 L214.539652,73.732 C214.539652,76.922 213.499652,80.038 211.513652,82.514 C209.037652,84.5 205.920652,85.541 202.731652,85.541 C199.272652,85.541 195.925652,84.29 193.340652,81.994 C190.969652,79.888 187.849652,78.609 184.429652,78.609 C176.801652,78.609 170.659652,84.969 171.014652,92.675 C171.330652,99.551 176.908652,105.132 183.784652,105.454 C187.483652,105.627 190.869652,104.303 193.393652,102.036 C195.949652,99.743 199.300652,98.537 202.733652,98.537 C206.191652,98.537 209.539652,99.788 212.125652,102.085 C214.494652,104.189 217.614652,105.469 221.035652,105.469 C222.732652,105.469 224.354652,105.152 225.849652,104.578 C225.856652,104.576 225.863652,104.574 225.869652,104.57 C226.071652,104.492 226.271652,104.411 226.467652,104.323 C226.485652,104.315 226.501652,104.307 226.519652,104.299 C226.705652,104.216 226.888652,104.13 227.070652,104.038 C227.097652,104.024 227.125652,104.009 227.152652,103.995 C227.322652,103.908 227.489652,103.818 227.656652,103.725 C227.693652,103.704 227.729652,103.681 227.765652,103.659 C227.920652,103.569 228.073652,103.479 228.223652,103.384 C228.270652,103.355 228.315652,103.323 228.361652,103.292 C228.499652,103.202 228.637652,103.111 228.772652,103.017 C228.828652,102.977 228.882652,102.936 228.936652,102.896 C229.058652,102.806 229.181652,102.717 229.301652,102.623 C229.366652,102.572 229.427652,102.52 229.491652,102.468 C229.598652,102.381 229.705652,102.295 229.809652,102.205 C229.882652,102.143 229.952652,102.077 230.023652,102.013 C230.115652,101.931 230.207652,101.848 230.296652,101.763 C230.377652,101.687 230.452652,101.608 230.530652,101.531 C230.608652,101.454 230.686652,101.377 230.762652,101.298 C230.847652,101.208 230.929652,101.116 231.012652,101.024 C231.076652,100.952 231.141652,100.883 231.204652,100.811 C231.294652,100.706 231.380652,100.599 231.467652,100.492 C231.518652,100.429 231.572652,100.366 231.621652,100.302 C231.715652,100.182 231.805652,100.06 231.894652,99.938 C231.934652,99.882 231.976652,99.829 232.015652,99.774 C232.110652,99.639 232.201652,99.501 232.291652,99.362 C232.321652,99.317 232.353652,99.271 232.383652,99.224 C232.478652,99.074 232.569652,98.921 232.658652,98.767 C232.679652,98.73 232.702652,98.694 232.723652,98.656 C232.818652,98.491 232.906652,98.322 232.994652,98.152 C233.008652,98.125 233.022652,98.099 233.037652,98.071 C233.129652,97.89 233.214652,97.707 233.298652,97.519 C233.305652,97.503 233.314652,97.486 233.321652,97.469 C233.409652,97.272 233.491652,97.072 233.569652,96.871 L233.578652,96.851 C234.152652,95.356 234.467652,93.733 234.467652,92.037 C234.467652,88.617 233.189652,85.496 231.083652,83.125 C228.787652,80.54 227.536652,77.191 227.536652,73.733 C227.536652,70.301 228.741652,66.949 231.035652,64.395 C233.302652,61.87 234.625652,58.484 234.453652,54.786 C234.131652,47.91 228.550652,42.332 221.673652,42.015 C221.486652,42.006 221.299652,42.001 221.113652,42 L220.972652,42 Z" id="Fill-1" fill="#FFFFFF" opacity="0.096875"></path>
            </g>
        </g>
    </g>
</svg>