<svg width="44" height="44" viewBox="0 0 44 44" fill="none" xmlns="http://www.w3.org/2000/svg">
<g clipPath="url(#clip0_321_193)">
<path d="M36.8189 19.25L39.0226 20.5718C39.1585 20.6532 39.271 20.7684 39.3492 20.9063C39.4273 21.0441 39.4684 21.1999 39.4684 21.3583C39.4684 21.5168 39.4273 21.6725 39.3492 21.8104C39.271 21.9482 39.1585 22.0634 39.0226 22.1448L22.0001 32.3583L4.97756 22.1448C4.84161 22.0634 4.72908 21.9482 4.65094 21.8104C4.57281 21.6725 4.53174 21.5168 4.53174 21.3583C4.53174 21.1999 4.57281 21.0441 4.65094 20.9063C4.72908 20.7684 4.84161 20.6532 4.97756 20.5718L7.18123 19.25L22.0001 28.1417L36.8189 19.25ZM36.8189 27.8667L39.0226 29.1885C39.1585 29.2699 39.271 29.3851 39.3492 29.5229C39.4273 29.6608 39.4684 29.8165 39.4684 29.975C39.4684 30.1334 39.4273 30.2892 39.3492 30.427C39.271 30.5649 39.1585 30.6801 39.0226 30.7615L22.9442 40.4085C22.6591 40.5798 22.3327 40.6703 22.0001 40.6703C21.6674 40.6703 21.341 40.5798 21.0559 40.4085L4.97756 30.7615C4.84161 30.6801 4.72908 30.5649 4.65094 30.427C4.57281 30.2892 4.53174 30.1334 4.53174 29.975C4.53174 29.8165 4.57281 29.6608 4.65094 29.5229C4.72908 29.3851 4.84161 29.2699 4.97756 29.1885L7.18123 27.8667L22.0001 36.7583L36.8189 27.8667V27.8667ZM22.9424 2.39982L39.0226 12.0468C39.1585 12.1282 39.271 12.2434 39.3492 12.3813C39.4273 12.5191 39.4684 12.6749 39.4684 12.8333C39.4684 12.9918 39.4273 13.1475 39.3492 13.2854C39.271 13.4232 39.1585 13.5384 39.0226 13.6198L22.0001 23.8333L4.97756 13.6198C4.84161 13.5384 4.72908 13.4232 4.65094 13.2854C4.57281 13.1475 4.53174 12.9918 4.53174 12.8333C4.53174 12.6749 4.57281 12.5191 4.65094 12.3813C4.72908 12.2434 4.84161 12.1282 4.97756 12.0468L21.0559 2.39982C21.341 2.22851 21.6674 2.138 22.0001 2.138C22.3327 2.138 22.6591 2.22851 22.9442 2.39982H22.9424Z" fill="url(#paint0_linear_321_193)"/>
<rect x="28.5" y="26.6667" width="14.5" height="14.5" rx="7.25" fill="#52D57A" stroke="white" strokeWidth="2"/>
<path d="M32.5 34.5L34.5 36.5L39.5 31.5" stroke="white" strokeWidth="1.33" strokeLinecap="round" strokeLinejoin="round"/>
</g>
<defs>
<linearGradient id="paint0_linear_321_193" x1="22.0001" y1="2.138" x2="22.0001" y2="40.6703" gradientUnits="userSpaceOnUse">
<stop stop-color="#52D57A"/>
<stop offset="1" stop-color="#98FFB7"/>
</linearGradient>
<clipPath id="clip0_321_193">
<rect width="44" height="44" fill="white"/>
</clipPath>
</defs>
</svg>
