<svg width="18" height="18" viewBox="0 0 18 18" fill="none" xmlns="http://www.w3.org/2000/svg">
<path d="M5.25 13.5H10.5M5.25 10.5H6M5.25 7.5H7.5M5.25 1.5H12.375L15.75 4.875V14.25" stroke="#A6C5FF" strokeWidth="1.33" strokeLinecap="round" strokeLinejoin="round"/>
<path d="M2.25 15.375V4.875C2.25 4.57663 2.36853 4.29048 2.5795 4.0795C2.79048 3.86853 3.07663 3.75 3.375 3.75H10.689C10.8083 3.75011 10.9227 3.79758 11.007 3.882L13.368 6.243C13.41 6.28493 13.4433 6.33474 13.4659 6.38957C13.4886 6.4444 13.5001 6.50317 13.5 6.5625V15.375C13.5 15.6734 13.3815 15.9595 13.1705 16.1705C12.9595 16.3815 12.6734 16.5 12.375 16.5H3.375C3.07663 16.5 2.79048 16.3815 2.5795 16.1705C2.36853 15.9595 2.25 15.6734 2.25 15.375Z" stroke="#2673FF" strokeWidth="1.33" strokeLinecap="round" strokeLinejoin="round"/>
<path d="M10.5 3.75V6.3C10.5 6.41935 10.5474 6.53381 10.6318 6.6182C10.7162 6.70259 10.8307 6.75 10.95 6.75H13.5" stroke="#2673FF" strokeWidth="1.33" strokeLinecap="round" strokeLinejoin="round"/>
</svg>
