<svg width="15" height="19" viewBox="0 0 15 19" fill="none" xmlns="http://www.w3.org/2000/svg">
<path d="M11.25 18.6994H3.75C1.68225 18.6994 0 17.0172 0 14.9496V4.45006C0 2.3824 1.68225 0.700226 3.75 0.700226H8.25V2.20016H3.75C2.50913 2.20016 1.5 3.20924 1.5 4.45006V14.9496C1.5 16.1904 2.50913 17.1995 3.75 17.1995H11.25C12.4909 17.1995 13.5 16.1904 13.5 14.9496V7.44992H15V14.9496C15 17.0169 13.3178 18.6994 11.25 18.6994Z" fill="#13C84B"/>
<path d="M14.25 8.20012H11.25C9.18225 8.20012 7.5 6.51794 7.5 4.45029V1.45042C7.5 1.14706 7.68263 0.873325 7.96275 0.757456C8.24325 0.639711 8.56538 0.704583 8.78025 0.920198L14.7802 6.91993C14.9947 7.13442 15.0589 7.4569 14.943 7.73739C14.8271 8.01788 14.5534 8.20012 14.25 8.20012V8.20012ZM9 3.26084V4.45029C9 5.69111 10.0091 6.70019 11.25 6.70019H12.4395L9 3.26084Z" fill="#13C84B"/>
<path d="M10.5 14.9498H4.5C4.086 14.9498 3.75 14.6142 3.75 14.1999C3.75 13.7855 4.086 13.4499 4.5 13.4499H10.5C10.914 13.4499 11.25 13.7855 11.25 14.1999C11.25 14.6142 10.914 14.9498 10.5 14.9498Z" fill="#7DF3A1"/>
<path d="M10.5 11.95H4.5C4.086 11.95 3.75 11.6144 3.75 11.2C3.75 10.7857 4.086 10.45 4.5 10.45H10.5C10.914 10.45 11.25 10.7857 11.25 11.2C11.25 11.6144 10.914 11.95 10.5 11.95Z" fill="#7DF3A1"/>
<path d="M6 8.9501H4.5C4.086 8.9501 3.75 8.61449 3.75 8.20013C3.75 7.78577 4.086 7.45016 4.5 7.45016H6C6.414 7.45016 6.75 7.78577 6.75 8.20013C6.75 8.61449 6.414 8.9501 6 8.9501Z" fill="#7DF3A1"/>
</svg>
