<svg width="20" height="20" viewBox="0 0 20 20" fill="none" xmlns="http://www.w3.org/2000/svg">
<g clipPath="url(#clip0_321_940)">
<path d="M0.833344 16.6667V15.8333C0.833344 14.2862 1.44793 12.8025 2.54189 11.7085C3.63585 10.6146 5.11958 10 6.66668 10V10C8.21377 10 9.6975 10.6146 10.7915 11.7085C11.8854 12.8025 12.5 14.2862 12.5 15.8333V16.6667" stroke="#FFB45A" strokeWidth="1.77625" strokeLinecap="round"/>
<path d="M10.8333 11.6667C10.8333 10.5616 11.2723 9.50179 12.0537 8.72039C12.8351 7.93899 13.8949 7.5 15 7.5V7.5C15.5472 7.5 16.089 7.60777 16.5945 7.81717C17.1 8.02656 17.5594 8.33348 17.9463 8.72039C18.3332 9.1073 18.6401 9.56663 18.8495 10.0722C19.0589 10.5777 19.1667 11.1195 19.1667 11.6667V12.0833" stroke="#FFB45A" strokeWidth="1.77625" strokeLinecap="round"/>
<path d="M6.66668 10C7.55073 10 8.39858 9.64881 9.0237 9.02369C9.64882 8.39857 10 7.55072 10 6.66667C10 5.78261 9.64882 4.93477 9.0237 4.30964C8.39858 3.68452 7.55073 3.33333 6.66668 3.33333C5.78262 3.33333 4.93478 3.68452 4.30965 4.30964C3.68453 4.93477 3.33334 5.78261 3.33334 6.66667C3.33334 7.55072 3.68453 8.39857 4.30965 9.02369C4.93478 9.64881 5.78262 10 6.66668 10V10ZM15 7.5C15.6631 7.5 16.2989 7.23661 16.7678 6.76777C17.2366 6.29893 17.5 5.66304 17.5 5C17.5 4.33696 17.2366 3.70107 16.7678 3.23223C16.2989 2.76339 15.6631 2.5 15 2.5C14.337 2.5 13.7011 2.76339 13.2322 3.23223C12.7634 3.70107 12.5 4.33696 12.5 5C12.5 5.66304 12.7634 6.29893 13.2322 6.76777C13.7011 7.23661 14.337 7.5 15 7.5Z" stroke="#FFB45A" strokeWidth="1.77625" strokeLinecap="round" strokeLinejoin="round"/>
</g>
<defs>
<clipPath id="clip0_321_940">
<rect width="20" height="20" fill="white"/>
</clipPath>
</defs>
</svg>
