<svg width="48" height="48" viewBox="0 0 48 48" fill="none" xmlns="http://www.w3.org/2000/svg">
<path d="M2 40V38C2 34.287 3.475 30.726 6.1005 28.1005C8.72601 25.475 12.287 24 16 24V24C19.713 24 23.274 25.475 25.8995 28.1005C28.525 30.726 30 34.287 30 38V40" stroke="#ABD2CB" strokeWidth="2.5" strokeLinecap="round"/>
<path d="M26 28C26 25.3478 27.0536 22.8043 28.9289 20.9289C30.8043 19.0536 33.3478 18 36 18V18C37.3132 18 38.6136 18.2587 39.8268 18.7612C41.0401 19.2638 42.1425 20.0003 43.0711 20.9289C43.9997 21.8575 44.7362 22.9599 45.2388 24.1732C45.7413 25.3864 46 26.6868 46 28V29" stroke="#ABD2CB" strokeWidth="2.5" strokeLinecap="round"/>
<path d="M16 24C18.1217 24 20.1566 23.1571 21.6569 21.6569C23.1571 20.1566 24 18.1217 24 16C24 13.8783 23.1571 11.8434 21.6569 10.3431C20.1566 8.84285 18.1217 8 16 8C13.8783 8 11.8434 8.84285 10.3431 10.3431C8.84285 11.8434 8 13.8783 8 16C8 18.1217 8.84285 20.1566 10.3431 21.6569C11.8434 23.1571 13.8783 24 16 24V24ZM36 18C37.5913 18 39.1174 17.3679 40.2426 16.2426C41.3679 15.1174 42 13.5913 42 12C42 10.4087 41.3679 8.88258 40.2426 7.75736C39.1174 6.63214 37.5913 6 36 6C34.4087 6 32.8826 6.63214 31.7574 7.75736C30.6321 8.88258 30 10.4087 30 12C30 13.5913 30.6321 15.1174 31.7574 16.2426C32.8826 17.3679 34.4087 18 36 18Z" stroke="#66B0BA" strokeWidth="2.5" strokeLinecap="round" strokeLinejoin="round"/>
</svg>
