<svg width="48" height="48" viewBox="0 0 48 48" fill="none" xmlns="http://www.w3.org/2000/svg">
<g clipPath="url(#clip0_321_243)">
<path d="M38.8164 14.0316L30.8918 12.88L27.3477 5.69916C25.9789 2.92538 22.0207 2.92622 20.6523 5.69906L17.1083 12.8799L9.18369 14.0316C6.12247 14.4763 4.90053 18.2408 7.11472 20.3993L12.849 25.9889L11.4954 33.8812C10.9725 36.9301 14.1749 39.2555 16.9122 37.8169L24.0001 34.0903L31.0882 37.8169C33.8216 39.2538 37.0277 36.9296 36.505 33.8812L35.1513 25.9888L40.8857 20.3992C43.1003 18.24 41.8763 14.4762 38.8164 14.0316ZM38.6517 18.1079L32.3151 24.2845C31.938 24.6521 31.766 25.1817 31.855 25.7007L33.3508 34.4224C33.4259 34.8604 32.9702 35.1911 32.577 34.9846L24.7445 30.8668C24.2785 30.6218 23.7215 30.6218 23.2555 30.8668L15.4229 34.9846C15.0296 35.1913 14.574 34.8603 14.6491 34.4224L16.145 25.7007C16.234 25.1817 16.0619 24.6521 15.6849 24.2845L9.34822 18.1079C9.02994 17.7977 9.20403 17.2622 9.64381 17.1982L18.4008 15.9257C18.9219 15.8499 19.3724 15.5227 19.6055 15.0505L23.5218 7.11525C23.7184 6.717 24.2816 6.71672 24.4782 7.11534L28.3946 15.0505C28.6276 15.5227 29.0782 15.85 29.5993 15.9257L38.3562 17.1982C38.7959 17.2622 38.9699 17.7978 38.6517 18.1079Z" fill="#E6893C"/>
<path d="M12.631 4.4205L10.7174 1.78678C10.1979 1.07203 9.19738 0.913406 8.48263 1.43297C7.76779 1.95234 7.60925 2.95294 8.12872 3.66778L10.0423 6.30141C10.562 7.01653 11.5625 7.1745 12.2771 6.65522C12.9919 6.13594 13.1504 5.13534 12.631 4.4205Z" fill="#F0CB5A"/>
<path d="M6.28103 28.0225C6.00812 27.1822 5.1055 26.7219 4.26494 26.9953L1.10594 28.0218C0.265562 28.2949 -0.194281 29.1974 0.0787186 30.0379C0.352187 30.8797 1.25631 31.3379 2.09481 31.0651L5.25381 30.0386C6.09428 29.7655 6.55412 28.8629 6.28103 28.0225Z" fill="#F0CB5A"/>
<path d="M39.5173 1.43307C38.8026 0.913692 37.802 1.07204 37.2825 1.78688L35.369 4.4205C34.8495 5.13535 35.008 6.13604 35.7229 6.65532C36.438 7.17488 37.4385 7.01607 37.9577 6.3015L39.8712 3.66788C40.3906 2.95304 40.2321 1.95235 39.5173 1.43307Z" fill="#F0CB5A"/>
<path d="M46.894 28.0218L43.735 26.9953C42.8946 26.7218 41.992 27.1822 41.7189 28.0225C41.4458 28.8629 41.9056 29.7656 42.7461 30.0386L45.9051 31.0651C46.7437 31.3378 47.6477 30.8796 47.9212 30.0379C48.1943 29.1975 47.7344 28.2949 46.894 28.0218Z" fill="#F0CB5A"/>
<path d="M24.0001 40.4255C23.1165 40.4255 22.4001 41.1418 22.4001 42.0254V45.2727C22.4001 46.1563 23.1165 46.8727 24.0001 46.8727C24.8837 46.8727 25.6 46.1563 25.6 45.2727V42.0254C25.6001 41.1417 24.8838 40.4255 24.0001 40.4255Z" fill="#F0CB5A"/>
</g>
<defs>
<clipPath id="clip0_321_243">
<rect width="48" height="48" fill="white"/>
</clipPath>
</defs>
</svg>
