<svg width="60" height="49" viewBox="0 0 60 49" fill="none" xmlns="http://www.w3.org/2000/svg">
	<path
		d="M13.5065 17.2727C13.5065 16.8052 13.2208 16.3636 12.5974 16.3636H6.20779C5.55844 16.3636 5.2987 16.8312 5.2987 17.2727C5.2987 17.7403 5.76623 18.1818 6.20779 18.1818H12.5974C13.2208 18.1818 13.5065 17.7403 13.5065 17.2727Z"
		fill="#6C3BFF" />
	<path
		d="M8.02597 39.5325H5.19481V36.7013C5.19481 36.2338 4.90909 35.8701 4.36364 35.8701C3.8961 35.8701 3.53247 36.1558 3.53247 36.7013V39.5325H0.831169C0.363636 39.5325 0 39.7922 0 40.3377C0 40.8052 0.285714 41.1688 0.831169 41.1688H3.55844V43.8961C3.55844 44.3636 3.84416 44.7273 4.38961 44.7273C4.93506 44.8312 5.22078 44.3636 5.22078 43.8961V41.1688H8.05195C8.51948 41.1688 8.88312 40.8831 8.88312 40.3377C8.85714 39.7922 8.46753 39.5325 8.02597 39.5325Z"
		fill="#6C3BFF" />
	<path
		d="M59.0909 0.779236H17.6883C17.039 0.779236 16.7792 1.24677 16.7792 1.68833V32.052H13.6883C13.039 32.052 12.7792 32.5195 12.7792 32.9611V47.6364C12.5974 48.1039 13.0649 48.5455 13.6883 48.5455H51.4286C52.0779 48.5455 52.3377 48.0779 52.3377 47.6364V33.8701H59.0909C59.7403 33.8701 60 33.4026 60 32.9611V1.68833C60 1.03898 59.5325 0.779236 59.0909 0.779236ZM50.3377 46.3637H14.7792V33.8701H17.6883H50.3377V46.3637ZM57.8961 31.6883H18.5974V2.49352H57.8961V31.6883Z"
		fill="#6C3BFF" />
	<path
		d="M26.6234 14.1818H34.4675C35.2987 14.1818 35.7403 13.7143 35.7403 13.2727C35.7403 12.6234 35.0909 12.3636 34.4675 12.3636H26.6234C25.7922 12.3636 25.3506 12.8312 25.3506 13.2727C25.3506 13.7143 26 14.1818 26.6234 14.1818Z"
		fill="#6C3BFF" />
	<path
		d="M29.7143 17.2727C29.7143 17.7403 30.1818 18.3636 30.6234 18.3636H47.4805C48.1299 18.3636 48.3896 17.8961 48.3896 17.4546C48.3896 16.987 47.9221 16.3636 47.4805 16.3636H30.6494C30 16.3636 29.7143 16.8312 29.7143 17.2727Z"
		fill="#6C3BFF" />
	<path
		d="M26.4416 18.3637C26.8052 18.3637 27.0909 18.1818 27.2727 18.0779C27.4545 17.974 27.5584 17.6104 27.5584 17.2468C27.5584 16.9611 27.3766 16.5974 27.2727 16.4156C26.9091 16.2338 26.1818 16.2338 25.6364 16.5195C25.4545 16.7013 25.3506 16.987 25.3506 17.3507C25.3506 17.6364 25.5325 18 25.6364 18.1818C25.8182 18.3637 26.0779 18.3637 26.4416 18.3637Z"
		fill="#6C3BFF" />
	<path
		d="M47.5065 21.1169H30.6494C30 21.1169 29.7403 21.5844 29.7403 22.026C29.7403 22.6753 30.2078 22.9351 30.6494 22.9351H47.5065C48.1558 22.9351 48.4156 22.4675 48.4156 22.026C48.4156 21.5584 47.974 21.1169 47.5065 21.1169Z"
		fill="#6C3BFF" />
	<path
		d="M26.4416 23.1169C26.8052 23.1169 27.0909 22.9351 27.2727 22.8312C27.4545 22.6494 27.5584 22.3637 27.5584 22C27.5584 21.6364 27.3766 21.3507 27.2727 21.1689C26.9091 20.8832 26.1818 20.8832 25.6364 21.1689C25.5325 21.3507 25.3506 21.6364 25.3506 22C25.3506 22.3637 25.5325 22.6494 25.6364 22.8312C25.8182 23.013 26.0779 23.1169 26.4416 23.1169Z"
		fill="#6C3BFF" />
	<path
		d="M25.6104 41.1688H42.4675C43.1169 41.1688 43.3766 40.7013 43.3766 40.2597C43.5584 39.7922 43.0909 39.3506 42.4675 39.3506H25.6104C24.961 39.3506 24.7013 39.8182 24.7013 40.2597C24.7013 40.8831 25.1688 41.1688 25.6104 41.1688Z"
		fill="#6C3BFF" />
	<path
		d="M21.6104 41.5325C21.8961 41.5325 22.2597 41.3506 22.4416 41.2468C22.6234 41.0649 22.7273 40.7792 22.7273 40.4156C22.7273 40.0519 22.5455 39.7662 22.4416 39.5844C21.8961 39.1169 21.1688 39.1169 20.8052 39.5844C20.6234 39.7662 20.5195 40.0519 20.5195 40.4156C20.5195 40.7792 20.7013 41.0649 20.8052 41.2468C20.961 41.4286 21.2468 41.5325 21.6104 41.5325Z"
		fill="#6C3BFF" />
</svg>
