<?xml version="1.0" encoding="utf-8"?>
<!-- Generator: Adobe Illustrator 24.2.1, SVG Export Plug-In . SVG Version: 6.00 Build 0)  -->
<svg version="1.1" id="Layer_1" xmlns="http://www.w3.org/2000/svg" xmlns:xlink="http://www.w3.org/1999/xlink" x="0px" y="0px"
	 viewBox="0 0 231 231" style="enable-background:new 0 0 231 231;" xml:space="preserve">
<style type="text/css">
	.st0{fill:url(#SVGID_1_);}
	.st1{fill:url(#SVGID_2_);}
	.st2{fill:url(#SVGID_3_);}
	.st3{fill:url(#SVGID_4_);}
	.st4{fill:url(#SVGID_5_);}
	.st5{fill:url(#SVGID_6_);}
	.st6{fill:url(#SVGID_7_);}
	.st7{fill:url(#SVGID_8_);}
	.st8{fill:url(#SVGID_9_);}
	.st9{fill:url(#SVGID_10_);}
</style>
<g>
	<linearGradient id="SVGID_1_" gradientUnits="userSpaceOnUse" x1="-15.9029" y1="114.0958" x2="266.5896" y2="23.0022">
		<stop  offset="0" style="stop-color:#1A6DFF"/>
		<stop  offset="1" style="stop-color:#C822FF"/>
	</linearGradient>
	<path class="st0" d="M52,97.3c0-1.8-1.1-3.5-3.5-3.5H23.9c-2.5,0-3.5,1.8-3.5,3.5c0,1.8,1.8,3.5,3.5,3.5h24.6
		C50.9,100.8,52,99.1,52,97.3z"/>
	<linearGradient id="SVGID_2_" gradientUnits="userSpaceOnUse" x1="8.192" y1="188.8171" x2="290.6845" y2="97.7235">
		<stop  offset="0" style="stop-color:#1A6DFF"/>
		<stop  offset="1" style="stop-color:#C822FF"/>
	</linearGradient>
	<path class="st1" d="M30.9,183H20v-10.9c0-1.8-1.1-3.2-3.2-3.2c-1.8,0-3.2,1.1-3.2,3.2V183H3.2C1.4,183,0,184,0,186.1
		c0,1.8,1.1,3.2,3.2,3.2h10.5v10.5c0,1.8,1.1,3.2,3.2,3.2c2.1,0.4,3.2-1.4,3.2-3.2v-10.5h10.9c1.8,0,3.2-1.1,3.2-3.2
		C34.1,184,32.6,183,30.9,183z"/>
	<linearGradient id="SVGID_3_" gradientUnits="userSpaceOnUse" x1="1.5294" y1="168.1554" x2="284.0219" y2="77.0618">
		<stop  offset="0" style="stop-color:#1A6DFF"/>
		<stop  offset="1" style="stop-color:#C822FF"/>
	</linearGradient>
	<path class="st2" d="M227.5,33.8H68.1c-2.5,0-3.5,1.8-3.5,3.5v116.9H52.7c-2.5,0-3.5,1.8-3.5,3.5v56.5c-0.7,1.8,1.1,3.5,3.5,3.5
		H198c2.5,0,3.5-1.8,3.5-3.5v-53h26c2.5,0,3.5-1.8,3.5-3.5V37.3C231,34.8,229.2,33.8,227.5,33.8z M193.8,209.3H56.9v-48.1h11.2
		h125.7V209.3z M222.9,152.8H71.6V40.4h151.3V152.8z"/>
	<linearGradient id="SVGID_4_" gradientUnits="userSpaceOnUse" x1="-12.7433" y1="123.894" x2="269.7492" y2="32.8004">
		<stop  offset="0" style="stop-color:#1A6DFF"/>
		<stop  offset="1" style="stop-color:#C822FF"/>
	</linearGradient>
	<path class="st3" d="M102.5,85.4h30.2c3.2,0,4.9-1.8,4.9-3.5c0-2.5-2.5-3.5-4.9-3.5h-30.2c-3.2,0-4.9,1.8-4.9,3.5
		S100.1,85.4,102.5,85.4z"/>
	<linearGradient id="SVGID_5_" gradientUnits="userSpaceOnUse" x1="-5.0373" y1="147.7915" x2="277.4553" y2="56.6979">
		<stop  offset="0" style="stop-color:#1A6DFF"/>
		<stop  offset="1" style="stop-color:#C822FF"/>
	</linearGradient>
	<path class="st4" d="M114.4,97.3c0,1.8,1.8,4.2,3.5,4.2h64.9c2.5,0,3.5-1.8,3.5-3.5c0-1.8-1.8-4.2-3.5-4.2H118
		C115.5,93.8,114.4,95.6,114.4,97.3z"/>
	<linearGradient id="SVGID_6_" gradientUnits="userSpaceOnUse" x1="-9.6434" y1="133.5074" x2="272.8492" y2="42.4138">
		<stop  offset="0" style="stop-color:#1A6DFF"/>
		<stop  offset="1" style="stop-color:#C822FF"/>
	</linearGradient>
	<path class="st5" d="M101.8,101.5c1.4,0,2.5-0.7,3.2-1.1c0.7-0.4,1.1-1.8,1.1-3.2c0-1.1-0.7-2.5-1.1-3.2c-1.4-0.7-4.2-0.7-6.3,0.4
		c-0.7,0.7-1.1,1.8-1.1,3.2c0,1.1,0.7,2.5,1.1,3.2C99.4,101.5,100.4,101.5,101.8,101.5z"/>
	<linearGradient id="SVGID_7_" gradientUnits="userSpaceOnUse" x1="0.1924" y1="164.0094" x2="282.6849" y2="72.9158">
		<stop  offset="0" style="stop-color:#1A6DFF"/>
		<stop  offset="1" style="stop-color:#C822FF"/>
	</linearGradient>
	<path class="st6" d="M182.9,112.1H118c-2.5,0-3.5,1.8-3.5,3.5c0,2.5,1.8,3.5,3.5,3.5h64.9c2.5,0,3.5-1.8,3.5-3.5
		C186.4,113.8,184.7,112.1,182.9,112.1z"/>
	<linearGradient id="SVGID_8_" gradientUnits="userSpaceOnUse" x1="-4.3622" y1="149.8848" x2="278.1303" y2="58.7912">
		<stop  offset="0" style="stop-color:#1A6DFF"/>
		<stop  offset="1" style="stop-color:#C822FF"/>
	</linearGradient>
	<path class="st7" d="M101.8,119.8c1.4,0,2.5-0.7,3.2-1.1c0.7-0.7,1.1-1.8,1.1-3.2c0-1.4-0.7-2.5-1.1-3.2c-1.4-1.1-4.2-1.1-6.3,0
		c-0.4,0.7-1.1,1.8-1.1,3.2c0,1.4,0.7,2.5,1.1,3.2C99.4,119.4,100.4,119.8,101.8,119.8z"/>
	<linearGradient id="SVGID_9_" gradientUnits="userSpaceOnUse" x1="18.8823" y1="221.9691" x2="301.3748" y2="130.8755">
		<stop  offset="0" style="stop-color:#1A6DFF"/>
		<stop  offset="1" style="stop-color:#C822FF"/>
	</linearGradient>
	<path class="st8" d="M98.6,189.3h64.9c2.5,0,3.5-1.8,3.5-3.5c0.7-1.8-1.1-3.5-3.5-3.5H98.6c-2.5,0-3.5,1.8-3.5,3.5
		C95.1,188.2,96.9,189.3,98.6,189.3z"/>
	<linearGradient id="SVGID_10_" gradientUnits="userSpaceOnUse" x1="14.517" y1="208.4317" x2="297.0095" y2="117.3381">
		<stop  offset="0" style="stop-color:#1A6DFF"/>
		<stop  offset="1" style="stop-color:#C822FF"/>
	</linearGradient>
	<path class="st9" d="M83.2,190.7c1.1,0,2.5-0.7,3.2-1.1c0.7-0.7,1.1-1.8,1.1-3.2c0-1.4-0.7-2.5-1.1-3.2c-2.1-1.8-4.9-1.8-6.3,0
		c-0.7,0.7-1.1,1.8-1.1,3.2c0,1.4,0.7,2.5,1.1,3.2C80.7,190.3,81.8,190.7,83.2,190.7z"/>
</g>
<desc>Created with Sketch.</desc>
</svg>
