<svg width="60" height="60" viewBox="0 0 60 60" fill="none" xmlns="http://www.w3.org/2000/svg">
	<path
		d="M6.25 7.5C6.94036 7.5 7.5 6.94036 7.5 6.25C7.5 5.55964 6.94036 5 6.25 5C5.55964 5 5 5.55964 5 6.25C5 6.94036 5.55964 7.5 6.25 7.5Z"
		fill="#6C3BFF" />
	<path
		d="M10 7.5C10.6904 7.5 11.25 6.94036 11.25 6.25C11.25 5.55964 10.6904 5 10 5C9.30964 5 8.75 5.55964 8.75 6.25C8.75 6.94036 9.30964 7.5 10 7.5Z"
		fill="#6C3BFF" />
	<path
		d="M13.75 7.5C14.4404 7.5 15 6.94036 15 6.25C15 5.55964 14.4404 5 13.75 5C13.0596 5 12.5 5.55964 12.5 6.25C12.5 6.94036 13.0596 7.5 13.75 7.5Z"
		fill="#6C3BFF" />
	<path
		d="M56.25 0H3.75C2.75544 0 1.80161 0.395088 1.09835 1.09835C0.395088 1.80161 0 2.75544 0 3.75V11.25C0 11.5815 0.131696 11.8995 0.366117 12.1339C0.600537 12.3683 0.918479 12.5 1.25 12.5H63.75C64.0815 12.5 64.3995 12.3683 64.6339 12.1339C64.8683 11.8995 65 11.5815 65 11.25C65 10.9185 64.8683 10.6005 64.6339 10.3661C64.3995 10.1317 64.0815 10 63.75 10H2.5V3.75C2.5 3.41848 2.6317 3.10054 2.86612 2.86612C3.10054 2.6317 3.41848 2.5 3.75 2.5H56.25C56.5815 2.5 56.8995 2.6317 57.1339 2.86612C57.3683 3.10054 57.5 3.41848 57.5 3.75V56.25C57.5 56.5815 57.3683 56.8995 57.1339 57.1339C56.8995 57.3683 56.5815 57.5 56.25 57.5H3.75C3.41848 57.5 3.10054 57.3683 2.86612 57.1339C2.6317 56.8995 2.5 56.5815 2.5 56.25V10.25C2.5 9.91848 2.3683 9.60054 2.13388 9.36612C1.89946 9.1317 1.58152 9 1.25 9C0.918479 9 0.600537 9.1317 0.366117 9.36612C0.131696 9.60054 0 9.91848 0 10.25V56.25C0 57.2446 0.395088 58.1984 1.09835 58.9016C1.80161 59.6049 2.75544 60 3.75 60H56.25C57.2446 60 58.1984 59.6049 58.9016 58.9016C59.6049 58.1984 60 57.2446 60 56.25V3.75C60 2.75544 59.6049 1.80161 58.9016 1.09835C58.1984 0.395088 57.2446 0 56.25 0Z"
		fill="#6C3BFF" />
	<path fill-rule="evenodd" clip-rule="evenodd"
		d="M38.0627 19C32.5081 19 28 23.5081 28 29.0627C28 34.6173 32.5081 39.1254 38.0627 39.1254C43.6173 39.1254 48.1254 34.6173 48.1254 29.0627C48.1254 23.5081 43.6173 19 38.0627 19ZM38.0627 21.8751C42.0303 21.8751 45.2503 25.0951 45.2503 29.0627C45.2503 33.0303 42.0303 36.2503 38.0627 36.2503C34.0951 36.2503 30.8751 33.0303 30.8751 29.0627C30.8751 25.0951 34.0951 21.8751 38.0627 21.8751Z"
		fill="#6C3BFF" />
	<path fill-rule="evenodd" clip-rule="evenodd"
		d="M43.7555 36.787L48.5472 41.5787C49.1069 42.1403 50.0193 42.1403 50.5789 41.5787C51.1405 41.0191 51.1405 40.1067 50.5789 39.547L45.7872 34.7553C45.2275 34.1937 44.3152 34.1937 43.7555 34.7553C43.1939 35.3149 43.1939 36.2273 43.7555 36.787Z"
		fill="#6C3BFF" />
	<path
		d="M22.5473 31.0413H11.8467C11.736 31.04 11.6261 31.0608 11.5234 31.1023C11.4208 31.1438 11.3273 31.2053 11.2486 31.2832C11.1698 31.361 11.1073 31.4538 11.0646 31.556C11.022 31.6582 11 31.7678 11 31.8786C11 31.9893 11.022 32.099 11.0646 32.2012C11.1073 32.3034 11.1698 32.3961 11.2486 32.474C11.3273 32.5519 11.4208 32.6134 11.5234 32.6549C11.6261 32.6964 11.736 32.7172 11.8467 32.7159H22.5473C22.7677 32.7135 22.9783 32.6242 23.1333 32.4674C23.2884 32.3106 23.3753 32.0991 23.3753 31.8786C23.3753 31.6581 23.2884 31.4465 23.1333 31.2898C22.9783 31.133 22.7677 31.0437 22.5473 31.0413Z"
		fill="#6C3BFF" />
	<path
		d="M23.3845 35.5758C23.3846 35.4658 23.3629 35.3569 23.3208 35.2553C23.2788 35.1538 23.2171 35.0615 23.1393 34.9837C23.0616 34.9059 22.9693 34.8443 22.8677 34.8022C22.7661 34.7601 22.6572 34.7385 22.5473 34.7385H11.8467C11.6247 34.7385 11.4117 34.8267 11.2547 34.9837C11.0977 35.1408 11.0095 35.3537 11.0095 35.5758C11.0095 35.7978 11.0977 36.0108 11.2547 36.1678C11.4117 36.3248 11.6247 36.4131 11.8467 36.4131H22.5473C22.7693 36.4131 22.9823 36.3248 23.1393 36.1678C23.2963 36.0108 23.3845 35.7978 23.3845 35.5758Z"
		fill="#6C3BFF" />
	<path
		d="M11.8467 38.4357C11.736 38.4345 11.6261 38.4552 11.5234 38.4968C11.4208 38.5383 11.3273 38.5998 11.2486 38.6776C11.1698 38.7555 11.1073 38.8482 11.0646 38.9504C11.022 39.0526 11 39.1623 11 39.2731C11 39.3838 11.022 39.4935 11.0646 39.5957C11.1073 39.6979 11.1698 39.7906 11.2486 39.8685C11.3273 39.9464 11.4208 40.0078 11.5234 40.0494C11.6261 40.0909 11.736 40.1116 11.8467 40.1104H18.3402C18.5606 40.1079 18.7712 40.0186 18.9262 39.8619C19.0812 39.7051 19.1682 39.4935 19.1682 39.2731C19.1682 39.0526 19.0812 38.841 18.9262 38.6843C18.7712 38.5275 18.5606 38.4382 18.3402 38.4357H11.8467Z"
		fill="#6C3BFF" />
	<path
		d="M12.5455 29.0337H17.0306C17.4377 29.0331 17.828 28.8711 18.1158 28.5833C18.4037 28.2954 18.5657 27.9052 18.5662 27.4981V23.0126C18.5657 22.6055 18.4037 22.2152 18.1158 21.9273C17.828 21.6394 17.4377 21.4775 17.0306 21.4769H12.5455C12.1384 21.4775 11.7481 21.6394 11.4603 21.9273C11.1724 22.2152 11.0104 22.6055 11.0099 23.0126V27.4976C11.0104 27.9048 11.1723 28.2952 11.4602 28.5831C11.748 28.8711 12.1383 29.0331 12.5455 29.0337ZM12.6841 23.1512H16.892V27.359H12.6841V23.1512Z"
		fill="#6C3BFF" />
</svg>
