<svg width="57" height="56" viewBox="0 0 57 56" fill="none" xmlns="http://www.w3.org/2000/svg">
	<path
		d="M2.82857 2.68571H34.6286C35.3143 2.68571 35.8286 2.17142 35.8286 1.48571C35.8286 0.799991 35.3143 0.285706 34.6286 0.285706H2.82857C1.2 0.285706 0 1.65713 0 3.02856V12.7143C0 13.5714 0.342857 14.2571 0.857143 14.8571C1.37143 15.3714 2.22857 15.7143 3 15.7143H7.2C8.74286 15.7143 10.0286 14.3428 10.0286 12.8857V10.9143H22.5429V46.0571H13.0286C11.4857 46.0571 10.2 47.4286 10.2 48.8857V53.0857C10.2 54.6286 11.5714 55.9143 13.0286 55.9143H24.7714C25.4571 55.9143 25.9714 55.4 25.9714 54.7143C25.9714 54.0286 25.4571 53.5143 24.7714 53.5143H13.0286C12.8571 53.5143 12.6857 53.3428 12.6857 53.1714V48.9714C12.6857 48.8 12.8571 48.6286 13.0286 48.6286H23.7429C24.4286 48.6286 24.9429 48.1143 24.9429 47.4286V9.54285C24.9429 8.85713 24.4286 8.34285 23.7429 8.34285H8.57143C7.88571 8.34285 7.37143 8.85713 7.37143 9.54285V12.7143C7.37143 12.8857 7.2 13.0571 7.02857 13.0571H2.82857C2.65714 13.0571 2.65714 12.8857 2.48571 12.8857C2.48571 12.8857 2.31429 12.7143 2.31429 12.5428V2.85713C2.31429 3.02856 2.48571 2.68571 2.82857 2.68571Z"
		fill="#6C3BFF" />
	<path
		d="M42 46.1429H32.4857V11H45V12.9714C45 14.5143 46.3714 15.8 47.8286 15.8H52.0286C53.5714 15.8 54.8571 14.4286 54.8571 12.9714V3.28572C54.8571 1.74287 53.4857 0.457153 52.0286 0.457153H39.8571C39.1714 0.457153 38.6571 0.971439 38.6571 1.65715C38.6571 2.34287 39.1714 2.85715 39.8571 2.85715H51.9429C52.1143 2.85715 52.2857 3.02858 52.2857 3.20001V12.8857C52.2857 13.0572 52.1143 13.2286 51.9429 13.2286H47.7429C47.5714 13.2286 47.4 13.0572 47.4 12.8857V9.7143C47.4 9.02858 46.8857 8.5143 46.2 8.5143H31.2857C30.6 8.5143 30.0857 9.02858 30.0857 9.7143V47.3429C30.0857 48.0286 30.6 48.5429 31.2857 48.5429H42C42.1714 48.5429 42.3429 48.7143 42.3429 48.8857V53.0857C42.3429 53.2572 42.1714 53.4286 42 53.4286H30C29.3143 53.4286 28.8 53.9429 28.8 54.6286C28.8 55.3143 29.3143 55.8286 30 55.8286H41.7429C43.2857 55.8286 44.5714 54.4572 44.5714 53V48.8C44.8286 47.5143 43.5429 46.1429 42 46.1429Z"
		fill="#6C3BFF" />
	<path
		d="M43.5429 34.1429H44.4C45.0857 34.1429 45.6 33.6286 45.6 32.9429C45.6 32.2571 45.0857 31.7429 44.4 31.7429H43.5429C42.8571 31.7429 42.3429 32.2571 42.3429 32.9429C42.3429 33.6286 42.8571 34.1429 43.5429 34.1429Z"
		fill="#6C3BFF" />
	<path
		d="M55.0286 31.7429H48C47.3143 31.7429 46.8 32.2571 46.8 32.9429C46.8 33.6286 47.3143 34.1429 48 34.1429H55.0286C55.7143 34.1429 56.2286 33.6286 56.2286 32.9429C56.2286 32.2571 55.7143 31.7429 55.0286 31.7429Z"
		fill="#6C3BFF" />
	<path
		d="M43.5429 38.3429H54.7714C55.4572 38.3429 55.9714 37.8286 55.9714 37.1429C55.9714 36.4572 55.4572 35.9429 54.7714 35.9429H43.5429C42.8571 35.9429 42.3429 36.4572 42.3429 37.1429C42.3429 37.8286 42.8571 38.3429 43.5429 38.3429Z"
		fill="#6C3BFF" />
	<path
		d="M56.2286 41.1714C56.2286 40.4857 55.7143 39.9714 55.0286 39.9714H43.5429C42.8571 39.9714 42.3429 40.4857 42.3429 41.1714C42.3429 41.8571 42.8571 42.3714 43.5429 42.3714H54.7714C55.7143 42.6286 56.2286 41.8571 56.2286 41.1714Z"
		fill="#6C3BFF" />
</svg>
