<svg width="60" height="60" viewBox="0 0 60 60" fill="none" xmlns="http://www.w3.org/2000/svg">
	<path
		d="M54.1406 4.6875H35.2891C34.642 4.6875 34.1173 5.21215 34.1173 5.85938C34.1173 6.5066 34.642 7.03125 35.2891 7.03125H54.1406C56.0791 7.03125 57.6562 8.60836 57.6562 10.5469V38.9062H2.34375V10.5469C2.34375 8.60836 3.92086 7.03125 5.85938 7.03125H24.7423C25.3894 7.03125 25.9141 6.5066 25.9141 5.85938C25.9141 5.21215 25.3894 4.6875 24.7423 4.6875H5.85938C2.62852 4.6875 0 7.31602 0 10.5469V49.4531C0 52.684 2.62852 55.3125 5.85938 55.3125H54.1406C57.3715 55.3125 60 52.684 60 49.4531V10.5469C60 7.31602 57.3715 4.6875 54.1406 4.6875ZM54.1406 52.9688H5.85938C3.92086 52.9688 2.34375 51.3916 2.34375 49.4531V41.25H57.6562V49.4531C57.6562 51.3916 56.0791 52.9688 54.1406 52.9688Z"
		fill="#6C3BFF" />
	<path
		d="M11.71 43.5938C9.77145 43.5938 8.19434 45.1709 8.19434 47.1094C8.19434 49.0479 9.77145 50.625 11.71 50.625C13.6485 50.625 15.2256 49.0479 15.2256 47.1094C15.2256 45.1709 13.6485 43.5938 11.71 43.5938ZM11.71 48.2812C11.0638 48.2812 10.5381 47.7555 10.5381 47.1094C10.5381 46.4632 11.0638 45.9375 11.71 45.9375C12.3562 45.9375 12.8819 46.4632 12.8819 47.1094C12.8819 47.7555 12.356 48.2812 11.71 48.2812Z"
		fill="#6C3BFF" />
	<path
		d="M50.6337 45.9375H21.444C20.7967 45.9375 20.2721 46.4621 20.2721 47.1094C20.2721 47.7566 20.7967 48.2812 21.444 48.2812H50.6337C51.2808 48.2812 51.8056 47.7566 51.8056 47.1094C51.8056 46.4621 51.281 45.9375 50.6337 45.9375Z"
		fill="#6C3BFF" />
	<path
		d="M24.01 19.4153V26.5223C24.01 27.7306 24.6347 28.8126 25.6811 29.4167C26.2043 29.7188 26.7783 29.8698 27.3523 29.8698C27.9262 29.8698 28.5002 29.7188 29.0234 29.4167L35.1781 25.8632C36.2245 25.2591 36.8492 24.177 36.8492 22.9688C36.8492 21.7606 36.2245 20.6785 35.1781 20.0744L29.0234 16.5209C27.9772 15.9168 26.7278 15.9168 25.6812 16.5209C24.6347 17.125 24.01 18.2071 24.01 19.4153ZM26.3538 19.4153C26.3538 18.895 26.703 18.6373 26.853 18.5506C26.9443 18.498 27.1268 18.4132 27.3574 18.4132C27.5061 18.4132 27.6748 18.4486 27.8515 18.5506L34.0062 22.1041C34.4568 22.3642 34.5054 22.7955 34.5054 22.9688C34.5054 23.1421 34.4568 23.5733 34.0062 23.8335L27.8515 27.387C27.4008 27.6469 27.0032 27.4736 26.8531 27.387C26.7031 27.3003 26.3539 27.0426 26.3539 26.5223V19.4153H26.3538Z"
		fill="#6C3BFF" />
	<path
		d="M30.0153 7.03125C30.3235 7.03125 30.6258 6.90586 30.8438 6.68789C31.0616 6.46992 31.1871 6.16758 31.1871 5.85938C31.1871 5.55117 31.0617 5.24883 30.8438 5.03086C30.6258 4.81289 30.3235 4.6875 30.0153 4.6875C29.7071 4.6875 29.4047 4.81289 29.1856 5.03086C28.9676 5.24883 28.8434 5.55117 28.8434 5.85938C28.8434 6.16758 28.9676 6.46992 29.1856 6.68789C29.4047 6.90586 29.7071 7.03125 30.0153 7.03125Z"
		fill="#6C3BFF" />
</svg>
