<svg viewBox="0 0 60 60" fill="none" xmlns="http://www.w3.org/2000/svg"><path d="M30.384 22.561C27.0039 22.561 24.2637 25.3011 24.2637 28.6814C24.2637 32.0615 27.0038 34.8017 30.384 34.8017C33.7641 34.8017 36.5044 32.0616 36.5044 28.6814C36.5044 25.3011 33.7643 22.561 30.384 22.561ZM30.384 31.8871C28.6134 31.8871 27.1781 30.4518 27.1781 28.6812C27.1781 26.9107 28.6134 25.4753 30.384 25.4753C32.1546 25.4753 33.5899 26.9107 33.5899 28.6812C33.5899 30.4518 32.1546 31.8871 30.384 31.8871Z" fill="url(#paint0_linear_588_23)"></path><path d="M54.7933 8.57168L15.0114 4.05443C13.4674 3.83492 11.9031 4.28565 10.7126 5.29311C9.52235 6.21606 8.75936 7.58416 8.59968 9.08182L7.87114 15.0564H5.61231C2.4064 15.0564 0.00196902 17.8979 0.00196902 21.1038V50.9038C-0.0787783 53.9609 2.33402 56.5048 5.39126 56.5856C5.4649 56.5875 5.53867 56.5879 5.61231 56.5869H45.6128C48.8187 56.5869 51.7331 54.1097 51.7331 50.9038V49.7381C52.7271 49.546 53.67 49.149 54.5018 48.5723C55.6824 47.5784 56.4382 46.1708 56.6148 44.6379L59.9664 15.0564C60.3081 11.8431 58.0022 8.95254 54.7933 8.57168ZM48.8187 50.9038C48.8187 52.5068 47.2158 53.6725 45.6128 53.6725H5.61231C4.16429 53.715 2.95601 52.5757 2.91348 51.1276C2.91125 51.053 2.91222 50.9784 2.91641 50.9038V45.5121L14.2099 37.206C15.5665 36.1644 17.4774 36.257 18.7273 37.4246L26.6691 44.4192C27.8752 45.4318 29.3933 45.9979 30.968 46.0221C32.1991 46.0372 33.41 45.7093 34.4653 45.0749L48.8188 36.7688V50.9038H48.8187ZM48.8187 33.3444L32.935 42.5977C31.5711 43.4057 29.8447 43.2594 28.6362 42.2334L20.6216 35.1659C18.3245 33.1921 14.9671 33.071 12.534 34.8744L2.91641 41.869V21.1038C2.91641 19.5009 4.00935 17.9709 5.61231 17.9709H45.6128C47.3254 18.0419 48.7084 19.3935 48.8187 21.1038V33.3444V33.3444ZM57.0548 14.663C57.0538 14.6726 57.053 14.6824 57.0519 14.692L53.6274 44.2735C53.6333 45.0405 53.2835 45.7669 52.6802 46.2407C52.3887 46.5322 51.733 46.6779 51.733 46.8236V21.1038C51.6179 17.7845 48.9331 15.1316 45.6127 15.0564H10.7854L11.4412 9.3733C11.5834 8.63737 11.9682 7.97047 12.5341 7.47887C13.1731 7.03706 13.9457 6.83108 14.72 6.89593L54.4292 11.4861C56.0313 11.6383 57.207 13.0606 57.0548 14.663Z" fill="url(#paint1_linear_588_23)"></path><defs><linearGradient id="paint0_linear_588_23" x1="30.384" y1="22.561" x2="30.384" y2="34.8017" gradientUnits="userSpaceOnUse"><stop stop-color="#246BFF"></stop><stop offset="1" stop-color="#BB25FF"></stop></linearGradient><linearGradient id="paint1_linear_588_23" x1="30" y1="4" x2="30" y2="56.5875" gradientUnits="userSpaceOnUse"><stop stop-color="#246BFF"></stop><stop offset="1" stop-color="#BB25FF"></stop></linearGradient></defs></svg>