<svg width="60" height="60" viewBox="0 0 60 60" fill="none" xmlns="http://www.w3.org/2000/svg">
	<path
		d="M54 7.20001H6C2.7 7.20001 0 9.90001 0 13.2V46.8C0 50.1 2.7 52.8 6 52.8H54C57.3 52.8 60 50.1 60 46.8V13.2C60 9.90001 57.3 7.20001 54 7.20001ZM38.4 50.4H6C4.02 50.4 2.4 48.78 2.4 46.8V13.2C2.4 11.22 4.02 9.60001 6 9.60001H38.4V50.4ZM57.6 46.8C57.6 48.78 55.98 50.4 54 50.4H40.8V9.60001H54C55.98 9.60001 57.6 11.22 57.6 13.2V46.8Z"
		fill="#6C3BFF" />
	<path
		d="M7.2 16.2H8.4C9.06 16.2 9.6 15.66 9.6 15C9.6 14.34 9.06 13.8 8.4 13.8H7.2C6.54 13.8 6 14.34 6 15C6 15.66 6.54 16.2 7.2 16.2Z"
		fill="#6C3BFF" />
	<path
		d="M12.5999 16.2H13.7999C14.4599 16.2 14.9999 15.66 14.9999 15C14.9999 14.34 14.4599 13.8 13.7999 13.8H12.5999C11.9399 13.8 11.3999 14.34 11.3999 15C11.3999 15.66 11.9399 16.2 12.5999 16.2Z"
		fill="#6C3BFF" />
	<path
		d="M18 16.2H19.2C19.86 16.2 20.4 15.66 20.4 15C20.4 14.34 19.86 13.8 19.2 13.8H18C17.34 13.8 16.8 14.34 16.8 15C16.8 15.66 17.34 16.2 18 16.2Z"
		fill="#6C3BFF" />
	<path
		d="M51.0001 17.4H46.8001C46.1401 17.4 45.6001 17.94 45.6001 18.6C45.6001 19.26 46.1401 19.8 46.8001 19.8H51.0001C51.6601 19.8 52.2001 19.26 52.2001 18.6C52.2001 17.94 51.6601 17.4 51.0001 17.4Z"
		fill="#6C3BFF" />
	<path
		d="M51.0001 23.4H46.8001C46.1401 23.4 45.6001 23.94 45.6001 24.6C45.6001 25.26 46.1401 25.8 46.8001 25.8H51.0001C51.6601 25.8 52.2001 25.26 52.2001 24.6C52.2001 23.94 51.6601 23.4 51.0001 23.4Z"
		fill="#6C3BFF" />
	<path
		d="M51.0001 29.4H46.8001C46.1401 29.4 45.6001 29.94 45.6001 30.6C45.6001 31.26 46.1401 31.8 46.8001 31.8H51.0001C51.6601 31.8 52.2001 31.26 52.2001 30.6C52.2001 29.94 51.6601 29.4 51.0001 29.4Z"
		fill="#6C3BFF" />
	<path
		d="M7.30005 21.6C7.30005 21.241 7.59106 20.95 7.95005 20.95H32.7C33.059 20.95 33.35 21.241 33.35 21.6V44.7C33.35 45.059 33.059 45.35 32.7 45.35H7.95005C7.59106 45.35 7.30005 45.059 7.30005 44.7V21.6Z"
		stroke="#6C3BFF" stroke-width="2" />
	<path
		d="M12.5999 27.4H13.7999C14.4599 27.4 14.9999 26.86 14.9999 26.2C14.9999 25.54 14.4599 25 13.7999 25H12.5999C11.9399 25 11.3999 25.54 11.3999 26.2C11.3999 26.86 11.9399 27.4 12.5999 27.4Z"
		fill="#6C3BFF" />
	<path
		d="M18 27.4H19.2C19.86 27.4 20.4 26.86 20.4 26.2C20.4 25.54 19.86 25 19.2 25H18C17.34 25 16.8 25.54 16.8 26.2C16.8 26.86 17.34 27.4 18 27.4Z"
		fill="#6C3BFF" />
	<path
		d="M23.2 27.4H24.4C25.06 27.4 25.6 26.86 25.6 26.2C25.6 25.54 25.06 25 24.4 25H23.2C22.54 25 22 25.54 22 26.2C22 26.86 22.54 27.4 23.2 27.4Z"
		fill="#6C3BFF" />
</svg>
