<?xml version="1.0" encoding="utf-8"?>
<!-- Generator: Adobe Illustrator 24.2.1, SVG Export Plug-In . SVG Version: 6.00 Build 0)  -->
<svg version="1.1" id="Layer_1" xmlns="http://www.w3.org/2000/svg" xmlns:xlink="http://www.w3.org/1999/xlink" x="0px" y="0px"
	 viewBox="0 0 66 70" style="enable-background:new 0 0 66 70;" xml:space="preserve">
<style type="text/css">
	.st0{fill:url(#SVGID_1_);}
	.st1{fill:url(#SVGID_2_);}
	.st2{fill:url(#SVGID_3_);}
	.st3{fill:url(#SVGID_4_);}
	.st4{fill:url(#SVGID_5_);}
	.st5{fill:url(#SVGID_6_);}
</style>
<desc>Created with Sketch.</desc>
<g>
	
		<linearGradient id="SVGID_1_" gradientUnits="userSpaceOnUse" x1="11.5739" y1="35.6471" x2="79.1161" y2="35.6471" gradientTransform="matrix(1 0 0 -1 0 72)">
		<stop  offset="0" style="stop-color:#1A6DFF"/>
		<stop  offset="1" style="stop-color:#C822FF"/>
	</linearGradient>
	<path class="st0" d="M3.3,6.7h37.1c0.8,0,1.4-0.6,1.4-1.4c0-0.8-0.6-1.4-1.4-1.4H3.3C1.4,3.9,0,5.5,0,7.1v11.3c0,1,0.4,1.8,1,2.5
		c0.6,0.6,1.6,1,2.5,1h4.9c1.8,0,3.3-1.6,3.3-3.3v-2.3h14.6v41H15.2c-1.8,0-3.3,1.6-3.3,3.3v4.9c0,1.8,1.6,3.3,3.3,3.3h13.7
		c0.8,0,1.4-0.6,1.4-1.4S29.7,66,28.9,66H15.2c-0.2,0-0.4-0.2-0.4-0.4v-4.9c0-0.2,0.2-0.4,0.4-0.4h12.5c0.8,0,1.4-0.6,1.4-1.4V14.7
		c0-0.8-0.6-1.4-1.4-1.4H10c-0.8,0-1.4,0.6-1.4,1.4v3.7c0,0.2-0.2,0.4-0.4,0.4H3.3c-0.2,0-0.2-0.2-0.4-0.2c0,0-0.2-0.2-0.2-0.4V6.9
		C2.7,7.1,2.9,6.7,3.3,6.7z"/>
	
		<linearGradient id="SVGID_2_" gradientUnits="userSpaceOnUse" x1="11.5739" y1="35.5446" x2="79.1161" y2="35.5446" gradientTransform="matrix(1 0 0 -1 0 72)">
		<stop  offset="0" style="stop-color:#1A6DFF"/>
		<stop  offset="1" style="stop-color:#C822FF"/>
	</linearGradient>
	<path class="st1" d="M49,57.4H37.9v-41h14.6v2.3c0,1.8,1.6,3.3,3.3,3.3h4.9c1.8,0,3.3-1.6,3.3-3.3V7.4c0-1.8-1.6-3.3-3.3-3.3H46.5
		c-0.8,0-1.4,0.6-1.4,1.4c0,0.8,0.6,1.4,1.4,1.4h14.1c0.2,0,0.4,0.2,0.4,0.4v11.3c0,0.2-0.2,0.4-0.4,0.4h-4.9
		c-0.2,0-0.4-0.2-0.4-0.4v-3.7c0-0.8-0.6-1.4-1.4-1.4H36.5c-0.8,0-1.4,0.6-1.4,1.4v43.9c0,0.8,0.6,1.4,1.4,1.4H49
		c0.2,0,0.4,0.2,0.4,0.4v4.9c0,0.2-0.2,0.4-0.4,0.4H35c-0.8,0-1.4,0.6-1.4,1.4s0.6,1.4,1.4,1.4h13.7c1.8,0,3.3-1.6,3.3-3.3v-4.9
		C52.3,59,50.8,57.4,49,57.4z"/>
	
		<linearGradient id="SVGID_3_" gradientUnits="userSpaceOnUse" x1="11.5739" y1="30.0108" x2="79.1161" y2="30.0108" gradientTransform="matrix(1 0 0 -1 0 72)">
		<stop  offset="0" style="stop-color:#1A6DFF"/>
		<stop  offset="1" style="stop-color:#C822FF"/>
	</linearGradient>
	<path class="st2" d="M50.8,43.4h1c0.8,0,1.4-0.6,1.4-1.4s-0.6-1.4-1.4-1.4h-1c-0.8,0-1.4,0.6-1.4,1.4C49.4,42.8,50,43.4,50.8,43.4z
		"/>
	
		<linearGradient id="SVGID_4_" gradientUnits="userSpaceOnUse" x1="11.5739" y1="30.0108" x2="79.1161" y2="30.0108" gradientTransform="matrix(1 0 0 -1 0 72)">
		<stop  offset="0" style="stop-color:#1A6DFF"/>
		<stop  offset="1" style="stop-color:#C822FF"/>
	</linearGradient>
	<path class="st3" d="M64.2,40.6H56c-0.8,0-1.4,0.6-1.4,1.4s0.6,1.4,1.4,1.4h8.2c0.8,0,1.4-0.6,1.4-1.4S65,40.6,64.2,40.6z"/>
	
		<linearGradient id="SVGID_5_" gradientUnits="userSpaceOnUse" x1="11.5739" y1="25.0919" x2="79.1161" y2="25.0919" gradientTransform="matrix(1 0 0 -1 0 72)">
		<stop  offset="0" style="stop-color:#1A6DFF"/>
		<stop  offset="1" style="stop-color:#C822FF"/>
	</linearGradient>
	<path class="st4" d="M50.8,48.3h13.1c0.8,0,1.4-0.6,1.4-1.4s-0.6-1.4-1.4-1.4H50.8c-0.8,0-1.4,0.6-1.4,1.4S50,48.3,50.8,48.3z"/>
	
		<linearGradient id="SVGID_6_" gradientUnits="userSpaceOnUse" x1="11.5739" y1="20.362" x2="79.1161" y2="20.362" gradientTransform="matrix(1 0 0 -1 0 72)">
		<stop  offset="0" style="stop-color:#1A6DFF"/>
		<stop  offset="1" style="stop-color:#C822FF"/>
	</linearGradient>
	<path class="st5" d="M65.6,51.6c0-0.8-0.6-1.4-1.4-1.4H50.8c-0.8,0-1.4,0.6-1.4,1.4c0,0.8,0.6,1.4,1.4,1.4h13.1
		C65,53.3,65.6,52.4,65.6,51.6z"/>
</g>
</svg>
