<svg width="68" height="33" viewBox="0 0 68 33" fill="none" xmlns="http://www.w3.org/2000/svg">
	<path fill-rule="evenodd" clip-rule="evenodd" d="M6.09995 3.57854C4.5428 3.57854 3.64995 4.61901 3.64995 5.48568V28.1143C3.64995 28.9809 4.5428 30.0214 6.09995 30.0214H61.9C63.4144 30.0214 64.378 29.0079 64.45 28.0707V5.48568C64.45 4.61901 63.5571 3.57854 62 3.57854H6.09995ZM0.949951 5.48568C0.949951 2.75236 3.4571 0.87854 6.09995 0.87854H62C64.6428 0.87854 67.15 2.75236 67.15 5.48568V28.1517L67.1479 28.1891C67.0004 30.8433 64.5686 32.7214 61.9 32.7214H6.09995C3.4571 32.7214 0.949951 30.8476 0.949951 28.1143V5.48568Z" fill="#6C3BFF"/>
	<path fill-rule="evenodd" clip-rule="evenodd" d="M13.85 16.8C13.85 16.0544 14.4544 15.45 15.2 15.45H50.2999C51.0455 15.45 51.6499 16.0544 51.6499 16.8C51.6499 17.5456 51.0455 18.15 50.2999 18.15H15.2C14.4544 18.15 13.85 17.5456 13.85 16.8Z" fill="#6C3BFF"/>
	</svg>
