<svg width="57" height="58" viewBox="0 0 57 58" fill="none" xmlns="http://www.w3.org/2000/svg">
	<path
		d="M38.4857 35.6857H50.0571V26.2571H38.4857V35.6857ZM40.7143 28.4857H47.5714V33.2857H40.7143V28.4857Z"
		fill="#6C3BFF" />
	<path
		d="M6 26.2571V35.7714H35.8286V26.2571H35.6571H6ZM33.4286 33.2857H8.48571V28.4857H33.4286V33.2857Z"
		fill="#6C3BFF" />
	<path
		d="M55.3714 0.714294H1.2C0.514286 0.714294 0 1.22858 0 1.91429V56.0857C0 56.7714 0.514286 57.2857 1.2 57.2857H55.3714C56.0571 57.2857 56.5714 56.7714 56.5714 56.0857V1.91429C56.5714 1.22858 56.0571 0.714294 55.3714 0.714294ZM2.4 8.08572V3.11429H54.0857V8.08572H2.4ZM2.4 54.8857V10.5714H54.0857V54.8857H2.4Z"
		fill="#6C3BFF" />
	<path d="M6.17142 4.48572H3.77142V6.88572H6.17142V4.48572Z" fill="#6C3BFF" />
	<path d="M9.7714 4.48572H7.3714V6.88572H9.7714V4.48572Z" fill="#6C3BFF" />
	<path d="M13.6286 4.48572H11.2286V6.88572H13.6286V4.48572Z" fill="#6C3BFF" />
</svg>
