<?xml version="1.0" encoding="utf-8"?>
<!-- Generator: Adobe Illustrator 24.2.1, SVG Export Plug-In . SVG Version: 6.00 Build 0)  -->
<svg version="1.1" id="Layer_1" xmlns="http://www.w3.org/2000/svg" xmlns:xlink="http://www.w3.org/1999/xlink" x="0px" y="0px"
	 viewBox="0 0 66 70" style="enable-background:new 0 0 66 70;" xml:space="preserve">
<style type="text/css">
	.st0{fill:url(#SVGID_1_);}
	.st1{fill:url(#SVGID_2_);}
	.st2{fill:url(#SVGID_3_);}
	.st3{fill:url(#SVGID_4_);}
	.st4{fill:url(#SVGID_5_);}
	.st5{fill:url(#SVGID_6_);}
	.st6{fill:url(#SVGID_7_);}
	.st7{fill:url(#SVGID_8_);}
	.st8{fill:url(#SVGID_9_);}
	.st9{fill:url(#SVGID_10_);}
	.st10{fill:url(#SVGID_11_);}
	.st11{fill:url(#SVGID_12_);}
</style>
<desc>Created with Sketch.</desc>
<g>
	<g>
		<linearGradient id="SVGID_1_" gradientUnits="userSpaceOnUse" x1="-9.139" y1="12.355" x2="49.8022" y2="-5.4686">
			<stop  offset="0" style="stop-color:#1A6DFF"/>
			<stop  offset="1" style="stop-color:#C822FF"/>
		</linearGradient>
		<rect x="0.7" y="7.9" class="st0" width="2.2" height="2.2"/>
		<linearGradient id="SVGID_2_" gradientUnits="userSpaceOnUse" x1="-8.762" y1="13.6017" x2="50.1792" y2="-4.2218">
			<stop  offset="0" style="stop-color:#1A6DFF"/>
			<stop  offset="1" style="stop-color:#C822FF"/>
		</linearGradient>
		<rect x="5.2" y="7.9" class="st1" width="2.2" height="2.2"/>
		<linearGradient id="SVGID_3_" gradientUnits="userSpaceOnUse" x1="-8.4017" y1="14.7931" x2="50.5394" y2="-3.0304">
			<stop  offset="0" style="stop-color:#1A6DFF"/>
			<stop  offset="1" style="stop-color:#C822FF"/>
		</linearGradient>
		<rect x="9.5" y="7.9" class="st2" width="2.2" height="2.2"/>
		<linearGradient id="SVGID_4_" gradientUnits="userSpaceOnUse" x1="0.747" y1="45.0474" x2="59.6882" y2="27.2238">
			<stop  offset="0" style="stop-color:#1A6DFF"/>
			<stop  offset="1" style="stop-color:#C822FF"/>
		</linearGradient>
		<path class="st3" d="M39.7,55.2H25c-0.7,0-1.2-0.5-1.2-1.2V16.9c0-0.7,0.5-1.2,1.2-1.2h14.7c0.7,0,1.2,0.5,1.2,1.2v37.3
			C40.8,54.7,40.3,55.2,39.7,55.2L39.7,55.2z M26.2,53.1h12.5v-35H26.2V53.1z"/>
		<linearGradient id="SVGID_5_" gradientUnits="userSpaceOnUse" x1="2.8523" y1="52.0095" x2="61.7935" y2="34.1859">
			<stop  offset="0" style="stop-color:#1A6DFF"/>
			<stop  offset="1" style="stop-color:#C822FF"/>
		</linearGradient>
		<path class="st4" d="M64.8,55.2H50.2c-0.7,0-1.2-0.5-1.2-1.2V16.9c0-0.7,0.5-1.2,1.2-1.2h14.7c0.6,0,1.1,0.5,1.1,1.2v37.3
			C65.8,54.7,65.3,55.2,64.8,55.2L64.8,55.2z M51.2,53.1h12.5v-35H51.2V53.1z"/>
		<linearGradient id="SVGID_6_" gradientUnits="userSpaceOnUse" x1="-1.2973" y1="38.2871" x2="57.6439" y2="20.4636">
			<stop  offset="0" style="stop-color:#1A6DFF"/>
			<stop  offset="1" style="stop-color:#C822FF"/>
		</linearGradient>
		<path class="st5" d="M14.7,55.2H1.2C0.5,55.2,0,54.7,0,54V16.9c0-0.7,0.5-1.2,1.2-1.2h13.5c0.7,0,1.2,0.5,1.2,1.2v37.3
			C15.8,54.7,15.3,55.2,14.7,55.2L14.7,55.2z M2.3,53.1h11.3v-35H2.3V53.1z"/>
		<linearGradient id="SVGID_7_" gradientUnits="userSpaceOnUse" x1="5.8674" y1="61.9803" x2="64.8086" y2="44.1567">
			<stop  offset="0" style="stop-color:#1A6DFF"/>
			<stop  offset="1" style="stop-color:#C822FF"/>
		</linearGradient>
		<rect x="2.3" y="60.4" class="st6" width="10" height="2.2"/>
		<linearGradient id="SVGID_8_" gradientUnits="userSpaceOnUse" x1="7.962" y1="68.9068" x2="66.9031" y2="51.0832">
			<stop  offset="0" style="stop-color:#1A6DFF"/>
			<stop  offset="1" style="stop-color:#C822FF"/>
		</linearGradient>
		<rect x="27.3" y="60.4" class="st7" width="10" height="2.2"/>
		<linearGradient id="SVGID_9_" gradientUnits="userSpaceOnUse" x1="10.0565" y1="75.8333" x2="68.9977" y2="58.0097">
			<stop  offset="0" style="stop-color:#1A6DFF"/>
			<stop  offset="1" style="stop-color:#C822FF"/>
		</linearGradient>
		<rect x="52.3" y="60.4" class="st8" width="10" height="2.2"/>
	</g>
	<linearGradient id="SVGID_10_" gradientUnits="userSpaceOnUse" x1="-0.4547" y1="41.0735" x2="58.4865" y2="23.2499">
		<stop  offset="0" style="stop-color:#1A6DFF"/>
		<stop  offset="1" style="stop-color:#C822FF"/>
	</linearGradient>
	<rect x="6.8" y="34.6" class="st9" width="2.2" height="7.8"/>
	<linearGradient id="SVGID_11_" gradientUnits="userSpaceOnUse" x1="0.6975" y1="44.8837" x2="59.6387" y2="27.0602">
		<stop  offset="0" style="stop-color:#1A6DFF"/>
		<stop  offset="1" style="stop-color:#C822FF"/>
	</linearGradient>
	<rect x="31.3" y="28.1" class="st10" width="2.2" height="14.3"/>
	<linearGradient id="SVGID_12_" gradientUnits="userSpaceOnUse" x1="2.016" y1="49.2437" x2="60.9571" y2="31.4202">
		<stop  offset="0" style="stop-color:#1A6DFF"/>
		<stop  offset="1" style="stop-color:#C822FF"/>
	</linearGradient>
	<rect x="55.8" y="28.1" class="st11" width="2.2" height="9"/>
</g>
</svg>
