<svg width="57" height="48" viewBox="0 0 57 48" fill="none" xmlns="http://www.w3.org/2000/svg">
	<path d="M2.48569 0.771423H0.599976V2.65714H2.48569V0.771423Z" fill="#6C3BFF" />
	<path d="M6.34287 0.771423H4.45715V2.65714H6.34287V0.771423Z" fill="#6C3BFF" />
	<path d="M10.0286 0.771423H8.14288V2.65714H10.0286V0.771423Z" fill="#6C3BFF" />
	<path
		d="M34.0286 41.3143H21.4286C20.8286 41.3143 20.4 40.8857 20.4 40.2857V8.48572C20.4 7.88572 20.8286 7.45715 21.4286 7.45715H34.0286C34.6286 7.45715 35.0572 7.88572 35.0572 8.48572V40.4572C34.9715 40.8857 34.5429 41.3143 34.0286 41.3143ZM22.4572 39.5143H33.1715V9.5143H22.4572V39.5143Z"
		fill="#6C3BFF" />
	<path
		d="M55.5429 41.3143H43.0286C42.4286 41.3143 42 40.8857 42 40.2857V8.48572C42 7.88572 42.4286 7.45715 43.0286 7.45715H55.6286C56.1429 7.45715 56.5714 7.88572 56.5714 8.48572V40.4572C56.4 40.8857 55.9714 41.3143 55.5429 41.3143ZM43.8857 39.5143H54.6V9.5143H43.8857V39.5143Z"
		fill="#6C3BFF" />
	<path
		d="M12.6 41.3143H1.02857C0.428571 41.3143 0 40.8857 0 40.2857V8.48572C0 7.88572 0.428571 7.45715 1.02857 7.45715H12.6C13.2 7.45715 13.6286 7.88572 13.6286 8.48572V40.4572C13.5429 40.8857 13.1143 41.3143 12.6 41.3143ZM1.97143 39.5143H11.6571V9.5143H1.97143V39.5143Z"
		fill="#6C3BFF" />
	<path d="M10.5429 45.7714H1.97144V47.6571H10.5429V45.7714Z" fill="#6C3BFF" />
	<path d="M31.9715 45.7714H23.4V47.6571H31.9715V45.7714Z" fill="#6C3BFF" />
	<path d="M53.4 45.7714H44.8286V47.6571H53.4V45.7714Z" fill="#6C3BFF" />
	<path d="M7.71427 23.6572H5.82855V30.3429H7.71427V23.6572Z" fill="#6C3BFF" />
	<path d="M28.7143 18.0857H26.8286V30.3428H28.7143V18.0857Z" fill="#6C3BFF" />
	<path d="M49.7143 18.0857H47.8286V25.8H49.7143V18.0857Z" fill="#6C3BFF" />
</svg>
