<?xml version="1.0" encoding="utf-8"?>
<!-- Generator: Adobe Illustrator 24.3.0, SVG Export Plug-In . SVG Version: 6.00 Build 0)  -->
<svg version="1.1" id="Layer_1" xmlns="http://www.w3.org/2000/svg" xmlns:xlink="http://www.w3.org/1999/xlink" x="0px" y="0px"
	 viewBox="0 0 66 70" style="enable-background:new 0 0 66 70;" xml:space="preserve">
<style type="text/css">
	.st0{fill:url(#SVGID_1_);}
	.st1{fill:url(#SVGID_2_);}
	.st2{fill:url(#SVGID_3_);}
	.st3{fill:url(#SVGID_4_);}
	.st4{fill:url(#SVGID_5_);}
	.st5{fill:url(#SVGID_6_);}
	.st6{fill:url(#SVGID_7_);}
	.st7{fill:url(#SVGID_8_);}
	.st8{fill:url(#SVGID_9_);}
	.st9{fill:url(#SVGID_10_);}
	.st10{fill:url(#SVGID_11_);}
	.st11{fill:url(#SVGID_12_);}
	.st12{fill:url(#SVGID_13_);}
	.st13{fill:url(#SVGID_14_);}
	.st14{fill:url(#SVGID_15_);}
	.st15{fill:url(#SVGID_16_);}
	.st16{fill:url(#SVGID_17_);}
	.st17{fill:url(#SVGID_18_);}
</style>
<desc>Created with Sketch.</desc>
<g>
	<g>
		<linearGradient id="SVGID_1_" gradientUnits="userSpaceOnUse" x1="-0.1248" y1="35" x2="64.8658" y2="35">
			<stop  offset="0" style="stop-color:#1A6DFF"/>
			<stop  offset="1" style="stop-color:#C822FF"/>
		</linearGradient>
		<path class="st0" d="M60.7,61.1H5.3c-2.9,0-5.3-2.4-5.3-5.3V14.2c0-2.9,2.4-5.3,5.3-5.3h55.4c2.9,0,5.3,2.4,5.3,5.3v41.6
			C66,58.7,63.6,61.1,60.7,61.1z M5.3,11.8c-1.3,0-2.4,1.1-2.4,2.4v41.6c0,1.3,1.1,2.4,2.4,2.4h55.4c1.3,0,2.4-1.1,2.4-2.4V14.2
			c0-1.3-1.1-2.4-2.4-2.4H5.3z"/>
	</g>
	<g>
		<linearGradient id="SVGID_2_" gradientUnits="userSpaceOnUse" x1="-0.1248" y1="16.6199" x2="64.8658" y2="16.6199">
			<stop  offset="0" style="stop-color:#1A6DFF"/>
			<stop  offset="1" style="stop-color:#C822FF"/>
		</linearGradient>
		<circle class="st1" cx="21.5" cy="16.6" r="1.3"/>
		<linearGradient id="SVGID_3_" gradientUnits="userSpaceOnUse" x1="-0.1248" y1="22.5724" x2="64.8658" y2="22.5724">
			<stop  offset="0" style="stop-color:#1A6DFF"/>
			<stop  offset="1" style="stop-color:#C822FF"/>
		</linearGradient>
		<circle class="st2" cx="21.5" cy="22.6" r="1.3"/>
		<linearGradient id="SVGID_4_" gradientUnits="userSpaceOnUse" x1="-0.1248" y1="28.5249" x2="64.8658" y2="28.5249">
			<stop  offset="0" style="stop-color:#1A6DFF"/>
			<stop  offset="1" style="stop-color:#C822FF"/>
		</linearGradient>
		<circle class="st3" cx="21.5" cy="28.5" r="1.3"/>
		<linearGradient id="SVGID_5_" gradientUnits="userSpaceOnUse" x1="-0.1248" y1="34.4774" x2="64.8658" y2="34.4774">
			<stop  offset="0" style="stop-color:#1A6DFF"/>
			<stop  offset="1" style="stop-color:#C822FF"/>
		</linearGradient>
		<circle class="st4" cx="21.5" cy="34.5" r="1.3"/>
		<linearGradient id="SVGID_6_" gradientUnits="userSpaceOnUse" x1="-0.1248" y1="40.4299" x2="64.8658" y2="40.4299">
			<stop  offset="0" style="stop-color:#1A6DFF"/>
			<stop  offset="1" style="stop-color:#C822FF"/>
		</linearGradient>
		<circle class="st5" cx="21.5" cy="40.4" r="1.3"/>
		<linearGradient id="SVGID_7_" gradientUnits="userSpaceOnUse" x1="-0.1248" y1="46.3823" x2="64.8658" y2="46.3823">
			<stop  offset="0" style="stop-color:#1A6DFF"/>
			<stop  offset="1" style="stop-color:#C822FF"/>
		</linearGradient>
		<circle class="st6" cx="21.5" cy="46.4" r="1.3"/>
		<linearGradient id="SVGID_8_" gradientUnits="userSpaceOnUse" x1="-0.1248" y1="52.3348" x2="64.8658" y2="52.3348">
			<stop  offset="0" style="stop-color:#1A6DFF"/>
			<stop  offset="1" style="stop-color:#C822FF"/>
		</linearGradient>
		<circle class="st7" cx="21.5" cy="52.3" r="1.3"/>
	</g>
	<g>
		<linearGradient id="SVGID_9_" gradientUnits="userSpaceOnUse" x1="-0.1248" y1="16.6199" x2="64.8658" y2="16.6199">
			<stop  offset="0" style="stop-color:#1A6DFF"/>
			<stop  offset="1" style="stop-color:#C822FF"/>
		</linearGradient>
		<circle class="st8" cx="43.7" cy="16.6" r="1.3"/>
		<linearGradient id="SVGID_10_" gradientUnits="userSpaceOnUse" x1="-0.1248" y1="22.5724" x2="64.8658" y2="22.5724">
			<stop  offset="0" style="stop-color:#1A6DFF"/>
			<stop  offset="1" style="stop-color:#C822FF"/>
		</linearGradient>
		<circle class="st9" cx="43.7" cy="22.6" r="1.3"/>
		<linearGradient id="SVGID_11_" gradientUnits="userSpaceOnUse" x1="-0.1248" y1="28.5249" x2="64.8658" y2="28.5249">
			<stop  offset="0" style="stop-color:#1A6DFF"/>
			<stop  offset="1" style="stop-color:#C822FF"/>
		</linearGradient>
		<circle class="st10" cx="43.7" cy="28.5" r="1.3"/>
		<linearGradient id="SVGID_12_" gradientUnits="userSpaceOnUse" x1="-0.1248" y1="34.4774" x2="64.8658" y2="34.4774">
			<stop  offset="0" style="stop-color:#1A6DFF"/>
			<stop  offset="1" style="stop-color:#C822FF"/>
		</linearGradient>
		<circle class="st11" cx="43.7" cy="34.5" r="1.3"/>
		<linearGradient id="SVGID_13_" gradientUnits="userSpaceOnUse" x1="-0.1248" y1="40.4299" x2="64.8658" y2="40.4299">
			<stop  offset="0" style="stop-color:#1A6DFF"/>
			<stop  offset="1" style="stop-color:#C822FF"/>
		</linearGradient>
		<circle class="st12" cx="43.7" cy="40.4" r="1.3"/>
		<linearGradient id="SVGID_14_" gradientUnits="userSpaceOnUse" x1="-0.1248" y1="46.3823" x2="64.8658" y2="46.3823">
			<stop  offset="0" style="stop-color:#1A6DFF"/>
			<stop  offset="1" style="stop-color:#C822FF"/>
		</linearGradient>
		<circle class="st13" cx="43.7" cy="46.4" r="1.3"/>
		<linearGradient id="SVGID_15_" gradientUnits="userSpaceOnUse" x1="-0.1248" y1="52.3348" x2="64.8658" y2="52.3348">
			<stop  offset="0" style="stop-color:#1A6DFF"/>
			<stop  offset="1" style="stop-color:#C822FF"/>
		</linearGradient>
		<circle class="st14" cx="43.7" cy="52.3" r="1.3"/>
	</g>
	<linearGradient id="SVGID_16_" gradientUnits="userSpaceOnUse" x1="-0.1248" y1="35.766" x2="64.8658" y2="35.766">
		<stop  offset="0" style="stop-color:#1A6DFF"/>
		<stop  offset="1" style="stop-color:#C822FF"/>
	</linearGradient>
	<path class="st15" d="M55.9,28.7h-6v-1.8h8v1.7l-4.5,15.9h-2L55.9,28.7z"/>
	<linearGradient id="SVGID_17_" gradientUnits="userSpaceOnUse" x1="-0.1248" y1="35.766" x2="64.8658" y2="35.766">
		<stop  offset="0" style="stop-color:#1A6DFF"/>
		<stop  offset="1" style="stop-color:#C822FF"/>
	</linearGradient>
	<path class="st16" d="M33.1,43.2h-1.2c-0.2,0-0.3-0.2-0.3-0.3V28.7c0-0.2,0.2-0.3,0.3-0.3h1.2c0.2,0,0.3,0.2,0.3,0.3v14.2
		C33.5,43.1,33.3,43.2,33.1,43.2z"/>
	<linearGradient id="SVGID_18_" gradientUnits="userSpaceOnUse" x1="-0.1248" y1="35.766" x2="64.8658" y2="35.766">
		<stop  offset="0" style="stop-color:#1A6DFF"/>
		<stop  offset="1" style="stop-color:#C822FF"/>
	</linearGradient>
	<path class="st17" d="M12.5,43.2h-1.2c-0.2,0-0.3-0.2-0.3-0.3V28.7c0-0.2,0.2-0.3,0.3-0.3h1.2c0.2,0,0.3,0.2,0.3,0.3v14.2
		C12.9,43.1,12.7,43.2,12.5,43.2z"/>
</g>
</svg>
