<svg width="60" height="56" viewBox="0 0 60 56" fill="none" xmlns="http://www.w3.org/2000/svg">
	<path
		d="M53.75 55.4999H6.25C2.805 55.4999 0 52.695 0 49.2499V6.74995C0 3.30494 2.805 0.499939 6.25 0.499939H53.75C57.1951 0.499939 60 3.30494 60 6.74995V49.2499C60 52.695 57.1951 55.4999 53.75 55.4999ZM6.25 2.99995C4.1825 2.99995 2.5 4.68244 2.5 6.74995V49.2499C2.5 51.3174 4.1825 52.9999 6.25 52.9999H53.75C55.8176 52.9999 57.5 51.3174 57.5 49.2499V6.74995C57.5 4.68244 55.8176 2.99995 53.75 2.99995H6.25Z"
		fill="#6C3BFF" />
	<path
		d="M58.75 17.9999H1.25C0.56 17.9999 0 17.44 0 16.75C0 16.06 0.56 15.4999 1.25 15.4999H58.75C59.44 15.4999 60 16.06 60 16.75C60 17.44 59.44 17.9999 58.75 17.9999Z"
		fill="#6C3BFF" />
	<path
		d="M58.75 30.5H1.25C0.56 30.5 0 29.94 0 29.25C0 28.56 0.56 28 1.25 28H58.75C59.44 28 60 28.56 60 29.25C60 29.94 59.44 30.5 58.75 30.5Z"
		fill="#6C3BFF" />
	<path
		d="M58.75 43H1.25C0.56 43 0 42.44 0 41.75C0 41.06 0.56 40.5 1.25 40.5H58.75C59.44 40.5 60 41.06 60 41.75C60 42.44 59.44 43 58.75 43Z"
		fill="#6C3BFF" />
	<path
		d="M16.25 55.4999C15.56 55.4999 15 54.94 15 54.25V16.75C15 16.06 15.56 15.4999 16.25 15.4999C16.94 15.4999 17.5 16.06 17.5 16.75V54.25C17.5 54.94 16.94 55.4999 16.25 55.4999Z"
		fill="#6C3BFF" />
	<path
		d="M30 55.4999C29.31 55.4999 28.7499 54.94 28.7499 54.25V16.75C28.7499 16.06 29.31 15.4999 30 15.4999C30.69 15.4999 31.2499 16.06 31.2499 16.75V54.25C31.2499 54.94 30.69 55.4999 30 55.4999Z"
		fill="#6C3BFF" />
	<path
		d="M43.7501 55.4999C43.0601 55.4999 42.5001 54.94 42.5001 54.25V16.75C42.5001 16.06 43.0601 15.4999 43.7501 15.4999C44.4401 15.4999 45 16.06 45 16.75V54.25C45 54.94 44.4401 55.4999 43.7501 55.4999Z"
		fill="#6C3BFF" />
</svg>
