<svg width="66" height="70" viewBox="0 0 66 70" fill="none" xmlns="http://www.w3.org/2000/svg">
	<g clip-path="url(#clip0_2_22640)">
		<path
			d="M33.3 22.4H4.7C2.1 22.4 0 24.6 0 27V41.3C0 43.9 2.2 45.9 4.6 45.9H33C35.6 45.9 37.6 43.7 37.6 41.3V27C37.9 24.4 35.7 22.4 33.3 22.4ZM35.1 41.3C35.1 42.5 34.1 43.3 33.1 43.3H4.7C3.5 43.3 2.7 42.3 2.7 41.3V27C2.7 25.8 3.7 25 4.7 25H33.1C34.3 25 35.1 26 35.1 27V41.3Z"
			fill="#6C3BFF" />
		<path
			d="M61.7 22.4H39.8C37.2 22.4 35.1 24.6 35.1 27V41.3C35.1 43.9 37.3 45.9 39.7 45.9H61.4C64 45.9 66 43.7 66 41.3V27C66.3 24.4 64.1 22.4 61.7 22.4ZM63.5 41.3C63.5 42.5 62.5 43.3 61.5 43.3H39.8C38.6 43.3 37.8 42.3 37.8 41.3V27C37.8 25.8 38.8 25 39.8 25H61.5C62.7 25 63.5 26 63.5 27V41.3Z"
			fill="#6C3BFF" />
		<path
			d="M25.6 35.8H11.8C11.1 35.8 10.4 35.2 10.4 34.4C10.4 33.7 11 33 11.8 33H25.6C26.3 33 27 33.6 27 34.4C26.9 35.2 26.3 35.8 25.6 35.8Z"
			fill="#6C3BFF" />
		<path
			d="M54.5 35.5H44.3C43.6 35.5 42.9 34.9 42.9 34.1C42.9 33.4 43.5 32.7 44.3 32.7H54.5C55.2 32.7 55.9 33.3 55.9 34.1C55.8 34.9 55.2 35.5 54.5 35.5Z"
			fill="#6C3BFF" />
	</g>
	<defs>
		<clipPath id="clip0_2_22640">
			<rect width="66" height="70" fill="white" />
		</clipPath>
	</defs>
</svg>
