<svg width="60" height="60" viewBox="0 0 60 60" fill="none" xmlns="http://www.w3.org/2000/svg">
	<path
		d="M10.9 40.5H7.19999C6.19999 40.5 5.29999 41.3 5.29999 42.4V55.9C5.29999 56.4 5.69999 56.8 6.19999 56.8H11.8C12.3 56.8 12.7 56.4 12.7 55.9V42.4C12.8 41.4 11.9 40.5 10.9 40.5ZM11.3 55.4H6.79999V42.4C6.79999 42.2 6.99999 42 7.19999 42H10.9C11.1 42 11.3 42.2 11.3 42.4V55.4Z"
		fill="#6C3BFF" />
	<path
		d="M21.5 36.1H17.8C16.8 36.1 15.9 36.9 15.9 38V55.9C15.9 56.4 16.3 56.8 16.8 56.8H22.4C22.9 56.8 23.3 56.4 23.3 55.9V38C23.4 37 22.5 36.1 21.5 36.1ZM21.9 55.4H17.4V38C17.4 37.8 17.6 37.6 17.8 37.6H21.5C21.7 37.6 21.9 37.8 21.9 38V55.4Z"
		fill="#6C3BFF" />
	<path
		d="M32.1 29.8H28.4C27.4 29.8 26.5 30.6 26.5 31.7V55.9C26.5 56.4 26.9 56.8 27.4 56.8H33C33.5 56.8 33.9 56.4 33.9 55.9V31.7C34 30.6 33.1 29.8 32.1 29.8ZM32.5 55.4H28V31.7C28 31.5 28.2 31.3 28.4 31.3H32.1C32.3 31.3 32.5 31.5 32.5 31.7V55.4Z"
		fill="#6C3BFF" />
	<path
		d="M42.7 23.6H39C38 23.6 37.1 24.4 37.1 25.5V55.9C37.1 56.4 37.5 56.8 38 56.8H43.6C44.1 56.8 44.5 56.4 44.5 55.9V25.5C44.6 24.4 43.7 23.6 42.7 23.6ZM43.1 55.4H38.6V25.5C38.6 25.3 38.8 25.1 39 25.1H42.7C42.9 25.1 43.1 25.3 43.1 25.5V55.4Z"
		fill="#6C3BFF" />
	<path
		d="M53.3 16.9H49.6C48.6 16.9 47.7 17.7 47.7 18.8V55.9C47.7 56.4 48.1 56.8 48.6 56.8H54.2C54.7 56.8 55.1 56.4 55.1 55.9V18.8C55.2 17.7 54.3 16.9 53.3 16.9ZM53.7 55.4H49.2V18.8C49.2 18.6 49.4 18.4 49.6 18.4H53.3C53.5 18.4 53.7 18.6 53.7 18.8V55.4Z"
		fill="#6C3BFF" />
	<path
		d="M52.5 11.8C52.5 12.2 52.8 12.5 53.2 12.5C53.6 12.5 53.9 12.1 53.9 11.7L53.6 4.39999L45.6 4.69999C45.3 4.69999 45 4.99999 45 5.39999C45 5.79999 45.3 6.19999 45.8 6.09999L51.2 5.99999C48.8 9.39999 35.1 27.3 3.39999 35C2.99999 35 2.69999 35.4 2.79999 35.9C2.89999 36.2 3.19999 36.5 3.49999 36.5C3.59999 36.5 3.59999 36.5 3.69999 36.5C35.5 28.7 49.6 10.8 52.3 6.99999L52.5 11.8Z"
		fill="#6C3BFF" />
</svg>
