<svg width="60" height="60" viewBox="0 0 60 60" fill="none" xmlns="http://www.w3.org/2000/svg">
	<path
		d="M27.9 19.125H39.675C40.275 19.125 40.725 18.75 40.725 18.075C40.725 17.475 40.35 17.025 39.675 17.025H27.9C27.3 17.025 26.85 17.4 26.85 18.075C26.85 18.675 27.45 19.125 27.9 19.125Z"
		fill="#6C3BFF" />
	<path
		d="M47.4 22.125H31.725C31.125 22.125 30.675 22.5 30.675 23.175C30.675 23.775 31.05 24.225 31.725 24.225H47.4C48 24.225 48.45 23.85 48.45 23.175C48.375 22.575 48 22.125 47.4 22.125Z"
		fill="#6C3BFF" />
	<path
		d="M27.225 22.35C27 22.725 27 22.95 27 23.175C27 23.4 27.225 23.55 27.225 23.775C27.45 24 27.6 24 27.825 24C28.05 24 28.2 23.775 28.425 23.775C28.65 23.55 28.65 23.4 28.65 23.175C28.65 22.95 28.425 22.8 28.425 22.575C28.275 22.125 27.675 22.125 27.225 22.35Z"
		fill="#6C3BFF" />
	<path
		d="M17.1 16.275C14.475 16.275 12.225 18.525 12.225 21.15C12.225 23.775 14.475 26.025 17.1 26.025C19.725 26.025 21.975 23.775 21.975 21.15C22.2 18.45 19.95 16.275 17.1 16.275ZM17.1 24.15C15.45 24.15 14.25 22.95 14.25 21.3C14.25 19.65 15.45 18.45 17.1 18.45C18.75 18.45 19.95 19.65 19.95 21.3C20.1 22.725 18.675 24.15 17.1 24.15Z"
		fill="#6C3BFF" />
	<path
		d="M27.9 38.025H38.475C39.075 38.025 39.525 37.65 39.525 36.975C39.525 36.375 39.15 35.925 38.475 35.925H27.9C27.3 35.925 26.85 36.3 26.85 36.975C26.85 37.575 27.45 38.025 27.9 38.025Z"
		fill="#6C3BFF" />
	<path
		d="M47.4 41.025H31.725C31.125 41.025 30.675 41.4 30.675 42.075C30.675 42.75 31.05 43.125 31.725 43.125H47.4C48 43.125 48.45 42.75 48.45 42.075C48.45 41.4 48 41.025 47.4 41.025Z"
		fill="#6C3BFF" />
	<path
		d="M27.225 41.25C27 41.625 27 41.85 27 42.075C27 42.3 27.225 42.45 27.225 42.675C27.45 42.9 27.6 42.9 27.825 42.9C28.05 42.9 28.2 42.675 28.425 42.675C28.65 42.45 28.65 42.3 28.65 42.075C28.65 41.85 28.5 41.7 28.5 41.475C28.275 41.025 27.675 41.025 27.225 41.25Z"
		fill="#6C3BFF" />
	<path
		d="M17.1 35.175C14.475 35.175 12.225 37.425 12.225 40.05C12.225 42.675 14.475 44.925 17.1 44.925C19.725 44.925 21.975 42.675 21.975 40.05C21.975 37.425 19.95 35.175 17.1 35.175ZM17.1 43.125C15.45 43.125 14.25 41.925 14.25 40.275C14.25 38.625 15.45 37.425 17.1 37.425C18.75 37.425 19.95 38.625 19.95 40.275C20.1 41.7 18.675 43.125 17.1 43.125Z"
		fill="#6C3BFF" />
	<path
		d="M0 52.425C0 55.05 2.025 57.075 4.65 57.075H55.275C57.9 57.075 59.925 55.05 59.925 52.425V6.44999C59.925 3.82499 57.9 1.79999 55.275 1.79999H4.65C2.025 1.79999 0 3.82499 0 6.44999V52.425ZM2.475 6.44999C2.475 5.24999 3.525 3.97499 4.95 3.97499H55.5C56.7 3.97499 57.975 5.02499 57.975 6.44999V52.425C57.975 53.625 56.925 54.9 55.5 54.9H4.65C3.45 54.9 2.175 53.85 2.175 52.425L2.475 6.44999Z"
		fill="#6C3BFF" />
</svg>
