<svg xmlns="http://www.w3.org/2000/svg" viewBox="0 0 80 80"><linearGradient id="ebfl__a" gradientUnits="userSpaceOnUse" x1="0.534" y1="24.094" x2="80.159" y2="24.094"><stop offset="0" stop-color="#1a6dff"></stop><stop offset="1" stop-color="#c822ff"></stop></linearGradient><path d="M37.2 25.5h15.7c.8 0 1.4-.5 1.4-1.4 0-.8-.5-1.4-1.4-1.4H37.2c-.8 0-1.4.5-1.4 1.4 0 .8.8 1.4 1.4 1.4z" fill="url(#ebfl__a)"></path><linearGradient id="ebfl__b" gradientUnits="userSpaceOnUse" x1="0.534" y1="30.874" x2="80.159" y2="30.874"><stop offset="0" stop-color="#1a6dff"></stop><stop offset="1" stop-color="#c822ff"></stop></linearGradient><path d="M63.2 29.5H42.3c-.8 0-1.4.5-1.4 1.4 0 .8.5 1.4 1.4 1.4h20.9c.8 0 1.4-.5 1.4-1.4-.1-.8-.6-1.4-1.4-1.4z" fill="url(#ebfl__b)"></path><linearGradient id="ebfl__c" gradientUnits="userSpaceOnUse" x1="0.534" y1="30.785" x2="80.159" y2="30.785"><stop offset="0" stop-color="#1a6dff"></stop><stop offset="1" stop-color="#c822ff"></stop></linearGradient><path d="M36.3 29.8c-.3.5-.3.8-.3 1.1 0 .3.3.5.3.8.3.3.5.3.8.3s.5-.3.8-.3c.3-.3.3-.5.3-.8 0-.3-.3-.5-.3-.8-.2-.6-1-.6-1.6-.3z" fill="url(#ebfl__c)"></path><linearGradient id="ebfl__d" gradientUnits="userSpaceOnUse" x1="0.534" y1="28.162" x2="80.159" y2="28.162"><stop offset="0" stop-color="#1a6dff"></stop><stop offset="1" stop-color="#c822ff"></stop></linearGradient><path d="M22.8 21.7c-3.5 0-6.5 3-6.5 6.5s3 6.5 6.5 6.5 6.5-3 6.5-6.5c.3-3.6-2.7-6.5-6.5-6.5zm0 10.5c-2.2 0-3.8-1.6-3.8-3.8 0-2.2 1.6-3.8 3.8-3.8 2.2 0 3.8 1.6 3.8 3.8.2 1.9-1.7 3.8-3.8 3.8z" fill="url(#ebfl__d)"></path><g><linearGradient id="ebfl__e" gradientUnits="userSpaceOnUse" x1="0.534" y1="49.315" x2="80.159" y2="49.315"><stop offset="0" stop-color="#1a6dff"></stop><stop offset="1" stop-color="#c822ff"></stop></linearGradient><path d="M37.2 50.7h14.1c.8 0 1.4-.5 1.4-1.4 0-.8-.5-1.4-1.4-1.4H37.2c-.8 0-1.4.5-1.4 1.4 0 .8.8 1.4 1.4 1.4z" fill="url(#ebfl__e)"></path><linearGradient id="ebfl__f" gradientUnits="userSpaceOnUse" x1="0.534" y1="56.094" x2="80.159" y2="56.094"><stop offset="0" stop-color="#1a6dff"></stop><stop offset="1" stop-color="#c822ff"></stop></linearGradient><path d="M63.2 54.7H42.3c-.8 0-1.4.5-1.4 1.4s.5 1.4 1.4 1.4h20.9c.8 0 1.4-.5 1.4-1.4s-.6-1.4-1.4-1.4z" fill="url(#ebfl__f)"></path><linearGradient id="ebfl__g" gradientUnits="userSpaceOnUse" x1="0.534" y1="56.005" x2="80.159" y2="56.005"><stop offset="0" stop-color="#1a6dff"></stop><stop offset="1" stop-color="#c822ff"></stop></linearGradient><path d="M36.3 55c-.3.5-.3.8-.3 1.1 0 .3.3.5.3.8.3.3.5.3.8.3s.5-.3.8-.3c.3-.3.3-.5.3-.8s-.2-.5-.2-.8c-.3-.6-1.1-.6-1.7-.3z" fill="url(#ebfl__g)"></path><linearGradient id="ebfl__h" gradientUnits="userSpaceOnUse" x1="0.534" y1="53.383" x2="80.159" y2="53.383"><stop offset="0" stop-color="#1a6dff"></stop><stop offset="1" stop-color="#c822ff"></stop></linearGradient><path d="M22.8 46.9c-3.5 0-6.5 3-6.5 6.5s3 6.5 6.5 6.5 6.5-3 6.5-6.5-2.7-6.5-6.5-6.5zm0 10.6c-2.2 0-3.8-1.6-3.8-3.8 0-2.2 1.6-3.8 3.8-3.8 2.2 0 3.8 1.6 3.8 3.8.2 1.9-1.7 3.8-3.8 3.8z" fill="url(#ebfl__h)"></path></g><linearGradient id="ebfl__i" gradientUnits="userSpaceOnUse" x1="0.534" y1="39.281" x2="80.159" y2="39.281"><stop offset="0" stop-color="#1a6dff"></stop><stop offset="1" stop-color="#c822ff"></stop></linearGradient><path d="M0 69.9c0 3.5 2.7 6.2 6.2 6.2h67.5c3.5 0 6.2-2.7 6.2-6.2V8.6c0-3.5-2.7-6.2-6.2-6.2H6.2C2.7 2.4 0 5.1 0 8.6v61.3zM3.3 8.6c0-1.6 1.4-3.3 3.3-3.3H74c1.6 0 3.3 1.4 3.3 3.3v61.3c0 1.6-1.4 3.3-3.3 3.3H6.2c-1.6 0-3.3-1.4-3.3-3.3l.4-61.3z" fill="url(#ebfl__i)"></path></svg>