<svg width="55" height="60" viewBox="0 0 55 60" fill="none" xmlns="http://www.w3.org/2000/svg">
	<path
		d="M53.3143 0.342865H53.0572L8.14286 7.28572C7.37143 7.54287 6.85715 7.97144 6.85715 8.57144V52.0286C6.85715 52.5429 7.28572 53.0572 8.14286 53.3143L53.1429 60.3429H53.2286C53.4 60.3429 53.5714 60.2571 53.7429 60.1714C53.8286 60.0857 53.9143 60.0857 54.0857 60L54.1714 59.9143V59.8286C54.1714 59.7429 54.1714 59.7429 54.2572 59.6572C54.3429 59.4857 54.4286 59.3143 54.4286 59.0572V1.71429C54.4286 0.857151 54 0.342865 53.3143 0.342865ZM51.7714 57L9.25715 51.2571V9.25715L51.7714 3.34286V57Z"
		fill="#6C3BFF" />
	<path
		d="M14.9143 29.0572H24.7714C25.4571 29.0572 26.0571 28.4572 26.0571 27.7715C26.0571 27.0857 25.3714 26.6572 24.7714 26.6572L14.9143 27C14.3143 27 13.6286 27.4286 13.6286 28.1143C13.6286 28.5429 14.2286 29.0572 14.9143 29.0572Z"
		fill="#6C3BFF" />
	<path
		d="M31.2857 28.8C31.8 28.8 31.9714 28.5429 32.1429 28.2C32.3143 28.0286 32.5714 27.7714 32.5714 27.3429C32.5714 27.0857 32.3143 26.6571 32.1429 26.4857C31.8857 26.2286 31.6286 26.2286 31.2857 26.2286C31.0286 26.2286 30.6 26.4857 30.4286 26.6571C30.2571 26.8286 30 27.2571 30 27.5143C30 27.9429 30.2571 28.2 30.4286 28.3714C30.6 28.6286 31.0286 28.8 31.2857 28.8Z"
		fill="#6C3BFF" />
	<path
		d="M20.3143 33.8572C20.3143 34.2857 20.9143 34.9714 21.6 34.9714L45.0857 36.0857C45.2571 36.0857 45.4286 36 45.6 35.9143C45.6857 35.8286 45.7714 35.8286 46.0286 35.6572C46.2 35.4857 46.4571 35.0572 46.4571 34.6286C46.4571 33.7714 45.7714 33.1714 45.1714 33.1714L21.6857 32.8286C21 32.7429 20.3143 33.1714 20.3143 33.8572Z"
		fill="#6C3BFF" />
	<path
		d="M15.8571 33C15.7714 33 15.6857 33 15.6 32.9143C15.4286 32.8286 15.2571 32.7429 15 32.7429C14.5714 32.7429 14.4 32.7429 14.1429 33L14.0571 33.0857V33.1714C14.0571 33.2571 14.0571 33.3429 13.9714 33.3429C13.8857 33.4286 13.8857 33.6 13.8857 33.6857C13.8857 33.8571 13.8857 34.1143 14.1429 34.3714C14.3143 34.5429 14.5714 34.8 15 34.8C15.1714 34.8 15.6857 34.8 15.9429 34.2857C15.9429 34.2 15.9429 34.1143 16.0286 34.1143C16.1143 34.0286 16.1143 33.8571 16.1143 33.7714C16.2 33.5143 16.2 33.2571 15.8571 33Z"
		fill="#6C3BFF" />
	<path
		d="M1.8 11.6572C1.62857 11.6572 1.54286 11.6572 1.45714 11.7429L1.02857 11.9143C0.428571 12.3429 0 12.9429 0 13.5429V47.4857C0 48.0857 0.342857 48.6857 1.02857 49.1143H1.11429H1.2C1.28571 49.2 1.45714 49.2 1.54286 49.2C1.88571 49.2 2.31429 48.9429 2.48571 48.4286V12.4286C2.57143 11.9143 2.14286 11.6572 1.8 11.6572Z"
		fill="#6C3BFF" />
</svg>
