<?xml version="1.0" encoding="utf-8"?>
<!-- Generator: Adobe Illustrator 24.2.1, SVG Export Plug-In . SVG Version: 6.00 Build 0)  -->
<svg version="1.1" id="Layer_1" xmlns="http://www.w3.org/2000/svg" xmlns:xlink="http://www.w3.org/1999/xlink" x="0px" y="0px"
	 viewBox="0 0 66 70" style="enable-background:new 0 0 66 70;" xml:space="preserve">
<style type="text/css">
	.st0{fill:url(#SVGID_1_);}
	.st1{fill:url(#SVGID_2_);}
	.st2{fill:url(#SVGID_3_);}
	.st3{fill:url(#SVGID_4_);}
	.st4{fill:url(#SVGID_5_);}
	.st5{fill:url(#SVGID_6_);}
</style>
<desc>Created with Sketch.</desc>
<g>
	<linearGradient id="SVGID_1_" gradientUnits="userSpaceOnUse" x1="-1.7651" y1="52.2342" x2="59.4114" y2="31.5283">
		<stop  offset="0" style="stop-color:#1A6DFF"/>
		<stop  offset="1" style="stop-color:#C822FF"/>
	</linearGradient>
	<path class="st0" d="M62.2,0.4h-0.3L9.5,8.5C8.6,8.8,8,9.3,8,10v50.7c0,0.6,0.5,1.2,1.5,1.5L62,70.4h0.1l0,0c0.2,0,0.4-0.1,0.6-0.2
		c0.1-0.1,0.2-0.1,0.4-0.2l0.1-0.1v-0.1c0-0.1,0-0.1,0.1-0.2c0.1-0.2,0.2-0.4,0.2-0.7V2C63.5,1,63,0.4,62.2,0.4z M60.4,66.5
		l-49.6-6.7v-49l49.6-6.9V66.5z"/>
	<linearGradient id="SVGID_2_" gradientUnits="userSpaceOnUse" x1="-5.1228" y1="42.3137" x2="56.0537" y2="21.6079">
		<stop  offset="0" style="stop-color:#1A6DFF"/>
		<stop  offset="1" style="stop-color:#C822FF"/>
	</linearGradient>
	<path class="st1" d="M17.4,33.9h11.5c0.8,0,1.5-0.7,1.5-1.5s-0.8-1.3-1.5-1.3l-11.5,0.4c-0.7,0-1.5,0.5-1.5,1.3
		C15.9,33.3,16.6,33.9,17.4,33.9z"/>
	<linearGradient id="SVGID_3_" gradientUnits="userSpaceOnUse" x1="-3.9252" y1="45.8523" x2="57.2513" y2="25.1464">
		<stop  offset="0" style="stop-color:#1A6DFF"/>
		<stop  offset="1" style="stop-color:#C822FF"/>
	</linearGradient>
	<path class="st2" d="M36.5,33.6c0.6,0,0.8-0.3,1-0.7c0.2-0.2,0.5-0.5,0.5-1c0-0.3-0.3-0.8-0.5-1c-0.3-0.3-0.6-0.3-1-0.3
		c-0.3,0-0.8,0.3-1,0.5s-0.5,0.7-0.5,1c0,0.5,0.3,0.8,0.5,1C35.7,33.4,36.2,33.6,36.5,33.6z"/>
	<linearGradient id="SVGID_4_" gradientUnits="userSpaceOnUse" x1="-1.2398" y1="53.7862" x2="59.9367" y2="33.0804">
		<stop  offset="0" style="stop-color:#1A6DFF"/>
		<stop  offset="1" style="stop-color:#C822FF"/>
	</linearGradient>
	<path class="st3" d="M23.7,39.5c0,0.5,0.7,1.3,1.5,1.3l27.4,1.3c0.2,0,0.4-0.1,0.6-0.2c0.1-0.1,0.2-0.1,0.5-0.3
		c0.2-0.2,0.5-0.7,0.5-1.2c0-1-0.8-1.7-1.5-1.7l-27.4-0.4C24.5,38.2,23.7,38.7,23.7,39.5z"/>
	<linearGradient id="SVGID_5_" gradientUnits="userSpaceOnUse" x1="-3.6766" y1="46.5868" x2="57.4999" y2="25.8809">
		<stop  offset="0" style="stop-color:#1A6DFF"/>
		<stop  offset="1" style="stop-color:#C822FF"/>
	</linearGradient>
	<path class="st4" d="M18.5,38.5L18.5,38.5c-0.1,0-0.2,0-0.3-0.1c-0.2-0.1-0.4-0.2-0.7-0.2c-0.5,0-0.7,0-1,0.3l-0.1,0.1v0.1
		c0,0.1,0,0.2-0.1,0.2c-0.1,0.1-0.1,0.3-0.1,0.4c0,0.2,0,0.5,0.3,0.8c0.2,0.2,0.5,0.5,1,0.5c0.2,0,0.8,0,1.1-0.6
		c0-0.1,0-0.2,0.1-0.2c0.1-0.1,0.1-0.3,0.1-0.4C18.9,39.1,18.9,38.8,18.5,38.5L18.5,38.5z"/>
	<linearGradient id="SVGID_6_" gradientUnits="userSpaceOnUse" x1="-6.4531" y1="38.3834" x2="54.7234" y2="17.6775">
		<stop  offset="0" style="stop-color:#1A6DFF"/>
		<stop  offset="1" style="stop-color:#C822FF"/>
	</linearGradient>
	<path class="st5" d="M2.1,13.6c-0.2,0-0.3,0-0.4,0.1l-0.5,0.2C0.5,14.4,0,15.1,0,15.8v39.6c0,0.7,0.4,1.4,1.2,1.9l0,0h0.1h0.1
		c0.1,0.1,0.3,0.1,0.4,0.1c0.4,0,0.9-0.3,1.1-0.9v-42C3,13.9,2.5,13.6,2.1,13.6z"/>
</g>
</svg>
