<svg id="Layer_1" xmlns="http://www.w3.org/2000/svg" x="0" y="0" viewBox="0 0 66 70" xml:space="preserve"><style>.st1{fill-rule:evenodd;clip-rule:evenodd;fill:#981dff}</style><g style="opacity: 0.1;"><circle id="Oval-2_1_" class="st1" cx="31" cy="34.2" r="31"></circle><circle id="path-4_1_" class="st1" cx="52.7" cy="9.8" r="9.2"></circle><circle class="st1" cx="52.7" cy="9.8" r="9.2"></circle><circle id="Oval-3-Copy-4_1_" class="st1" cx="64" cy="19.1" r="2"></circle><circle id="Oval-3-Copy-5_1_" class="st1" cx="42.3" cy="1.5" r="1.5"></circle><circle class="st1" cx="18.8" cy="60.8" r="9.2"></circle></g><linearGradient id="SVGID_1_" gradientUnits="userSpaceOnUse" x1="20.654" y1="36.174" x2="45.837" y2="36.174"><stop offset="0" style="stop-color: rgb(150, 0, 218);"></stop><stop offset="1" style="stop-color: rgb(0, 43, 202);"></stop></linearGradient><path d="M38.9 32.8H24.4c-.5 0-.8.4-.8.8v5c0 .5.4.8.8.8h14.5c.5 0 .8-.4.8-.8v-5c0-.4-.3-.8-.8-.8zm0 5.9H24.4v-5h14.5v5z" style="fill: url(&quot;#SVGID_1_&quot;);"></path><linearGradient id="SVGID_2_" gradientUnits="userSpaceOnUse" x1="20.654" y1="34.977" x2="45.837" y2="34.977"><stop offset="0" style="stop-color: rgb(150, 0, 218);"></stop><stop offset="1" style="stop-color: rgb(0, 43, 202);"></stop></linearGradient><path d="M43.9 22.4H22.1c-1 0-1.7.8-1.7 1.7v21.8c0 1 .8 1.7 1.7 1.7h21.8c1 0 1.7-.8 1.7-1.7V24.1c0-1-.8-1.7-1.7-1.7zm-22.6 3.3v-1.6c0-.4.4-.8.8-.8h21.8c.4 0 .8.4.8.8v1.6H21.3zm0 .9h23.4v19.2c0 .4-.4.8-.8.8H22.1c-.4 0-.8-.4-.8-.8V26.6z" style="fill: url(&quot;#SVGID_2_&quot;);"></path><linearGradient id="SVGID_3_" gradientUnits="userSpaceOnUse" x1="20.654" y1="24.499" x2="45.837" y2="24.499"><stop offset="0" style="stop-color: rgb(150, 0, 218);"></stop><stop offset="1" style="stop-color: rgb(0, 43, 202);"></stop></linearGradient><path d="M22.9 24h-.4c-.3 0-.5.2-.5.5s.2.5.5.5h.4c.3 0 .5-.2.5-.5s-.2-.5-.5-.5z" style="fill: url(&quot;#SVGID_3_&quot;);"></path><linearGradient id="SVGID_4_" gradientUnits="userSpaceOnUse" x1="20.654" y1="24.499" x2="45.837" y2="24.499"><stop offset="0" style="stop-color: rgb(150, 0, 218);"></stop><stop offset="1" style="stop-color: rgb(0, 43, 202);"></stop></linearGradient><path d="M25 24h-.4c-.3 0-.5.2-.5.5s.2.5.5.5h.4c.3 0 .5-.2.5-.5s-.2-.5-.5-.5z" style="fill: url(&quot;#SVGID_4_&quot;);"></path><linearGradient id="SVGID_5_" gradientUnits="userSpaceOnUse" x1="20.654" y1="24.499" x2="45.837" y2="24.499"><stop offset="0" style="stop-color: rgb(150, 0, 218);"></stop><stop offset="1" style="stop-color: rgb(0, 43, 202);"></stop></linearGradient><path d="M27.1 24h-.4c-.3 0-.5.2-.5.5s.2.5.5.5h.4c.3 0 .5-.2.5-.5s-.2-.5-.5-.5z" style="fill: url(&quot;#SVGID_5_&quot;);"></path><linearGradient id="SVGID_6_" gradientUnits="userSpaceOnUse" x1="17.571" y1="29.774" x2="69.611" y2="29.774"><stop offset="0" style="stop-color: rgb(150, 0, 218);"></stop><stop offset="1" style="stop-color: rgb(0, 43, 202);"></stop></linearGradient><path d="M24 30.2h14.6c.3 0 .5-.2.5-.5s-.2-.5-.5-.5H24c-.3 0-.5.2-.5.5s.3.5.5.5z" style="fill: url(&quot;#SVGID_6_&quot;);"></path><linearGradient id="SVGID_7_" gradientUnits="userSpaceOnUse" x1="20.654" y1="43.211" x2="45.837" y2="43.211"><stop offset="0" style="stop-color: rgb(150, 0, 218);"></stop><stop offset="1" style="stop-color: rgb(0, 43, 202);"></stop></linearGradient><path d="M28.8 42.7h-4.6c-.3 0-.5.2-.5.5s.2.5.5.5h4.6c.3 0 .5-.2.5-.5s-.2-.5-.5-.5z" style="fill: url(&quot;#SVGID_7_&quot;);"></path></svg>