<svg width="66" height="70" viewBox="0 0 66 70" fill="none" xmlns="http://www.w3.org/2000/svg">
	<path
		d="M46.1615 30H12.8385C11.6894 30 11 30.9091 11 31.8182V43.1818C11 44.3182 11.9193 45 12.8385 45H46.1615C47.3106 45 48 44.0909 48 43.1818V31.8182C48 30.9091 47.3106 30 46.1615 30ZM46.1615 43.4091H12.8385V32.0455H46.1615V43.4091Z"
		fill="#6C3BFF" />
	<path
		d="M58.0873 6H7.9127C5.61111 6 4 7.84127 4 9.9127V60.0873C4 62.3889 5.84127 64 7.9127 64H58.0873C60.3889 64 62 62.1587 62 60.0873V9.9127C62 7.61111 60.1587 6 58.0873 6ZM6.07143 13.5952V9.9127C6.07143 8.99207 6.99207 8.07143 7.9127 8.07143H58.0873C59.0079 8.07143 59.9286 8.99207 59.9286 9.9127V13.5952H6.07143ZM6.07143 15.6667H59.9286V59.8571C59.9286 60.7778 59.0079 61.6984 58.0873 61.6984H7.9127C6.99207 61.6984 6.07143 60.7778 6.07143 59.8571V15.6667Z"
		fill="#6C3BFF" />
	<path
		d="M9.92857 10H9.07143C8.42857 10 8 10.4 8 11C8 11.6 8.42857 12 9.07143 12H9.92857C10.5714 12 11 11.6 11 11C11 10.4 10.5714 10 9.92857 10Z"
		fill="#6C3BFF" />
	<path
		d="M14.9286 10H14.0714C13.4286 10 13 10.4 13 11C13 11.6 13.4286 12 14.0714 12H14.9286C15.5714 12 16 11.6 16 11C16 10.4 15.5714 10 14.9286 10Z"
		fill="#6C3BFF" />
	<path
		d="M19.5714 10H18.4286C17.5714 10 17 10.4 17 11C17 11.6 17.5714 12 18.4286 12H19.5714C20.4286 12 21 11.6 21 11C21 10.4 20.4286 10 19.5714 10Z"
		fill="#6C3BFF" />
	<path
		d="M12.1538 24H45.8462C46.5385 24 47 23.6 47 23C47 22.4 46.5385 22 45.8462 22H12.1538C11.4615 22 11 22.4 11 23C11 23.6 11.6923 24 12.1538 24Z"
		fill="#6C3BFF" />
	<path
		d="M22.9286 53H13.0714C12.4286 53 12 53.4 12 54C12 54.6 12.4286 55 13.0714 55H22.9286C23.5714 55 24 54.6 24 54C24 53.4 23.5714 53 22.9286 53Z"
		fill="#6C3BFF" />
</svg>
