<svg width="60" height="60" viewBox="0 0 60 60" fill="none" xmlns="http://www.w3.org/2000/svg">
	<g clip-path="url(#clip0_33_191)">
		<path d="M60 0H0V60H60V0Z" fill="#6C3BFF" />
		<path
			d="M0 0.0835073C0 0.0373695 0.0187435 0 0.0418848 0H59.9581C59.9812 0 60 0.0373695 60 0.0835073V59.9165C60 59.9624 59.9812 60 59.9581 60H0.0418848C0.0187435 60 0 59.9624 0 59.9165V0.0835073Z"
			fill="white" />
		<path
			d="M56.9969 43.7387H3.00295C1.91576 43.7387 1.03442 44.6575 1.03442 45.7909V56.9315C1.03442 58.0648 1.91576 58.9837 3.00295 58.9837H56.9969C58.0841 58.9837 58.9655 58.0648 58.9655 56.9315V45.7909C58.9655 44.6575 58.0841 43.7387 56.9969 43.7387Z"
			stroke="#6C3BFF" stroke-width="1.93103" />
		<path d="M27.3119 51.3416L29.2336 53.297L33.0743 49.389" stroke="#6C3BFF"
			stroke-width="1.93103" stroke-linecap="round" stroke-linejoin="round" />
		<path
			d="M56.9969 1.05261H3.00295C1.91576 1.05261 1.03442 1.93739 1.03442 3.02881V14.3215C1.03442 15.4128 1.91576 16.2977 3.00295 16.2977H56.9969C58.0841 16.2977 58.9655 15.4128 58.9655 14.3215V3.02881C58.9655 1.93739 58.0841 1.05261 56.9969 1.05261Z"
			stroke="#6C3BFF" stroke-width="1.93103" />
		<path d="M16.1703 6.13434H49.5921" stroke="#6C3BFF" stroke-width="1.93103"
			stroke-linecap="round" />
		<path d="M16.1703 11.2161H36.7708" stroke="#6C3BFF" stroke-width="1.93103"
			stroke-linecap="round" />
		<path
			d="M56.9969 22.3957H3.00295C1.91576 22.3957 1.03442 23.2804 1.03442 24.3719V35.6644C1.03442 36.7559 1.91576 37.6406 3.00295 37.6406H56.9969C58.0841 37.6406 58.9655 36.7559 58.9655 35.6644V24.3719C58.9655 23.2804 58.0841 22.3957 56.9969 22.3957Z"
			stroke="#6C3BFF" stroke-width="1.93103" />
		<path d="M16.1703 27.4772H49.5921" stroke="#6C3BFF" stroke-width="1.93103"
			stroke-linecap="round" />
		<path d="M16.1703 32.5589H36.7708" stroke="#6C3BFF" stroke-width="1.93103"
			stroke-linecap="round" />
		<mask id="mask0_33_191" style="mask-type:luminance" maskUnits="userSpaceOnUse" x="4" y="3"
			width="10" height="11">
			<path
				d="M11.0225 5.11795H7.02725C6.47563 5.11795 6.02844 5.57298 6.02844 6.13428V10.1996C6.02844 10.7609 6.47563 11.216 7.02725 11.216H11.0225C11.5741 11.216 12.0213 10.7609 12.0213 10.1996V6.13428C12.0213 5.57298 11.5741 5.11795 11.0225 5.11795Z"
				stroke="#6C3BFF" stroke-width="3.86207" />
		</mask>
		<g mask="url(#mask0_33_191)">
			<path
				d="M11.0225 5.11795H7.02725C6.47563 5.11795 6.02844 5.57298 6.02844 6.13428V10.1996C6.02844 10.7609 6.47563 11.216 7.02725 11.216H11.0225C11.5741 11.216 12.0213 10.7609 12.0213 10.1996V6.13428C12.0213 5.57298 11.5741 5.11795 11.0225 5.11795Z"
				stroke="#6C3BFF" stroke-width="3.86207" />
		</g>
		<mask id="mask1_33_191" style="mask-type:luminance" maskUnits="userSpaceOnUse" x="4" y="24"
			width="10" height="11">
			<path
				d="M11.0225 26.4609H7.02725C6.47563 26.4609 6.02844 26.916 6.02844 27.4773V31.5426C6.02844 32.1039 6.47563 32.5589 7.02725 32.5589H11.0225C11.5741 32.5589 12.0213 32.1039 12.0213 31.5426V27.4773C12.0213 26.916 11.5741 26.4609 11.0225 26.4609Z"
				stroke="#6C3BFF" stroke-width="3.86207" />
		</mask>
		<g mask="url(#mask1_33_191)">
			<path
				d="M11.0225 26.4609H7.02725C6.47563 26.4609 6.02844 26.916 6.02844 27.4773V31.5426C6.02844 32.1039 6.47563 32.5589 7.02725 32.5589H11.0225C11.5741 32.5589 12.0213 32.1039 12.0213 31.5426V27.4773C12.0213 26.916 11.5741 26.4609 11.0225 26.4609Z"
				stroke="#6C3BFF" stroke-width="3.86207" />
		</g>
		<path
			d="M-952.759 -230.526H2006.9V-232.632H-952.759V-230.526ZM2007.93 -229.474V1278.95H2010V-229.474H2007.93ZM2006.9 1280H-952.759V1282.11H2006.9V1280ZM-953.793 1278.95V-229.474H-955.862V1278.95H-953.793ZM-952.759 1280C-953.33 1280 -953.793 1279.53 -953.793 1278.95H-955.862C-955.862 1280.69 -954.473 1282.11 -952.759 1282.11V1280ZM2007.93 1278.95C2007.93 1279.53 2007.47 1280 2006.9 1280V1282.11C2008.61 1282.11 2010 1280.69 2010 1278.95H2007.93ZM2006.9 -230.526C2007.47 -230.526 2007.93 -230.055 2007.93 -229.474H2010C2010 -231.218 2008.61 -232.632 2006.9 -232.632V-230.526ZM-952.759 -232.632C-954.473 -232.632 -955.862 -231.218 -955.862 -229.474H-953.793C-953.793 -230.055 -953.33 -230.526 -952.759 -230.526V-232.632Z"
			fill="black" fill-opacity="0.1" />
	</g>
	<defs>
		<clipPath id="clip0_33_191">
			<rect width="60" height="60" fill="white" />
		</clipPath>
	</defs>
</svg>
