<svg width="60" height="60" viewBox="0 0 60 60" fill="none" xmlns="http://www.w3.org/2000/svg">
	<path
		d="M6.25 7.5C6.94036 7.5 7.5 6.94036 7.5 6.25C7.5 5.55964 6.94036 5 6.25 5C5.55964 5 5 5.55964 5 6.25C5 6.94036 5.55964 7.5 6.25 7.5Z"
		fill="#6C3BFF" />
	<path
		d="M10 7.5C10.6904 7.5 11.25 6.94036 11.25 6.25C11.25 5.55964 10.6904 5 10 5C9.30964 5 8.75 5.55964 8.75 6.25C8.75 6.94036 9.30964 7.5 10 7.5Z"
		fill="#6C3BFF" />
	<path
		d="M13.75 7.5C14.4404 7.5 15 6.94036 15 6.25C15 5.55964 14.4404 5 13.75 5C13.0596 5 12.5 5.55964 12.5 6.25C12.5 6.94036 13.0596 7.5 13.75 7.5Z"
		fill="#6C3BFF" />
	<path
		d="M56.25 0H3.75C2.75544 0 1.80161 0.395088 1.09835 1.09835C0.395088 1.80161 0 2.75544 0 3.75V11.25C0 11.5815 0.131696 11.8995 0.366117 12.1339C0.600537 12.3683 0.918479 12.5 1.25 12.5H63.75C64.0815 12.5 64.3995 12.3683 64.6339 12.1339C64.8683 11.8995 65 11.5815 65 11.25C65 10.9185 64.8683 10.6005 64.6339 10.3661C64.3995 10.1317 64.0815 10 63.75 10H2.5V3.75C2.5 3.41848 2.6317 3.10054 2.86612 2.86612C3.10054 2.6317 3.41848 2.5 3.75 2.5H56.25C56.5815 2.5 56.8995 2.6317 57.1339 2.86612C57.3683 3.10054 57.5 3.41848 57.5 3.75V56.25C57.5 56.5815 57.3683 56.8995 57.1339 57.1339C56.8995 57.3683 56.5815 57.5 56.25 57.5H3.75C3.41848 57.5 3.10054 57.3683 2.86612 57.1339C2.6317 56.8995 2.5 56.5815 2.5 56.25V10.25C2.5 9.91848 2.3683 9.60054 2.13388 9.36612C1.89946 9.1317 1.58152 9 1.25 9C0.918479 9 0.600537 9.1317 0.366117 9.36612C0.131696 9.60054 0 9.91848 0 10.25V56.25C0 57.2446 0.395088 58.1984 1.09835 58.9016C1.80161 59.6049 2.75544 60 3.75 60H56.25C57.2446 60 58.1984 59.6049 58.9016 58.9016C59.6049 58.1984 60 57.2446 60 56.25V3.75C60 2.75544 59.6049 1.80161 58.9016 1.09835C58.1984 0.395088 57.2446 0 56.25 0Z"
		fill="#6C3BFF" />
	<path
		d="M41.9947 30.4824L41.9948 30.4851C42.0963 33.4303 40.7105 36.9636 38.7345 40.4189C36.7823 43.8326 34.3412 47.0227 32.5063 49.2566C31.9613 49.8629 31.247 50.2015 30.499 50.2015C29.7278 50.2015 28.9823 49.8449 28.5012 49.2681C26.6689 47.0605 24.2323 43.8643 22.281 40.4372C20.3113 36.9778 18.9227 33.4304 19.0033 30.4803C19.2111 23.9896 24.2812 19 30.499 19C36.7174 19 41.788 23.9907 41.9947 30.4824ZM25.0364 30.4952C25.0364 33.5019 27.4923 35.9578 30.499 35.9578C33.5057 35.9578 35.9615 33.5019 35.9615 30.4952C35.9615 27.4885 33.5057 25.0326 30.499 25.0326C27.4923 25.0326 25.0364 27.4885 25.0364 30.4952Z"
		stroke="#6C3BFF" stroke-width="2" />
</svg>
