<svg width="60" height="60" viewBox="0 0 60 60" fill="none" xmlns="http://www.w3.org/2000/svg">
<g clip-path="url(#clip0_1626_2)">
<path d="M6.25 7.5C6.94036 7.5 7.5 6.94036 7.5 6.25C7.5 5.55964 6.94036 5 6.25 5C5.55964 5 5 5.55964 5 6.25C5 6.94036 5.55964 7.5 6.25 7.5Z" fill="url(#paint0_linear_1626_2)"/>
<path d="M10 7.5C10.6904 7.5 11.25 6.94036 11.25 6.25C11.25 5.55964 10.6904 5 10 5C9.30964 5 8.75 5.55964 8.75 6.25C8.75 6.94036 9.30964 7.5 10 7.5Z" fill="url(#paint1_linear_1626_2)"/>
<path d="M13.75 7.5C14.4404 7.5 15 6.94036 15 6.25C15 5.55964 14.4404 5 13.75 5C13.0596 5 12.5 5.55964 12.5 6.25C12.5 6.94036 13.0596 7.5 13.75 7.5Z" fill="url(#paint2_linear_1626_2)"/>
<path d="M56.25 0H3.75C2.75544 0 1.80161 0.395088 1.09835 1.09835C0.395088 1.80161 0 2.75544 0 3.75L0 11.25C0 11.5815 0.131696 11.8995 0.366117 12.1339C0.600537 12.3683 0.918479 12.5 1.25 12.5H63.75C64.0815 12.5 64.3995 12.3683 64.6339 12.1339C64.8683 11.8995 65 11.5815 65 11.25C65 10.9185 64.8683 10.6005 64.6339 10.3661C64.3995 10.1317 64.0815 10 63.75 10H2.5V3.75C2.5 3.41848 2.6317 3.10054 2.86612 2.86612C3.10054 2.6317 3.41848 2.5 3.75 2.5H56.25C56.5815 2.5 56.8995 2.6317 57.1339 2.86612C57.3683 3.10054 57.5 3.41848 57.5 3.75V56.25C57.5 56.5815 57.3683 56.8995 57.1339 57.1339C56.8995 57.3683 56.5815 57.5 56.25 57.5H3.75C3.41848 57.5 3.10054 57.3683 2.86612 57.1339C2.6317 56.8995 2.5 56.5815 2.5 56.25V10.25C2.5 9.91848 2.3683 9.60054 2.13388 9.36612C1.89946 9.1317 1.58152 9 1.25 9C0.918479 9 0.600537 9.1317 0.366117 9.36612C0.131696 9.60054 0 9.91848 0 10.25L0 56.25C0 57.2446 0.395088 58.1984 1.09835 58.9016C1.80161 59.6049 2.75544 60 3.75 60H56.25C57.2446 60 58.1984 59.6049 58.9016 58.9016C59.6049 58.1984 60 57.2446 60 56.25V3.75C60 2.75544 59.6049 1.80161 58.9016 1.09835C58.1984 0.395088 57.2446 0 56.25 0Z" fill="url(#paint3_linear_1626_2)"/>
<path d="M31.499 18C24.7159 18 19.2269 23.4443 19.0038 30.4506C18.8253 36.9213 25.0282 45.4448 28.7322 49.9074C29.4016 50.7107 30.428 51.2015 31.499 51.2015C32.57 51.2015 33.5518 50.7107 34.2658 49.9074C37.9697 45.4002 44.2173 36.9213 43.9942 30.4506C43.7711 23.4443 38.2821 18 31.499 18ZM31.499 34.9578C29.0446 34.9578 27.0364 32.9496 27.0364 30.4952C27.0364 28.0408 29.0446 26.0326 31.499 26.0326C33.9534 26.0326 35.9615 28.0408 35.9615 30.4952C35.9615 32.9496 33.9534 34.9578 31.499 34.9578Z" fill="#2B5DFF"/>
</g>
<defs>
<linearGradient id="paint0_linear_1626_2" x1="7.5" y1="6.47949" x2="5" y2="6.47949" gradientUnits="userSpaceOnUse">
<stop stop-color="#275EFF"/>
<stop offset="1" stop-color="#A913FF"/>
</linearGradient>
<linearGradient id="paint1_linear_1626_2" x1="11.25" y1="6.47949" x2="8.75" y2="6.47949" gradientUnits="userSpaceOnUse">
<stop stop-color="#275EFF"/>
<stop offset="1" stop-color="#A913FF"/>
</linearGradient>
<linearGradient id="paint2_linear_1626_2" x1="15" y1="6.47949" x2="12.5" y2="6.47949" gradientUnits="userSpaceOnUse">
<stop stop-color="#275EFF"/>
<stop offset="1" stop-color="#A913FF"/>
</linearGradient>
<linearGradient id="paint3_linear_1626_2" x1="60" y1="35.5078" x2="0" y2="35.5078" gradientUnits="userSpaceOnUse">
<stop stop-color="#275EFF"/>
<stop offset="1" stop-color="#A913FF"/>
</linearGradient>
<clipPath id="clip0_1626_2">
<rect width="60" height="60" fill="white"/>
</clipPath>
</defs>
</svg>
