<svg width="60" height="60" viewBox="0 0 60 60" fill="none" xmlns="http://www.w3.org/2000/svg">
	<path
		d="M59.3974 45.9854C58.0684 41.1495 56.738 36.3137 55.4202 31.475C54.5031 28.1087 53.6333 24.7326 52.1067 21.5653C51.1368 19.5516 49.2734 18.2741 47.1623 18.4049C45.4478 18.5107 44.1634 19.3833 43.2073 20.8472C40.3142 19.0006 38.2852 19.3652 35.7664 22.1387C33.2517 20.452 30.9222 20.7067 28.7651 22.8901C28.6455 22.6229 28.5481 22.4184 28.459 22.2096C27.1662 19.1926 25.8859 16.1714 24.5792 13.1599C24.1533 12.1789 23.4895 11.3884 22.6963 10.8373V1.46619C22.6963 1.20874 22.4876 1 22.2301 1H7.97579C7.71834 1 7.5096 1.20874 7.5096 1.46619V6.58734C3.10513 7.48772 0.266232 11.7864 1.16661 16.1881C2.06698 20.5912 6.36569 23.4301 10.7674 22.5311C13.1081 22.0524 15.0716 20.5842 16.2128 18.5775C18.9654 25.0318 21.7305 31.482 24.4887 37.9335C24.5806 38.1492 24.6599 38.3705 24.7809 38.685C23.0247 38.1701 21.4202 37.6593 19.792 37.2307C17.1716 36.5405 14.4941 37.9752 13.6578 40.4676C12.8075 43.0004 14.0516 45.6514 16.569 46.7536C20.6325 48.5334 24.639 50.4553 28.761 52.0876C31.4969 53.1717 33.6984 54.7261 35.4296 57.1114C36.9492 59.2057 39.2579 59.5119 41.6585 58.2594C46.3287 55.8227 51.1966 53.8104 56.1619 52.0501C58.9813 51.0509 60.167 48.7811 59.3988 45.9868L59.3974 45.9854ZM10.1453 3.16953H20.0606C20.318 3.16953 20.5268 3.37827 20.5268 3.63572V9.99402C19.9075 9.91469 19.2688 9.95644 18.6397 10.1374C17.8354 10.3684 17.1424 10.7719 16.5857 11.2952C15.3973 8.58431 12.7796 6.64996 9.67634 6.44261V3.63711C9.67634 3.37966 9.88509 3.17092 10.1425 3.17092L10.1453 3.16953ZM9.1364 20.5272C5.84105 20.5272 3.16914 17.8553 3.16914 14.5599C3.16914 11.2646 5.84105 8.59266 9.1364 8.59266C12.4317 8.59266 14.9575 11.1212 15.0967 14.2941C15.0661 14.5669 15.0591 14.8452 15.0758 15.1263C14.7905 18.1558 12.2411 20.5272 9.1364 20.5272ZM55.654 49.5632C51.0394 51.5282 46.4331 53.5112 41.8227 55.4873C41.2493 55.7337 40.676 55.9786 40.0985 56.2179C38.9546 56.6925 38.1697 56.5158 37.3765 55.5875C36.625 54.7066 35.9459 53.7548 35.1262 52.9449C34.4485 52.2769 33.6859 51.6089 32.8328 51.222C27.8035 48.9384 22.7367 46.7355 17.6823 44.5061C16.2114 43.8576 15.5712 42.5634 16.0541 41.2121C16.5175 39.9152 17.9258 39.2792 19.4357 39.7162C21.7444 40.3841 24.049 41.066 26.3493 41.7604C26.9449 41.94 27.4974 41.9831 27.9455 41.4779C28.395 40.9728 28.285 40.4203 28.0429 39.8539C24.6808 32.0122 21.3186 24.1718 17.9759 16.3217C17.7547 15.8026 17.5626 15.2098 17.5877 14.6629C17.635 13.6261 18.2348 12.8886 19.2395 12.5699C20.2554 12.247 21.1168 12.588 21.7959 13.3603C22.0492 13.6484 22.2232 14.0186 22.3762 14.3762C24.8394 20.1125 27.2928 25.8529 29.749 31.5919C29.8214 31.7617 29.8951 31.9315 29.9745 32.0984C30.3349 32.8597 30.9903 33.1477 31.6625 32.8457C32.3346 32.5438 32.5726 31.8702 32.247 31.0881C31.6694 29.7007 31.0516 28.33 30.4838 26.9383C29.8798 25.4577 30.6703 23.9366 32.1885 23.5929C33.2782 23.3452 34.4513 23.9937 34.9773 25.1765C35.5674 26.5083 36.1157 27.8582 36.6987 29.1928C36.9896 29.8593 37.5087 30.1571 38.1182 30.0514C38.8892 29.9178 39.3414 29.1315 39.0436 28.355C38.6943 27.4491 38.2838 26.5682 37.9164 25.6692C37.3751 24.3416 37.8594 23.0001 39.0673 22.4378C40.2724 21.8784 41.6988 22.4295 42.3195 23.7334C42.7064 24.5475 43.0292 25.3909 43.3924 26.2161C43.7696 27.0747 44.4431 27.3934 45.157 27.065C45.8319 26.7546 46.0351 26.0602 45.69 25.2266C45.5759 24.9483 45.4465 24.677 45.3323 24.3986C44.7673 23.0349 45.2447 21.6725 46.4818 21.1075C47.7287 20.5383 49.1732 21.088 49.7382 22.4782C50.5537 24.4863 51.3998 26.4986 51.9954 28.5777C53.7238 34.5992 55.3339 40.6555 56.9885 46.6993C57.0609 46.9651 57.1068 47.2392 57.143 47.4048C57.1124 48.5404 56.5752 49.168 55.6512 49.5618L55.654 49.5632Z"
		fill="#6C3BFF" />
</svg>
