 <svg
        xmlns="http://www.w3.org/2000/svg"
        width="24"
        height="20"
        viewBox="0 0 59 58"
        fill="none"
    >
        <path
            d="M58.3974 44.9854C57.0684 40.1495 55.738 35.3137 54.4202 30.475C53.5031 27.1087 52.6333 23.7326 51.1067 20.5653C50.1368 18.5516 48.2734 17.2741 46.1623 17.4049C44.4478 17.5107 43.1634 18.3833 42.2073 19.8472C39.3142 18.0006 37.2852 18.3652 34.7664 21.1387C32.2517 19.452 29.9222 19.7067 27.7651 21.8901C27.6455 21.6229 27.5481 21.4184 27.459 21.2096C26.1662 18.1926 24.8859 15.1714 23.5792 12.1599C23.1533 11.1789 22.4895 10.3884 21.6963 9.83734V0.466191C21.6963 0.208742 21.4876 0 21.2301 0H6.97579C6.71834 0 6.5096 0.208742 6.5096 0.466191V5.58734C2.10513 6.48772 -0.733768 10.7864 0.166608 15.1881C1.06698 19.5912 5.36569 22.4301 9.76737 21.5311C12.1081 21.0524 14.0716 19.5842 15.2128 17.5775C17.9654 24.0318 20.7305 30.482 23.4887 36.9335C23.5806 37.1492 23.6599 37.3705 23.7809 37.685C22.0247 37.1701 20.4202 36.6593 18.792 36.2307C16.1716 35.5405 13.4941 36.9752 12.6578 39.4676C11.8075 42.0004 13.0516 44.6514 15.569 45.7536C19.6325 47.5334 23.639 49.4553 27.761 51.0876C30.4969 52.1717 32.6984 53.7261 34.4296 56.1114C35.9492 58.2057 38.2579 58.5119 40.6585 57.2594C45.3287 54.8227 50.1966 52.8104 55.1619 51.0501C57.9813 50.0509 59.167 47.7811 58.3988 44.9868L58.3974 44.9854ZM9.14532 2.16953H19.0606C19.318 2.16953 19.5268 2.37827 19.5268 2.63572V8.99402C18.9075 8.91469 18.2688 8.95644 17.6397 9.13735C16.8354 9.36836 16.1424 9.77193 15.5857 10.2952C14.3973 7.58431 11.7796 5.64996 8.67634 5.44261V2.63711C8.67634 2.37966 8.88509 2.17092 9.14253 2.17092L9.14532 2.16953ZM8.1364 19.5272C4.84105 19.5272 2.16914 16.8553 2.16914 13.5599C2.16914 10.2646 4.84105 7.59266 8.1364 7.59266C11.4317 7.59266 13.9575 10.1212 14.0967 13.2941C14.0661 13.5669 14.0591 13.8452 14.0758 14.1263C13.7905 17.1558 11.2411 19.5272 8.1364 19.5272ZM54.654 48.5632C50.0394 50.5282 45.4331 52.5113 40.8227 54.4873C40.2493 54.7337 39.676 54.9786 39.0985 55.2179C37.9546 55.6925 37.1697 55.5158 36.3765 54.5875C35.625 53.7066 34.9459 52.7548 34.1262 51.9449C33.4485 51.2769 32.6859 50.6089 31.8328 50.222C26.8035 47.9384 21.7367 45.7355 16.6823 43.5061C15.2114 42.8576 14.5712 41.5634 15.0541 40.2121C15.5175 38.9152 16.9258 38.2792 18.4357 38.7162C20.7444 39.3841 23.049 40.066 25.3493 40.7604C25.9449 40.94 26.4974 40.9831 26.9455 40.4779C27.395 39.9728 27.285 39.4203 27.0429 38.8539C23.6808 31.0122 20.3186 23.1718 16.9759 15.3217C16.7547 14.8026 16.5626 14.2098 16.5877 13.6629C16.635 12.6261 17.2348 11.8886 18.2395 11.5699C19.2554 11.247 20.1168 11.588 20.7959 12.3603C21.0492 12.6484 21.2232 13.0186 21.3762 13.3762C23.8394 19.1125 26.2928 24.8529 28.749 30.5919C28.8214 30.7617 28.8951 30.9315 28.9745 31.0984C29.3349 31.8597 29.9903 32.1477 30.6625 31.8457C31.3346 31.5438 31.5726 30.8702 31.247 30.0881C30.6694 28.7007 30.0516 27.33 29.4838 25.9383C28.8798 24.4577 29.6703 22.9366 31.1885 22.5929C32.2782 22.3452 33.4513 22.9937 33.9773 24.1765C34.5674 25.5083 35.1157 26.8582 35.6988 28.1928C35.9896 28.8593 36.5087 29.1571 37.1182 29.0514C37.8892 28.9178 38.3414 28.1315 38.0436 27.355C37.6943 26.4491 37.2838 25.5682 36.9164 24.6692C36.3751 23.3416 36.8594 22.0001 38.0673 21.4378C39.2724 20.8784 40.6988 21.4295 41.3195 22.7334C41.7064 23.5475 42.0292 24.3909 42.3924 25.2161C42.7696 26.0747 43.4431 26.3934 44.157 26.065C44.8319 25.7546 45.0351 25.0602 44.69 24.2266C44.5759 23.9483 44.4465 23.677 44.3323 23.3986C43.7673 22.0349 44.2447 20.6725 45.4818 20.1075C46.7287 19.5383 48.1732 20.088 48.7382 21.4782C49.5537 23.4863 50.3998 25.4986 50.9954 27.5777C52.7238 33.5992 54.3339 39.6555 55.9885 45.6993C56.0609 45.9651 56.1068 46.2392 56.143 46.4048C56.1124 47.5404 55.5752 48.168 54.6512 48.5618L54.654 48.5632Z"
            fill="#6C3BFF"
        />
    </svg>
