<?xml version="1.0" encoding="utf-8"?>
<!-- Generator: Adobe Illustrator 24.2.1, SVG Export Plug-In . SVG Version: 6.00 Build 0)  -->
<svg version="1.1" id="Layer_1" xmlns="http://www.w3.org/2000/svg" xmlns:xlink="http://www.w3.org/1999/xlink" x="0px" y="0px"
	 viewBox="0 0 66 70" style="enable-background:new 0 0 66 70;" xml:space="preserve">
<style type="text/css">
	.st0{fill:url(#SVGID_1_);}
	.st1{fill:url(#SVGID_2_);}
	.st2{fill:url(#SVGID_3_);}
	.st3{fill:url(#SVGID_4_);}
	.st4{fill:url(#SVGID_5_);}
	.st5{fill:url(#SVGID_6_);}
	.st6{fill:url(#SVGID_7_);}
	.st7{fill:url(#SVGID_8_);}
</style>
<g>
	<g>
		<linearGradient id="SVGID_1_" gradientUnits="userSpaceOnUse" x1="-1.118" y1="46.0848" x2="77.7056" y2="20.4377">
			<stop  offset="0" style="stop-color:#1A6DFF"/>
			<stop  offset="1" style="stop-color:#C822FF"/>
		</linearGradient>
		<path class="st0" d="M61.5,6H4.6C2,6,0,8.2,0,10.6v48.8C0,62,2.2,64,4.6,64h56.7c2.6,0,4.6-2.2,4.6-4.6V10.6C66.2,8,64,6,61.5,6z
			 M2.6,10.6c0-1.2,1-2,2-2h56.7c1.2,0,2,1,2,2v48.8c0,1.2-1,2-2,2H4.6c-1.2,0-2-1-2-2V10.6z"/>
		<linearGradient id="SVGID_2_" gradientUnits="userSpaceOnUse" x1="1.4469" y1="53.9677" x2="80.2704" y2="28.3207">
			<stop  offset="0" style="stop-color:#1A6DFF"/>
			<stop  offset="1" style="stop-color:#C822FF"/>
		</linearGradient>
		<path class="st1" d="M26.8,51.2h12.1c0.6,0,1.2-0.4,1.2-1.2V37.5c0-0.6-0.4-1.2-1.2-1.2H26.8c-0.6,0-1.2,0.4-1.2,1.2V50
			C25.8,50.8,26.2,51.2,26.8,51.2z M37.9,38.9v10.3H28V38.9H37.9z"/>
		<linearGradient id="SVGID_3_" gradientUnits="userSpaceOnUse" x1="-0.2763" y1="48.6717" x2="78.5473" y2="23.0246">
			<stop  offset="0" style="stop-color:#1A6DFF"/>
			<stop  offset="1" style="stop-color:#C822FF"/>
		</linearGradient>
		<path class="st2" d="M9.3,51.2h11.1c0.6,0,1.2-0.4,1.2-1.2V37.5c0-0.6-0.4-1.2-1.2-1.2H9.3c-0.6,0-1.2,0.4-1.2,1.2V50
			C8.1,50.8,8.5,51.2,9.3,51.2z M19.2,38.9v10.3h-8.9V38.9H19.2z"/>
		<linearGradient id="SVGID_4_" gradientUnits="userSpaceOnUse" x1="-3.908" y1="37.5101" x2="74.9156" y2="11.863">
			<stop  offset="0" style="stop-color:#1A6DFF"/>
			<stop  offset="1" style="stop-color:#C822FF"/>
		</linearGradient>
		<path class="st3" d="M26.8,33h12.1c0.6,0,1.2-0.4,1.2-1.2V19.3c0-0.6-0.4-1.2-1.2-1.2H26.8c-0.6,0-1.2,0.4-1.2,1.2v12.5
			C25.8,32.4,26.2,33,26.8,33z M37.9,20.5v9.9c-1-1-3-2.8-3-2.8h-0.2l0,0h-0.2L32.9,29l-2.2-2.6l-0.2-0.2h-0.2h-0.2l0,0
			c0,0-1.4,2-2.4,3.6v-9.5H38L37.9,20.5L37.9,20.5z"/>
		<linearGradient id="SVGID_5_" gradientUnits="userSpaceOnUse" x1="3.151" y1="59.2049" x2="81.9745" y2="33.5579">
			<stop  offset="0" style="stop-color:#1A6DFF"/>
			<stop  offset="1" style="stop-color:#C822FF"/>
		</linearGradient>
		<path class="st4" d="M44.6,51.2h12.1c0.6,0,1.2-0.4,1.2-1.2V37.5c0-0.6-0.4-1.2-1.2-1.2H44.6c-0.6,0-1.2,0.4-1.2,1.2V50
			C43.4,50.8,44,51.2,44.6,51.2z M55.5,38.9v10.3h-9.9V38.9H55.5z"/>
		<linearGradient id="SVGID_6_" gradientUnits="userSpaceOnUse" x1="-2.2039" y1="42.7472" x2="76.6196" y2="17.1002">
			<stop  offset="0" style="stop-color:#1A6DFF"/>
			<stop  offset="1" style="stop-color:#C822FF"/>
		</linearGradient>
		<path class="st5" d="M44.6,33h12.1c0.6,0,1.2-0.4,1.2-1.2V19.3c0-0.6-0.4-1.2-1.2-1.2H44.6c-0.6,0-1.2,0.4-1.2,1.2v12.5
			C43.4,32.4,44,33,44.6,33z M55.5,20.5v10.3h-9.9V20.5H55.5z"/>
		<linearGradient id="SVGID_7_" gradientUnits="userSpaceOnUse" x1="-5.6312" y1="32.214" x2="73.1924" y2="6.567">
			<stop  offset="0" style="stop-color:#1A6DFF"/>
			<stop  offset="1" style="stop-color:#C822FF"/>
		</linearGradient>
		<path class="st6" d="M9.3,33h11.1c0.6,0,1.2-0.4,1.2-1.2V19.3c0-0.6-0.4-1.2-1.2-1.2H9.3c-0.6,0-1.2,0.4-1.2,1.2v12.5
			C8.1,32.4,8.5,33,9.3,33z M19.2,20.5v10.3h-8.9V20.5H19.2z"/>
	</g>
	<linearGradient id="SVGID_8_" gradientUnits="userSpaceOnUse" x1="-3.8025" y1="37.8342" x2="75.021" y2="12.1872">
		<stop  offset="0" style="stop-color:#1A6DFF"/>
		<stop  offset="1" style="stop-color:#C822FF"/>
	</linearGradient>
	<circle class="st7" cx="34.7" cy="25.3" r="1.3"/>
</g>
</svg>
