<?xml version="1.0" encoding="utf-8"?>
<!-- Generator: Adobe Illustrator 24.2.1, SVG Export Plug-In . SVG Version: 6.00 Build 0)  -->
<svg version="1.1" id="Layer_1" xmlns="http://www.w3.org/2000/svg" xmlns:xlink="http://www.w3.org/1999/xlink" x="0px" y="0px"
	 viewBox="0 0 66 70" style="enable-background:new 0 0 66 70;" xml:space="preserve">
<style type="text/css">
	.st0{fill:url(#SVGID_1_);}
	.st1{fill:url(#SVGID_2_);}
	.st2{fill:url(#SVGID_3_);}
	.st3{fill:url(#SVGID_4_);}
</style>
<g>
	
		<linearGradient id="SVGID_1_" gradientUnits="userSpaceOnUse" x1="-13.1184" y1="38.8889" x2="79.2193" y2="34.903" gradientTransform="matrix(1 0 0 -1 0 72)">
		<stop  offset="0" style="stop-color:#1A6DFF"/>
		<stop  offset="1" style="stop-color:#C822FF"/>
	</linearGradient>
	<path class="st0" d="M51.1,4.8H14.8c-3.1,0-5.7,2.6-5.7,5.7v49.1c0,3.1,2.6,5.7,5.7,5.7h36.3c3.1,0,5.7-2.6,5.7-5.7V10.6
		C56.8,7.4,54.2,4.8,51.1,4.8z M14.8,7.4h36.3c1.7,0,3.1,1.4,3.1,3.1v13.1L29.1,47.2l-9.1-11.1l-8.2,10.3V10.6
		C11.7,8.8,13.1,7.4,14.8,7.4z M51.1,62.8H14.8c-1.7,0-3.1-1.4-3.1-3.1v-9l8.2-10.4L28.8,51l25.4-23.8v32.4
		C54.2,61.4,52.8,62.8,51.1,62.8z"/>
	
		<linearGradient id="SVGID_2_" gradientUnits="userSpaceOnUse" x1="-12.5495" y1="52.0676" x2="79.7881" y2="48.0818" gradientTransform="matrix(1 0 0 -1 0 72)">
		<stop  offset="0" style="stop-color:#1A6DFF"/>
		<stop  offset="1" style="stop-color:#C822FF"/>
	</linearGradient>
	<path class="st1" d="M39.5,26.5c2.4,0,4.3-2,4.3-4.3c0-2.4-2-4.3-4.3-4.3s-4.3,2-4.3,4.3C35.1,24.5,37.1,26.5,39.5,26.5z
		 M39.5,20.4c1,0,1.7,0.8,1.7,1.7s-0.8,1.7-1.7,1.7s-1.7-0.8-1.7-1.7C37.7,21.2,38.5,20.4,39.5,20.4z"/>
	
		<linearGradient id="SVGID_3_" gradientUnits="userSpaceOnUse" x1="-13.1719" y1="37.6491" x2="79.1657" y2="33.6632" gradientTransform="matrix(1 0 0 -1 0 72)">
		<stop  offset="0" style="stop-color:#1A6DFF"/>
		<stop  offset="1" style="stop-color:#C822FF"/>
	</linearGradient>
	<path class="st2" d="M3.4,35.4l2-2.9C5.8,31.8,5.6,31,5,30.6c-0.6-0.4-1.4-0.3-1.8,0.3L0,35.7l3.6,3.7c0.3,0.3,0.6,0.4,1,0.4
		c0.3,0,0.6-0.1,0.9-0.3c0.5-0.5,0.5-1.3,0-1.8L3.4,35.4z"/>
	
		<linearGradient id="SVGID_4_" gradientUnits="userSpaceOnUse" x1="-13.0655" y1="40.115" x2="79.2722" y2="36.1293" gradientTransform="matrix(1 0 0 -1 0 72)">
		<stop  offset="0" style="stop-color:#1A6DFF"/>
		<stop  offset="1" style="stop-color:#C822FF"/>
	</linearGradient>
	<path class="st3" d="M62.9,31c-0.4-0.6-1.2-0.8-1.8-0.3s-0.8,1.2-0.3,1.8l2,2.9l-2.1,2.2c-0.5,0.5-0.5,1.3,0,1.8
		c0.3,0.3,0.6,0.3,0.9,0.3c0.3,0,0.7-0.2,1-0.4l3.6-3.7L62.9,31z"/>
</g>
</svg>
