<svg width="60" height="50" viewBox="0 0 60 50" fill="none" xmlns="http://www.w3.org/2000/svg">
	<path d="M55.9091 0.142857H4.18182C1.81818 0.142857 0 2.02857 0 4.08571V45.9143C0 48.1429 2 49.8571 4.18182 49.8571H55.7273C58.0909 49.8571 59.9091 47.9714 59.9091 45.9143V4.08571C60.1818 1.85714 58.1818 0.142857 55.9091 0.142857ZM2.36364 4.08571C2.36364 3.05714 3.27273 2.37143 4.18182 2.37143H55.7273C56.8182 2.37143 57.5455 3.22857 57.5455 4.08571V45.9143C57.5455 46.9429 56.6364 47.6286 55.7273 47.6286H4.18182C3.09091 47.6286 2.36364 46.7714 2.36364 45.9143V4.08571Z" fill="#6C3BFF"/>
	<path d="M24.3636 38.8857H35.3636C35.9091 38.8857 36.4545 38.5429 36.4545 37.8571V27.1429C36.4545 26.6286 36.0909 26.1143 35.3636 26.1143H24.3636C23.8182 26.1143 23.2727 26.4571 23.2727 27.1429V37.8571C23.4545 38.5429 23.8182 38.8857 24.3636 38.8857ZM34.4545 28.3429V37.1714H25.4545V28.3429H34.4545Z" fill="#6C3BFF"/>
	<path d="M8.45456 38.8857H18.5455C19.0909 38.8857 19.6364 38.5429 19.6364 37.8571V27.1429C19.6364 26.6286 19.2727 26.1143 18.5455 26.1143H8.45456C7.9091 26.1143 7.36365 26.4571 7.36365 27.1429V37.8571C7.36365 38.5429 7.72728 38.8857 8.45456 38.8857ZM17.4546 28.3429V37.1714H9.36365V28.3429H17.4546Z" fill="#6C3BFF"/>
	<path d="M24.3636 23.2857H35.3636C35.9091 23.2857 36.4545 22.9429 36.4545 22.2571V11.5429C36.4545 11.0286 36.0909 10.5143 35.3636 10.5143H24.3636C23.8182 10.5143 23.2727 10.8571 23.2727 11.5429V22.2571C23.4545 22.7714 23.8182 23.2857 24.3636 23.2857ZM34.4545 12.5714V21.0571C33.5454 20.2 31.7273 18.6571 31.7273 18.6571H31.5454H31.3636L29.9091 19.8571L27.9091 17.6286L27.7273 17.4571H27.5454H27.3636C27.3636 17.4571 26.0909 19.1714 25.1818 20.5429V12.4H34.5454L34.4545 12.5714Z" fill="#6C3BFF"/>
	<path d="M40.5455 38.8857H51.5455C52.091 38.8857 52.6364 38.5429 52.6364 37.8571V27.1429C52.6364 26.6286 52.2728 26.1143 51.5455 26.1143H40.5455C40 26.1143 39.4546 26.4571 39.4546 27.1429V37.8571C39.4546 38.5429 40 38.8857 40.5455 38.8857ZM50.4546 28.3429V37.1714H41.4546V28.3429H50.4546Z" fill="#6C3BFF"/>
	<path d="M40.5455 23.2857H51.5455C52.091 23.2857 52.6364 22.9429 52.6364 22.2571V11.5429C52.6364 11.0286 52.2728 10.5143 51.5455 10.5143H40.5455C40 10.5143 39.4546 10.8571 39.4546 11.5429V22.2571C39.4546 22.7714 40 23.2857 40.5455 23.2857ZM50.4546 12.5714V21.4H41.4546V12.5714H50.4546Z" fill="#6C3BFF"/>
	<path d="M8.45456 23.2857H18.5455C19.0909 23.2857 19.6364 22.9429 19.6364 22.2571V11.5429C19.6364 11.0286 19.2727 10.5143 18.5455 10.5143H8.45456C7.9091 10.5143 7.36365 10.8571 7.36365 11.5429V22.2571C7.36365 22.7714 7.72728 23.2857 8.45456 23.2857ZM17.4546 12.5714V21.4H9.36365V12.5714H17.4546Z" fill="#6C3BFF"/>
	<path d="M31.5455 17.8C32.1982 17.8 32.7273 17.3011 32.7273 16.6857C32.7273 16.0703 32.1982 15.5714 31.5455 15.5714C30.8928 15.5714 30.3636 16.0703 30.3636 16.6857C30.3636 17.3011 30.8928 17.8 31.5455 17.8Z" fill="#6C3BFF"/>
	</svg>
