<svg width="57" height="60" viewBox="0 0 57 60" fill="none" xmlns="http://www.w3.org/2000/svg">
	<path
		d="M55.1143 0.342865H28.2H1.37143C0.6 0.342865 0 0.942865 0 1.71429V58.2857C0 59.0571 0.6 59.6571 1.37143 59.6571H26.9143H28.2857H29.6571H55.2C55.9714 59.6571 56.5714 59.0571 56.5714 58.2857V1.88572C56.4857 1.28572 55.8857 0.342865 55.1143 0.342865ZM2.65714 56.9143V3.17144H26.9143V15H16.3714C15.6 15 15 15.6 15 16.3714V42.1714C15 42.9429 15.6 43.5429 16.3714 43.5429H26.8286V57.0857L2.65714 56.9143ZM29.5714 37.2C29.7429 37.2 29.9143 37.3714 30.1714 37.3714C30.5143 37.3714 30.7714 37.2 30.9429 37.0286L39.3429 28.6286L45.8571 35.1429V41.1429H29.4V37.1143C29.4 37.1143 29.5714 37.1143 29.5714 37.2ZM40.2857 26.3143C40.1143 26.1429 39.6857 25.9714 39.5143 25.9714C39.1714 25.9714 38.9143 26.1429 38.7429 26.3143L30.1714 34.7143L29.5714 34.1143V17.4857H45.9429V31.9714L40.2857 26.3143ZM26.9143 41.4H17.4V38.5714V35.3143V24.3429V17.3143H26.9143V41.4ZM53.8286 4.20001V19.1143V37.2V42.5143V57H29.5714V43.4571H46.9714C47.7429 43.4571 48.3429 42.8571 48.3429 42.0857V16.5429C48.3429 15.7714 47.7429 15.1714 46.9714 15.1714H29.5714V3.42858H34.5429H53.8286V4.20001Z"
		fill="#6C3BFF" />
	<path
		d="M34.7143 20.2286C33.1714 20.2286 32.0571 21.3429 32.0571 22.8857C32.0571 24.4286 33.1714 25.5429 34.7143 25.5429C36.2571 25.5429 37.3714 24.4286 37.3714 22.8857C37.3714 21.3429 36.2571 20.2286 34.7143 20.2286Z"
		fill="#6C3BFF" />
</svg>
