<?xml version="1.0" encoding="utf-8"?>
<!-- Generator: Adobe Illustrator 24.2.1, SVG Export Plug-In . SVG Version: 6.00 Build 0)  -->
<svg version="1.1" id="Layer_1" xmlns="http://www.w3.org/2000/svg" xmlns:xlink="http://www.w3.org/1999/xlink" x="0px" y="0px"
	 viewBox="0 0 66 70" style="enable-background:new 0 0 66 70;" xml:space="preserve">
<style type="text/css">
	.st0{fill:url(#SVGID_1_);}
	.st1{fill:url(#SVGID_2_);}
	.st2{fill:url(#SVGID_3_);}
	.st3{fill:url(#SVGID_4_);}
	.st4{fill:url(#SVGID_5_);}
	.st5{fill:url(#SVGID_6_);}
	.st6{fill:url(#SVGID_7_);}
</style>
<g>
	<g>
		<g>
			<linearGradient id="SVGID_1_" gradientUnits="userSpaceOnUse" x1="-5.1643" y1="52.2432" x2="65.1123" y2="20.6475">
				<stop  offset="0" style="stop-color:#1A6DFF"/>
				<stop  offset="1" style="stop-color:#C822FF"/>
			</linearGradient>
			<path class="st0" d="M16.1,44.9h34.4c0.7,0,1.3-0.5,1.3-1.3V26.4c0-0.7-0.5-1.3-1.3-1.3H16.1c-0.7,0-1.3,0.5-1.3,1.3v17.2
				C14.8,44.4,15.4,44.9,16.1,44.9z M17.2,27.7H49v14.6H17.2V27.7z"/>
			<linearGradient id="SVGID_2_" gradientUnits="userSpaceOnUse" x1="-7.5248" y1="46.993" x2="62.7518" y2="15.3973">
				<stop  offset="0" style="stop-color:#1A6DFF"/>
				<stop  offset="1" style="stop-color:#C822FF"/>
			</linearGradient>
			<path class="st1" d="M20.9,33.8h7.3c0.7,0,1.3-0.5,1.3-1.3c0-0.7-0.5-1.1-1.1-1.1H21c-0.7,0-1.3,0.5-1.3,1.3
				C19.8,33.3,20.3,33.8,20.9,33.8z"/>
			<linearGradient id="SVGID_3_" gradientUnits="userSpaceOnUse" x1="-6.126" y1="50.1042" x2="64.1506" y2="18.5084">
				<stop  offset="0" style="stop-color:#1A6DFF"/>
				<stop  offset="1" style="stop-color:#C822FF"/>
			</linearGradient>
			<path class="st2" d="M33.1,33.8c0.4,0,0.5-0.2,0.9-0.4c0.2-0.2,0.4-0.5,0.4-0.9c0-0.4-0.2-0.5-0.4-0.9c-0.5-0.4-1.3-0.4-1.8,0
				c-0.2,0.2-0.4,0.5-0.4,0.9c0,0.4,0.2,0.5,0.4,0.9C32.6,33.8,32.9,33.8,33.1,33.8z"/>
			<linearGradient id="SVGID_4_" gradientUnits="userSpaceOnUse" x1="-3.8052" y1="55.2662" x2="66.4714" y2="23.6705">
				<stop  offset="0" style="stop-color:#1A6DFF"/>
				<stop  offset="1" style="stop-color:#C822FF"/>
			</linearGradient>
			<path class="st3" d="M45.5,36.3H25.8c-0.7,0-1.3,0.5-1.3,1.3c0,0.7,0.5,1.3,1.3,1.3h19.6c0.7,0,1.3-0.5,1.3-1.3
				C46.6,36.8,46.1,36.3,45.5,36.3z"/>
			<linearGradient id="SVGID_5_" gradientUnits="userSpaceOnUse" x1="-6.2763" y1="49.7699" x2="64.0003" y2="18.1741">
				<stop  offset="0" style="stop-color:#1A6DFF"/>
				<stop  offset="1" style="stop-color:#C822FF"/>
			</linearGradient>
			<path class="st4" d="M20.1,36.7c-0.2,0.2-0.4,0.5-0.4,0.9s0.2,0.5,0.4,0.9c0.2,0.2,0.5,0.4,0.9,0.4s0.5-0.2,0.9-0.4
				c0.2-0.2,0.4-0.5,0.4-0.9s-0.2-0.5-0.4-0.9C21.4,36,20.5,36,20.1,36.7z"/>
		</g>
		<linearGradient id="SVGID_6_" gradientUnits="userSpaceOnUse" x1="-13.8747" y1="32.8694" x2="56.4019" y2="1.2736">
			<stop  offset="0" style="stop-color:#1A6DFF"/>
			<stop  offset="1" style="stop-color:#C822FF"/>
		</linearGradient>
		<path class="st5" d="M33.1,5.6L33.1,5.6c-3.3,0-6.2,2.7-6.2,6.2s2.7,6.2,6.2,6.2l0,0c3.3,0,6.2-2.7,6.2-6.2S36.6,5.6,33.1,5.6z
			 M33.1,15.4L33.1,15.4c-2,0-3.7-1.6-3.7-3.7s1.6-3.7,3.7-3.7l0,0c2,0,3.7,1.6,3.7,3.7S35.3,15.4,33.1,15.4z"/>
	</g>
	<linearGradient id="SVGID_7_" gradientUnits="userSpaceOnUse" x1="-3.4209" y1="56.121" x2="66.8557" y2="24.5253">
		<stop  offset="0" style="stop-color:#1A6DFF"/>
		<stop  offset="1" style="stop-color:#C822FF"/>
	</linearGradient>
	<path class="st6" d="M63.5,60.5c0,0.7-0.2,1.3-1,1.3H3.9c-0.7,0-1.3-0.5-1.3-1.3v-2.4v-2.4v-39c0-0.8-0.6-1.3-1.3-1.3l0,0
		c-0.7,0-1.3,0.5-1.3,1.3V62c0,1.3,1.1,2.4,2.4,2.4h61.2c1.3,0,2.4-1.1,2.4-2.4V16.8c0-0.7-0.5-1.3-1.3-1.3l0,0
		c-0.7,0-1.3,0.5-1.3,1.3v39.1L63.5,60.5z"/>
</g>
</svg>
