<svg width="66" height="60" viewBox="0 0 66 60" fill="none" xmlns="http://www.w3.org/2000/svg">
	<path d="M16.1 39.9H50.5C51.2 39.9 51.8 39.4 51.8 38.6V21.4C51.8 20.7 51.3 20.1 50.5 20.1H16.1C15.4 20.1 14.8 20.6 14.8 21.4V38.6C14.8 39.4 15.4 39.9 16.1 39.9ZM17.2 22.7H49V37.3H17.2V22.7Z" fill="#6C3BFF"/>
	<path d="M20.9 28.8H28.2C28.9 28.8 29.5 28.3 29.5 27.5C29.5 26.8 29 26.4 28.4 26.4H21C20.3 26.4 19.7 26.9 19.7 27.7C19.8 28.3 20.3 28.8 20.9 28.8Z" fill="#6C3BFF"/>
	<path d="M33.1 28.8C33.5 28.8 33.6 28.6 34 28.4C34.2 28.2 34.4 27.9 34.4 27.5C34.4 27.1 34.2 27 34 26.6C33.5 26.2 32.7 26.2 32.2 26.6C32 26.8 31.8 27.1 31.8 27.5C31.8 27.9 32 28 32.2 28.4C32.6 28.8 32.9 28.8 33.1 28.8Z" fill="#6C3BFF"/>
	<path d="M45.5 31.3H25.8C25.1 31.3 24.5 31.8 24.5 32.6C24.5 33.3 25 33.9 25.8 33.9H45.4C46.1 33.9 46.7 33.4 46.7 32.6C46.6 31.8 46.1 31.3 45.5 31.3Z" fill="#6C3BFF"/>
	<path d="M20.1 31.7C19.9 31.9 19.7 32.2 19.7 32.6C19.7 33 19.9 33.1 20.1 33.5C20.3 33.7 20.6 33.9 21 33.9C21.4 33.9 21.5 33.7 21.9 33.5C22.1 33.3 22.3 33 22.3 32.6C22.3 32.2 22.1 32.1 21.9 31.7C21.4 31 20.5 31 20.1 31.7Z" fill="#6C3BFF"/>
	<path d="M33.1 0.600006C29.8 0.600006 26.9 3.30001 26.9 6.80001C26.9 10.3 29.6 13 33.1 13C36.4 13 39.3 10.3 39.3 6.80001C39.3 3.30001 36.6 0.600006 33.1 0.600006ZM33.1 10.4C31.1 10.4 29.4 8.80001 29.4 6.70001C29.4 4.60001 31 3.00001 33.1 3.00001C35.1 3.00001 36.8 4.60001 36.8 6.70001C36.8 8.80001 35.3 10.4 33.1 10.4Z" fill="#6C3BFF"/>
	<path d="M63.5 55.5C63.5 56.2 63.3 56.8 62.5 56.8H3.9C3.2 56.8 2.6 56.3 2.6 55.5V53.1V50.7V11.7C2.6 10.9 2 10.4 1.3 10.4C0.6 10.4 0 10.9 0 11.7V57C0 58.3 1.1 59.4 2.4 59.4H63.6C64.9 59.4 66 58.3 66 57V11.8C66 11.1 65.5 10.5 64.7 10.5C64 10.5 63.4 11 63.4 11.8V50.9L63.5 55.5Z" fill="#6C3BFF"/>
	</svg>
