<?xml version="1.0" encoding="utf-8"?>
<!-- Generator: Adobe Illustrator 24.2.1, SVG Export Plug-In . SVG Version: 6.00 Build 0)  -->
<svg version="1.1" id="Layer_1" xmlns="http://www.w3.org/2000/svg" xmlns:xlink="http://www.w3.org/1999/xlink" x="0px" y="0px"
	 viewBox="0 0 66 70" style="enable-background:new 0 0 66 70;" xml:space="preserve">
<style type="text/css">
	.st0{fill:url(#SVGID_1_);}
	.st1{fill:url(#SVGID_2_);}
	.st2{fill:url(#SVGID_3_);}
	.st3{fill:url(#SVGID_4_);}
	.st4{fill:url(#SVGID_5_);}
	.st5{fill:url(#SVGID_6_);}
	.st6{fill:url(#SVGID_7_);}
	.st7{fill:url(#SVGID_8_);}
	.st8{fill:url(#SVGID_9_);}
</style>
<g>
	<g>
		<linearGradient id="SVGID_1_" gradientUnits="userSpaceOnUse" x1="2.0542" y1="45.7448" x2="61.7013" y2="25.0978">
			<stop  offset="0" style="stop-color:#1A6DFF"/>
			<stop  offset="1" style="stop-color:#C822FF"/>
		</linearGradient>
		<path class="st0" d="M61.6,6H4.8c-2.6,0-4.7,2.2-4.7,4.6v48.7C0.1,62,2.4,64,4.8,64h56.6c2.6,0,4.6-2.2,4.6-4.6V10.6
			C66.2,8,64,6,61.6,6z M63.4,59.3c0,1.2-1,2-2,2H4.8c-1.2,0-2-1-2-2V10.6c0-1.2,1-2,2-2h56.6c1.2,0,2,1,2,2L63.4,59.3z"/>
		<linearGradient id="SVGID_2_" gradientUnits="userSpaceOnUse" x1="4.7126" y1="53.4245" x2="64.3596" y2="32.7774">
			<stop  offset="0" style="stop-color:#1A6DFF"/>
			<stop  offset="1" style="stop-color:#C822FF"/>
		</linearGradient>
		<path class="st1" d="M39,36.2H26.9c-0.6,0-1.2,0.4-1.2,1.2v12.5c0.2,0.8,0.6,1.2,1.2,1.2H39c0.6,0,1.2-0.4,1.2-1.2V37.4
			C40.2,36.8,40,36.2,39,36.2z M38,49.1h-9.9V38.8H38V49.1z"/>
		<linearGradient id="SVGID_3_" gradientUnits="userSpaceOnUse" x1="2.7865" y1="47.8604" x2="62.4336" y2="27.2134">
			<stop  offset="0" style="stop-color:#1A6DFF"/>
			<stop  offset="1" style="stop-color:#C822FF"/>
		</linearGradient>
		<path class="st2" d="M20.5,36.2H9.4c-0.6,0-1.2,0.4-1.2,1.2v12.5c0,0.8,0.4,1.2,1.2,1.2h11.1c0.6,0,1.2-0.4,1.2-1.2V37.4
			C21.9,36.8,21.5,36.2,20.5,36.2z M19.5,49.1h-8.9V38.8h8.9V49.1z"/>
		<linearGradient id="SVGID_4_" gradientUnits="userSpaceOnUse" x1="6.6065" y1="58.8958" x2="66.2535" y2="38.2488">
			<stop  offset="0" style="stop-color:#1A6DFF"/>
			<stop  offset="1" style="stop-color:#C822FF"/>
		</linearGradient>
		<path class="st3" d="M56.7,36.2H44.6c-0.6,0-1.2,0.4-1.2,1.2v12.5c0,0.8,0.6,1.2,1.2,1.2h12.1c0.6,0,1.2-0.4,1.2-1.2V37.4
			C58.1,36.8,57.7,36.2,56.7,36.2z M55.7,49.1h-9.9V38.8h9.9L55.7,49.1z"/>
		<linearGradient id="SVGID_5_" gradientUnits="userSpaceOnUse" x1="1.0115" y1="42.7326" x2="60.6586" y2="22.0855">
			<stop  offset="0" style="stop-color:#1A6DFF"/>
			<stop  offset="1" style="stop-color:#C822FF"/>
		</linearGradient>
		<path class="st4" d="M56.7,18.1H44.6c-0.6,0-1.2,0.4-1.2,1.2v12.5c0,0.6,0.6,1.2,1.2,1.2h12.1c0.6,0,1.2-0.4,1.2-1.2V19.3
			C58.1,18.7,57.7,18.1,56.7,18.1z M55.7,30.7h-9.9V20.5h9.9L55.7,30.7z"/>
		<linearGradient id="SVGID_6_" gradientUnits="userSpaceOnUse" x1="-2.8085" y1="31.6972" x2="56.8386" y2="11.0501">
			<stop  offset="0" style="stop-color:#1A6DFF"/>
			<stop  offset="1" style="stop-color:#C822FF"/>
		</linearGradient>
		<path class="st5" d="M20.5,18.1H9.4c-0.6,0-1.2,0.4-1.2,1.2v12.5c0,0.6,0.4,1.2,1.2,1.2h11.1c0.6,0,1.2-0.4,1.2-1.2V19.3
			C21.9,18.7,21.5,18.1,20.5,18.1z M19.5,30.7h-8.9V20.5h8.9V30.7z"/>
		<linearGradient id="SVGID_7_" gradientUnits="userSpaceOnUse" x1="-0.8734" y1="37.2874" x2="58.7737" y2="16.6403">
			<stop  offset="0" style="stop-color:#1A6DFF"/>
			<stop  offset="1" style="stop-color:#C822FF"/>
		</linearGradient>
		<path class="st6" d="M36.4,17.9H30c-2.4,0-4.4,2-4.4,4.4v6.4c0,2.4,2,4.4,4.4,4.4h6.4c2.4,0,4-2,4-4.4v-6.4
			C40.2,19.9,38.8,17.9,36.4,17.9z M27.5,22.3c0-1.2,1-2.2,2.2-2.2h6.4c1.2,0,2.2,1,2.2,2.2v6.4c0,1.2-1,2.2-2.2,2.2h-6.4
			c-1.2,0-2.2-1-2.2-2.2L27.5,22.3z"/>
		<linearGradient id="SVGID_8_" gradientUnits="userSpaceOnUse" x1="-0.7808" y1="37.5549" x2="58.8663" y2="16.9078">
			<stop  offset="0" style="stop-color:#1A6DFF"/>
			<stop  offset="1" style="stop-color:#C822FF"/>
		</linearGradient>
		<path class="st7" d="M32.6,29c1.6,0,3-1.4,3-3s-1.4-3-3-3c-0.7,0-1.3,0.2-1.8,0.6c-1.6,1.2-1.4,3.7,0.2,4.8
			C31.5,28.8,32,29,32.6,29z M32.6,24.4c0.8,0,1.6,0.8,1.6,1.6c0,0.8-0.8,1.6-1.6,1.6S31,26.8,31,26S31.8,24.4,32.6,24.4z"/>
	</g>
	<linearGradient id="SVGID_9_" gradientUnits="userSpaceOnUse" x1="-1.642" y1="35.0668" x2="58.005" y2="14.4197">
		<stop  offset="0" style="stop-color:#1A6DFF"/>
		<stop  offset="1" style="stop-color:#C822FF"/>
	</linearGradient>
	<circle class="st8" cx="35.8" cy="22.1" r="0.9"/>
</g>
</svg>
