<svg width="60" height="50" viewBox="0 0 60 50" fill="none" xmlns="http://www.w3.org/2000/svg">
	<path
		d="M56 0.142857H4.36367C2.00003 0.142857 0.0909424 2.02857 0.0909424 4.08571V45.8286C0.0909424 48.1429 2.18185 49.8571 4.36367 49.8571H55.8182C58.1819 49.8571 60 47.9714 60 45.9143V4.08571C60.1819 1.85714 58.1819 0.142857 56 0.142857ZM57.6364 45.8286C57.6364 46.8571 56.7273 47.5429 55.8182 47.5429H4.36367C3.27276 47.5429 2.54549 46.6857 2.54549 45.8286V4.08571C2.54549 3.05714 3.45458 2.37143 4.36367 2.37143H55.8182C56.9091 2.37143 57.6364 3.22857 57.6364 4.08571V45.8286Z"
		fill="#6C3BFF" />
	<path
		d="M35.4546 26.0286H24.4546C23.9091 26.0286 23.3636 26.3714 23.3636 27.0571V37.7714C23.5455 38.4571 23.9091 38.8 24.4546 38.8H35.4546C36 38.8 36.5455 38.4571 36.5455 37.7714V27.0571C36.5455 26.5429 36.3636 26.0286 35.4546 26.0286ZM34.5455 37.0857H25.5455V28.2571H34.5455V37.0857Z"
		fill="#6C3BFF" />
	<path
		d="M18.6364 26.0286H8.5455C8.00004 26.0286 7.45459 26.3714 7.45459 27.0571V37.7714C7.45459 38.4571 7.81823 38.8 8.5455 38.8H18.6364C19.1819 38.8 19.7273 38.4571 19.7273 37.7714V27.0571C19.9091 26.5429 19.5455 26.0286 18.6364 26.0286ZM17.7273 37.0857H9.63641V28.2571H17.7273V37.0857Z"
		fill="#6C3BFF" />
	<path
		d="M51.5455 26.0286H40.5455C40 26.0286 39.4546 26.3714 39.4546 27.0571V37.7714C39.4546 38.4571 40 38.8 40.5455 38.8H51.5455C52.091 38.8 52.6364 38.4571 52.6364 37.7714V27.0571C52.8182 26.5429 52.4546 26.0286 51.5455 26.0286ZM50.6364 37.0857H41.6364V28.2571H50.6364V37.0857Z"
		fill="#6C3BFF" />
	<path
		d="M51.5455 10.5143H40.5455C40 10.5143 39.4546 10.8571 39.4546 11.5429V22.2571C39.4546 22.7714 40 23.2857 40.5455 23.2857H51.5455C52.091 23.2857 52.6364 22.9429 52.6364 22.2571V11.5429C52.8182 11.0286 52.4546 10.5143 51.5455 10.5143ZM50.6364 21.3143H41.6364V12.5714H50.6364V21.3143Z"
		fill="#6C3BFF" />
	<path
		d="M18.6364 10.5143H8.5455C8.00004 10.5143 7.45459 10.8571 7.45459 11.5429V22.2571C7.45459 22.7714 7.81823 23.2857 8.5455 23.2857H18.6364C19.1819 23.2857 19.7273 22.9429 19.7273 22.2571V11.5429C19.9091 11.0286 19.5455 10.5143 18.6364 10.5143ZM17.7273 21.3143H9.63641V12.5714H17.7273V21.3143Z"
		fill="#6C3BFF" />
	<path
		d="M33.0909 10.3429H27.2727C25.0909 10.3429 23.2727 12.0571 23.2727 14.1143V19.6C23.2727 21.6571 25.0909 23.3714 27.2727 23.3714H33.0909C35.2727 23.3714 36.7273 21.6571 36.7273 19.6V14.1143C36.5454 12.0571 35.2727 10.3429 33.0909 10.3429ZM25 14.1143C25 13.0857 25.9091 12.2286 27 12.2286H32.8182C33.9091 12.2286 34.8182 13.0857 34.8182 14.1143V19.6C34.8182 20.6286 33.9091 21.4857 32.8182 21.4857H27C25.9091 21.4857 25 20.6286 25 19.6V14.1143Z"
		fill="#6C3BFF" />
	<path
		d="M29.6363 19.8571C31.0909 19.8571 32.3636 18.6571 32.3636 17.2857C32.3636 15.9143 31.0909 14.7143 29.6363 14.7143C29 14.7143 28.4545 14.8857 28 15.2286C26.5454 16.2571 26.7273 18.4 28.1818 19.3429C28.6363 19.6857 29.0909 19.8571 29.6363 19.8571ZM29.6363 15.9143C30.3636 15.9143 31.0909 16.6 31.0909 17.2857C31.0909 17.9714 30.3636 18.6571 29.6363 18.6571C28.9091 18.6571 28.1818 17.9714 28.1818 17.2857C28.1818 16.6 28.9091 15.9143 29.6363 15.9143Z"
		fill="#6C3BFF" />
	<path
		d="M32.5455 14.7143C32.9973 14.7143 33.3637 14.3689 33.3637 13.9429C33.3637 13.5168 32.9973 13.1714 32.5455 13.1714C32.0936 13.1714 31.7273 13.5168 31.7273 13.9429C31.7273 14.3689 32.0936 14.7143 32.5455 14.7143Z"
		fill="#6C3BFF" />
</svg>
