<svg width="60" height="60" viewBox="0 0 60 60" fill="none" xmlns="http://www.w3.org/2000/svg">
	<path
		d="M58.7273 0.34285H30.1818H1.45455C0.636364 0.34285 0 0.94285 0 1.71428V58.3714C0 59.1428 0.636364 59.7428 1.45455 59.7428H30H58.5455C59.3636 59.7428 60 59.1428 60 58.3714V1.71428C60.0909 0.94285 59.4545 0.34285 58.7273 0.34285ZM57.2727 56.9143H28.7273H19.4545H3.09091V2.91428H31.6364H36.9091H57.2727C57.2727 2.99999 57.2727 56.9143 57.2727 56.9143Z"
		fill="#6C3BFF" />
	<path
		d="M14.8182 12.3428V25.8857C14.8182 27.2571 15.8182 28.2 17.2728 28.2H19.2728H20.9091H45.1819C46.6364 28.2 47.6364 27.2571 47.6364 25.8857V12.3428C47.6364 10.9714 46.6364 10.0286 45.1819 10.0286H17.0001C15.8182 10.1143 14.8182 11.0571 14.8182 12.3428ZM44.9091 25.8857H20.6364H19.0001H17.0001V12.3428H44.9091V25.8857Z"
		fill="#6C3BFF" />
	<path
		d="M21.8182 17.9143H28.2727C28.6364 17.9143 29.0909 17.5714 29.0909 17.1428V16.3714C29.0909 16.0286 28.7273 15.6 28.2727 15.6H21.8182C21.4545 15.6 21 15.9428 21 16.3714V17.1428C21.0909 17.4857 21.2727 17.9143 21.8182 17.9143Z"
		fill="#6C3BFF" />
	<path
		d="M32.5455 17.9143H39.091C39.4546 17.9143 39.9091 17.5714 39.9091 17.1428V16.3714C39.9091 16.0286 39.5455 15.6 39.091 15.6H32.6364C32.2728 15.6 31.8182 15.9428 31.8182 16.3714V17.1428C31.8182 17.4857 32.1819 17.9143 32.5455 17.9143Z"
		fill="#6C3BFF" />
	<path
		d="M44.909 31.8H17C15.5454 31.8 14.5454 32.7428 14.5454 34.1143V47.6571C14.5454 49.0286 15.5454 49.9714 17 49.9714H19H20.6363H44.909C46.3636 49.9714 47.3636 49.0286 47.3636 47.6571V34.1143C47.3636 32.7428 46.3636 31.8 44.909 31.8ZM44.909 47.6571H20.6363H19H17V34.1143H44.909V47.6571Z"
		fill="#6C3BFF" />
</svg>
