<svg width="60" height="60" viewBox="0 0 60 60" fill="none" xmlns="http://www.w3.org/2000/svg">
	<g clip-path="url(#clip0_2_22491)">
		<path
			d="M40.36 7.15002H56.51C57.08 7.15002 57.55 7.62002 57.55 8.19002V52.13C57.55 52.7 57.08 53.17 56.51 53.17H40.36V7.15002Z"
			stroke="#6C3BFF" stroke-width="2.3" stroke-miterlimit="10" />
		<path
			d="M24.19 7.15002H40.36V53.17H24.19C23.63 53.17 23.17 52.71 23.17 52.15V8.17002C23.17 7.61002 23.63 7.15002 24.19 7.15002Z"
			stroke="#6C3BFF" stroke-width="2.3" stroke-miterlimit="10" />
		<path d="M2.15002 12.7H15.51" stroke="#6C3BFF" stroke-width="2.3" stroke-miterlimit="10"
			stroke-linecap="round" />
		<path d="M2.15002 19.96H15.51" stroke="#6C3BFF" stroke-width="2.3" stroke-miterlimit="10"
			stroke-linecap="round" />
		<path d="M2.15002 27.22H15.51" stroke="#6C3BFF" stroke-width="2.3" stroke-miterlimit="10"
			stroke-linecap="round" />
		<path d="M2.15002 34.48H15.51" stroke="#6C3BFF" stroke-width="2.3" stroke-miterlimit="10"
			stroke-linecap="round" />
		<path d="M2.15002 41.74H15.51" stroke="#6C3BFF" stroke-width="2.3" stroke-miterlimit="10"
			stroke-linecap="round" />
		<path d="M2.15002 49H15.51" stroke="#6C3BFF" stroke-width="2.3" stroke-miterlimit="10"
			stroke-linecap="round" />
		<path d="M29.03 27.48H35.28" stroke="#6C3BFF" stroke-miterlimit="10" stroke-linecap="round" />
		<path d="M29.03 34.08H35.28" stroke="#6C3BFF" stroke-miterlimit="10" stroke-linecap="round" />
		<path d="M29.03 40.67H35.28" stroke="#6C3BFF" stroke-miterlimit="10" stroke-linecap="round" />
		<path d="M29.03 47.27H35.28" stroke="#6C3BFF" stroke-miterlimit="10" stroke-linecap="round" />
		<path d="M45.82 27.48H52.08" stroke="#6C3BFF" stroke-miterlimit="10" stroke-linecap="round" />
		<path d="M45.82 34.08H52.08" stroke="#6C3BFF" stroke-miterlimit="10" stroke-linecap="round" />
		<path d="M45.82 40.67H52.08" stroke="#6C3BFF" stroke-miterlimit="10" stroke-linecap="round" />
		<path d="M45.82 47.27H52.08" stroke="#6C3BFF" stroke-miterlimit="10" stroke-linecap="round" />
		<path
			d="M51.54 16.17C51.78 16.17 51.97 15.98 51.97 15.74V15.38C51.97 14.18 51.01 13.19 49.81 13.15V12.58C49.81 12.34 49.62 12.15 49.38 12.15C49.14 12.15 48.95 12.34 48.95 12.58V13.15C47.72 13.19 46.75 14.22 46.79 15.45C46.82 16.34 47.37 17.13 48.2 17.45L50.26 18.27C50.96 18.55 51.31 19.35 51.02 20.05C50.81 20.57 50.31 20.91 49.75 20.91H49.04C48.28 20.91 47.67 20.29 47.67 19.54V19.18C47.67 18.94 47.48 18.75 47.24 18.75C47 18.75 46.81 18.94 46.81 19.18V19.54C46.81 20.74 47.77 21.73 48.97 21.77V22.34C48.97 22.58 49.16 22.77 49.4 22.77C49.64 22.77 49.83 22.58 49.83 22.34V21.77C51.06 21.73 52.03 20.7 51.99 19.47C51.96 18.58 51.41 17.79 50.58 17.47L48.52 16.65C47.82 16.37 47.47 15.57 47.76 14.87C47.97 14.35 48.47 14.01 49.03 14.01H49.74C50.5 14.01 51.11 14.63 51.11 15.38V15.74C51.11 15.98 51.3 16.17 51.54 16.17Z"
			fill="#6C3BFF" />
		<path
			d="M33.88 16.17C34.12 16.17 34.31 15.98 34.31 15.74V15.38C34.31 14.18 33.35 13.19 32.15 13.15V12.58C32.15 12.34 31.96 12.15 31.72 12.15C31.48 12.15 31.29 12.34 31.29 12.58V13.15C30.06 13.19 29.09 14.22 29.13 15.45C29.16 16.34 29.71 17.13 30.54 17.45L32.6 18.27C33.3 18.55 33.65 19.35 33.36 20.05C33.15 20.57 32.65 20.91 32.09 20.91H31.38C30.62 20.91 30.01 20.29 30.01 19.54V19.18C30.01 18.94 29.82 18.75 29.58 18.75C29.34 18.75 29.15 18.94 29.15 19.18V19.54C29.15 20.74 30.11 21.73 31.31 21.77V22.34C31.31 22.58 31.5 22.77 31.74 22.77C31.98 22.77 32.17 22.58 32.17 22.34V21.77C33.4 21.73 34.37 20.7 34.33 19.47C34.3 18.58 33.75 17.79 32.92 17.47L30.86 16.65C30.16 16.37 29.81 15.57 30.1 14.87C30.31 14.35 30.81 14.01 31.37 14.01H32.08C32.84 14.01 33.45 14.63 33.45 15.38V15.74C33.45 15.98 33.64 16.17 33.88 16.17Z"
			fill="#6C3BFF" />
	</g>
	<defs>
		<clipPath id="clip0_2_22491">
			<rect width="57.69" height="48.32" fill="white" transform="translate(1 6)" />
		</clipPath>
	</defs>
</svg>
