<svg width="60" height="25" viewBox="0 0 60 25" fill="none" xmlns="http://www.w3.org/2000/svg">
	<path d="M57.3 0H2.7C1.2 0 0 1.2 0 2.7V21.4C0 22.9 1.2 24.2 2.8 24.2H57.3C58.8 24.2 60.1 23 60.1 21.4V2.7C60 1.2 58.8 0 57.3 0ZM17 22.7H2.7C2 22.7 1.4 22.1 1.4 21.4V2.7C1.4 2 2 1.4 2.7 1.4H17V22.7ZM58.5 21.5C58.5 22.2 57.9 22.8 57.2 22.8H18.5V1.5H57.2C57.9 1.5 58.5 2.1 58.5 2.8V21.5Z" fill="#6C3BFF"/>
	<path d="M4.39998 12.1H12.7C13.1 12.1 13.5 11.8 13.5 11.3C13.5 10.8 13.2 10.5 12.7 10.5H4.39998C3.99998 10.5 3.59998 10.8 3.59998 11.3C3.59998 11.8 3.99998 12.1 4.39998 12.1Z" fill="#6C3BFF"/>
	<path d="M46.4 10.9H22.3C21.9 10.9 21.5 11.2 21.5 11.7C21.5 12.2 21.8 12.5 22.3 12.5H46.4C46.8 12.5 47.2 12.2 47.2 11.7C47.2 11.2 46.8 10.9 46.4 10.9Z" fill="#6C3BFF"/>
	<path d="M50.1 7.39999C49.8 7.69999 49.8 8.19999 50.1 8.49999L53.3 11.7L50.1 14.9C49.8 15.2 49.8 15.7 50.1 16C50.4 16.3 50.9 16.3 51.2 16L55.4 11.8L51.2 7.59999C50.9 7.09999 50.4 7.09999 50.1 7.39999Z" fill="#6C3BFF"/>
	</svg>
