<svg width="60" height="60" viewBox="0 0 60 60" fill="none" xmlns="http://www.w3.org/2000/svg">
<g clip-path="url(#clip0_4_42)">
<path d="M57.3 18H2.7C1.2 18 0 19.2 0 20.7V39.4C0 40.9 1.2 42.2 2.8 42.2H57.3C58.8 42.2 60.1 41 60.1 39.4V20.7C60 19.2 58.8 18 57.3 18ZM17 40.7H2.7C2 40.7 1.4 40.1 1.4 39.4V20.7C1.4 20 2 19.4 2.7 19.4H17V40.7ZM58.5 39.5C58.5 40.2 57.9 40.8 57.2 40.8H18.5V19.5H57.2C57.9 19.5 58.5 20.1 58.5 20.8V39.5Z" fill="url(#paint0_linear_4_42)"/>
<path d="M4.4 30.1H12.7C13.1 30.1 13.5 29.8 13.5 29.3C13.5 28.8 13.2 28.5 12.7 28.5H4.4C4 28.5 3.6 28.8 3.6 29.3C3.6 29.8 4 30.1 4.4 30.1Z" fill="url(#paint1_linear_4_42)"/>
<path d="M46.4 28.9H22.3C21.9 28.9 21.5 29.2 21.5 29.7C21.5 30.2 21.8 30.5 22.3 30.5H46.4C46.8 30.5 47.2 30.2 47.2 29.7C47.2 29.2 46.8 28.9 46.4 28.9Z" fill="url(#paint2_linear_4_42)"/>
<path d="M50.1 25.4C49.8 25.7 49.8 26.2 50.1 26.5L53.3 29.7L50.1 32.9C49.8 33.2 49.8 33.7 50.1 34C50.4 34.3 50.9 34.3 51.2 34L55.4 29.8L51.2 25.6C50.9 25.1 50.4 25.1 50.1 25.4Z" fill="url(#paint3_linear_4_42)"/>
</g>
<defs>
<linearGradient id="paint0_linear_4_42" x1="0.4761" y1="30.0968" x2="59.1734" y2="30.0968" gradientUnits="userSpaceOnUse">
<stop stop-color="#275EFF"/>
<stop offset="1" stop-color="#A913FF"/>
</linearGradient>
<linearGradient id="paint1_linear_4_42" x1="0.476101" y1="29.3602" x2="59.1734" y2="29.3602" gradientUnits="userSpaceOnUse">
<stop stop-color="#275EFF"/>
<stop offset="1" stop-color="#A913FF"/>
</linearGradient>
<linearGradient id="paint2_linear_4_42" x1="0.476099" y1="29.6302" x2="59.1734" y2="29.6302" gradientUnits="userSpaceOnUse">
<stop stop-color="#275EFF"/>
<stop offset="1" stop-color="#A913FF"/>
</linearGradient>
<linearGradient id="paint3_linear_4_42" x1="0.476073" y1="29.6303" x2="59.1734" y2="29.6303" gradientUnits="userSpaceOnUse">
<stop stop-color="#275EFF"/>
<stop offset="1" stop-color="#A913FF"/>
</linearGradient>
<clipPath id="clip0_4_42">
<rect width="60" height="60" fill="white"/>
</clipPath>
</defs>
</svg>