<svg width="60" height="60" viewBox="0 0 60 60" fill="none" xmlns="http://www.w3.org/2000/svg">
<path fill-rule="evenodd" clip-rule="evenodd" d="M7.23379 46.4759L26.5354 57.6221C27.531 58.2006 28.6469 58.4896 29.7626 58.4896C30.878 58.4896 31.9929 58.2006 32.9868 57.6234L52.2879 46.4772C54.2844 45.3333 55.5244 43.1934 55.5244 40.892V38.0832C55.5244 37.5872 55.1222 37.185 54.6262 37.185C54.1301 37.185 53.7279 37.5872 53.7279 38.0832V40.892C53.7279 42.5508 52.834 44.0938 51.3924 44.9198L32.0864 56.0686C30.6531 56.902 28.8719 56.9024 27.436 56.0673L8.12946 44.9184C6.69039 44.0938 5.79649 42.5508 5.79649 40.892V18.5975C5.79649 16.9387 6.69039 15.3957 8.13203 14.5697L27.438 3.42102C28.8713 2.5877 30.6524 2.58723 32.0884 3.42231L51.3948 14.5711C52.8339 15.3957 53.7278 16.9387 53.7278 18.5975V22.4063C53.7278 22.9023 54.13 23.3045 54.626 23.3045C55.1221 23.3045 55.5243 22.9023 55.5243 22.4063V18.5975C55.5243 16.2961 54.2843 14.1562 52.2905 13.0136L32.9889 1.86746C30.9981 0.710827 28.5257 0.711294 26.5375 1.86617L7.23649 13.0123C5.23996 14.1562 4 16.2961 4 18.5975V40.892C4 43.1934 5.23996 45.3333 7.23379 46.4759ZM53.728 26.5111C53.728 26.0151 54.1302 25.6129 54.6263 25.6129C55.1223 25.6129 55.5245 26.0151 55.5245 26.5111V26.9783C55.5245 27.4743 55.1223 27.8765 54.6263 27.8765C54.1302 27.8765 53.728 27.4743 53.728 26.9783V26.5111ZM53.728 30.5111C53.728 30.0151 54.1302 29.6129 54.6263 29.6129C55.1223 29.6129 55.5245 30.0151 55.5245 30.5111V33.9783C55.5245 34.4743 55.1223 34.8765 54.6263 34.8765C54.1302 34.8765 53.728 34.4743 53.728 33.9783V30.5111ZM29.7319 10.7448L13.7622 19.7448L44.7622 18.8448L29.7319 10.7448ZM45.7622 37.7448L29.7925 46.7448L14.7622 38.6448L45.7622 37.7448ZM49.068 23.7466L38.5459 23.7448V25.55L42.6175 25.5507V35.0305H44.8079V25.5511L49.068 25.5518V23.7466ZM36.0188 23.7448V25.656H28.4009V28.6519H34.1057V30.4426H28.4009V34.8848H26.1109V23.7448H36.0188ZM20.4395 31.6093V23.7448H22.7344V34.717H20.4395L14.0571 27.2967V34.717H11.7622V23.7448H14.0571L20.4395 31.6093Z" fill="url(#paint0_linear_1914_248)"/>
<defs>
<linearGradient id="paint0_linear_1914_248" x1="56.555" y1="1" x2="-8.43678" y2="33.9845" gradientUnits="userSpaceOnUse">
<stop stop-color="#275EFF"/>
<stop offset="1" stop-color="#A913FF"/>
</linearGradient>
</defs>
</svg>
