<?xml version="1.0" encoding="utf-8"?>
<!-- Generator: Adobe Illustrator 24.2.1, SVG Export Plug-In . SVG Version: 6.00 Build 0)  -->
<svg version="1.1" id="Layer_1" xmlns="http://www.w3.org/2000/svg" xmlns:xlink="http://www.w3.org/1999/xlink" x="0px" y="0px"
	 viewBox="0 0 66 70" style="enable-background:new 0 0 66 70;" xml:space="preserve">
<style type="text/css">
	.st0{fill:url(#SVGID_1_);}
</style>
<desc>Created with Sketch.</desc>
<linearGradient id="SVGID_1_" gradientUnits="userSpaceOnUse" x1="6.3993" y1="15.1368" x2="54.7523" y2="47.6074" gradientTransform="matrix(1 0 0 -1 0 72)">
	<stop  offset="0" style="stop-color:#1A6DFF"/>
	<stop  offset="1" style="stop-color:#C822FF"/>
</linearGradient>
<path class="st0" d="M33,0c-3.3,0-6,2.7-6,6v2H11c-1.6,0-3,1.4-3,3v56c0,1.6,1.4,3,3,3h44c1.6,0,3-1.4,3-3V11c0-1.6-1.4-3-3-3H39V6
	C39,2.7,36.3,0,33,0z M33,2c2.2,0,4,1.8,4,4v7c0,0.6-0.4,1-1,1h-6c-0.6,0-1-0.4-1-1V6C29,3.8,30.8,2,33,2z M33,5c-0.6,0-1,0.4-1,1
	s0.4,1,1,1s1-0.4,1-1S33.6,5,33,5z M11,10h16v2h-1c-2.2,0-4,1.8-4,4v1h0.2c0.5,1.7,2,3,3.8,3h14c1.8,0,3.3-1.3,3.8-3H44v-1
	c0-2.2-1.8-4-4-4h-1v-2h16c0.6,0,1,0.4,1,1v56c0,0.6-0.4,1-1,1H11c-0.6,0-1-0.4-1-1V11C10,10.4,10.4,10,11,10z M15,14
	c-0.6,0-1,0.4-1,1s0.4,1,1,1s1-0.4,1-1S15.6,14,15,14z M26,14h1.2c0.4,1.2,1.5,2,2.8,2h6c1.3,0,2.4-0.8,2.8-2H40c1.1,0,2,0.9,2,2
	s-0.9,2-2,2H26c-1.1,0-2-0.9-2-2S24.9,14,26,14z M15,18c-0.6,0-1,0.4-1,1s0.4,1,1,1s1-0.4,1-1S15.6,18,15,18z M15,22
	c-0.6,0-1,0.4-1,1s0.4,1,1,1s1-0.4,1-1S15.6,22,15,22z M15,26c-0.6,0-1,0.4-1,1c0,0.6,0.4,1,1,1s1-0.4,1-1S15.6,26,15,26z M15,30
	c-0.6,0-1,0.4-1,1s0.4,1,1,1s1-0.4,1-1S15.6,30,15,30z M31,30l0.7,17.3h2.7L35,30H31z M15,34c-0.6,0-1,0.4-1,1s0.4,1,1,1s1-0.4,1-1
	S15.6,34,15,34z M15,38c-0.6,0-1,0.4-1,1s0.4,1,1,1s1-0.4,1-1S15.6,38,15,38z M15,42c-0.6,0-1,0.4-1,1s0.4,1,1,1s1-0.4,1-1
	S15.6,42,15,42z M15,46c-0.6,0-1,0.4-1,1s0.4,1,1,1s1-0.4,1-1S15.6,46,15,46z M15,50c-0.6,0-1,0.4-1,1s0.4,1,1,1s1-0.4,1-1
	S15.6,50,15,50z M33,50.2c-1.1,0-2,0.9-2,2s0.9,2,2,2s2-0.9,2-2S34.1,50.2,33,50.2z M15,54c-0.6,0-1,0.4-1,1s0.4,1,1,1s1-0.4,1-1
	S15.6,54,15,54z M15,58c-0.6,0-1,0.4-1,1s0.4,1,1,1s1-0.4,1-1S15.6,58,15,58z M15,62c-0.6,0-1,0.4-1,1s0.4,1,1,1s1-0.4,1-1
	S15.6,62,15,62z"/>
</svg>
