<svg width="57" height="60" viewBox="0 0 57 60" fill="none" xmlns="http://www.w3.org/2000/svg">
	<path
		d="M28.2857 0C25.4572 0 23.1429 2.31429 23.1429 5.14286V6.85714H9.42861C8.05718 6.85714 6.85718 8.05714 6.85718 9.42857V57.4286C6.85718 58.8 8.05718 60 9.42861 60H47.1429C48.5143 60 49.7143 58.8 49.7143 57.4286V9.42857C49.7143 8.05714 48.5143 6.85714 47.1429 6.85714H33.4286V5.14286C33.4286 2.31429 31.1143 0 28.2857 0ZM28.2857 1.71429C30.1715 1.71429 31.7143 3.25714 31.7143 5.14286V11.1429C31.7143 11.6571 31.3715 12 30.8572 12H25.7143C25.2 12 24.8572 11.6571 24.8572 11.1429V5.14286C24.8572 3.25714 26.4 1.71429 28.2857 1.71429ZM28.2857 4.28571C27.7715 4.28571 27.4286 4.62857 27.4286 5.14286C27.4286 5.65714 27.7715 6 28.2857 6C28.8 6 29.1429 5.65714 29.1429 5.14286C29.1429 4.62857 28.8 4.28571 28.2857 4.28571ZM9.42861 8.57143H23.1429V10.2857H22.2857C20.4 10.2857 18.8572 11.8286 18.8572 13.7143V14.5714H19.0286C19.4572 16.0286 20.7429 17.1429 22.2857 17.1429H34.2857C35.8286 17.1429 37.1143 16.0286 37.5429 14.5714H37.7143V13.7143C37.7143 11.8286 36.1715 10.2857 34.2857 10.2857H33.4286V8.57143H47.1429C47.6572 8.57143 48 8.91429 48 9.42857V57.4286C48 57.9429 47.6572 58.2857 47.1429 58.2857H9.42861C8.91432 58.2857 8.57146 57.9429 8.57146 57.4286V9.42857C8.57146 8.91429 8.91432 8.57143 9.42861 8.57143ZM12.8572 12C12.3429 12 12 12.3429 12 12.8571C12 13.3714 12.3429 13.7143 12.8572 13.7143C13.3715 13.7143 13.7143 13.3714 13.7143 12.8571C13.7143 12.3429 13.3715 12 12.8572 12ZM22.2857 12H23.3143C23.6572 13.0286 24.6 13.7143 25.7143 13.7143H30.8572C31.9715 13.7143 32.9143 13.0286 33.2572 12H34.2857C35.2286 12 36 12.7714 36 13.7143C36 14.6571 35.2286 15.4286 34.2857 15.4286H22.2857C21.3429 15.4286 20.5715 14.6571 20.5715 13.7143C20.5715 12.7714 21.3429 12 22.2857 12ZM12.8572 15.4286C12.3429 15.4286 12 15.7714 12 16.2857C12 16.8 12.3429 17.1429 12.8572 17.1429C13.3715 17.1429 13.7143 16.8 13.7143 16.2857C13.7143 15.7714 13.3715 15.4286 12.8572 15.4286ZM12.8572 18.8571C12.3429 18.8571 12 19.2 12 19.7143C12 20.2286 12.3429 20.5714 12.8572 20.5714C13.3715 20.5714 13.7143 20.2286 13.7143 19.7143C13.7143 19.2 13.3715 18.8571 12.8572 18.8571ZM12.8572 22.2857C12.3429 22.2857 12 22.6286 12 23.1429C12 23.6571 12.3429 24 12.8572 24C13.3715 24 13.7143 23.6571 13.7143 23.1429C13.7143 22.6286 13.3715 22.2857 12.8572 22.2857ZM12.8572 25.7143C12.3429 25.7143 12 26.0571 12 26.5714C12 27.0857 12.3429 27.4286 12.8572 27.4286C13.3715 27.4286 13.7143 27.0857 13.7143 26.5714C13.7143 26.0571 13.3715 25.7143 12.8572 25.7143ZM26.5715 25.7143L27.1715 40.5429H29.4858L30 25.7143H26.5715ZM12.8572 29.1429C12.3429 29.1429 12 29.4857 12 30C12 30.5143 12.3429 30.8571 12.8572 30.8571C13.3715 30.8571 13.7143 30.5143 13.7143 30C13.7143 29.4857 13.3715 29.1429 12.8572 29.1429ZM12.8572 32.5714C12.3429 32.5714 12 32.9143 12 33.4286C12 33.9429 12.3429 34.2857 12.8572 34.2857C13.3715 34.2857 13.7143 33.9429 13.7143 33.4286C13.7143 32.9143 13.3715 32.5714 12.8572 32.5714ZM12.8572 36C12.3429 36 12 36.3429 12 36.8571C12 37.3714 12.3429 37.7143 12.8572 37.7143C13.3715 37.7143 13.7143 37.3714 13.7143 36.8571C13.7143 36.3429 13.3715 36 12.8572 36ZM12.8572 39.4286C12.3429 39.4286 12 39.7714 12 40.2857C12 40.8 12.3429 41.1429 12.8572 41.1429C13.3715 41.1429 13.7143 40.8 13.7143 40.2857C13.7143 39.7714 13.3715 39.4286 12.8572 39.4286ZM12.8572 42.8571C12.3429 42.8571 12 43.2 12 43.7143C12 44.2286 12.3429 44.5714 12.8572 44.5714C13.3715 44.5714 13.7143 44.2286 13.7143 43.7143C13.7143 43.2 13.3715 42.8571 12.8572 42.8571ZM28.2857 43.0286C27.3429 43.0286 26.5715 43.8 26.5715 44.7429C26.5715 45.6857 27.3429 46.4571 28.2857 46.4571C29.2286 46.4571 30 45.6857 30 44.7429C30 43.8 29.2286 43.0286 28.2857 43.0286ZM12.8572 46.2857C12.3429 46.2857 12 46.6286 12 47.1429C12 47.6571 12.3429 48 12.8572 48C13.3715 48 13.7143 47.6571 13.7143 47.1429C13.7143 46.6286 13.3715 46.2857 12.8572 46.2857ZM12.8572 49.7143C12.3429 49.7143 12 50.0571 12 50.5714C12 51.0857 12.3429 51.4286 12.8572 51.4286C13.3715 51.4286 13.7143 51.0857 13.7143 50.5714C13.7143 50.0571 13.3715 49.7143 12.8572 49.7143ZM12.8572 53.1429C12.3429 53.1429 12 53.4857 12 54C12 54.5143 12.3429 54.8571 12.8572 54.8571C13.3715 54.8571 13.7143 54.5143 13.7143 54C13.7143 53.4857 13.3715 53.1429 12.8572 53.1429Z"
		fill="#6C3BFF" />
</svg>
