<svg width="57" height="60" viewBox="0 0 57 60" fill="none" xmlns="http://www.w3.org/2000/svg">
	<g clip-path="url(#clip0_2_22709)">
		<path
			d="M52.0286 52.3714H4.54286C2.05714 52.3714 0 50.3143 0 47.8286V12.1714C0 9.68571 2.05714 7.62857 4.54286 7.62857H52.0286C54.5143 7.62857 56.5714 9.68571 56.5714 12.1714V47.8286C56.5714 50.3143 54.5143 52.3714 52.0286 52.3714ZM4.54286 10.1143C3.42857 10.1143 2.48571 11.0571 2.48571 12.1714V47.8286C2.48571 48.9429 3.42857 49.8857 4.54286 49.8857H52.0286C53.1429 49.8857 54.0857 48.9429 54.0857 47.8286V12.1714C54.0857 11.0571 53.1429 10.1143 52.0286 10.1143H4.54286Z"
			fill="#6C3BFF" />
		<path
			d="M18.4286 15.3429C19.044 15.3429 19.5429 14.844 19.5429 14.2286C19.5429 13.6132 19.044 13.1143 18.4286 13.1143C17.8132 13.1143 17.3143 13.6132 17.3143 14.2286C17.3143 14.844 17.8132 15.3429 18.4286 15.3429Z"
			fill="#6C3BFF" />
		<path
			d="M18.4286 20.4857C19.044 20.4857 19.5429 19.9868 19.5429 19.3714C19.5429 18.756 19.044 18.2571 18.4286 18.2571C17.8132 18.2571 17.3143 18.756 17.3143 19.3714C17.3143 19.9868 17.8132 20.4857 18.4286 20.4857Z"
			fill="#6C3BFF" />
		<path
			d="M18.4286 25.5429C19.044 25.5429 19.5429 25.044 19.5429 24.4286C19.5429 23.8132 19.044 23.3143 18.4286 23.3143C17.8132 23.3143 17.3143 23.8132 17.3143 24.4286C17.3143 25.044 17.8132 25.5429 18.4286 25.5429Z"
			fill="#6C3BFF" />
		<path
			d="M18.4286 30.6857C19.044 30.6857 19.5429 30.1868 19.5429 29.5714C19.5429 28.956 19.044 28.4572 18.4286 28.4572C17.8132 28.4572 17.3143 28.956 17.3143 29.5714C17.3143 30.1868 17.8132 30.6857 18.4286 30.6857Z"
			fill="#6C3BFF" />
		<path
			d="M18.4286 35.7429C19.044 35.7429 19.5429 35.244 19.5429 34.6286C19.5429 34.0132 19.044 33.5143 18.4286 33.5143C17.8132 33.5143 17.3143 34.0132 17.3143 34.6286C17.3143 35.244 17.8132 35.7429 18.4286 35.7429Z"
			fill="#6C3BFF" />
		<path
			d="M18.4286 40.8857C19.044 40.8857 19.5429 40.3868 19.5429 39.7714C19.5429 39.156 19.044 38.6571 18.4286 38.6571C17.8132 38.6571 17.3143 39.156 17.3143 39.7714C17.3143 40.3868 17.8132 40.8857 18.4286 40.8857Z"
			fill="#6C3BFF" />
		<path
			d="M18.4286 45.9429C19.044 45.9429 19.5429 45.444 19.5429 44.8286C19.5429 44.2132 19.044 43.7143 18.4286 43.7143C17.8132 43.7143 17.3143 44.2132 17.3143 44.8286C17.3143 45.444 17.8132 45.9429 18.4286 45.9429Z"
			fill="#6C3BFF" />
		<path
			d="M37.4572 15.3429C38.0726 15.3429 38.5715 14.844 38.5715 14.2286C38.5715 13.6132 38.0726 13.1143 37.4572 13.1143C36.8418 13.1143 36.3429 13.6132 36.3429 14.2286C36.3429 14.844 36.8418 15.3429 37.4572 15.3429Z"
			fill="#6C3BFF" />
		<path
			d="M37.4572 20.4857C38.0726 20.4857 38.5715 19.9868 38.5715 19.3714C38.5715 18.756 38.0726 18.2571 37.4572 18.2571C36.8418 18.2571 36.3429 18.756 36.3429 19.3714C36.3429 19.9868 36.8418 20.4857 37.4572 20.4857Z"
			fill="#6C3BFF" />
		<path
			d="M37.4572 25.5429C38.0726 25.5429 38.5715 25.044 38.5715 24.4286C38.5715 23.8132 38.0726 23.3143 37.4572 23.3143C36.8418 23.3143 36.3429 23.8132 36.3429 24.4286C36.3429 25.044 36.8418 25.5429 37.4572 25.5429Z"
			fill="#6C3BFF" />
		<path
			d="M37.4572 30.6857C38.0726 30.6857 38.5715 30.1868 38.5715 29.5714C38.5715 28.956 38.0726 28.4572 37.4572 28.4572C36.8418 28.4572 36.3429 28.956 36.3429 29.5714C36.3429 30.1868 36.8418 30.6857 37.4572 30.6857Z"
			fill="#6C3BFF" />
		<path
			d="M37.4572 35.7429C38.0726 35.7429 38.5715 35.244 38.5715 34.6286C38.5715 34.0132 38.0726 33.5143 37.4572 33.5143C36.8418 33.5143 36.3429 34.0132 36.3429 34.6286C36.3429 35.244 36.8418 35.7429 37.4572 35.7429Z"
			fill="#6C3BFF" />
		<path
			d="M37.4572 40.8857C38.0726 40.8857 38.5715 40.3868 38.5715 39.7714C38.5715 39.156 38.0726 38.6571 37.4572 38.6571C36.8418 38.6571 36.3429 39.156 36.3429 39.7714C36.3429 40.3868 36.8418 40.8857 37.4572 40.8857Z"
			fill="#6C3BFF" />
		<path
			d="M37.4572 45.9429C38.0726 45.9429 38.5715 45.444 38.5715 44.8286C38.5715 44.2132 38.0726 43.7143 37.4572 43.7143C36.8418 43.7143 36.3429 44.2132 36.3429 44.8286C36.3429 45.444 36.8418 45.9429 37.4572 45.9429Z"
			fill="#6C3BFF" />
		<path
			d="M47.9143 24.6H42.7715V23.0571H49.6286V24.5143L45.7715 38.1428H44.0572L47.9143 24.6Z"
			fill="#6C3BFF" />
		<path
			d="M28.3714 37.0286H27.3428C27.1714 37.0286 27.0857 36.8572 27.0857 36.7714V24.6C27.0857 24.4286 27.2571 24.3429 27.3428 24.3429H28.3714C28.5428 24.3429 28.6286 24.5143 28.6286 24.6V36.7714C28.7143 36.9429 28.5428 37.0286 28.3714 37.0286Z"
			fill="#6C3BFF" />
		<path
			d="M10.7143 37.0286H9.68573C9.5143 37.0286 9.42859 36.8572 9.42859 36.7714V24.6C9.42859 24.4286 9.60002 24.3429 9.68573 24.3429H10.7143C10.8857 24.3429 10.9714 24.5143 10.9714 24.6V36.7714C11.0572 36.9429 10.8857 37.0286 10.7143 37.0286Z"
			fill="#6C3BFF" />
	</g>
	<defs>
		<clipPath id="clip0_2_22709">
			<rect width="56.5714" height="60" fill="white" />
		</clipPath>
	</defs>
</svg>
