<svg xmlns="http://www.w3.org/2000/svg" x="0" y="0" enable-background="new 0 0 66 70" version="1.1" viewBox="0 0 66 70" xml:space="preserve"><linearGradient id="COUNTER_SVGID_1_" x1="-0.125" x2="64.866" y1="35" y2="35" gradientUnits="userSpaceOnUse"><stop offset="0" stop-color="#1A6DFF"></stop><stop offset="1" stop-color="#C822FF"></stop></linearGradient><path fill="url(#COUNTER_SVGID_1_)" d="M60.7 61.1H5.3c-2.9 0-5.3-2.4-5.3-5.3V14.2c0-2.9 2.4-5.3 5.3-5.3h55.4c2.9 0 5.3 2.4 5.3 5.3v41.6c0 2.9-2.4 5.3-5.3 5.3zM5.3 11.8c-1.3 0-2.4 1.1-2.4 2.4v41.6c0 1.3 1.1 2.4 2.4 2.4h55.4c1.3 0 2.4-1.1 2.4-2.4V14.2c0-1.3-1.1-2.4-2.4-2.4H5.3z"></path><linearGradient id="COUNTER_SVGID_2_" x1="-0.125" x2="64.866" y1="16.62" y2="16.62" gradientUnits="userSpaceOnUse"><stop offset="0" stop-color="#1A6DFF"></stop><stop offset="1" stop-color="#C822FF"></stop></linearGradient><circle fill="url(#COUNTER_SVGID_2_)" cx="21.5" cy="16.6" r="1.3"></circle><linearGradient id="COUNTER_SVGID_3_" x1="-0.125" x2="64.866" y1="22.572" y2="22.572" gradientUnits="userSpaceOnUse"><stop offset="0" stop-color="#1A6DFF"></stop><stop offset="1" stop-color="#C822FF"></stop></linearGradient><circle fill="url(#COUNTER_SVGID_3_)" cx="21.5" cy="22.6" r="1.3"></circle><linearGradient id="COUNTER_SVGID_4_" x1="-0.125" x2="64.866" y1="28.525" y2="28.525" gradientUnits="userSpaceOnUse"><stop offset="0" stop-color="#1A6DFF"></stop><stop offset="1" stop-color="#C822FF"></stop></linearGradient><circle fill="url(#COUNTER_SVGID_4_)" cx="21.5" cy="28.5" r="1.3"></circle><linearGradient id="COUNTER_SVGID_5_" x1="-0.125" x2="64.866" y1="34.477" y2="34.477" gradientUnits="userSpaceOnUse"><stop offset="0" stop-color="#1A6DFF"></stop><stop offset="1" stop-color="#C822FF"></stop></linearGradient><circle fill="url(#COUNTER_SVGID_5_)" cx="21.5" cy="34.5" r="1.3"></circle><linearGradient id="COUNTER_SVGID_6_" x1="-0.125" x2="64.866" y1="40.43" y2="40.43" gradientUnits="userSpaceOnUse"><stop offset="0" stop-color="#1A6DFF"></stop><stop offset="1" stop-color="#C822FF"></stop></linearGradient><circle fill="url(#COUNTER_SVGID_6_)" cx="21.5" cy="40.4" r="1.3"></circle><linearGradient id="COUNTER_SVGID_7_" x1="-0.125" x2="64.866" y1="46.382" y2="46.382" gradientUnits="userSpaceOnUse"><stop offset="0" stop-color="#1A6DFF"></stop><stop offset="1" stop-color="#C822FF"></stop></linearGradient><circle fill="url(#COUNTER_SVGID_7_)" cx="21.5" cy="46.4" r="1.3"></circle><linearGradient id="COUNTER_SVGID_8_" x1="-0.125" x2="64.866" y1="52.335" y2="52.335" gradientUnits="userSpaceOnUse"><stop offset="0" stop-color="#1A6DFF"></stop><stop offset="1" stop-color="#C822FF"></stop></linearGradient><circle fill="url(#COUNTER_SVGID_8_)" cx="21.5" cy="52.3" r="1.3"></circle><g><linearGradient id="COUNTER_SVGID_9_" x1="-0.125" x2="64.866" y1="16.62" y2="16.62" gradientUnits="userSpaceOnUse"><stop offset="0" stop-color="#1A6DFF"></stop><stop offset="1" stop-color="#C822FF"></stop></linearGradient><circle fill="url(#COUNTER_SVGID_9_)" cx="43.7" cy="16.6" r="1.3"></circle><linearGradient id="COUNTER_SVGID_10_" x1="-0.125" x2="64.866" y1="22.572" y2="22.572" gradientUnits="userSpaceOnUse"><stop offset="0" stop-color="#1A6DFF"></stop><stop offset="1" stop-color="#C822FF"></stop></linearGradient><circle fill="url(#COUNTER_SVGID_10_)" cx="43.7" cy="22.6" r="1.3"></circle><linearGradient id="COUNTER_SVGID_11_" x1="-0.125" x2="64.866" y1="28.525" y2="28.525" gradientUnits="userSpaceOnUse"><stop offset="0" stop-color="#1A6DFF"></stop><stop offset="1" stop-color="#C822FF"></stop></linearGradient><circle fill="url(#COUNTER_SVGID_11_)" cx="43.7" cy="28.5" r="1.3"></circle><linearGradient id="COUNTER_SVGID_12_" x1="-0.125" x2="64.866" y1="34.477" y2="34.477" gradientUnits="userSpaceOnUse"><stop offset="0" stop-color="#1A6DFF"></stop><stop offset="1" stop-color="#C822FF"></stop></linearGradient><circle fill="url(#COUNTER_SVGID_12_)" cx="43.7" cy="34.5" r="1.3"></circle><linearGradient id="COUNTER_SVGID_13_" x1="-0.125" x2="64.866" y1="40.43" y2="40.43" gradientUnits="userSpaceOnUse"><stop offset="0" stop-color="#1A6DFF"></stop><stop offset="1" stop-color="#C822FF"></stop></linearGradient><circle fill="url(#COUNTER_SVGID_13_)" cx="43.7" cy="40.4" r="1.3"></circle><linearGradient id="COUNTER_SVGID_14_" x1="-0.125" x2="64.866" y1="46.382" y2="46.382" gradientUnits="userSpaceOnUse"><stop offset="0" stop-color="#1A6DFF"></stop><stop offset="1" stop-color="#C822FF"></stop></linearGradient><circle fill="url(#COUNTER_SVGID_14_)" cx="43.7" cy="46.4" r="1.3"></circle><linearGradient id="COUNTER_SVGID_15_" x1="-0.125" x2="64.866" y1="52.335" y2="52.335" gradientUnits="userSpaceOnUse"><stop offset="0" stop-color="#1A6DFF"></stop><stop offset="1" stop-color="#C822FF"></stop></linearGradient><circle fill="url(#COUNTER_SVGID_15_)" cx="43.7" cy="52.3" r="1.3"></circle></g><linearGradient id="COUNTER_SVGID_16_" x1="-0.125" x2="64.866" y1="35.766" y2="35.766" gradientUnits="userSpaceOnUse"><stop offset="0" stop-color="#1A6DFF"></stop><stop offset="1" stop-color="#C822FF"></stop></linearGradient><path fill="url(#COUNTER_SVGID_16_)" d="M55.9 28.7h-6v-1.8h8v1.7l-4.5 15.9h-2l4.5-15.8z"></path><linearGradient id="COUNTER_SVGID_17_" x1="-0.125" x2="64.866" y1="35.766" y2="35.766" gradientUnits="userSpaceOnUse"><stop offset="0" stop-color="#1A6DFF"></stop><stop offset="1" stop-color="#C822FF"></stop></linearGradient><path fill="url(#COUNTER_SVGID_17_)" d="M33.1 43.2h-1.2c-.2 0-.3-.2-.3-.3V28.7c0-.2.2-.3.3-.3h1.2c.2 0 .3.2.3.3v14.2c.1.2-.1.3-.3.3z"></path><linearGradient id="COUNTER_SVGID_18_" x1="-0.125" x2="64.866" y1="35.766" y2="35.766" gradientUnits="userSpaceOnUse"><stop offset="0" stop-color="#1A6DFF"></stop><stop offset="1" stop-color="#C822FF"></stop></linearGradient><path fill="url(#COUNTER_SVGID_18_)" d="M12.5 43.2h-1.2c-.2 0-.3-.2-.3-.3V28.7c0-.2.2-.3.3-.3h1.2c.2 0 .3.2.3.3v14.2c.1.2-.1.3-.3.3z"></path></svg>