<svg width="60" height="60" viewBox="0 0 60 60" fill="none" xmlns="http://www.w3.org/2000/svg">
<g clip-path="url(#clip0_643_297)">
<path d="M8.78906 10.5469H18.1641C19.1348 10.5469 19.9219 9.75984 19.9219 8.78906C19.9219 7.81828 19.1348 7.03125 18.1641 7.03125H8.78906C7.81828 7.03125 7.03125 7.81828 7.03125 8.78906C7.03125 9.75984 7.81828 10.5469 8.78906 10.5469Z" fill="#6C3BFF"/>
<path d="M8.78906 17.5781H18.1641C19.1348 17.5781 19.9219 16.7911 19.9219 15.8203C19.9219 14.8495 19.1348 14.0625 18.1641 14.0625H8.78906C7.81828 14.0625 7.03125 14.8495 7.03125 15.8203C7.03125 16.7911 7.81828 17.5781 8.78906 17.5781Z" fill="#6C3BFF"/>
<path d="M8.78906 24.6094H18.1641C19.1348 24.6094 19.9219 23.8223 19.9219 22.8516C19.9219 21.8808 19.1348 21.0938 18.1641 21.0938H8.78906C7.81828 21.0938 7.03125 21.8808 7.03125 22.8516C7.03125 23.8223 7.81828 24.6094 8.78906 24.6094Z" fill="#6C3BFF"/>
<path d="M53.5547 0H6.44531C2.89137 0 0 2.89137 0 6.44531V53.5547C0 57.1086 2.89137 60 6.44531 60H53.5547C57.1086 60 60 57.1086 60 53.5547V6.44531C60 2.89137 57.1086 0 53.5547 0ZM23.4375 56.4844H6.44531C4.82988 56.4844 3.51563 55.1701 3.51563 53.5547V6.44531C3.51563 4.82988 4.82988 3.51563 6.44531 3.51563H23.4375V56.4844ZM56.4844 28.2422H36.7047L39.5633 25.3835C40.2498 24.697 40.2498 23.5841 39.5633 22.8976C38.8768 22.2111 37.7639 22.2111 37.0774 22.8976L31.218 28.757C30.5316 29.4435 30.5316 30.5564 31.218 31.2429L37.0774 37.1023C37.7639 37.7887 38.8768 37.7887 39.5633 37.1023C40.2498 36.4158 40.2498 35.3029 39.5633 34.6164L36.7047 31.7578H56.4844V53.5547C56.4844 55.1701 55.1701 56.4844 53.5547 56.4844H26.9531V3.51563H53.5547C55.1701 3.51563 56.4844 4.82988 56.4844 6.44531V28.2422Z" fill="#6C3BFF"/>
</g>
<defs>
<clipPath id="clip0_643_297">
<rect width="60" height="60" fill="white"/>
</clipPath>
</defs>
</svg>
