<svg width="60" height="60" viewBox="0 0 60 60" fill="none" xmlns="http://www.w3.org/2000/svg">
	<path d="M6.25 7.5C6.94036 7.5 7.5 6.94036 7.5 6.25C7.5 5.55964 6.94036 5 6.25 5C5.55964 5 5 5.55964 5 6.25C5 6.94036 5.55964 7.5 6.25 7.5Z" fill="#6C3BFF"/>
	<path d="M10 7.5C10.6904 7.5 11.25 6.94036 11.25 6.25C11.25 5.55964 10.6904 5 10 5C9.30964 5 8.75 5.55964 8.75 6.25C8.75 6.94036 9.30964 7.5 10 7.5Z" fill="#6C3BFF"/>
	<path d="M13.75 7.5C14.4404 7.5 15 6.94036 15 6.25C15 5.55964 14.4404 5 13.75 5C13.0596 5 12.5 5.55964 12.5 6.25C12.5 6.94036 13.0596 7.5 13.75 7.5Z" fill="#6C3BFF"/>
	<path d="M56.25 0H3.75C2.75544 0 1.80161 0.395088 1.09835 1.09835C0.395088 1.80161 0 2.75544 0 3.75V11.25C0 11.5815 0.131696 11.8995 0.366117 12.1339C0.600537 12.3683 0.918479 12.5 1.25 12.5H53.75C54.0815 12.5 54.3995 12.3683 54.6339 12.1339C54.8683 11.8995 55 11.5815 55 11.25C55 10.9185 54.8683 10.6005 54.6339 10.3661C54.3995 10.1317 54.0815 10 53.75 10H2.5V3.75C2.5 3.41848 2.6317 3.10054 2.86612 2.86612C3.10054 2.6317 3.41848 2.5 3.75 2.5H56.25C56.5815 2.5 56.8995 2.6317 57.1339 2.86612C57.3683 3.10054 57.5 3.41848 57.5 3.75V56.25C57.5 56.5815 57.3683 56.8995 57.1339 57.1339C56.8995 57.3683 56.5815 57.5 56.25 57.5H3.75C3.41848 57.5 3.10054 57.3683 2.86612 57.1339C2.6317 56.8995 2.5 56.5815 2.5 56.25V16.25C2.5 15.9185 2.3683 15.6005 2.13388 15.3661C1.89946 15.1317 1.58152 15 1.25 15C0.918479 15 0.600537 15.1317 0.366117 15.3661C0.131696 15.6005 0 15.9185 0 16.25V56.25C0 57.2446 0.395088 58.1984 1.09835 58.9016C1.80161 59.6049 2.75544 60 3.75 60H56.25C57.2446 60 58.1984 59.6049 58.9016 58.9016C59.6049 58.1984 60 57.2446 60 56.25V3.75C60 2.75544 59.6049 1.80161 58.9016 1.09835C58.1984 0.395088 57.2446 0 56.25 0Z" fill="#6C3BFF"/>
	<path d="M32 24C32 22.8954 32.8954 22 34 22H42C43.1046 22 44 22.8954 44 24V32C44 33.1046 43.1046 34 42 34H34C32.8954 34 32 33.1046 32 32V24Z" fill="#6C3BFF"/>
	<path d="M24 24C24 22.8954 24.8954 22 26 22H30V34H26C24.8954 34 24 33.1046 24 32V24Z" fill="#6C3BFF"/>
	<path d="M16 24C16 22.8954 16.8954 22 18 22H22V34H18C16.8954 34 16 33.1046 16 32V24Z" fill="#6C3BFF"/>
	<path d="M24 37.9999C24 36.8954 24.8954 35.9999 26 35.9999H30V47.9999H26C24.8954 47.9999 24 47.1045 24 45.9999V37.9999Z" fill="#6C3BFF"/>
	<path d="M16 37.9999C16 36.8954 16.8954 35.9999 18 35.9999H22V47.9999H18C16.8954 47.9999 16 47.1045 16 45.9999V37.9999Z" fill="#6C3BFF"/>
	<path d="M32 37.9999C32 36.8954 32.8954 35.9999 34 35.9999H42C43.1046 35.9999 44 36.8954 44 37.9999V45.9999C44 47.1045 43.1046 47.9999 42 47.9999H34C32.8954 47.9999 32 47.1045 32 45.9999V37.9999Z" fill="#6C3BFF"/>
	</svg>
	