<?xml version="1.0" encoding="utf-8"?>
<!-- Generator: Adobe Illustrator 23.0.0, SVG Export Plug-In . SVG Version: 6.00 Build 0)  -->
<svg version="1.1" id="Layer_1" xmlns="http://www.w3.org/2000/svg" xmlns:xlink="http://www.w3.org/1999/xlink" x="0px" y="0px"
	 viewBox="0 0 66 70" style="enable-background:new 0 0 66 70;" xml:space="preserve">
<style type="text/css">
	.st0{fill:url(#SVGID_1_);}
	.st1{fill:url(#SVGID_2_);}
	.st2{fill:url(#SVGID_3_);}
	.st3{fill:url(#SVGID_4_);}
	.st4{fill:url(#SVGID_5_);}
</style>
<g>
	<linearGradient id="SVGID_1_" gradientUnits="userSpaceOnUse" x1="-16.2177" y1="15.3444" x2="89.0251" y2="18.043">
		<stop  offset="0" style="stop-color:#1A6DFF"/>
		<stop  offset="1" style="stop-color:#C822FF"/>
	</linearGradient>
	<path class="st0" d="M68.4,13c-0.3-0.4-0.7-0.6-1.1-0.6c-0.3,0-0.5,0.1-0.8,0.2c-0.6,0.5-0.8,1.3-0.4,1.9l2.3,3.3L66,20.3
		c-0.5,0.5-0.5,1.3,0,1.9c0.2,0.2,0.6,0.4,0.9,0.4c0.3,0,0.7-0.2,1-0.5l3.9-4.1L68.4,13z"/>
	<linearGradient id="SVGID_2_" gradientUnits="userSpaceOnUse" x1="-17.0742" y1="48.7498" x2="88.1686" y2="51.4483">
		<stop  offset="0" style="stop-color:#1A6DFF"/>
		<stop  offset="1" style="stop-color:#C822FF"/>
	</linearGradient>
	<path class="st1" d="M3.5,49.7l2.3-3.3c0.4-0.6,0.3-1.4-0.4-1.9c-0.2-0.2-0.5-0.2-0.8-0.2c-0.4,0-0.9,0.2-1.1,0.6l-3.4,5L4,53.9
		c0.3,0.3,0.6,0.5,1,0.5c0.3,0,0.7-0.1,0.9-0.4c0.5-0.5,0.5-1.3,0-1.9L3.5,49.7z"/>
	<linearGradient id="SVGID_3_" gradientUnits="userSpaceOnUse" x1="-16.6671" y1="32.8741" x2="88.5756" y2="35.5726">
		<stop  offset="0" style="stop-color:#1A6DFF"/>
		<stop  offset="1" style="stop-color:#C822FF"/>
	</linearGradient>
	<path class="st2" d="M58,2C58,2,58,2,58,2L17.4,0.3c-2.7,0-4.8,2.2-4.8,4.8L10,62.3c0,2.7,2.2,4.8,4.8,4.8h0.1l35.8-2.8l0.1,0
		c2.5-0.4,4.1-2,4.6-4.6L61,19l0.5-3.6l0,0L62.7,7l0-0.2C62.7,4.1,60.6,2,58,2z M50.4,61.5l-35.6,2.8c-1.1,0-1.9-0.9-1.9-1.9
		l0.7-15.9L26,32l9.5,16.6l21.9-24.2l-3.6,26.1l0,0l-1.2,8.8C52.3,60.6,51.7,61.2,50.4,61.5z M36,43.7L26.5,27L13.8,41.8l1.6-36.7
		c0-1.1,0.9-2,1.9-2l40.6,1.7c1,0,1.9,0.8,1.9,1.9l-1.8,12.6L36,43.7z"/>
	<linearGradient id="SVGID_4_" gradientUnits="userSpaceOnUse" x1="-17.3528" y1="59.6135" x2="87.89" y2="62.312">
		<stop  offset="0" style="stop-color:#1A6DFF"/>
		<stop  offset="1" style="stop-color:#C822FF"/>
	</linearGradient>
	<path class="st3" d="M60.5,52.9c-0.6-0.1-1.3,0.4-1.4,1l-1.6,10.8c-0.2,1-1,1.8-2.1,1.9l-9.8,0.9c-0.7,0.1-1.1,0.6-1.1,1.3
		c0.1,0.6,0.6,1.1,1.2,1.1c0,0,0.1,0,0.1,0l9.8-0.9c2.2-0.2,3.9-1.8,4.2-4l1.6-10.8C61.6,53.6,61.1,53,60.5,52.9z"/>
	<linearGradient id="SVGID_5_" gradientUnits="userSpaceOnUse" x1="-16.2838" y1="17.9246" x2="88.959" y2="20.6232">
		<stop  offset="0" style="stop-color:#1A6DFF"/>
		<stop  offset="1" style="stop-color:#C822FF"/>
	</linearGradient>
	<path class="st4" d="M42.8,17.1c-0.1-0.3-0.3-0.5-0.5-0.8c-0.2-0.2-0.3-0.4-0.5-0.5c-0.2-0.1-0.3-0.3-0.5-0.4
		c-0.2-0.1-0.3-0.2-0.5-0.3c-0.2-0.1-0.3-0.2-0.5-0.2c-0.2-0.1-0.3-0.1-0.5-0.1c-0.1,0-0.2-0.1-0.3-0.1c-0.1,0-0.1,0-0.2,0
		c-0.2,0-0.4,0-0.5,0c-0.2,0-0.4,0-0.5,0.1c-0.2,0-0.4,0.1-0.5,0.2c-0.2,0.1-0.4,0.2-0.5,0.3c-0.2,0.1-0.4,0.2-0.5,0.4
		c-0.2,0.2-0.4,0.3-0.5,0.5c-0.2,0.2-0.4,0.5-0.6,0.8c-0.3,0.5-0.5,1-0.6,1.6c0,0.2-0.1,0.5-0.1,0.7c0,0.4,0,0.7,0,1.1
		c0.1,0.6,0.2,1.1,0.5,1.5c0.1,0.3,0.3,0.5,0.5,0.8c0.2,0.2,0.3,0.4,0.5,0.5c0.2,0.1,0.3,0.2,0.5,0.4c0.2,0.1,0.3,0.2,0.5,0.3
		c0.2,0.1,0.3,0.1,0.5,0.2c0.2,0,0.3,0,0.5,0c0.1,0,0.2,0,0.4,0c0.1,0,0.1,0,0.2,0c0.2,0,0.4,0,0.5-0.1c0.2,0,0.4-0.1,0.5-0.1
		c0.2-0.1,0.4-0.1,0.5-0.2c0.2-0.1,0.4-0.2,0.5-0.3c0.2-0.1,0.4-0.3,0.5-0.4c0.2-0.2,0.4-0.3,0.5-0.5c0.2-0.2,0.4-0.5,0.6-0.8
		c0.3-0.4,0.5-0.9,0.6-1.4c0-0.2,0.1-0.4,0.1-0.6c0-0.3,0-0.7,0-1C43.2,18,43,17.5,42.8,17.1z M40.5,20c-0.1,0.3-0.3,0.5-0.6,0.7h0
		c-0.2,0.1-0.3,0.2-0.5,0.3c-0.2,0.1-0.3,0.1-0.5,0.1c0,0,0,0-0.1,0c-0.2,0-0.3,0-0.5-0.1c-0.2-0.1-0.4-0.2-0.5-0.3
		c-0.2-0.2-0.4-0.5-0.5-0.8c-0.1-0.2-0.1-0.5-0.1-0.8c0-0.2,0.1-0.4,0.2-0.6v0c0.1-0.3,0.3-0.6,0.6-0.8h0c0.2-0.1,0.3-0.3,0.5-0.3v0
		c0.2-0.1,0.3-0.1,0.5-0.1c0,0,0.1,0,0.1,0c0.2,0,0.3,0,0.4,0.1c0.2,0.1,0.4,0.2,0.5,0.3c0.2,0.2,0.4,0.4,0.5,0.7
		c0.1,0.2,0.1,0.5,0.1,0.8C40.7,19.5,40.6,19.8,40.5,20z"/>
</g>
</svg>
