<svg width="57" height="60" viewBox="0 0 57 60" fill="none" xmlns="http://www.w3.org/2000/svg">
	<path
		d="M58.6286 11.1429C58.3714 10.8 58.0286 10.6286 57.6857 10.6286C57.4286 10.6286 57.2571 10.7143 57 10.8C56.4857 11.2286 56.3143 11.9143 56.6571 12.4286L58.6286 15.2571L56.5714 17.4C56.1429 17.8286 56.1429 18.5143 56.5714 19.0286C56.7429 19.2 57.0857 19.3714 57.3429 19.3714C57.6 19.3714 57.9429 19.2 58.2 18.9429L61.5429 15.4286L58.6286 11.1429Z"
		fill="#6C3BFF" />
	<path
		d="M2.99998 42.6L4.97141 39.7714C5.31427 39.2572 5.22855 38.5714 4.62855 38.1429C4.45712 37.9714 4.19998 37.9714 3.94284 37.9714C3.59998 37.9714 3.17141 38.1429 2.99998 38.4857L0.0856934 42.7714L3.42855 46.2C3.68569 46.4572 3.94284 46.6286 4.28569 46.6286C4.54284 46.6286 4.88569 46.5429 5.05712 46.2857C5.48569 45.8572 5.48569 45.1714 5.05712 44.6571L2.99998 42.6Z"
		fill="#6C3BFF" />
	<path
		d="M49.7143 1.71428L14.9143 0.257141C12.6 0.257141 10.8 2.14286 10.8 4.37143L8.57141 53.4C8.57141 55.7143 10.4571 57.5143 12.6857 57.5143H12.7714L43.4571 55.1143H43.5428C45.6857 54.7714 47.0571 53.4 47.4857 51.1714L52.2857 16.2857L52.7143 13.2L53.7428 6V5.82857C53.7428 3.51428 51.9428 1.71428 49.7143 1.71428ZM43.2 52.7143L12.6857 55.1143C11.7428 55.1143 11.0571 54.3429 11.0571 53.4857L11.6571 39.8571L22.2857 27.4286L30.4286 41.6571L49.2 20.9143L46.1143 43.2857L45.0857 50.8286C44.8286 51.9429 44.3143 52.4571 43.2 52.7143ZM30.8571 37.4571L22.7143 23.1429L11.8286 35.8286L13.2 4.37143C13.2 3.42857 13.9714 2.65714 14.8286 2.65714L49.6286 4.11428C50.4857 4.11428 51.2571 4.8 51.2571 5.74285L49.7143 16.5429L30.8571 37.4571Z"
		fill="#6C3BFF" />
	<path
		d="M51.8571 45.3429C51.3428 45.2571 50.7428 45.6857 50.6571 46.2L49.2857 55.4571C49.1143 56.3143 48.4285 57 47.4857 57.0857L39.0857 57.8571C38.4857 57.9429 38.1428 58.3714 38.1428 58.9714C38.2285 59.4857 38.6571 59.9143 39.1714 59.9143H39.2571L47.6571 59.1429C49.5428 58.9714 51 57.6 51.2571 55.7143L52.6285 46.4571C52.8 45.9429 52.3714 45.4286 51.8571 45.3429Z"
		fill="#6C3BFF" />
	<path
		d="M36.6857 14.6571C36.6 14.4 36.4286 14.2286 36.2571 13.9714C36.0857 13.8 36 13.6286 35.8286 13.5429C35.6571 13.4571 35.5714 13.2857 35.4 13.2C35.2286 13.1143 35.1429 13.0286 34.9714 12.9429C34.8 12.8571 34.7143 12.7714 34.5429 12.7714C34.3714 12.6857 34.2857 12.6857 34.1143 12.6857C34.0286 12.6857 33.9429 12.6 33.8571 12.6C33.7714 12.6 33.7714 12.6 33.6857 12.6C33.5143 12.6 33.3429 12.6 33.2571 12.6C33.0857 12.6 32.9143 12.6 32.8286 12.6857C32.6571 12.6857 32.4857 12.7714 32.4 12.8571C32.2286 12.9429 32.0571 13.0286 31.9714 13.1143C31.8 13.2 31.6286 13.2857 31.5429 13.4571C31.3714 13.6286 31.2 13.7143 31.1143 13.8857C30.9429 14.0571 30.7714 14.3143 30.6 14.5714C30.3429 15 30.1714 15.4286 30.0857 15.9429C30.0857 16.1143 30 16.3714 30 16.5429C30 16.8857 30 17.1429 30 17.4857C30.0857 18 30.1714 18.4286 30.4286 18.7714C30.5143 19.0286 30.6857 19.2 30.8571 19.4571C31.0286 19.6286 31.1143 19.8 31.2857 19.8857C31.4571 19.9714 31.5429 20.0571 31.7143 20.2286C31.8857 20.3143 31.9714 20.4 32.1429 20.4857C32.3143 20.5714 32.4 20.5714 32.5714 20.6571C32.7429 20.6571 32.8286 20.6571 33 20.6571C33.0857 20.6571 33.1714 20.6571 33.3429 20.6571C33.4286 20.6571 33.4286 20.6571 33.5143 20.6571C33.6857 20.6571 33.8571 20.6571 33.9429 20.5714C34.1143 20.5714 34.2857 20.4857 34.3714 20.4857C34.5429 20.4 34.7143 20.4 34.8 20.3143C34.9714 20.2286 35.1429 20.1429 35.2286 20.0571C35.4 19.9714 35.5714 19.8 35.6571 19.7143C35.8286 19.5429 36 19.4571 36.0857 19.2857C36.2571 19.1143 36.4286 18.8572 36.6 18.6C36.8571 18.2571 37.0286 17.8286 37.1143 17.4C37.1143 17.2286 37.2 17.0571 37.2 16.8857C37.2 16.6286 37.2 16.2857 37.2 16.0286C37.0286 15.4286 36.8571 15 36.6857 14.6571ZM34.7143 17.1429C34.6286 17.4 34.4571 17.5714 34.2 17.7429C34.0286 17.8286 33.9429 17.9143 33.7714 18C33.6 18.0857 33.5143 18.0857 33.3429 18.0857C33.3429 18.0857 33.3429 18.0857 33.2571 18.0857C33.0857 18.0857 33 18.0857 32.8286 18C32.6571 17.9143 32.4857 17.8286 32.4 17.7429C32.2286 17.5714 32.0571 17.3143 31.9714 17.0571C31.8857 16.8857 31.8857 16.6286 31.8857 16.3714C31.8857 16.2 31.9714 16.0286 32.0571 15.8571C32.1429 15.6 32.3143 15.3429 32.5714 15.1714C32.7429 15.0857 32.8286 14.9143 33 14.9143C33.1714 14.8286 33.2571 14.8286 33.4286 14.8286H33.5143C33.6857 14.8286 33.7714 14.8286 33.8571 14.9143C34.0286 15 34.2 15.0857 34.2857 15.1714C34.4571 15.3429 34.6286 15.5143 34.7143 15.7714C34.8 15.9429 34.8 16.2 34.8 16.4571C34.8857 16.7143 34.8 16.9714 34.7143 17.1429Z"
		fill="#6C3BFF" />
</svg>
