<svg width="60" height="60" viewBox="0 0 60 60" fill="none" xmlns="http://www.w3.org/2000/svg">
<g clip-path="url(#clip0_1437_11)">
<path d="M6.25 7.5C6.94036 7.5 7.5 6.94036 7.5 6.25C7.5 5.55964 6.94036 5 6.25 5C5.55964 5 5 5.55964 5 6.25C5 6.94036 5.55964 7.5 6.25 7.5Z" fill="url(#paint0_linear_1437_11)"/>
<path d="M10 7.5C10.6904 7.5 11.25 6.94036 11.25 6.25C11.25 5.55964 10.6904 5 10 5C9.30964 5 8.75 5.55964 8.75 6.25C8.75 6.94036 9.30964 7.5 10 7.5Z" fill="url(#paint1_linear_1437_11)"/>
<path d="M13.75 7.5C14.4404 7.5 15 6.94036 15 6.25C15 5.55964 14.4404 5 13.75 5C13.0596 5 12.5 5.55964 12.5 6.25C12.5 6.94036 13.0596 7.5 13.75 7.5Z" fill="url(#paint2_linear_1437_11)"/>
<path d="M50 41.5939V19.6563C50 18.6866 49.6049 17.7566 48.9016 17.0709C48.1984 16.3852 47.2446 16 46.25 16H13.75C12.7554 16 11.8016 16.3852 11.0983 17.0709C10.3951 17.7566 10 18.6866 10 19.6563V41.5939C10 42.5636 10.3951 43.4936 11.0983 44.1793C11.8016 44.865 12.7554 45.2502 13.75 45.2502H28.75C29.0815 45.2502 29.3995 45.1218 29.6339 44.8932C29.8683 44.6647 30 44.3547 30 44.0314C30 43.7082 29.8683 43.3982 29.6339 43.1696C29.3995 42.9411 29.0815 42.8127 28.75 42.8127H13.75C13.4185 42.8127 13.1005 42.6843 12.8661 42.4557C12.6317 42.2272 12.5 41.9172 12.5 41.5939V25.7501H43.75C44.0815 25.7501 44.3995 25.6217 44.6339 25.3931C44.8683 25.1645 45 24.8545 45 24.5313C45 24.2081 44.8683 23.8981 44.6339 23.6695C44.3995 23.441 44.0815 23.3125 43.75 23.3125H12.5V19.6563C12.5 19.333 12.6317 19.023 12.8661 18.7945C13.1005 18.5659 13.4185 18.4375 13.75 18.4375H46.25C46.5815 18.4375 46.8995 18.5659 47.1339 18.7945C47.3683 19.023 47.5 19.333 47.5 19.6563V41.5939C47.5 41.9172 47.3683 42.2272 47.1339 42.4557C46.8995 42.6843 46.5815 42.8127 46.25 42.8127H43.0175L45.8838 40.0181C46.0585 39.8476 46.1775 39.6305 46.2257 39.3941C46.2739 39.1577 46.2492 38.9127 46.1546 38.69C46.06 38.4674 45.8998 38.277 45.6943 38.1431C45.4888 38.0092 45.2472 37.9377 45 37.9376H33.75C33.4185 37.9376 33.1005 38.066 32.8661 38.2946C32.6317 38.5232 32.5 38.8332 32.5 39.1564V50.1252C32.5001 50.3662 32.5734 50.6018 32.7107 50.8022C32.8481 51.0026 33.0433 51.1587 33.2717 51.251C33.5001 51.3432 33.7513 51.3673 33.9938 51.3203C34.2362 51.2733 34.4589 51.1573 34.6338 50.9869L37.5 48.1923L44.1162 54.6432C44.3507 54.8716 44.6685 55 45 55C45.3315 55 45.6493 54.8716 45.8838 54.6432L49.6338 50.9869C49.8681 50.7583 49.9997 50.4484 49.9997 50.1252C49.9997 49.8021 49.8681 49.4921 49.6338 49.2636L45.5175 45.2502H46.25C47.2446 45.2502 48.1984 44.865 48.9016 44.1793C49.6049 43.4936 50 42.5636 50 41.5939ZM45 52.0582L38.3838 45.6073C38.1493 45.3788 37.8315 45.2505 37.5 45.2505C37.1685 45.2505 36.8507 45.3788 36.6162 45.6073L35 47.1831V40.3752H41.9825L40.3662 41.951C40.1319 42.1796 40.0003 42.4895 40.0003 42.8127C40.0003 43.1358 40.1319 43.4458 40.3662 43.6743L41.6162 44.8931L46.9825 50.1252L45 52.0582Z" fill="url(#paint3_linear_1437_11)"/>
<path d="M26.25 35H33.75C33.9695 34.9997 34.1851 35.0574 34.375 35.1675C34.6623 35.3333 35.0036 35.3781 35.3239 35.2922C35.6443 35.2063 35.9174 34.9966 36.0831 34.7094C36.2489 34.4221 36.2937 34.0808 36.2078 33.7604C36.1219 33.4401 35.9123 33.167 35.625 33.0012C35.0547 32.6728 34.4081 32.5 33.75 32.5H26.25C25.2554 32.5 24.3016 32.8951 23.5983 33.5983C22.8951 34.3016 22.5 35.2554 22.5 36.25C22.5 37.2446 22.8951 38.1984 23.5983 38.9017C24.3016 39.6049 25.2554 40 26.25 40H28.75C29.0815 40 29.3995 39.8683 29.6339 39.6339C29.8683 39.3995 30 39.0815 30 38.75C30 38.4185 29.8683 38.1005 29.6339 37.8661C29.3995 37.6317 29.0815 37.5 28.75 37.5H26.25C25.9185 37.5 25.6005 37.3683 25.3661 37.1339C25.1317 36.8995 25 36.5815 25 36.25C25 35.9185 25.1317 35.6005 25.3661 35.3661C25.6005 35.1317 25.9185 35 26.25 35Z" fill="url(#paint4_linear_1437_11)"/>
<path d="M15.25 20C14.9185 20 14.6005 20.1317 14.3661 20.3661C14.1317 20.6005 14 20.9185 14 21.25C14 21.5815 14.1317 21.8995 14.3661 22.1339C14.6005 22.3683 14.9185 22.5 15.25 22.5H17.75C18.0815 22.5 18.3995 22.3683 18.6339 22.1339C18.8683 21.8995 19 21.5815 19 21.25C19 20.9185 18.8683 20.6005 18.6339 20.3661C18.3995 20.1317 18.0815 20 17.75 20H15.25Z" fill="url(#paint5_linear_1437_11)"/>
<path d="M56.25 0H3.75C2.75544 0 1.80161 0.395088 1.09835 1.09835C0.395088 1.80161 0 2.75544 0 3.75L0 11.25C0 11.5815 0.131696 11.8995 0.366117 12.1339C0.600537 12.3683 0.918479 12.5 1.25 12.5H53.75C54.0815 12.5 54.3995 12.3683 54.6339 12.1339C54.8683 11.8995 55 11.5815 55 11.25C55 10.9185 54.8683 10.6005 54.6339 10.3661C54.3995 10.1317 54.0815 10 53.75 10H2.5V3.75C2.5 3.41848 2.6317 3.10054 2.86612 2.86612C3.10054 2.6317 3.41848 2.5 3.75 2.5H56.25C56.5815 2.5 56.8995 2.6317 57.1339 2.86612C57.3683 3.10054 57.5 3.41848 57.5 3.75V56.25C57.5 56.5815 57.3683 56.8995 57.1339 57.1339C56.8995 57.3683 56.5815 57.5 56.25 57.5H3.75C3.41848 57.5 3.10054 57.3683 2.86612 57.1339C2.6317 56.8995 2.5 56.5815 2.5 56.25V16.25C2.5 15.9185 2.3683 15.6005 2.13388 15.3661C1.89946 15.1317 1.58152 15 1.25 15C0.918479 15 0.600537 15.1317 0.366117 15.3661C0.131696 15.6005 0 15.9185 0 16.25L0 56.25C0 57.2446 0.395088 58.1984 1.09835 58.9016C1.80161 59.6049 2.75544 60 3.75 60H56.25C57.2446 60 58.1984 59.6049 58.9016 58.9016C59.6049 58.1984 60 57.2446 60 56.25V3.75C60 2.75544 59.6049 1.80161 58.9016 1.09835C58.1984 0.395088 57.2446 0 56.25 0V0Z" fill="url(#paint6_linear_1437_11)"/>
</g>
<defs>
<linearGradient id="paint0_linear_1437_11" x1="7.5" y1="6.47949" x2="5" y2="6.47949" gradientUnits="userSpaceOnUse">
<stop stop-color="#275EFF"/>
<stop offset="1" stop-color="#A913FF"/>
</linearGradient>
<linearGradient id="paint1_linear_1437_11" x1="11.25" y1="6.47949" x2="8.75" y2="6.47949" gradientUnits="userSpaceOnUse">
<stop stop-color="#275EFF"/>
<stop offset="1" stop-color="#A913FF"/>
</linearGradient>
<linearGradient id="paint2_linear_1437_11" x1="15" y1="6.47949" x2="12.5" y2="6.47949" gradientUnits="userSpaceOnUse">
<stop stop-color="#275EFF"/>
<stop offset="1" stop-color="#A913FF"/>
</linearGradient>
<linearGradient id="paint3_linear_1437_11" x1="50" y1="39.0801" x2="10" y2="39.0801" gradientUnits="userSpaceOnUse">
<stop stop-color="#275EFF"/>
<stop offset="1" stop-color="#A913FF"/>
</linearGradient>
<linearGradient id="paint4_linear_1437_11" x1="36.2505" y1="36.9385" x2="22.5" y2="36.9385" gradientUnits="userSpaceOnUse">
<stop stop-color="#275EFF"/>
<stop offset="1" stop-color="#A913FF"/>
</linearGradient>
<linearGradient id="paint5_linear_1437_11" x1="19" y1="21.4795" x2="14" y2="21.4795" gradientUnits="userSpaceOnUse">
<stop stop-color="#275EFF"/>
<stop offset="1" stop-color="#A913FF"/>
</linearGradient>
<linearGradient id="paint6_linear_1437_11" x1="60" y1="35.5078" x2="0" y2="35.5078" gradientUnits="userSpaceOnUse">
<stop stop-color="#275EFF"/>
<stop offset="1" stop-color="#A913FF"/>
</linearGradient>
<clipPath id="clip0_1437_11">
<rect width="60" height="60" fill="white"/>
</clipPath>
</defs>
</svg>
