<svg width="60" height="60" viewBox="0 0 60 60" fill="none" xmlns="http://www.w3.org/2000/svg">
	<path d="M54.375 4.6875H5.625C4.13366 4.68914 2.70387 5.2823 1.64933 6.33683C0.594796 7.39137 0.00163777 8.82116 0 10.3125V49.6875C0.00163777 51.1788 0.594796 52.6086 1.64933 53.6632C2.70387 54.7177 4.13366 55.3109 5.625 55.3125H54.375C55.8663 55.3109 57.2961 54.7177 58.3507 53.6632C59.4052 52.6086 59.9984 51.1788 60 49.6875V10.3125C59.9984 8.82116 59.4052 7.39137 58.3507 6.33683C57.2961 5.2823 55.8663 4.68914 54.375 4.6875ZM1.875 10.3125C1.87604 9.31826 2.27147 8.36504 2.9745 7.662C3.67754 6.95897 4.63076 6.56354 5.625 6.5625H54.375C55.3692 6.56354 56.3225 6.95897 57.0255 7.662C57.7285 8.36504 58.124 9.31826 58.125 10.3125V15.9375H1.875V10.3125ZM54.375 53.4375H5.625C4.63076 53.4365 3.67754 53.041 2.9745 52.338C2.27147 51.635 1.87604 50.6817 1.875 49.6875V17.8125H58.125V49.6875C58.124 50.6817 57.7285 51.635 57.0255 52.338C56.3225 53.041 55.3692 53.4365 54.375 53.4375Z" fill="#6C3BFF"/>
	<path d="M6.5625 8.4375C6.00624 8.4375 5.46247 8.60245 4.99996 8.91149C4.53745 9.22053 4.17696 9.65979 3.96409 10.1737C3.75122 10.6876 3.69552 11.2531 3.80404 11.7987C3.91256 12.3443 4.18043 12.8454 4.57376 13.2387C4.9671 13.6321 5.46824 13.8999 6.01381 14.0085C6.55938 14.117 7.12488 14.0613 7.6388 13.8484C8.15272 13.6355 8.59197 13.2751 8.90101 12.8125C9.21005 12.35 9.375 11.8063 9.375 11.25C9.37418 10.5043 9.0776 9.78944 8.55033 9.26217C8.02307 8.7349 7.30817 8.43832 6.5625 8.4375ZM6.5625 12.1875C6.37708 12.1875 6.19583 12.1325 6.04165 12.0295C5.88748 11.9265 5.76732 11.7801 5.69636 11.6088C5.62541 11.4375 5.60684 11.249 5.64301 11.0671C5.67919 10.8852 5.76848 10.7182 5.89959 10.5871C6.0307 10.456 6.19775 10.3667 6.3796 10.3305C6.56146 10.2943 6.74996 10.3129 6.92127 10.3839C7.09257 10.4548 7.23899 10.575 7.342 10.7292C7.44502 10.8833 7.5 11.0646 7.5 11.25C7.49978 11.4986 7.40093 11.7369 7.22517 11.9127C7.0494 12.0884 6.81107 12.1873 6.5625 12.1875Z" fill="#6C3BFF"/>
	<path d="M13.125 8.4375C12.5687 8.4375 12.025 8.60245 11.5625 8.91149C11.0999 9.22053 10.7395 9.65979 10.5266 10.1737C10.3137 10.6876 10.258 11.2531 10.3665 11.7987C10.4751 12.3443 10.7429 12.8454 11.1363 13.2387C11.5296 13.6321 12.0307 13.8999 12.5763 14.0085C13.1219 14.117 13.6874 14.0613 14.2013 13.8484C14.7152 13.6355 15.1545 13.2751 15.4635 12.8125C15.7726 12.35 15.9375 11.8063 15.9375 11.25C15.9367 10.5043 15.6401 9.78944 15.1128 9.26217C14.5856 8.7349 13.8707 8.43832 13.125 8.4375ZM13.125 12.1875C12.9396 12.1875 12.7583 12.1325 12.6042 12.0295C12.45 11.9265 12.3298 11.7801 12.2589 11.6088C12.1879 11.4375 12.1693 11.249 12.2055 11.0671C12.2417 10.8852 12.331 10.7182 12.4621 10.5871C12.5932 10.456 12.7602 10.3667 12.9421 10.3305C13.124 10.2943 13.3125 10.3129 13.4838 10.3839C13.6551 10.4548 13.8015 10.575 13.9045 10.7292C14.0075 10.8833 14.0625 11.0646 14.0625 11.25C14.0623 11.4986 13.9634 11.7369 13.7877 11.9127C13.6119 12.0884 13.3736 12.1873 13.125 12.1875Z" fill="#6C3BFF"/>
	<path d="M19.6875 8.4375C19.1312 8.4375 18.5875 8.60245 18.125 8.91149C17.6624 9.22053 17.302 9.65979 17.0891 10.1737C16.8762 10.6876 16.8205 11.2531 16.929 11.7987C17.0376 12.3443 17.3054 12.8454 17.6988 13.2387C18.0921 13.6321 18.5932 13.8999 19.1388 14.0085C19.6844 14.117 20.2499 14.0613 20.7638 13.8484C21.2777 13.6355 21.717 13.2751 22.026 12.8125C22.3351 12.35 22.5 11.8063 22.5 11.25C22.4992 10.5043 22.2026 9.78944 21.6753 9.26217C21.1481 8.7349 20.4332 8.43832 19.6875 8.4375ZM19.6875 12.1875C19.5021 12.1875 19.3208 12.1325 19.1667 12.0295C19.0125 11.9265 18.8923 11.7801 18.8214 11.6088C18.7504 11.4375 18.7318 11.249 18.768 11.0671C18.8042 10.8852 18.8935 10.7182 19.0246 10.5871C19.1557 10.456 19.3227 10.3667 19.5046 10.3305C19.6865 10.2943 19.875 10.3129 20.0463 10.3839C20.2176 10.4548 20.364 10.575 20.467 10.7292C20.57 10.8833 20.625 11.0646 20.625 11.25C20.6248 11.4986 20.5259 11.7369 20.3502 11.9127C20.1744 12.0884 19.9361 12.1873 19.6875 12.1875Z" fill="#6C3BFF"/>
	<path d="M54.375 10.3125H37.5C37.2514 10.3125 37.0129 10.4113 36.8371 10.5871C36.6613 10.7629 36.5625 11.0014 36.5625 11.25C36.5625 11.4986 36.6613 11.7371 36.8371 11.9129C37.0129 12.0887 37.2514 12.1875 37.5 12.1875H54.375C54.6236 12.1875 54.8621 12.0887 55.0379 11.9129C55.2137 11.7371 55.3125 11.4986 55.3125 11.25C55.3125 11.0014 55.2137 10.7629 55.0379 10.5871C54.8621 10.4113 54.6236 10.3125 54.375 10.3125Z" fill="#6C3BFF"/>
	<path d="M19.7705 22.7344H9.78906C9.23678 22.7344 8.78906 23.1821 8.78906 23.7344V32.3958C8.78906 32.9481 9.23678 33.3958 9.78906 33.3958H19.7705C20.3227 33.3958 20.7705 32.9481 20.7705 32.3958V23.7344C20.7705 23.1821 20.3227 22.7344 19.7705 22.7344Z" fill="#6C3BFF"/>
	<path opacity="0.75" d="M15.9361 28.0652L10.7841 33.2744L10.6616 33.396H19.2733C20.771 33.396 20.771 33.0152 20.771 31.8729L15.9361 28.0652Z" fill="#C5B1FF"/>
	<path d="M14.7797 26.9037C14.7797 26.2834 14.2768 25.7805 13.6565 25.7805C13.0361 25.7805 12.5332 26.2834 12.5332 26.9037V26.9418C12.5332 27.5622 13.0361 28.0651 13.6565 28.0651C14.2768 28.0651 14.7797 27.5622 14.7797 26.9418V26.9037Z" fill="#C5B1FF"/>
	<path d="M19.9397 34.9188H9.61982C9.16101 34.9188 8.78906 35.2907 8.78906 35.7496C8.78906 36.2084 9.16101 36.5803 9.61982 36.5803H19.9397C20.3985 36.5803 20.7705 36.2084 20.7705 35.7496C20.7705 35.2907 20.3985 34.9188 19.9397 34.9188Z" fill="#6C3BFF"/>
	<path d="M18.8505 38.2421H9.61982C9.16101 38.2421 8.78906 38.614 8.78906 39.0729C8.78906 39.5317 9.16101 39.9036 9.61982 39.9036H18.8505C19.3093 39.9036 19.6813 39.5317 19.6813 39.0729C19.6813 38.614 19.3093 38.2421 18.8505 38.2421Z" fill="#6C3BFF"/>
	<path d="M35.02 22.7344H25.0386C24.4863 22.7344 24.0386 23.1821 24.0386 23.7344V32.3958C24.0386 32.9481 24.4863 33.3958 25.0386 33.3958H35.02C35.5723 33.3958 36.02 32.9481 36.02 32.3958V23.7344C36.02 23.1821 35.5723 22.7344 35.02 22.7344Z" fill="#6C3BFF"/>
	<path opacity="0.75" d="M31.1851 28.0652L26.0331 33.2744L25.9106 33.396H34.5223C36.02 33.396 36.02 33.0152 36.02 31.8729L31.1851 28.0652Z" fill="#C5B1FF"/>
	<path d="M30.0287 26.9037C30.0287 26.2834 29.5258 25.7805 28.9055 25.7805C28.2851 25.7805 27.7822 26.2834 27.7822 26.9037V26.9418C27.7822 27.5622 28.2851 28.0651 28.9055 28.0651C29.5258 28.0651 30.0287 27.5622 30.0287 26.9418V26.9037Z" fill="#C5B1FF"/>
	<path d="M35.1887 34.9188H24.8688C24.41 34.9188 24.0381 35.2907 24.0381 35.7496C24.0381 36.2084 24.41 36.5803 24.8688 36.5803H35.1887C35.6475 36.5803 36.0195 36.2084 36.0195 35.7496C36.0195 35.2907 35.6475 34.9188 35.1887 34.9188Z" fill="#6C3BFF"/>
	<path d="M34.0995 38.2421H24.8688C24.41 38.2421 24.0381 38.614 24.0381 39.0729C24.0381 39.5317 24.41 39.9036 24.8688 39.9036H34.0995C34.5583 39.9036 34.9303 39.5317 34.9303 39.0729C34.9303 38.614 34.5583 38.2421 34.0995 38.2421Z" fill="#6C3BFF"/>
	<path d="M50.269 22.7344H40.2876C39.7353 22.7344 39.2876 23.1821 39.2876 23.7344V32.3958C39.2876 32.9481 39.7353 33.3958 40.2876 33.3958H50.269C50.8213 33.3958 51.269 32.9481 51.269 32.3958V23.7344C51.269 23.1821 50.8213 22.7344 50.269 22.7344Z" fill="#6C3BFF"/>
	<path opacity="0.75" d="M46.4347 28.0652L41.2827 33.2744L41.1602 33.396H49.7718C51.2695 33.396 51.2695 33.0152 51.2695 31.8729L46.4347 28.0652Z" fill="#C5B1FF"/>
	<path d="M45.2782 26.9037C45.2782 26.2834 44.7753 25.7805 44.1549 25.7805C43.5346 25.7805 43.0317 26.2834 43.0317 26.9037V26.9418C43.0317 27.5622 43.5346 28.0651 44.1549 28.0651C44.7753 28.0651 45.2782 27.5622 45.2782 26.9418V26.9037Z" fill="#C5B1FF"/>
	<path d="M50.4387 34.9188H40.1188C39.66 34.9188 39.2881 35.2907 39.2881 35.7496C39.2881 36.2084 39.66 36.5803 40.1188 36.5803H50.4387C50.8975 36.5803 51.2695 36.2084 51.2695 35.7496C51.2695 35.2907 50.8975 34.9188 50.4387 34.9188Z" fill="#6C3BFF"/>
	<path d="M49.3495 38.2421H40.1188C39.66 38.2421 39.2881 38.614 39.2881 39.0729C39.2881 39.5317 39.66 39.9036 40.1188 39.9036H49.3495C49.8083 39.9036 50.1803 39.5317 50.1803 39.0729C50.1803 38.614 49.8083 38.2421 49.3495 38.2421Z" fill="#6C3BFF"/>
	<path d="M18.8794 43.1052C17.1901 43.1052 15.8159 44.5027 15.8159 46.2206C15.8159 47.9385 17.1901 49.3359 18.8794 49.3359C20.5686 49.3359 21.9428 47.9385 21.9428 46.2206C21.9428 44.5027 20.5686 43.1052 18.8794 43.1052ZM18.8794 47.6052C18.1288 47.6052 17.5178 46.9839 17.5178 46.2206C17.5178 45.4573 18.1288 44.836 18.8794 44.836C19.6303 44.836 20.2409 45.4573 20.2409 46.2206C20.2409 46.9839 19.6303 47.6052 18.8794 47.6052Z" fill="#6C3BFF"/>
	<path d="M29.4843 43.1052C27.7951 43.1052 26.4209 44.5027 26.4209 46.2206C26.4209 47.9385 27.7951 49.3359 29.4843 49.3359C31.1736 49.3359 32.5478 47.9385 32.5478 46.2206C32.5478 44.5027 31.1736 43.1052 29.4843 43.1052ZM29.4843 47.6052C28.7338 47.6052 28.1228 46.9839 28.1228 46.2206C28.1228 45.4573 28.7338 44.836 29.4843 44.836C30.2349 44.836 30.8459 45.4573 30.8459 46.2206C30.8459 46.9839 30.2349 47.6052 29.4843 47.6052Z" fill="#6C3BFF"/>
	<path d="M40.0893 43.1052C38.4 43.1052 37.0259 44.5027 37.0259 46.2206C37.0259 47.9385 38.4 49.3359 40.0893 49.3359C41.7786 49.3359 43.1528 47.9385 43.1528 46.2206C43.1528 44.5027 41.7786 43.1052 40.0893 43.1052ZM40.0893 47.6052C39.3384 47.6052 38.7278 46.9839 38.7278 46.2206C38.7278 45.4573 39.3384 44.836 40.0893 44.836C40.8399 44.836 41.4508 45.4573 41.4508 46.2206C41.4508 46.9839 40.8399 47.6052 40.0893 47.6052Z" fill="#6C3BFF"/>
	</svg>
