<svg width="60" height="60" viewBox="0 0 60 60" fill="none" xmlns="http://www.w3.org/2000/svg">
	<g clip-path="url(#clip0_2_22781)">
		<path
			d="M57.8667 5H2.13333C0.933333 5 0 5.93333 0 7.13333V53.6667C0 54.8667 0.933333 55.8 2.13333 55.8H57.8667C59.0667 55.8 60 54.8667 60 53.6667V7.26667C60.1333 5.93333 59 5 57.8667 5ZM58.4 53.6667C58.4 53.9333 58.1333 54.2 57.8667 54.2H2.13333C1.86667 54.2 1.6 53.9333 1.6 53.6667V7.26667C1.6 7 1.86667 6.73333 2.13333 6.73333H57.8667C58.1333 6.73333 58.4 7 58.4 7.26667V53.6667Z"
			fill="#6C3BFF" />
		<path
			d="M19 30.0667H9.00003C7.93336 30.0667 7.13336 29.2 7.13336 28.2V18.2C7.13336 17.1333 8.00003 16.3333 9.00003 16.3333H19C20.0667 16.3333 20.8667 17.2 20.8667 18.2V28.2C20.8667 29.2 20 30.0667 19 30.0667ZM8.93336 17.8C8.73336 17.8 8.60003 17.9333 8.60003 18.1333V28.1333C8.60003 28.3333 8.73336 28.4667 8.93336 28.4667H18.9334C19.1334 28.4667 19.2667 28.3333 19.2667 28.1333V18.1333C19.2667 17.9333 19.1334 17.8 18.9334 17.8H8.93336Z"
			fill="#6C3BFF" />
		<path
			d="M35.1333 30.0667H25.1333C24.0667 30.0667 23.2667 29.2 23.2667 28.2V18.2C23.2667 17.1333 24.1333 16.3333 25.1333 16.3333H35.1333C36.2 16.3333 37 17.2 37 18.2V28.2C37.0667 29.2 36.2 30.0667 35.1333 30.0667ZM25.1333 17.8C24.9333 17.8 24.8 17.9333 24.8 18.1333V28.1333C24.8 28.3333 24.9333 28.4667 25.1333 28.4667H35.1333C35.3333 28.4667 35.4667 28.3333 35.4667 28.1333V18.1333C35.4667 17.9333 35.3333 17.8 35.1333 17.8H25.1333Z"
			fill="#6C3BFF" />
		<path
			d="M51.3333 30.0667H41.3333C40.2667 30.0667 39.4667 29.2 39.4667 28.2V18.2C39.4667 17.1333 40.3333 16.3333 41.3333 16.3333H51.3333C52.4 16.3333 53.2 17.2 53.2 18.2V28.2C53.2 29.2 52.3333 30.0667 51.3333 30.0667ZM41.2667 17.8C41.0667 17.8 40.9333 17.9333 40.9333 18.1333V28.1333C40.9333 28.3333 41.0667 28.4667 41.2667 28.4667H51.2667C51.4667 28.4667 51.6 28.3333 51.6 28.1333V18.1333C51.6 17.9333 51.4667 17.8 51.2667 17.8H41.2667Z"
			fill="#6C3BFF" />
		<path
			d="M19 47.4H9.00003C7.93336 47.4 7.13336 46.5333 7.13336 45.5333V35.5333C7.13336 34.4667 8.00003 33.6667 9.00003 33.6667H19C20.0667 33.6667 20.8667 34.5333 20.8667 35.5333V45.5333C20.8667 46.6 20 47.4 19 47.4ZM8.93336 35.1333C8.73336 35.1333 8.60003 35.2667 8.60003 35.4667V45.4667C8.60003 45.6667 8.73336 45.8 8.93336 45.8H18.9334C19.1334 45.8 19.2667 45.6667 19.2667 45.4667V35.4667C19.2667 35.2667 19.1334 35.1333 18.9334 35.1333H8.93336Z"
			fill="#6C3BFF" />
		<path
			d="M35.1333 47.4H25.1333C24.0667 47.4 23.2667 46.5333 23.2667 45.5333V35.5333C23.2667 34.4667 24.1333 33.6667 25.1333 33.6667H35.1333C36.2 33.6667 37 34.5333 37 35.5333V45.5333C37.0667 46.6 36.2 47.4 35.1333 47.4ZM25.1333 35.1333C24.9333 35.1333 24.8 35.2667 24.8 35.4667V45.4667C24.8 45.6667 24.9333 45.8 25.1333 45.8H35.1333C35.3333 45.8 35.4667 45.6667 35.4667 45.4667V35.4667C35.4667 35.2667 35.3333 35.1333 35.1333 35.1333H25.1333Z"
			fill="#6C3BFF" />
		<path
			d="M51.3333 47.4H41.3333C40.2667 47.4 39.4667 46.5333 39.4667 45.5333V35.5333C39.4667 34.4667 40.3333 33.6667 41.3333 33.6667H51.3333C52.4 33.6667 53.2 34.5333 53.2 35.5333V45.5333C53.2 46.6 52.3333 47.4 51.3333 47.4ZM41.2667 35.1333C41.0667 35.1333 40.9333 35.2667 40.9333 35.4667V45.4667C40.9333 45.6667 41.0667 45.8 41.2667 45.8H51.2667C51.4667 45.8 51.6 45.6667 51.6 45.4667V35.4667C51.6 35.2667 51.4667 35.1333 51.2667 35.1333H41.2667Z"
			fill="#6C3BFF" />
	</g>
	<defs>
		<clipPath id="clip0_2_22781">
			<rect width="60" height="60" fill="white" />
		</clipPath>
	</defs>
</svg>
