<?xml version="1.0" encoding="utf-8"?>
<!-- Generator: Adobe Illustrator 24.2.1, SVG Export Plug-In . SVG Version: 6.00 Build 0)  -->
<svg version="1.1" id="Layer_1" xmlns="http://www.w3.org/2000/svg" xmlns:xlink="http://www.w3.org/1999/xlink" x="0px" y="0px"
	 viewBox="0 0 80 80" style="enable-background:new 0 0 80 80;" xml:space="preserve">
<style type="text/css">
	.st0{fill:url(#SVGID_1_);}
</style>
<linearGradient id="SVGID_1_" gradientUnits="userSpaceOnUse" x1="10" y1="40" x2="70" y2="40">
	<stop  offset="0" style="stop-color:#1A6DFF"/>
	<stop  offset="1" style="stop-color:#C822FF"/>
</linearGradient>
<path class="st0" d="M30,10c-1.9,0-3.4,1.3-3.9,3H14c-2.2,0-4,1.8-4,4v46c0,2.2,1.8,4,4,4h1c0.6,0,1-0.4,1-1s-0.4-1-1-1h-1
	c-1.1,0-2-0.9-2-2V17c0-1.1,0.9-2,2-2h12v7h-9v2h9v4h-9v2h9v12h-4v2h4v4h-4v2h4v16c0,2.2,1.8,4,4,4h2c0.6,0,1-0.4,1-1s-0.4-1-1-1h-2
	c-1.1,0-2-0.9-2-2V14c0-1.1,0.9-2,2-2h20c1.1,0,2,0.9,2,2v28v2v4v2v4v2v10c0,1.1-0.9,2-2,2h-2c-0.6,0-1,0.4-1,1s0.4,1,1,1h2
	c2.2,0,4-1.8,4-4V56h9v-2h-9v-4h9v-2h-9v-4h9v-2h-9V30h9v-2h-9v-4h9v-2h-9v-7h12c1.1,0,2,0.9,2,2v46c0,1.1-0.9,2-2,2h-1
	c-0.6,0-1,0.4-1,1s0.4,1,1,1h1c2.2,0,4-1.8,4-4V17c0-2.2-1.8-4-4-4H53.9c-0.4-1.7-2-3-3.9-3H30z M32,20v2h16v-2H32z M32,26v2h16v-2
	H32z M33,40c-0.6,0-1,0.4-1,1s0.4,1,1,1s1-0.4,1-1S33.6,40,33,40z M37,40v2h11v-2H37z M18,42c-0.6,0-1,0.4-1,1s0.4,1,1,1s1-0.4,1-1
	S18.6,42,18,42z M33,46c-0.6,0-1,0.4-1,1s0.4,1,1,1s1-0.4,1-1S33.6,46,33,46z M37,46v2h11v-2H37z M18,48c-0.6,0-1,0.4-1,1s0.4,1,1,1
	s1-0.4,1-1S18.6,48,18,48z M33,52c-0.6,0-1,0.4-1,1s0.4,1,1,1s1-0.4,1-1S33.6,52,33,52z M37,52v2h11v-2H37z M33,58c-0.6,0-1,0.4-1,1
	s0.4,1,1,1s1-0.4,1-1S33.6,58,33,58z M37,58v2h11v-2H37z M19,65c-0.6,0-1,0.4-1,1s0.4,1,1,1s1-0.4,1-1S19.6,65,19,65z M23,65
	c-0.6,0-1,0.4-1,1s0.4,1,1,1s1-0.4,1-1S23.6,65,23,65z M57,65c-0.6,0-1,0.4-1,1s0.4,1,1,1s1-0.4,1-1S57.6,65,57,65z M61,65
	c-0.6,0-1,0.4-1,1s0.4,1,1,1s1-0.4,1-1S61.6,65,61,65z M36,68c-0.6,0-1,0.4-1,1s0.4,1,1,1s1-0.4,1-1S36.6,68,36,68z M40,68
	c-0.6,0-1,0.4-1,1s0.4,1,1,1s1-0.4,1-1S40.6,68,40,68z M44,68c-0.6,0-1,0.4-1,1s0.4,1,1,1s1-0.4,1-1S44.6,68,44,68z"/>
</svg>
