<svg width="60" height="60" viewBox="0 0 60 60" fill="none" xmlns="http://www.w3.org/2000/svg">
	<path d="M22.5 7.5C21.075 7.5 19.95 8.475 19.575 9.75H10.5C8.85 9.75 7.5 11.1 7.5 12.75V47.25C7.5 48.9 8.85 50.25 10.5 50.25H11.25C11.7 50.25 12 49.95 12 49.5C12 49.05 11.7 48.75 11.25 48.75H10.5C9.675 48.75 9 48.075 9 47.25V12.75C9 11.925 9.675 11.25 10.5 11.25H19.5V16.5H12.75V18H19.5V21H12.75V22.5H19.5V31.5H16.5V33H19.5V36H16.5V37.5H19.5V49.5C19.5 51.15 20.85 52.5 22.5 52.5H24C24.45 52.5 24.75 52.2 24.75 51.75C24.75 51.3 24.45 51 24 51H22.5C21.675 51 21 50.325 21 49.5V10.5C21 9.675 21.675 9 22.5 9H37.5C38.325 9 39 9.675 39 10.5V31.5V33V36V37.5V40.5V42V49.5C39 50.325 38.325 51 37.5 51H36C35.55 51 35.25 51.3 35.25 51.75C35.25 52.2 35.55 52.5 36 52.5H37.5C39.15 52.5 40.5 51.15 40.5 49.5V42H47.25V40.5H40.5V37.5H47.25V36H40.5V33H47.25V31.5H40.5V22.5H47.25V21H40.5V18H47.25V16.5H40.5V11.25H49.5C50.325 11.25 51 11.925 51 12.75V47.25C51 48.075 50.325 48.75 49.5 48.75H48.75C48.3 48.75 48 49.05 48 49.5C48 49.95 48.3 50.25 48.75 50.25H49.5C51.15 50.25 52.5 48.9 52.5 47.25V12.75C52.5 11.1 51.15 9.75 49.5 9.75H40.425C40.125 8.475 38.925 7.5 37.5 7.5H22.5ZM24 15V16.5H36V15H24ZM24 19.5V21H36V19.5H24ZM24.75 30C24.3 30 24 30.3 24 30.75C24 31.2 24.3 31.5 24.75 31.5C25.2 31.5 25.5 31.2 25.5 30.75C25.5 30.3 25.2 30 24.75 30ZM27.75 30V31.5H36V30H27.75ZM13.5 31.5C13.05 31.5 12.75 31.8 12.75 32.25C12.75 32.7 13.05 33 13.5 33C13.95 33 14.25 32.7 14.25 32.25C14.25 31.8 13.95 31.5 13.5 31.5ZM24.75 34.5C24.3 34.5 24 34.8 24 35.25C24 35.7 24.3 36 24.75 36C25.2 36 25.5 35.7 25.5 35.25C25.5 34.8 25.2 34.5 24.75 34.5ZM27.75 34.5V36H36V34.5H27.75ZM13.5 36C13.05 36 12.75 36.3 12.75 36.75C12.75 37.2 13.05 37.5 13.5 37.5C13.95 37.5 14.25 37.2 14.25 36.75C14.25 36.3 13.95 36 13.5 36ZM24.75 39C24.3 39 24 39.3 24 39.75C24 40.2 24.3 40.5 24.75 40.5C25.2 40.5 25.5 40.2 25.5 39.75C25.5 39.3 25.2 39 24.75 39ZM27.75 39V40.5H36V39H27.75ZM24.75 43.5C24.3 43.5 24 43.8 24 44.25C24 44.7 24.3 45 24.75 45C25.2 45 25.5 44.7 25.5 44.25C25.5 43.8 25.2 43.5 24.75 43.5ZM27.75 43.5V45H36V43.5H27.75ZM14.25 48.75C13.8 48.75 13.5 49.05 13.5 49.5C13.5 49.95 13.8 50.25 14.25 50.25C14.7 50.25 15 49.95 15 49.5C15 49.05 14.7 48.75 14.25 48.75ZM17.25 48.75C16.8 48.75 16.5 49.05 16.5 49.5C16.5 49.95 16.8 50.25 17.25 50.25C17.7 50.25 18 49.95 18 49.5C18 49.05 17.7 48.75 17.25 48.75ZM42.75 48.75C42.3 48.75 42 49.05 42 49.5C42 49.95 42.3 50.25 42.75 50.25C43.2 50.25 43.5 49.95 43.5 49.5C43.5 49.05 43.2 48.75 42.75 48.75ZM45.75 48.75C45.3 48.75 45 49.05 45 49.5C45 49.95 45.3 50.25 45.75 50.25C46.2 50.25 46.5 49.95 46.5 49.5C46.5 49.05 46.2 48.75 45.75 48.75ZM27 51C26.55 51 26.25 51.3 26.25 51.75C26.25 52.2 26.55 52.5 27 52.5C27.45 52.5 27.75 52.2 27.75 51.75C27.75 51.3 27.45 51 27 51ZM30 51C29.55 51 29.25 51.3 29.25 51.75C29.25 52.2 29.55 52.5 30 52.5C30.45 52.5 30.75 52.2 30.75 51.75C30.75 51.3 30.45 51 30 51ZM33 51C32.55 51 32.25 51.3 32.25 51.75C32.25 52.2 32.55 52.5 33 52.5C33.45 52.5 33.75 52.2 33.75 51.75C33.75 51.3 33.45 51 33 51Z" fill="#6C3BFF"/>
	</svg>
