<svg width="60" height="60" viewBox="0 0 60 60" fill="none" xmlns="http://www.w3.org/2000/svg">
	<path d="M24.8 16.7C26.1 16.7 27.2 15.6 27.2 14.3C27.2 13 26.1 11.9 24.8 11.9C23.5 11.9 22.4 13 22.4 14.3C22.4 15.6 23.5 16.7 24.8 16.7ZM24.8 13.5C25.2 13.5 25.6 13.9 25.6 14.3C25.6 14.7 25.2 15.1 24.8 15.1C24.4 15.1 24 14.7 24 14.3C24 13.9 24.3 13.5 24.8 13.5Z" fill="#6C3BFF"/>
	<path d="M45 7.10001H12.5C9.89999 7.10001 7.79999 9.20001 7.79999 11.8V49.3C7.79999 51.9 9.89999 54 12.5 54H45C47.6 54 49.7 51.9 49.7 49.3V11.8C49.7 9.20001 47.6 7.10001 45 7.10001ZM12.5 8.60001H45C46.8 8.60001 48.2 10 48.2 11.8V25H39.7L32.7 17C32.4 16.6 31.8 16.6 31.5 17L27.7 21.3L24.8 18.2C24.5 17.8 23.9 17.9 23.6 18.2L17.7 25H9.29999V11.8C9.29999 10 10.7 8.60001 12.5 8.60001ZM24.3 24.9C24.3 25 24.3 25 24.3 24.9L20 25L24.2 20.1L26.5 22.5L24.3 24.9ZM37.5 25H26.5L32 18.8L37.5 25ZM45 52.4H12.5C10.7 52.4 9.29999 51 9.29999 49.2V26.5H48.3V49.2C48.2 51 46.8 52.4 45 52.4Z" fill="#6C3BFF"/>
	<path d="M41 33.2H16.4C16 33.2 15.6 33.5 15.6 34C15.6 34.5 15.9 34.8 16.4 34.8H41C41.4 34.8 41.8 34.5 41.8 34C41.8 33.5 41.5 33.2 41 33.2Z" fill="#6C3BFF"/>
	<path d="M41 38.9H16.4C16 38.9 15.6 39.2 15.6 39.7C15.6 40.2 15.9 40.5 16.4 40.5H41C41.4 40.5 41.8 40.2 41.8 39.7C41.8 39.2 41.5 38.9 41 38.9Z" fill="#6C3BFF"/>
	<path d="M22.1 44.9C21.5 44.9 21 45.4 21 46C21 46.6 21.5 47.1 22.1 47.1C22.7 47.1 23.2 46.6 23.2 46C23.2 45.4 22.7 44.9 22.1 44.9Z" fill="#6C3BFF"/>
	<path d="M26.5 44.9C25.9 44.9 25.4 45.4 25.4 46C25.4 46.6 25.9 47.1 26.5 47.1C27.1 47.1 27.6 46.6 27.6 46C27.6 45.4 27.1 44.9 26.5 44.9Z" fill="#6C3BFF"/>
	<path d="M31 47.1C31.6075 47.1 32.1 46.6075 32.1 46C32.1 45.3925 31.6075 44.9 31 44.9C30.3925 44.9 29.9 45.3925 29.9 46C29.9 46.6075 30.3925 47.1 31 47.1Z" fill="#6C3BFF"/>
	<path d="M35.4 47.1C36.0075 47.1 36.5 46.6075 36.5 46C36.5 45.3925 36.0075 44.9 35.4 44.9C34.7925 44.9 34.3 45.3925 34.3 46C34.3 46.6075 34.7925 47.1 35.4 47.1Z" fill="#6C3BFF"/>
	<path d="M54.2 24.7C53.9 24.4 53.4 24.4 53.1 24.7C52.8 25 52.8 25.5 53.1 25.8L57.8 30.5L53.1 35.2C52.8 35.5 52.8 36 53.1 36.3C53.2 36.4 53.4 36.5 53.6 36.5C53.8 36.5 54 36.4 54.1 36.3L59.9 30.5L54.2 24.7Z" fill="#6C3BFF"/>
	<path d="M4.5 27.1C4.2 26.8 3.7 26.8 3.4 27.1L0 30.5L3.4 33.9C3.5 34 3.7 34.1 3.9 34.1C4.1 34.1 4.3 34 4.4 33.9C4.7 33.6 4.7 33.1 4.4 32.8L2 30.4L4.4 28C4.8 27.8 4.8 27.3 4.5 27.1Z" fill="#6C3BFF"/>
	</svg>
