<svg width="57" height="58" viewBox="0 0 57 58" fill="none" xmlns="http://www.w3.org/2000/svg">
	<path
		d="M49.0286 30.7143H26.5714V8.25714C26.5714 7.57143 26.1428 6.88571 25.2 6.88571C11.4 6.88571 0.0856934 18.2 0.0856934 32.0857C0.0856934 45.9714 11.4 57.2 25.2 57.2C39 57.2 50.3143 45.8857 50.3143 32.0857C50.1428 31.1429 49.7143 30.7143 49.0286 30.7143ZM25.2 54.4571C12.7714 54.4571 2.74284 44.2571 2.74284 32C2.74284 20.2571 12 10.4857 23.5714 9.54285H24.0857V32C24.0857 32.6857 24.5143 33.3714 25.4571 33.3714H47.9143V33.8C46.7143 45.2 37.0286 54.4571 25.2 54.4571Z"
		fill="#6C3BFF" />
	<path
		d="M50.1428 9.19999C45.3428 3.71427 38.5714 0.799988 31.3714 0.799988C30.6857 0.799988 30 1.22856 30 2.17142V25.9143C30 26.6 30.4285 27.2857 31.3714 27.2857H55.1143C55.8 27.2857 56.4857 26.6 56.4857 25.9143C56.2285 19.5714 54 13.7428 50.1428 9.19999ZM48.0857 11C51.2571 14.6 53.3143 19.4 53.7428 24.3714V24.8H32.4857V3.54285H32.9143C38.8285 3.71427 44.2285 6.45713 48.0857 11Z"
		fill="#6C3BFF" />
</svg>
