<?xml version="1.0" encoding="utf-8"?>
<!-- Generator: Adobe Illustrator 24.2.1, SVG Export Plug-In . SVG Version: 6.00 Build 0)  -->
<svg version="1.1" id="Layer_1" xmlns="http://www.w3.org/2000/svg" xmlns:xlink="http://www.w3.org/1999/xlink" x="0px" y="0px"
	 viewBox="0 0 66 70" style="enable-background:new 0 0 66 70;" xml:space="preserve">
<style type="text/css">
	.st0{fill:url(#SVGID_1_);}
	.st1{fill:url(#SVGID_2_);}
</style>
<desc>Created with Sketch.</desc>
<g>
	<linearGradient id="SVGID_1_" gradientUnits="userSpaceOnUse" x1="5.3882" y1="55.3708" x2="63.5059" y2="14.6649">
		<stop  offset="0" style="stop-color:#1A6DFF"/>
		<stop  offset="1" style="stop-color:#C822FF"/>
	</linearGradient>
	<path class="st0" d="M57.2,37H31V10.8c0-0.8-0.5-1.6-1.6-1.6C13.3,9.2,0.1,22.4,0.1,38.6s13.2,29.3,29.3,29.3s29.3-13.2,29.3-29.3
		C58.5,37.5,58,37,57.2,37z M29.4,64.7c-14.5,0-26.2-11.9-26.2-26.2c0-13.7,10.8-25.1,24.3-26.2h0.6v26.2c0,0.8,0.5,1.6,1.6,1.6
		h26.2v0.5C54.5,53.9,43.2,64.7,29.4,64.7z"/>
	<linearGradient id="SVGID_2_" gradientUnits="userSpaceOnUse" x1="2.4642" y1="51.1157" x2="60.5819" y2="10.4098">
		<stop  offset="0" style="stop-color:#1A6DFF"/>
		<stop  offset="1" style="stop-color:#C822FF"/>
	</linearGradient>
	<path class="st1" d="M58.5,11.9C52.9,5.5,45,2.1,36.6,2.1c-0.8,0-1.6,0.5-1.6,1.6v27.7c0,0.8,0.5,1.6,1.6,1.6h27.7
		c0.8,0,1.6-0.8,1.6-1.6C65.6,24,63,17.2,58.5,11.9z M56.1,14c3.7,4.2,6.1,9.8,6.6,15.6v0.5H37.9V5.3h0.5C45.3,5.5,51.6,8.7,56.1,14
		z"/>
</g>
</svg>
