<svg width="60" height="41" viewBox="0 0 60 41" fill="none" xmlns="http://www.w3.org/2000/svg">
	<path d="M57.8667 9.26667H39C38.6667 4.6 34.7333 0.866669 30 0.866669C25.2 0.866669 21.3333 4.6 21 9.26667H2.20001C1.00001 9.26667 0.0666809 10.2 0.0666809 11.4V38.6667C0.0666809 39.8667 1.00001 40.8 2.20001 40.8H57.8667C59.0667 40.8 60 39.8667 60 38.6667V11.5333C60 10.2 59 9.26667 57.8667 9.26667ZM30 2.6C34.0667 2.6 37.4 5.93333 37.4 10C37.4 14.0667 34.0667 17.3333 30 17.3333C25.9333 17.3333 22.6 14 22.6 9.93333C22.6 5.86667 25.9333 2.6 30 2.6ZM58.3334 38.6C58.3334 38.8667 58.0667 39.1333 57.8 39.1333H2.20001C1.93335 39.1333 1.66668 38.8667 1.66668 38.6V11.5333C1.66668 11.2667 1.93335 11 2.20001 11H21.0667C21.6 15.4667 25.4 19 30.0667 19C34.7333 19 38.5333 15.4667 39.0667 11H57.9333C58.2 11 58.4667 11.2667 58.4667 11.5333V38.6H58.3334Z" fill="#6C3BFF"/>
	<path d="M29.2 13.6667H30.8667V10.8H33.6667V9.13333H30.8667V6.26666H29.2V9.13333H26.3333V10.8H29.2V13.6667Z" fill="#6C3BFF"/>
	</svg>
