<svg width="90" height="90" viewBox="0 0 90 90" fill="none" xmlns="http://www.w3.org/2000/svg">
<path d="M88.8 66.3C88.2 66.3 87.6 65.85 87.6 65.1C87.6 62.25 86.55 59.7 84.45 57.6C82.5 55.65 79.8 54.45 76.95 54.45C76.35 54.45 75.6 54.45 75 54.6C74.4 54.75 73.95 54.45 73.8 53.85C72.15 48.9 67.5 45.75 62.4 45.6C60.6 45.6 58.8 46.05 57.3 46.8C56.85 47.1 56.25 46.95 55.95 46.5C49.8 38.85 38.55 37.65 30.9 43.65C28.5 45.6 26.55 48.15 25.5 51C25.35 51.3 25.2 51.45 24.9 51.6C24.6 51.75 24.3 51.75 24 51.6C20.4 49.8 16.35 49.5 12.6 50.7C8.85 51.9 5.7 54.6 3.9 58.2C2.85 60.3 2.25 62.55 2.25 64.95C2.25 65.55 1.8 66.15 1.2 66.15C0.6 66.15 0.15 65.7 0 65.1V23.85C0 23.25 0.45 22.65 1.2 22.65H88.65C89.25 22.65 89.85 23.1 89.85 23.85V65.1C89.85 65.7 89.4 66.3 88.8 66.3ZM77.1 52.35C80.55 52.35 83.7 53.7 86.1 56.1C86.7 56.7 87.15 57.3 87.6 57.9V25.05H2.4V56.7C4.5 52.95 7.8 50.25 12 48.9C15.9 47.55 20.25 47.7 24 49.35C25.35 46.65 27.3 44.1 29.7 42.15C38.1 35.4 50.25 36.6 57.3 44.55C58.95 43.8 60.75 43.5 62.55 43.5C68.4 43.5 73.5 47.1 75.75 52.35C76.2 52.35 76.65 52.35 77.1 52.35Z" fill="url(#paint0_linear_10_18)"/>
<defs>
<linearGradient id="paint0_linear_10_18" x1="0.116455" y1="44.5264" x2="89.8887" y2="44.5264" gradientUnits="userSpaceOnUse">
<stop stop-color="#275EFF"/>
<stop offset="1" stop-color="#A913FF"/>
</linearGradient>
</defs>
</svg>
