<svg width="60" height="60" viewBox="0 0 60 60" fill="none" xmlns="http://www.w3.org/2000/svg">
	<path d="M59.2 44.2C58.8 44.2 58.4 43.9 58.4 43.4C58.4 41.5 57.7 39.8 56.3 38.4C55 37.1 53.2 36.3 51.3 36.3C50.9 36.3 50.4 36.3 50 36.4C49.6 36.5 49.3 36.3 49.2 35.9C48.1 32.6 45 30.5 41.6 30.4C40.4 30.4 39.2 30.7 38.2 31.2C37.9 31.4 37.5 31.3 37.3 31C33.2 25.9 25.7 25.1 20.6 29.1C19 30.4 17.7 32.1 17 34C16.9 34.2 16.8 34.3 16.6 34.4C16.4 34.5 16.2 34.5 16 34.4C13.6 33.2 10.9 33 8.4 33.8C5.9 34.6 3.8 36.4 2.6 38.8C1.9 40.2 1.5 41.7 1.5 43.3C1.5 43.7 1.2 44.1 0.8 44.1C0.4 44.1 0.1 43.8 0 43.4V15.9C0 15.5 0.3 15.1 0.8 15.1H59.1C59.5 15.1 59.9 15.4 59.9 15.9V43.4C59.9 43.8 59.6 44.2 59.2 44.2ZM51.4 34.9C53.7 34.9 55.8 35.8 57.4 37.4C57.8 37.8 58.1 38.2 58.4 38.6V16.7H1.6V37.8C3 35.3 5.2 33.5 8 32.6C10.6 31.7 13.5 31.8 16 32.9C16.9 31.1 18.2 29.4 19.8 28.1C25.4 23.6 33.5 24.4 38.2 29.7C39.3 29.2 40.5 29 41.7 29C45.6 29 49 31.4 50.5 34.9C50.8 34.9 51.1 34.9 51.4 34.9Z" fill="#6C3BFF"/>
	</svg>
