<svg width="60" height="60" viewBox="0 0 60 60" fill="none" xmlns="http://www.w3.org/2000/svg">
	<path d="M55.5429 34.8C55.2 34.8 54.9429 34.7143 54.6857 34.4571C54.1714 33.9428 54.1714 33.1714 54.6857 32.6571L56.7429 30.5143L54.7714 27.6C54.3429 27 54.5143 26.2286 55.1143 25.8C55.7143 25.3714 56.4857 25.5428 56.9143 26.1428L60 30.7714L56.4857 34.4571C56.2286 34.6286 55.8857 34.8 55.5429 34.8Z" fill="#6C3BFF"/>
	<path d="M4.45714 34.8C4.11429 34.8 3.77143 34.6286 3.51429 34.3714L0 30.6857L3.08571 26.0572C3.51429 25.4572 4.28571 25.2857 4.88571 25.7143C5.48571 26.1429 5.65714 26.9143 5.22857 27.5143L3.25714 30.4286L5.4 32.5714C5.91429 33.0857 5.91429 33.8572 5.4 34.3714C5.05714 34.6286 4.8 34.8 4.45714 34.8Z" fill="#6C3BFF"/>
	<path d="M45.4286 55.8857H14.6571C11.5714 55.8857 9 53.3143 9 50.2286V9.77143C9 6.68572 11.5714 4.11429 14.6571 4.11429H45.4286C48.5143 4.11429 51.0857 6.68572 51.0857 9.77143V50.2286C51.0857 53.3143 48.5143 55.8857 45.4286 55.8857ZM14.6571 6.68572C12.9429 6.68572 11.5714 8.05715 11.5714 9.77143V50.2286C11.5714 51.9429 12.9429 53.3143 14.6571 53.3143H45.4286C47.1429 53.3143 48.5143 51.9429 48.5143 50.2286V9.77143C48.5143 8.05715 47.1429 6.68572 45.4286 6.68572H14.6571Z" fill="#6C3BFF"/>
	<path d="M28.4571 46.1143L19.7143 35.4L11.3143 46.0286L9.25714 44.4L19.7143 31.3714L28.7143 42.3429L48.9429 23.3143L50.7429 25.2L28.4571 46.1143Z" fill="#6C3BFF"/>
	<path d="M37.9714 22.3714C35.6571 22.3714 33.7714 20.4857 33.7714 18.1714C33.7714 15.8572 35.6571 13.9714 37.9714 13.9714C40.2857 13.9714 42.1714 15.8572 42.1714 18.1714C42.2571 20.4857 40.2857 22.3714 37.9714 22.3714ZM37.9714 16.3714C36.9428 16.3714 36.1714 17.2286 36.1714 18.1714C36.1714 19.2 37.0286 19.9714 37.9714 19.9714C38.9143 19.9714 39.7714 19.1143 39.7714 18.1714C39.8571 17.1429 39 16.3714 37.9714 16.3714Z" fill="#6C3BFF"/>
	</svg>
