<svg width="60" height="60" viewBox="0 0 60 60" fill="none" xmlns="http://www.w3.org/2000/svg">
	<path d="M3.18182 57.8571C1.45455 57.8571 0 56.4857 0 54.8571V4.28571C0 2.65713 1.45455 1.28571 3.18182 1.28571H56.7273C58.5455 1.28571 60 2.65713 60 4.28571V54.8571C60 56.4857 58.5455 57.8571 56.8182 57.8571H3.18182ZM5.54545 4.11428C4.18182 4.11428 3 5.14285 3 6.51428V53.0571C3 54.1714 3.90909 55.0286 5.09091 55.0286H54.4545C55.8182 55.0286 57 54 57 52.6286V6.25713C57 5.05713 56 4.11428 54.7273 4.11428H5.54545Z" fill="#6C3BFF"/>
	<path d="M16.8182 32.5H23.2727C24.571 32.5 25.5226 33.4165 25.5909 34.637V40.6857C25.5909 41.7468 24.6196 42.7857 23.2727 42.7857H16.8182C15.4713 42.7857 14.5 41.7468 14.5 40.6857V34.6C14.5 33.5389 15.4713 32.5 16.8182 32.5Z" stroke="#6C3BFF" stroke-width="3"/>
	<path d="M16.8182 16.5H23.2727C24.571 16.5 25.5226 17.4165 25.5909 18.637V24.6857C25.5909 25.7468 24.6196 26.7857 23.2727 26.7857H16.8182C15.4713 26.7857 14.5 25.7468 14.5 24.6857V18.6C14.5 17.5389 15.4713 16.5 16.8182 16.5Z" stroke="#6C3BFF" stroke-width="3"/>
	<path d="M35.8182 32.5H42.2727C43.571 32.5 44.5226 33.4165 44.5909 34.637V40.6857C44.5909 41.7468 43.6196 42.7857 42.2727 42.7857H35.8182C34.4713 42.7857 33.5 41.7468 33.5 40.6857V34.6C33.5 33.5389 34.4713 32.5 35.8182 32.5Z" stroke="#6C3BFF" stroke-width="3"/>
	<path d="M35.8182 16.5H42.2727C43.571 16.5 44.5226 17.4165 44.5909 18.637V24.6857C44.5909 25.7468 43.6196 26.7857 42.2727 26.7857H35.8182C34.4713 26.7857 33.5 25.7468 33.5 24.6857V18.6C33.5 17.5389 34.4713 16.5 35.8182 16.5Z" stroke="#6C3BFF" stroke-width="3"/>
	</svg>
