<svg width="60" height="60" viewBox="0 0 60 60" fill="none" xmlns="http://www.w3.org/2000/svg">
<g clip-path="url(#clip0_1579_2)">
<path d="M6.25 7.5C6.94036 7.5 7.5 6.94036 7.5 6.25C7.5 5.55964 6.94036 5 6.25 5C5.55964 5 5 5.55964 5 6.25C5 6.94036 5.55964 7.5 6.25 7.5Z" fill="url(#paint0_linear_1579_2)"/>
<path d="M10 7.5C10.6904 7.5 11.25 6.94036 11.25 6.25C11.25 5.55964 10.6904 5 10 5C9.30964 5 8.75 5.55964 8.75 6.25C8.75 6.94036 9.30964 7.5 10 7.5Z" fill="url(#paint1_linear_1579_2)"/>
<path d="M13.75 7.5C14.4404 7.5 15 6.94036 15 6.25C15 5.55964 14.4404 5 13.75 5C13.0596 5 12.5 5.55964 12.5 6.25C12.5 6.94036 13.0596 7.5 13.75 7.5Z" fill="url(#paint2_linear_1579_2)"/>
<path d="M56.25 0H3.75C2.75544 0 1.80161 0.395088 1.09835 1.09835C0.395088 1.80161 0 2.75544 0 3.75L0 11.25C0 11.5815 0.131696 11.8995 0.366117 12.1339C0.600537 12.3683 0.918479 12.5 1.25 12.5H63.75C64.0815 12.5 64.3995 12.3683 64.6339 12.1339C64.8683 11.8995 65 11.5815 65 11.25C65 10.9185 64.8683 10.6005 64.6339 10.3661C64.3995 10.1317 64.0815 10 63.75 10H2.5V3.75C2.5 3.41848 2.6317 3.10054 2.86612 2.86612C3.10054 2.6317 3.41848 2.5 3.75 2.5H56.25C56.5815 2.5 56.8995 2.6317 57.1339 2.86612C57.3683 3.10054 57.5 3.41848 57.5 3.75V56.25C57.5 56.5815 57.3683 56.8995 57.1339 57.1339C56.8995 57.3683 56.5815 57.5 56.25 57.5H3.75C3.41848 57.5 3.10054 57.3683 2.86612 57.1339C2.6317 56.8995 2.5 56.5815 2.5 56.25V10.25C2.5 9.91848 2.3683 9.60054 2.13388 9.36612C1.89946 9.1317 1.58152 9 1.25 9C0.918479 9 0.600537 9.1317 0.366117 9.36612C0.131696 9.60054 0 9.91848 0 10.25L0 56.25C0 57.2446 0.395088 58.1984 1.09835 58.9016C1.80161 59.6049 2.75544 60 3.75 60H56.25C57.2446 60 58.1984 59.6049 58.9016 58.9016C59.6049 58.1984 60 57.2446 60 56.25V3.75C60 2.75544 59.6049 1.80161 58.9016 1.09835C58.1984 0.395088 57.2446 0 56.25 0Z" fill="url(#paint3_linear_1579_2)"/>
<path d="M36.3125 39.2917C34.7687 39.2917 33.4083 40.0511 32.5538 41.206L25.1661 37.4231C25.2888 37.0051 25.375 36.5718 25.375 36.1146C25.375 35.4945 25.2479 34.9049 25.0282 34.3627L32.7597 29.7102C33.6202 30.72 34.8848 31.375 36.3125 31.375C38.8973 31.375 41 29.2723 41 26.6875C41 24.1027 38.8973 22 36.3125 22C33.7277 22 31.625 24.1027 31.625 26.6875C31.625 27.2832 31.7477 27.8482 31.9511 28.3728L24.1966 33.039C23.3369 32.0592 22.0905 31.4271 20.6875 31.4271C18.1027 31.4271 16 33.5297 16 36.1146C16 38.6994 18.1027 40.8021 20.6875 40.8021C22.2568 40.8021 23.6402 40.0204 24.4914 38.833L31.8547 42.6036C31.7191 43.0414 31.625 43.4974 31.625 43.9792C31.625 46.564 33.7277 48.6667 36.3125 48.6667C38.8973 48.6667 41 46.564 41 43.9792C41 41.3943 38.8973 39.2917 36.3125 39.2917Z" fill="#2A5DFF"/>
</g>
<defs>
<linearGradient id="paint0_linear_1579_2" x1="7.5" y1="6.47949" x2="5" y2="6.47949" gradientUnits="userSpaceOnUse">
<stop stop-color="#275EFF"/>
<stop offset="1" stop-color="#A913FF"/>
</linearGradient>
<linearGradient id="paint1_linear_1579_2" x1="11.25" y1="6.47949" x2="8.75" y2="6.47949" gradientUnits="userSpaceOnUse">
<stop stop-color="#275EFF"/>
<stop offset="1" stop-color="#A913FF"/>
</linearGradient>
<linearGradient id="paint2_linear_1579_2" x1="15" y1="6.47949" x2="12.5" y2="6.47949" gradientUnits="userSpaceOnUse">
<stop stop-color="#275EFF"/>
<stop offset="1" stop-color="#A913FF"/>
</linearGradient>
<linearGradient id="paint3_linear_1579_2" x1="60" y1="35.5078" x2="0" y2="35.5078" gradientUnits="userSpaceOnUse">
<stop stop-color="#275EFF"/>
<stop offset="1" stop-color="#A913FF"/>
</linearGradient>
<clipPath id="clip0_1579_2">
<rect width="60" height="60" fill="white"/>
</clipPath>
</defs>
</svg>
