<svg width="60" height="60" viewBox="0 0 60 60" fill="none" xmlns="http://www.w3.org/2000/svg">
	<path fill-rule="evenodd" clip-rule="evenodd" d="M48 19H3V50H48V19ZM3 17C1.89543 17 1 17.8954 1 19V50C1 51.1046 1.89543 52 3 52H48C49.1046 52 50 51.1046 50 50V19C50 17.8954 49.1046 17 48 17H3Z" fill="#6C3BFF"/>
	<path fill-rule="evenodd" clip-rule="evenodd" d="M4 14C4 13.4477 4.44772 13 5 13H50C52.2091 13 54 14.7909 54 17V49C54 49.5523 53.5523 50 53 50C52.4477 50 52 49.5523 52 49V17C52 15.8954 51.1046 15 50 15H5C4.44772 15 4 14.5523 4 14Z" fill="#6C3BFF"/>
	<path fill-rule="evenodd" clip-rule="evenodd" d="M7 10C7 9.44772 7.44772 9 8 9H51C54.866 9 58 12.134 58 16V46C58 46.5523 57.5523 47 57 47C56.4477 47 56 46.5523 56 46V16C56 13.2386 53.7614 11 51 11H8C7.44772 11 7 10.5523 7 10Z" fill="#6C3BFF"/>
	</svg>
