<svg width="57" height="60" viewBox="0 0 57 60" fill="none" xmlns="http://www.w3.org/2000/svg">
	<g clip-path="url(#clip0_2_22842)">
	<path d="M15.1714 16.1143H47.6571V18.6H15.1714V16.1143Z" fill="#6C3BFF"/>
	<path d="M7.45715 15.8571H10.5429V18.9429H7.45715V15.8571Z" fill="#6C3BFF"/>
	<path d="M15.1714 25.8H47.6571V28.2857H15.1714V25.8Z" fill="#6C3BFF"/>
	<path d="M7.45715 25.4572H10.5429V28.5429H7.45715V25.4572Z" fill="#6C3BFF"/>
	<path d="M15.3429 35.4H41.9143V37.8857H15.3429V35.4Z" fill="#6C3BFF"/>
	<path d="M7.71429 35.1429H10.8V38.2286H7.71429V35.1429Z" fill="#6C3BFF"/>
	<path d="M51.8571 59.0572H4.8C2.22857 59.0572 0.0857162 56.9143 0.0857162 54.3429V5.65716C0.0857162 3.08573 2.22857 0.942871 4.8 0.942871H51.8571C54.4286 0.942871 56.5714 3.08573 56.5714 5.65716V54.3429C56.5714 56.9143 54.4286 59.0572 51.8571 59.0572ZM4.8 3.5143C3.6 3.5143 2.65714 4.45716 2.65714 5.65716V54.3429C2.65714 55.5429 3.6 56.4857 4.8 56.4857H51.8571C53.0571 56.4857 54 55.5429 54 54.3429V5.65716C54 4.45716 53.0571 3.5143 51.8571 3.5143H4.8Z" fill="#6C3BFF"/>
	</g>
	<defs>
	<clipPath id="clip0_2_22842">
	<rect width="56.5714" height="60" fill="white"/>
	</clipPath>
	</defs>
	</svg>
