<svg xmlns="http://www.w3.org/2000/svg" x="0" y="0" enable-background="new 0 0 66 70" version="1.1" viewBox="0 0 66 70" xml:space="preserve"><linearGradient id="SVGID_1_" x1="-6.254" x2="50.81" y1="45.89" y2="11.805" gradientUnits="userSpaceOnUse"><stop offset="0" stop-color="#1A6DFF"></stop><stop offset="1" stop-color="#C822FF"></stop></linearGradient><path d="M17.7 18.8H55.599999999999994V21.7H17.7z" fill="url(#SVGID_1_)"></path><linearGradient id="SVGID_2_" x1="-13.111" x2="43.953" y1="34.411" y2="0.326" gradientUnits="userSpaceOnUse"><stop offset="0" stop-color="#1A6DFF"></stop><stop offset="1" stop-color="#C822FF"></stop></linearGradient><path d="M8.7 18.5H12.299999999999999V22.1H8.7z" fill="url(#SVGID_2_)"></path><g><linearGradient id="SVGID_3_" x1="-1.304" x2="55.76" y1="54.177" y2="20.092" gradientUnits="userSpaceOnUse"><stop offset="0" stop-color="#1A6DFF"></stop><stop offset="1" stop-color="#C822FF"></stop></linearGradient><path d="M17.7 30.1H55.599999999999994V33H17.7z" fill="url(#SVGID_3_)"></path><g><linearGradient id="SVGID_4_" x1="-8.161" x2="48.903" y1="42.698" y2="8.613" gradientUnits="userSpaceOnUse"><stop offset="0" stop-color="#1A6DFF"></stop><stop offset="1" stop-color="#C822FF"></stop></linearGradient><path d="M8.7 29.7H12.299999999999999V33.3H8.7z" fill="url(#SVGID_4_)"></path></g></g><g><linearGradient id="SVGID_5_" x1="2.815" x2="59.879" y1="61.073" y2="26.988" gradientUnits="userSpaceOnUse"><stop offset="0" stop-color="#1A6DFF"></stop><stop offset="1" stop-color="#C822FF"></stop></linearGradient><path d="M17.9 41.3H48.9V44.199999999999996H17.9z" fill="url(#SVGID_5_)"></path><g><linearGradient id="SVGID_6_" x1="-3.143" x2="53.921" y1="51.098" y2="17.013" gradientUnits="userSpaceOnUse"><stop offset="0" stop-color="#1A6DFF"></stop><stop offset="1" stop-color="#C822FF"></stop></linearGradient><path d="M9 41H12.6V44.6H9z" fill="url(#SVGID_6_)"></path></g></g><g><linearGradient id="SVGID_7_" x1="-0.708" x2="56.356" y1="55.175" y2="21.09" gradientUnits="userSpaceOnUse"><stop offset="0" stop-color="#1A6DFF"></stop><stop offset="1" stop-color="#C822FF"></stop></linearGradient><path d="M60.5 68.9H5.6c-3 0-5.5-2.5-5.5-5.5V6.6c0-3 2.5-5.5 5.5-5.5h54.9c3 0 5.5 2.5 5.5 5.5v56.8c0 3-2.5 5.5-5.5 5.5zM5.6 4.1c-1.4 0-2.5 1.1-2.5 2.5v56.8c0 1.4 1.1 2.5 2.5 2.5h54.9c1.4 0 2.5-1.1 2.5-2.5V6.6c0-1.4-1.1-2.5-2.5-2.5H5.6z" fill="url(#SVGID_7_)"></path></g></svg>