<svg width="57" height="60" viewBox="0 0 57 60" fill="none" xmlns="http://www.w3.org/2000/svg">
	<g clip-path="url(#clip0_2_22855)">
	<path d="M56.4 51.4286L54.0857 42.8572L54 42.7714C54 42.7714 53.9143 42.6857 53.9143 42.6C53.9143 42.5143 53.8286 42.4286 53.8286 42.4286C52.2 37.7143 48.4286 34.2 43.7143 33.0857L43.0286 32.9143C42.7714 32.8286 42.5143 32.8286 42.2572 32.8286C41.4 32.8286 40.5429 33.2572 39.8572 33.8571C37.4572 36.6857 34.2 36.8572 31.0286 36.8572C27.5143 36.8572 24.5143 36.6857 22.2 33.8571C21.6 33.1714 20.8286 32.8286 19.8857 32.8286C19.6286 32.8286 19.2857 32.8286 19.0286 32.9143L18.1714 33.0857C14.7429 33.8571 11.7429 36.0857 9.60001 39.1714H2.74286C2.74286 39.0857 2.74286 39.0857 2.65715 39L4.11429 33.9429C5.40001 29.8286 7.80001 28.8 12.6857 27.5143H12.7714L12.8571 27.4286C12.8571 27.4286 12.9429 27.3429 13.0286 27.3429C13.0286 27.3429 13.0286 27.3429 13.1143 27.3429C13.5429 27.6 13.8857 27.9429 14.3143 28.0286C14.5714 28.2857 14.9143 28.2857 15.0857 28.2857C15.6 28.2857 16.1143 28.0286 16.3714 27.4286C16.5429 26.9143 16.6286 26.4857 16.4571 26.0571C16.2857 25.8 16.0286 25.4571 15.6857 25.4571C13.2 24.1714 11.4 20.4 11.4 16.5429C11.4 13.1143 14.1429 10.4571 17.4857 10.4571C17.9143 10.4571 18.3429 10.5429 18.8571 10.6286C18.2571 12.0857 18 13.6286 18 15.4286C18 25.4571 23.9143 33.6857 31.2 33.6857C38.3143 33.6857 44.4 25.1143 44.4 15.4286C44.4 8.14286 38.4857 2.22858 31.2 2.22858C26.8286 2.22858 22.7143 4.37143 20.3143 7.97143C19.3714 7.71429 18.3429 7.45715 17.4857 7.45715C14.4 7.45715 11.5714 9.00001 9.68572 11.7429C9.25715 12.2571 9.17143 12.6 8.82858 13.6286C8.57143 14.3143 8.40001 15.4286 8.40001 16.3714C8.40001 19.3714 9.34286 22.4571 11.0571 24.8571C7.45715 25.8 4.71429 27.0857 2.91429 30C2.91429 30.0857 1.88572 31.5429 1.54286 33.0857L0.171434 38.4C-0.0857093 39.3429 0.171434 40.2857 0.771434 40.8C1.28572 41.4857 1.97143 42 2.74286 42H8.40001C8.31429 42.2571 8.22858 42.6 8.22858 42.7714L5.91429 51.2571C5.74286 52.2 5.74286 53.4 6.68572 54.3429C7.45715 55.2857 8.31429 55.8 9.42858 55.8H53.1429C54.1714 55.8 55.1143 55.2857 55.8857 54.4286C56.5714 53.7429 56.7429 52.6286 56.4 51.4286ZM21.5143 13.2857C21.6857 12.4286 21.9429 11.5714 22.2 10.8857L22.6286 10.4571C24.5143 7.28572 27.7714 5.31429 31.4572 5.31429C35.8286 5.31429 39.6857 8.05715 41.1429 12.0857C40.9714 12.0857 40.7143 12.0857 40.5429 12.0857C38.8286 12.0857 37.3714 11.3143 36.4286 10.0286C36.1714 9.60001 35.7429 9.42858 35.2286 9.42858C34.8 9.42858 34.5429 9.51429 34.2857 9.85715C34.1143 10.0286 33.8572 10.2857 33.8572 10.6286L33.7714 10.8C32.5714 13.0286 29.5714 14.4 25.5429 14.4C24.1714 14.4 22.8 14.3143 21.3429 13.9714C21.4286 13.7143 21.5143 13.5429 21.5143 13.2857ZM25.2857 17.0571C30.1714 17.0571 33.7714 15.6857 35.5714 13.1143C36.8572 14.1429 38.4857 14.7429 40.6286 14.7429C40.8857 14.7429 41.2286 14.6571 41.4857 14.6571C41.5714 14.6571 41.6572 14.6571 41.7429 14.6571C41.8286 14.8286 41.8286 15.0857 41.8286 15.3429C41.8286 23.4857 37.0286 30.7714 31.5429 30.7714C26.5714 30.7714 21.9429 24.4286 21.3429 16.8C22.6286 17.0571 24 17.0571 25.2857 17.0571ZM53.5714 52.8C53.4 52.9714 53.4 52.9714 53.1429 52.9714H9.17143C9.08572 52.9714 9.00001 52.9714 8.91429 52.9714V52.8857L8.82858 52.8C8.82858 52.8 8.74286 52.7143 8.74286 52.2857L11.0571 43.8C12.0857 40.0286 15.1714 37.1143 19.1143 35.9143L19.8857 35.7429C19.8857 35.7429 19.9714 35.7429 19.9714 35.8286C20.0571 35.8286 20.0571 35.9143 20.1429 35.9143C23.2286 39.5143 26.9143 39.7714 31.1143 39.7714C34.8857 39.7714 38.9143 39.5143 42.0857 35.9143C42.1714 35.8286 42.1714 35.8286 42.2572 35.8286L42.4286 35.9143L43.1143 36.0857C46.8857 37.0286 49.9714 40.0286 51.1714 43.9714L52.1143 47.6572L52.2857 48L52.3714 48.0857L53.7429 52.4571C53.7429 52.3714 53.6572 52.6286 53.5714 52.8Z" fill="#6C3BFF"/>
	</g>
	<defs>
	<clipPath id="clip0_2_22855">
	<rect width="56.5714" height="60" fill="white"/>
	</clipPath>
	</defs>
	</svg>
