<?xml version="1.0" encoding="utf-8"?>
<!-- Generator: Adobe Illustrator 24.2.1, SVG Export Plug-In . SVG Version: 6.00 Build 0)  -->
<svg version="1.1" id="Layer_1" xmlns="http://www.w3.org/2000/svg" xmlns:xlink="http://www.w3.org/1999/xlink" x="0px" y="0px"
	 viewBox="0 0 66 70" style="enable-background:new 0 0 66 70;" xml:space="preserve">
<style type="text/css">
	.st0{fill:url(#SVGID_1_);}
</style>
<desc>Created with Sketch.</desc>
<linearGradient id="SVGID_1_" gradientUnits="userSpaceOnUse" x1="3.1909" y1="58.1754" x2="53.006" y2="29.5667">
	<stop  offset="0" style="stop-color:#1A6DFF"/>
	<stop  offset="1" style="stop-color:#C822FF"/>
</linearGradient>
<path class="st0" d="M65.8,60l-2.7-10l-0.1-0.1c0,0-0.1-0.1-0.1-0.2s-0.1-0.2-0.1-0.2l0,0C60.9,44,56.5,39.9,51,38.6l-0.8-0.2
	c-0.3-0.1-0.6-0.1-0.9-0.1c-1,0-2,0.5-2.8,1.2c-2.8,3.3-6.6,3.5-10.3,3.5c-4.1,0-7.6-0.2-10.3-3.5c-0.7-0.8-1.6-1.2-2.7-1.2
	c-0.3,0-0.7,0-1,0.1l-1,0.2c-4,0.9-7.5,3.5-10,7.1H3.2c0-0.1,0-0.1-0.1-0.2l1.7-5.9c1.5-4.8,4.3-6,10-7.5h0.1L15,32
	c0,0,0.1-0.1,0.2-0.1c0,0,0,0,0.1,0c0.5,0.3,0.9,0.7,1.4,0.8C17,33,17.4,33,17.6,33c0.6,0,1.2-0.3,1.5-1c0.2-0.6,0.3-1.1,0.1-1.6
	c-0.2-0.3-0.5-0.7-0.9-0.7c-2.9-1.5-5-5.9-5-10.4c0-4,3.2-7.1,7.1-7.1c0.5,0,1,0.1,1.6,0.2c-0.7,1.7-1,3.5-1,5.6
	c0,11.7,6.9,21.3,15.4,21.3c8.3,0,15.4-10,15.4-21.3c0-8.5-6.9-15.4-15.4-15.4c-5.1,0-9.9,2.5-12.7,6.7c-1.1-0.3-2.3-0.6-3.3-0.6
	c-3.6,0-6.9,1.8-9.1,5c-0.5,0.6-0.6,1-1,2.2C10,16.7,9.8,18,9.8,19.1c0,3.5,1.1,7.1,3.1,9.9c-4.2,1.1-7.4,2.6-9.5,6
	c0,0.1-1.2,1.8-1.6,3.6l-1.6,6.2c-0.3,1.1,0,2.2,0.7,2.8C1.5,48.4,2.3,49,3.2,49h6.6c-0.1,0.3-0.2,0.7-0.2,0.9l-2.7,9.9
	c-0.2,1.1-0.2,2.5,0.9,3.6c0.9,1.1,1.9,1.7,3.2,1.7h51c1.2,0,2.3-0.6,3.2-1.6C66,62.7,66.2,61.4,65.8,60z M25.1,15.5
	c0.2-1,0.5-2,0.8-2.8l0.5-0.5c2.2-3.7,6-6,10.3-6c5.1,0,9.6,3.2,11.3,7.9c-0.2,0-0.5,0-0.7,0c-2,0-3.7-0.9-4.8-2.4
	c-0.3-0.5-0.8-0.7-1.4-0.7c-0.5,0-0.8,0.1-1.1,0.5c-0.2,0.2-0.5,0.5-0.5,0.9l-0.1,0.2c-1.4,2.6-4.9,4.2-9.6,4.2
	c-1.6,0-3.2-0.1-4.9-0.5C25,16,25.1,15.8,25.1,15.5z M29.5,19.9c5.7,0,9.9-1.6,12-4.6c1.5,1.2,3.4,1.9,5.9,1.9c0.3,0,0.7-0.1,1-0.1
	c0.1,0,0.2,0,0.3,0c0.1,0.2,0.1,0.5,0.1,0.8c0,9.5-5.6,18-12,18c-5.8,0-11.2-7.4-11.9-16.3C26.4,19.9,28,19.9,29.5,19.9z M62.5,61.6
	c-0.2,0.2-0.2,0.2-0.5,0.2H10.7c-0.1,0-0.2,0-0.3,0l0,0v-0.1l-0.1-0.1c0,0-0.1-0.1-0.1-0.6l2.7-9.9c1.2-4.4,4.8-7.8,9.4-9.2l0.9-0.2
	c0,0,0.1,0,0.1,0.1c0.1,0,0.1,0.1,0.2,0.1c3.6,4.2,7.9,4.5,12.8,4.5c4.4,0,9.1-0.3,12.8-4.5c0.1-0.1,0.1-0.1,0.2-0.1l0.2,0.1
	l0.8,0.2c4.4,1.1,8,4.6,9.4,9.2l1.1,4.3L61,56l0.1,0.1l1.6,5.1C62.7,61.1,62.6,61.4,62.5,61.6z"/>
</svg>
