<svg width="57" height="58" viewBox="0 0 57 58" fill="none" xmlns="http://www.w3.org/2000/svg">
	<path d="M13.8 8.68571H11.8286C12.1714 6.37143 13.4571 6.37143 13.9714 6.37143C14.4857 6.37143 15.0857 5.85714 15.0857 5.25714V1.82857C15.0857 1.48571 14.9143 1.31428 14.7428 0.971428C14.5714 0.799999 14.2286 0.628571 13.8857 0.628571C10.2857 0.799999 6.17142 2.6 6.17142 9.88571V15.6286C6.17142 16.4857 7.02856 17.4286 7.97142 17.4286H14.0571C14.9143 17.4286 15.8571 16.5714 15.8571 15.6286V10.2286C15.6 9.45714 14.9143 8.68571 13.8 8.68571ZM13.4571 15.3714H8.4857V9.97143C8.4857 5 10.8 3.37143 12.7714 3.2V4.31428C11.3143 4.57143 9.51427 6.02857 9.51427 9.8C9.51427 10.3143 10.0286 10.9143 10.6286 10.9143H13.2857L13.4571 15.3714Z" fill="#6C3BFF"/>
	<path d="M25.1143 8.68571H23.1429C23.4857 6.37143 24.7714 6.37143 25.2857 6.37143C25.8 6.37143 26.4 5.85714 26.4 5.25714V1.82857C26.4 1.48571 26.2286 1.31428 26.0571 0.971428C25.8857 0.799999 25.5429 0.628571 25.2 0.628571C21.6 0.799999 17.4857 2.6 17.4857 9.88571V15.6286C17.4857 16.4857 18.3429 17.4286 19.2857 17.4286H25.3714C26.2286 17.4286 27.1714 16.5714 27.1714 15.6286V10.2286C26.8286 9.45714 25.9714 8.68571 25.1143 8.68571ZM24.6857 15.3714H19.5429V9.97143C19.5429 5 21.8571 3.37143 23.8286 3.2V4.31428C22.3714 4.65714 20.5714 6.11429 20.5714 9.88571C20.5714 10.4 21.0857 11 21.6857 11H24.3429L24.6857 15.3714Z" fill="#6C3BFF"/>
	<path d="M37.0286 9.45715H35.5714C35.0571 9.45715 34.4571 9.97144 34.4571 10.5714C34.4571 11.1714 34.9714 11.6857 35.5714 11.6857H37.0286C46.7143 11.6857 54.5143 19.5714 54.5143 29.1714C54.5143 37.4 48.6 44.5143 40.7143 46.1429C40.2 46.3143 39.8571 46.6572 39.8571 47.2572V53.6857L33.0857 46.9143C32.9143 46.7429 32.5714 46.5714 32.2286 46.5714H19.7143C10.0286 46.4 2.22857 38.6 2.22857 28.9143C2.22857 25.9143 2.91429 23 4.37143 20.5143C4.71429 20 4.54286 19.2286 4.02857 19.0572C3.51429 18.7143 2.74286 18.8857 2.57143 19.4C0.942857 22.3143 0 25.7429 0 28.9143C0 39.6286 8.74286 48.5429 19.6286 48.5429H31.6286L40.0286 56.9429C40.2 57.1143 40.5429 57.2857 40.8857 57.2857C41.0571 57.2857 41.2286 57.2857 41.2286 57.1143C41.5714 56.9429 41.9143 56.6 41.9143 56V47.8572C45.8571 46.7429 49.4571 44.4286 52.1143 41.2572C54.9429 37.6572 56.5714 33.3714 56.5714 28.7429C56.7429 18.2 47.9143 9.45715 37.0286 9.45715Z" fill="#6C3BFF"/>
	<path d="M42.0857 23.7714H14.9143C14.4 23.7714 13.8 24.2857 13.8 24.8857C13.8 25.4857 14.3143 26 14.9143 26H42.0857C42.6 26 43.2 25.4857 43.2 24.8857C43.1143 24.2857 42.6 23.7714 42.0857 23.7714Z" fill="#6C3BFF"/>
	<path d="M42.0857 29.6H14.9143C14.4 29.6 13.8 30.1143 13.8 30.7143C13.8 31.2286 14.3143 31.8286 14.9143 31.8286H42.0857C42.6 31.8286 43.2 31.3143 43.2 30.7143C43.1143 30.2 42.6 29.6 42.0857 29.6Z" fill="#6C3BFF"/>
	<path d="M42.0857 35.5143H27.6C27.0857 35.5143 26.4857 36.0286 26.4857 36.6286C26.4857 37.1429 27 37.7429 27.6 37.7429H42.0857C42.6 37.7429 43.2 37.2286 43.2 36.6286C43.1143 36.0286 42.6 35.5143 42.0857 35.5143Z" fill="#6C3BFF"/>
	<path d="M21.3429 35.5143C20.8286 35.5143 20.2286 36.0286 20.2286 36.6286C20.2286 37.1429 20.7429 37.7429 21.3429 37.7429C21.8571 37.7429 22.4571 37.2286 22.4571 36.6286C22.3714 36.0286 21.8571 35.5143 21.3429 35.5143Z" fill="#6C3BFF"/>
	</svg>
