<svg
			width="60"
			height="60"
			viewBox="0 0 60 60"
			fill="none"
			xmlns="http://www.w3.org/2000/svg"
		>
			<rect width="60" height="60" fill="white" />
			<path
				d="M48.6964 14H41.8877C41.5423 14 41.2623 14.2765 41.2623 14.6176C41.2623 14.9586 41.5423 15.2352 41.8877 15.2352H48.6964C49.3309 15.2352 49.8471 15.7449 49.8471 16.3714V39.9141C49.8471 40.5406 49.3309 41.0503 48.6964 41.0503H33.4202C32.9312 41.0503 32.4755 41.3101 32.231 41.7283L30.1658 45.2606C30.1262 45.3283 30.0659 45.3425 30.0222 45.3425C29.9786 45.3425 29.9182 45.3283 29.8787 45.2606L27.8136 41.7284C27.5691 41.3102 27.1134 41.0504 26.6243 41.0504H16.4742C16.1288 41.0504 15.8488 41.3269 15.8488 41.668C15.8488 42.009 16.1288 42.2856 16.4742 42.2856H26.6243C26.6679 42.2856 26.7085 42.3087 26.7303 42.346L28.7955 45.8782C29.0514 46.3161 29.5101 46.5777 30.0221 46.5777C30.5342 46.5777 30.9928 46.3161 31.2489 45.8782L33.3141 42.346C33.3358 42.3087 33.3765 42.2856 33.4201 42.2856H48.6963C50.0204 42.2856 51.0977 41.2218 51.0977 39.9141V16.3714C51.0979 15.0638 50.0206 14 48.6964 14Z"
				fill="#6C3BFF"
			/>
			<path
				d="M13.5557 41.0503H10.8055C10.171 41.0503 9.65485 40.5406 9.65485 39.9141V16.3714C9.65485 15.7449 10.171 15.2352 10.8055 15.2352H38.9691C39.3145 15.2352 39.5945 14.9586 39.5945 14.6176C39.5945 14.2765 39.3145 14 38.9691 14H10.8055C9.48132 14 8.40405 15.0638 8.40405 16.3714V39.9141C8.40405 41.2217 9.48132 42.2855 10.8055 42.2855H13.5557C13.901 42.2855 14.1811 42.009 14.1811 41.6679C14.1811 41.3268 13.901 41.0503 13.5557 41.0503Z"
				fill="#6C3BFF"
			/>
			<path
				d="M12.6396 30.8933C12.6396 31.2344 12.9197 31.5109 13.265 31.5109H36.5475C36.8929 31.5109 37.1729 31.2344 37.1729 30.8933C37.1729 30.5523 36.8929 30.2758 36.5475 30.2758H13.265C12.9197 30.2758 12.6396 30.5522 12.6396 30.8933Z"
				fill="#6C3BFF"
			/>
			<path
				d="M46.2369 30.2758H39.386C39.0406 30.2758 38.7606 30.5523 38.7606 30.8933C38.7606 31.2344 39.0406 31.5109 39.386 31.5109H46.2369C46.5823 31.5109 46.8623 31.2344 46.8623 30.8933C46.8623 30.5523 46.5823 30.2758 46.2369 30.2758Z"
				fill="#6C3BFF"
			/>
			<path
				d="M39.5972 36.2803H19.6254C19.28 36.2803 19 36.5568 19 36.8979C19 37.2389 19.28 37.5154 19.6254 37.5154H39.5972C39.9425 37.5154 40.2226 37.2389 40.2226 36.8979C40.2226 36.5568 39.9425 36.2803 39.5972 36.2803Z"
				fill="#6C3BFF"
			/>
			<path
				d="M46.2368 33.278H13.265C12.9197 33.278 12.6396 33.5545 12.6396 33.8955C12.6396 34.2366 12.9197 34.5131 13.265 34.5131H46.2368C46.5822 34.5131 46.8622 34.2366 46.8622 33.8955C46.8622 33.5545 46.5822 33.278 46.2368 33.278Z"
				fill="#6C3BFF"
			/>
			<path
				d="M35.5288 20.4566C35.4042 20.078 35.0988 19.7856 34.7119 19.6744L32.2179 18.9574L30.7568 16.8368C30.53 16.5077 30.154 16.3113 29.751 16.3113C29.3479 16.3113 28.9719 16.5078 28.7451 16.8368L27.284 18.9575L24.7901 19.6745C24.4031 19.7857 24.0977 20.0781 23.9731 20.4567C23.8485 20.8353 23.9216 21.2491 24.1685 21.5637L25.7593 23.5912L25.6792 26.1551C25.6668 26.553 25.8541 26.9301 26.1801 27.164C26.5061 27.398 26.9272 27.4573 27.3066 27.3227L29.751 26.455L32.1953 27.3226C32.3293 27.3702 32.4685 27.3935 32.607 27.3935C32.8603 27.3935 33.111 27.3152 33.3219 27.1639C33.6479 26.9299 33.8352 26.5528 33.8228 26.1549L33.7427 23.5911L35.3336 21.5635C35.5803 21.249 35.6533 20.8351 35.5288 20.4566ZM32.7461 22.8444C32.5736 23.0646 32.4833 23.3389 32.4919 23.6172L32.5709 26.1434L30.1622 25.2885C29.897 25.1944 29.6049 25.1945 29.3394 25.2885L26.9308 26.1434L27.0098 23.6172C27.0185 23.339 26.9282 23.0646 26.7556 22.8443L25.188 20.8465L27.6453 20.14C27.916 20.0622 28.1525 19.8926 28.311 19.6623L29.751 17.5727L31.1907 19.6622C31.3493 19.8925 31.5859 20.0621 31.8565 20.1399L34.3139 20.8464L32.7461 22.8444Z"
				fill="#6C3BFF"
			/>
			<path
				d="M22.6982 22.3962C22.5928 22.0759 22.3344 21.8284 22.0069 21.7342L20.3704 21.2638L19.4116 19.8724C19.2198 19.5939 18.9016 19.4276 18.5604 19.4276C18.2194 19.4276 17.9012 19.5939 17.7093 19.8724L16.7505 21.2638L15.1141 21.7342C14.7866 21.8284 14.5282 22.0759 14.4227 22.3962C14.3173 22.7165 14.3792 23.0667 14.588 23.3329L15.6319 24.6634L15.5793 26.3457C15.5688 26.6823 15.7272 27.0014 16.0031 27.1995C16.1816 27.3275 16.3936 27.3937 16.608 27.3937C16.7251 27.3937 16.843 27.374 16.9563 27.3337L18.5603 26.7645L20.1642 27.3337C20.4852 27.4475 20.8415 27.3974 21.1175 27.1995C21.3934 27.0015 21.5518 26.6824 21.5413 26.3457L21.4887 24.6634L22.5326 23.3329C22.7418 23.0666 22.8036 22.7165 22.6982 22.3962ZM20.4515 23.969C20.3054 24.1553 20.229 24.3876 20.2364 24.6229L20.2814 26.0626L18.9088 25.5754C18.6843 25.4958 18.437 25.4957 18.2124 25.5754L16.8398 26.0626L16.8848 24.6232C16.8922 24.3877 16.8158 24.1553 16.6696 23.9689L15.7762 22.8303L17.1766 22.4277C17.4057 22.3619 17.6057 22.2184 17.7401 22.0235L18.5606 20.8326L19.3811 22.0235C19.5154 22.2183 19.7155 22.3619 19.9445 22.4277L21.3449 22.8302L20.4515 23.969Z"
				fill="#6C3BFF"
			/>
			<path
				d="M37.4949 21.7342C37.1675 21.8284 36.9091 22.0759 36.8036 22.3962C36.6982 22.7165 36.7601 23.0667 36.9688 23.3329L38.0128 24.6634L37.9601 26.3457C37.9496 26.6823 38.1081 27.0014 38.384 27.1995C38.5624 27.3275 38.7745 27.3937 38.9889 27.3937C39.106 27.3937 39.2239 27.374 39.3372 27.3337L40.9411 26.7645L42.5451 27.3337C42.8661 27.4475 43.2223 27.3974 43.4983 27.1995C43.7743 27.0015 43.9327 26.6824 43.9222 26.3457L43.8696 24.6634L44.9135 23.3329C45.1224 23.0667 45.1841 22.7165 45.0787 22.3962C44.9733 22.0759 44.7149 21.8284 44.3874 21.7342L42.7509 21.2638L41.7922 19.8724C41.6003 19.5939 41.2822 19.4277 40.941 19.4276C40.6 19.4276 40.2818 19.5939 40.0899 19.8724L39.1311 21.2638L37.4949 21.7342ZM40.1208 22.0236L40.9413 20.8327L41.7618 22.0236C41.8961 22.2184 42.0962 22.3619 42.3252 22.4277L43.7256 22.8303L42.8322 23.969C42.6861 24.1552 42.6097 24.3874 42.617 24.6229L42.662 26.0626L41.2894 25.5754C41.0649 25.4958 40.8176 25.4957 40.593 25.5754L39.2204 26.0626L39.2654 24.6232C39.2728 24.3877 39.1964 24.1553 39.0502 23.9689L38.1569 22.8303L39.5572 22.4277C39.7865 22.3619 39.9865 22.2183 40.1208 22.0236Z"
				fill="#6C3BFF"
			/>
			<path
				d="M54.8285 31.734C54.5845 31.734 54.4015 31.6737 54.2186 31.4931C53.8526 31.1317 53.8526 30.5896 54.2186 30.2283L55.6823 28.7225L54.2795 26.6748C53.9746 26.2532 54.0966 25.7111 54.5235 25.41C54.9504 25.1088 55.4994 25.2293 55.8043 25.6509L58 28.9032L55.4994 31.4931C55.3164 31.6135 55.0724 31.734 54.8285 31.734Z"
				fill="#6C3BFF"
			/>
			<path
				d="M5.17154 31.0916C4.92757 31.0916 4.68361 30.9711 4.50064 30.7904L2 28.2006L4.19568 24.9482C4.50064 24.5266 5.04956 24.4062 5.47649 24.7073C5.90343 25.0085 6.02541 25.5505 5.72046 25.9721L4.31766 28.0199L5.84244 29.5256C6.20839 29.887 6.20839 30.429 5.84244 30.7904C5.59848 30.9711 5.4155 31.0916 5.17154 31.0916Z"
				fill="#6C3BFF"
			/>
		</svg>