<svg width="60" height="35" viewBox="0 0 60 35" fill="none" xmlns="http://www.w3.org/2000/svg">
	<path d="M49.844 0H42.6173C42.2507 0 41.9535 0.293486 41.9535 0.655494C41.9535 1.0175 42.2507 1.31099 42.6173 1.31099H49.844C50.5175 1.31099 51.0653 1.85199 51.0653 2.51701V27.505C51.0653 28.17 50.5175 28.711 49.844 28.711H33.63C33.1109 28.711 32.6272 28.9867 32.3677 29.4306L30.1758 33.1797C30.1338 33.2515 30.0698 33.2667 30.0234 33.2667C29.9771 33.2667 29.913 33.2515 29.8711 33.1798L27.6792 29.4307C27.4197 28.9868 26.936 28.7111 26.4169 28.7111H15.6436C15.2771 28.7111 14.9799 29.0046 14.9799 29.3666C14.9799 29.7286 15.2771 30.0221 15.6436 30.0221H26.4169C26.4632 30.0221 26.5063 30.0466 26.5294 30.0862L28.7213 33.8353C28.993 34.3001 29.4798 34.5777 30.0233 34.5777C30.5668 34.5777 31.0536 34.3001 31.3254 33.8353L33.5173 30.0862C33.5404 30.0466 33.5836 30.0221 33.6299 30.0221H49.8439C51.2493 30.0221 52.3927 28.8929 52.3927 27.505V2.51701C52.3929 1.12911 51.2495 0 49.844 0Z" fill="#6C3BFF"/>
	<path d="M12.5464 28.711H9.62736C8.95392 28.711 8.40607 28.17 8.40607 27.505V2.51701C8.40607 1.85199 8.95392 1.31099 9.62736 1.31099H39.52C39.8866 1.31099 40.1838 1.0175 40.1838 0.655494C40.1838 0.293486 39.8866 0 39.52 0H9.62736C8.22189 0 7.07849 1.12911 7.07849 2.51701V27.505C7.07849 28.8929 8.22189 30.022 9.62736 30.022H12.5464C12.913 30.022 13.2102 29.7285 13.2102 29.3665C13.2102 29.0045 12.913 28.711 12.5464 28.711Z" fill="#6C3BFF"/>
	<path d="M11.5739 17.9306C11.5739 18.2926 11.8711 18.5861 12.2376 18.5861H36.9494C37.316 18.5861 37.6132 18.2926 37.6132 17.9306C37.6132 17.5686 37.316 17.2751 36.9494 17.2751H12.2376C11.8711 17.2751 11.5739 17.5685 11.5739 17.9306Z" fill="#6C3BFF"/>
	<path d="M47.2338 17.2751H39.9624C39.5958 17.2751 39.2986 17.5686 39.2986 17.9306C39.2986 18.2926 39.5958 18.5861 39.9624 18.5861H47.2338C47.6004 18.5861 47.8976 18.2926 47.8976 17.9306C47.8976 17.5686 47.6004 17.2751 47.2338 17.2751Z" fill="#6C3BFF"/>
	<path d="M40.1863 23.6481H18.9884C18.6218 23.6481 18.3246 23.9416 18.3246 24.3036C18.3246 24.6656 18.6218 24.9591 18.9884 24.9591H40.1863C40.5529 24.9591 40.8501 24.6656 40.8501 24.3036C40.8501 23.9416 40.5529 23.6481 40.1863 23.6481Z" fill="#6C3BFF"/>
	<path d="M47.2336 20.4613H12.2376C11.8711 20.4613 11.5739 20.7548 11.5739 21.1168C11.5739 21.4788 11.8711 21.7723 12.2376 21.7723H47.2336C47.6002 21.7723 47.8974 21.4788 47.8974 21.1168C47.8974 20.7548 47.6002 20.4613 47.2336 20.4613Z" fill="#6C3BFF"/>
	<path d="M35.8683 6.85295C35.7361 6.45117 35.412 6.14082 35.0013 6.02274L32.3542 5.26176L30.8033 3.01097C30.5627 2.66163 30.1636 2.45319 29.7358 2.45319C29.308 2.45319 28.9089 2.66172 28.6682 3.01097L27.1174 5.26185L24.4703 6.02283C24.0596 6.14091 23.7355 6.45126 23.6032 6.85312C23.471 7.25499 23.5485 7.69417 23.8106 8.02803L25.4991 10.1801L25.4141 12.9013C25.4009 13.3236 25.5997 13.7239 25.9457 13.9722C26.2918 14.2205 26.7387 14.2835 27.1413 14.1406L29.7358 13.2196L32.3302 14.1405C32.4725 14.191 32.6202 14.2157 32.7672 14.2157C33.0361 14.2157 33.3021 14.1327 33.526 13.972C33.872 13.7237 34.0708 13.3235 34.0576 12.9011L33.9725 10.1799L35.6611 8.02786C35.923 7.69399 36.0005 7.25472 35.8683 6.85295ZM32.9148 9.38744C32.7317 9.62106 32.6359 9.91227 32.6451 10.2076L32.7289 12.8889L30.1723 11.9815C29.8908 11.8816 29.5807 11.8817 29.299 11.9815L26.7425 12.8889L26.8263 10.2076C26.8356 9.91236 26.7397 9.62106 26.5565 9.38726L24.8927 7.26678L27.5009 6.51699C27.7882 6.43439 28.0392 6.25435 28.2075 6.00998L29.7358 3.79205L31.2639 6.00981C31.4323 6.25426 31.6834 6.43431 31.9706 6.51681L34.5789 7.2667L32.9148 9.38744Z" fill="#6C3BFF"/>
	<path d="M22.2497 8.91178C22.1378 8.5718 21.8636 8.30908 21.5159 8.20918L19.779 7.70987L18.7614 6.23309C18.5577 5.9375 18.22 5.76096 17.8579 5.76096C17.4959 5.76096 17.1582 5.9375 16.9545 6.233L15.9369 7.70987L14.2 8.20918C13.8524 8.30917 13.5781 8.5718 13.4662 8.91178C13.3543 9.25177 13.42 9.62348 13.6416 9.90604L14.7496 11.3181L14.6937 13.1037C14.6826 13.461 14.8507 13.7998 15.1436 14.01C15.333 14.1459 15.5581 14.2161 15.7856 14.2161C15.9099 14.2161 16.035 14.1952 16.1553 14.1524L17.8577 13.5482L19.5601 14.1524C19.9009 14.2732 20.279 14.22 20.5719 14.01C20.8648 13.7998 21.0329 13.4611 21.0218 13.1037L20.9659 11.3181L22.0739 9.90604C22.2959 9.62339 22.3616 9.25177 22.2497 8.91178ZM19.8651 10.5811C19.71 10.7789 19.6289 11.0254 19.6368 11.2752L19.6846 12.8033L18.2277 12.2862C17.9894 12.2017 17.7269 12.2016 17.4885 12.2862L16.0316 12.8033L16.0794 11.2755C16.0873 11.0255 16.0062 10.7789 15.8509 10.581L14.9028 9.37255L16.3891 8.94526C16.6323 8.87543 16.8446 8.72309 16.9872 8.51622L17.8581 7.25225L18.729 8.51622C18.8715 8.723 19.0839 8.87534 19.3269 8.94517L20.8133 9.37247L19.8651 10.5811Z" fill="#6C3BFF"/>
	<path d="M37.9548 8.20918C37.6073 8.30917 37.333 8.5718 37.221 8.91178C37.1092 9.25177 37.1748 9.62348 37.3965 9.90604L38.5045 11.3181L38.4486 13.1037C38.4375 13.461 38.6056 13.7998 38.8985 14.01C39.0879 14.1459 39.313 14.2161 39.5405 14.2161C39.6648 14.2161 39.7899 14.1952 39.9102 14.1524L41.6126 13.5482L43.315 14.1524C43.6557 14.2732 44.0338 14.22 44.3268 14.01C44.6197 13.7998 44.7878 13.4611 44.7767 13.1037L44.7208 11.3181L45.8288 9.90604C46.0505 9.62348 46.1161 9.25177 46.0042 8.91178C45.8924 8.5718 45.6181 8.30908 45.2704 8.20918L43.5335 7.70987L42.5159 6.23309C42.3122 5.9375 41.9746 5.76104 41.6125 5.76096C41.2505 5.76096 40.9128 5.9375 40.7091 6.233L39.6915 7.70987L37.9548 8.20918ZM40.7419 8.5163L41.6128 7.25234L42.4837 8.5163C42.6262 8.72309 42.8386 8.87543 43.0816 8.94526L44.568 9.37255L43.6197 10.5811C43.4647 10.7788 43.3836 11.0253 43.3914 11.2752L43.4392 12.8033L41.9823 12.2862C41.744 12.2017 41.4815 12.2016 41.2431 12.2862L39.7862 12.8033L39.834 11.2755C39.8419 11.0255 39.7608 10.7789 39.6056 10.581L38.6574 9.37255L40.1438 8.94526C40.3871 8.87543 40.5994 8.723 40.7419 8.5163Z" fill="#6C3BFF"/>
	<path d="M56.353 18.8227C56.094 18.8227 55.8998 18.7588 55.7056 18.567C55.3172 18.1834 55.3172 17.6081 55.7056 17.2245L57.2593 15.6264L55.7704 13.4529C55.4467 13.0054 55.5761 12.4301 56.0293 12.1104C56.4824 11.7908 57.0651 11.9187 57.3887 12.3661L59.7192 15.8182L57.0651 18.567C56.8709 18.6949 56.6119 18.8227 56.353 18.8227Z" fill="#6C3BFF"/>
	<path d="M3.64725 18.1408C3.38831 18.1408 3.12937 18.013 2.93516 17.8212L0.281006 15.0724L2.61148 11.6204C2.93516 11.1729 3.51778 11.045 3.97093 11.3647C4.42407 11.6843 4.55355 12.2596 4.22987 12.7071L2.74095 14.8806L4.35934 16.4788C4.74775 16.8623 4.74775 17.4377 4.35934 17.8212C4.1004 18.013 3.90619 18.1408 3.64725 18.1408Z" fill="#6C3BFF"/>
	</svg>
