<?xml version="1.0" encoding="utf-8"?>
<!-- Generator: Adobe Illustrator 24.2.1, SVG Export Plug-In . SVG Version: 6.00 Build 0)  -->
<svg version="1.1" id="Layer_1" xmlns="http://www.w3.org/2000/svg" xmlns:xlink="http://www.w3.org/1999/xlink" x="0px" y="0px"
	 viewBox="0 0 66 70" style="enable-background:new 0 0 66 70;" xml:space="preserve">
<style type="text/css">
	.st0{fill:url(#SVGID_1_);}
	.st1{fill:url(#SVGID_2_);}
	.st2{fill:url(#SVGID_3_);}
	.st3{fill:url(#SVGID_4_);}
	.st4{fill:url(#SVGID_5_);}
	.st5{fill:url(#SVGID_6_);}
	.st6{fill:url(#SVGID_7_);}
</style>
<desc>Created with Sketch.</desc>
<g>
	<g>
		<g>
			<linearGradient id="SVGID_1_" gradientUnits="userSpaceOnUse" x1="-10.2588" y1="26.1685" x2="44.8" y2="-4.8903">
				<stop  offset="0" style="stop-color:#1A6DFF"/>
				<stop  offset="1" style="stop-color:#C822FF"/>
			</linearGradient>
			<path class="st0" d="M16.1,11.3h-2.3c0.4-2.7,1.9-2.7,2.5-2.7s1.3-0.6,1.3-1.3v-4c0-0.4-0.2-0.6-0.4-1c-0.2-0.2-0.6-0.4-1-0.4
				c-4.2,0.2-9,2.3-9,10.8v6.7c0,1,1,2.1,2.1,2.1h7.1c1,0,2.1-1,2.1-2.1v-6.3C18.2,12.2,17.4,11.3,16.1,11.3z M15.7,19.1H9.9v-6.3
				c0-5.8,2.7-7.7,5-7.9v1.3c-1.7,0.3-3.8,2-3.8,6.4c0,0.6,0.6,1.3,1.3,1.3h3.1L15.7,19.1z"/>
		</g>
	</g>
	<g>
		<g>
			<linearGradient id="SVGID_2_" gradientUnits="userSpaceOnUse" x1="-7.0724" y1="31.8172" x2="47.9864" y2="0.7584">
				<stop  offset="0" style="stop-color:#1A6DFF"/>
				<stop  offset="1" style="stop-color:#C822FF"/>
			</linearGradient>
			<path class="st1" d="M29.3,11.3H27c0.4-2.7,1.9-2.7,2.5-2.7s1.3-0.6,1.3-1.3v-4c0-0.4-0.2-0.6-0.4-1c-0.2-0.2-0.6-0.4-1-0.4
				c-4.2,0.2-9,2.3-9,10.8v6.7c0,1,1,2.1,2.1,2.1h7.1c1,0,2.1-1,2.1-2.1v-6.3C31.3,12.2,30.3,11.3,29.3,11.3z M28.8,19.1h-6v-6.3
				c0-5.8,2.7-7.7,5-7.9v1.3C26.1,6.6,24,8.3,24,12.7c0,0.6,0.6,1.3,1.3,1.3h3.1L28.8,19.1L28.8,19.1z"/>
		</g>
	</g>
	<g>
		<g>
			<linearGradient id="SVGID_3_" gradientUnits="userSpaceOnUse" x1="6.7803" y1="56.3743" x2="61.8391" y2="25.3155">
				<stop  offset="0" style="stop-color:#1A6DFF"/>
				<stop  offset="1" style="stop-color:#C822FF"/>
			</linearGradient>
			<path class="st2" d="M43.2,12.2h-1.7c-0.6,0-1.3,0.6-1.3,1.3s0.6,1.3,1.3,1.3h1.7c11.3,0,20.4,9.2,20.4,20.4
				c0,9.6-6.9,17.9-16.1,19.8c-0.6,0.2-1,0.6-1,1.3v7.5l-7.9-7.9c-0.2-0.2-0.6-0.4-1-0.4H23C11.7,55.3,2.6,46.2,2.6,34.9
				c0-3.5,0.8-6.9,2.5-9.8c0.4-0.6,0.2-1.5-0.4-1.7C4.1,23,3.2,23.2,3,23.8c-1.9,3.4-3,7.4-3,11.1c0,12.5,10.2,22.9,22.9,22.9h14
				l9.8,9.8c0.2,0.2,0.6,0.4,1,0.4c0.2,0,0.4,0,0.4-0.2c0.4-0.2,0.8-0.6,0.8-1.3V57c4.6-1.3,8.8-4,11.9-7.7
				c3.3-4.2,5.2-9.2,5.2-14.6C66.2,22.4,55.9,12.2,43.2,12.2z"/>
		</g>
	</g>
	<g>
		<g>
			<linearGradient id="SVGID_4_" gradientUnits="userSpaceOnUse" x1="1.9903" y1="47.8829" x2="57.0491" y2="16.8241">
				<stop  offset="0" style="stop-color:#1A6DFF"/>
				<stop  offset="1" style="stop-color:#C822FF"/>
			</linearGradient>
			<path class="st3" d="M49.1,28.9H17.4c-0.6,0-1.3,0.6-1.3,1.3s0.6,1.3,1.3,1.3h31.7c0.6,0,1.3-0.6,1.3-1.3
				C50.3,29.5,49.7,28.9,49.1,28.9z"/>
		</g>
	</g>
	<g>
		<g>
			<linearGradient id="SVGID_5_" gradientUnits="userSpaceOnUse" x1="4.9002" y1="53.0414" x2="59.959" y2="21.9826">
				<stop  offset="0" style="stop-color:#1A6DFF"/>
				<stop  offset="1" style="stop-color:#C822FF"/>
			</linearGradient>
			<path class="st4" d="M49.1,35.7H17.4c-0.6,0-1.3,0.6-1.3,1.3c0,0.6,0.6,1.3,1.3,1.3h31.7c0.6,0,1.3-0.6,1.3-1.3
				C50.3,36.4,49.7,35.7,49.1,35.7z"/>
		</g>
	</g>
	<g>
		<g>
			<linearGradient id="SVGID_6_" gradientUnits="userSpaceOnUse" x1="9.6392" y1="61.4424" x2="64.6981" y2="30.3836">
				<stop  offset="0" style="stop-color:#1A6DFF"/>
				<stop  offset="1" style="stop-color:#C822FF"/>
			</linearGradient>
			<path class="st5" d="M49.1,42.6H32.2c-0.6,0-1.3,0.6-1.3,1.3c0,0.6,0.6,1.3,1.3,1.3h16.9c0.6,0,1.3-0.6,1.3-1.3
				C50.3,43.2,49.7,42.6,49.1,42.6z"/>
		</g>
	</g>
	<g>
		<g>
			<linearGradient id="SVGID_7_" gradientUnits="userSpaceOnUse" x1="5.8373" y1="54.7025" x2="60.8961" y2="23.6437">
				<stop  offset="0" style="stop-color:#1A6DFF"/>
				<stop  offset="1" style="stop-color:#C822FF"/>
			</linearGradient>
			<path class="st6" d="M24.9,42.6L24.9,42.6c-0.6,0-1.3,0.6-1.3,1.3c0,0.6,0.6,1.3,1.3,1.3l0,0c0.6,0,1.3-0.6,1.3-1.3
				C26.1,43.2,25.5,42.6,24.9,42.6z"/>
		</g>
	</g>
</g>
</svg>
