<svg width="60" height="60" viewBox="0 0 60 60" fill="none" xmlns="http://www.w3.org/2000/svg">
	<path
		d="M53.1 29.2H42.7C42.4 28.4 41.6 27.8 40.7 27.8C39.8 27.8 39 28.4 38.7 29.2H20.4C20.1 28.4 19.3 27.8 18.4 27.8C17.5 27.8 16.7 28.4 16.4 29.2H6.8C6.4 29.2 6 29.5 6 30C6 30.5 6.3 30.8 6.8 30.8H16.4C16.7 31.6 17.5 32.2 18.4 32.2C19.3 32.2 20.1 31.6 20.4 30.8H38.8C39.1 31.6 39.9 32.2 40.8 32.2C41.7 32.2 42.5 31.6 42.8 30.8H53.2C53.6 30.8 54 30.5 54 30C54 29.5 53.5 29.2 53.1 29.2Z"
		fill="#6C3BFF" />
	<path
		d="M56.8 26.8C56.5 26.5 56 26.5 55.7 26.8C55.4 27.1 55.4 27.6 55.7 27.9L57.8 30L55.8 32C55.5 32.3 55.5 32.8 55.8 33.1C55.9 33.2 56.1 33.3 56.3 33.3C56.5 33.3 56.7 33.2 56.8 33.1L59.9 30L56.8 26.8Z"
		fill="#6C3BFF" />
	<path
		d="M4.2 26.8C3.9 26.5 3.4 26.5 3.1 26.8L0 29.9L3.1 33C3.2 33.1 3.4 33.2 3.6 33.2C3.8 33.2 4 33.2 4.2 33C4.5 32.7 4.5 32.2 4.2 31.9L2.1 29.8L4.2 27.7C4.5 27.6 4.5 27.1 4.2 26.8Z"
		fill="#6C3BFF" />
	<path
		d="M8.5 58.6H28.3V35.4H8.5V58.6ZM26.8 45.3H19.9L24.1 40.3L26.8 42.5V45.3ZM10 36.9H26.8V40.6L23.9 38.3L18.8 44.3L14.8 40.6L10 45V36.9ZM17.7 45.3H11.9L14.8 42.6L17.7 45.3ZM10 46.8H26.8V57.1H10V46.8Z"
		fill="#6C3BFF" />
	<path
		d="M24 49.4H12.8C12.4 49.4 12 49.7 12 50.2C12 50.7 12.3 51 12.8 51H24C24.4 51 24.8 50.7 24.8 50.2C24.8 49.7 24.4 49.4 24 49.4Z"
		fill="#6C3BFF" />
	<path
		d="M24 53.2H12.8C12.4 53.2 12 53.5 12 54C12 54.5 12.3 54.8 12.8 54.8H24C24.4 54.8 24.8 54.5 24.8 54C24.8 53.5 24.4 53.2 24 53.2Z"
		fill="#6C3BFF" />
	<path
		d="M51.1 1.20001H31.3V24.4H51.1V1.20001ZM49.6 22.9H32.8V12.6H49.6V22.9ZM34.8 11.1L37.7 8.40001L40.6 11.1H34.8ZM49.6 11.1H42.7L46.9 6.10001L49.6 8.30001V11.1ZM49.6 6.40001L46.7 4.10001L41.6 10.1L37.6 6.40001L32.8 10.8V2.70001H49.6V6.40001Z"
		fill="#6C3BFF" />
	<path
		d="M35.7 16.8H46.9C47.3 16.8 47.7 16.5 47.7 16C47.7 15.5 47.4 15.2 46.9 15.2H35.7C35.3 15.2 34.9 15.5 34.9 16C34.9 16.5 35.2 16.8 35.7 16.8Z"
		fill="#6C3BFF" />
	<path
		d="M35.7 20.6H46.9C47.3 20.6 47.7 20.3 47.7 19.8C47.7 19.3 47.4 19 46.9 19H35.7C35.3 19 34.9 19.3 34.9 19.8C34.9 20.3 35.2 20.6 35.7 20.6Z"
		fill="#6C3BFF" />
</svg>
