<svg width="57" height="60" viewBox="0 0 57 60" fill="none" xmlns="http://www.w3.org/2000/svg">
	<g clip-path="url(#clip0_2_22890)">
	<path d="M22.7143 20.7429H3.94285C2.14285 20.7429 0.771423 22.1143 0.771423 23.9143V56.9143C0.771423 58.6286 2.14285 60 3.94285 60H22.7143C24.5143 60 25.8857 58.6286 25.8857 56.8286V24.0857C25.8 22.1143 24.4286 20.7429 22.7143 20.7429ZM23.4857 56.8286C23.4857 57.2571 23.0571 57.6 22.7143 57.6H3.94285C3.51428 57.6 3.17142 57.1714 3.17142 56.8286V24.0857C3.17142 23.6571 3.59999 23.3143 3.94285 23.3143H22.7143C23.1429 23.3143 23.4857 23.7429 23.4857 24.0857V56.8286Z" fill="#6C3BFF"/>
	<path d="M52.7143 20.7429H33.9428C32.1428 20.7429 30.7714 22.1143 30.7714 23.9143V56.9143C30.7714 58.7143 32.1428 60.0857 33.9428 60.0857H52.7143C54.5143 60.0857 55.8857 58.7143 55.8857 56.9143V24.0857C56.0571 22.1143 54.4286 20.7429 52.7143 20.7429ZM53.4857 56.8286C53.4857 57.2571 53.0571 57.6 52.7143 57.6H33.9428C33.5143 57.6 33.1714 57.1714 33.1714 56.8286V24.0857C33.1714 23.6571 33.6 23.3143 33.9428 23.3143H52.7143C53.1429 23.3143 53.4857 23.7429 53.4857 24.0857V56.8286Z" fill="#6C3BFF"/>
	<path d="M21.2572 12.8571H37.4572C39.2572 12.8571 40.8 11.4857 40.8 9.51429V3.34286C40.8 1.54286 39.4286 0 37.4572 0H21.2572C19.5429 0 17.9143 1.37143 17.9143 3.34286V9.42857C17.9143 11.4857 19.2857 12.8571 21.2572 12.8571ZM20.3143 3.51429C20.3143 3.08571 20.7429 2.74286 21.0857 2.74286H37.2857C37.7143 2.74286 38.0572 3.17143 38.0572 3.51429V9.6C38.0572 10.0286 37.6286 10.3714 37.2857 10.3714H21.0857C20.6572 10.3714 20.3143 9.94286 20.3143 9.6V3.51429Z" fill="#6C3BFF"/>
	<path d="M31.5428 8.91429H36.2571V4.11429H31.5428V7.71429V8.91429Z" fill="#6C3BFF"/>
	<path d="M48.5143 30.1714H38.0571V32.5714H48.5143V30.1714Z" fill="#6C3BFF"/>
	<path d="M48.5143 35.9143H38.0571V38.3143H48.5143V35.9143Z" fill="#6C3BFF"/>
	<path d="M48.5143 41.6571H38.0571V43.9714H48.5143V41.6571Z" fill="#6C3BFF"/>
	<path d="M18.3429 30.1714H7.88574V32.5714H18.5143V30.1714H18.3429Z" fill="#6C3BFF"/>
	<path d="M18.3429 35.9143H7.88574V38.3143H18.5143V35.9143H18.3429Z" fill="#6C3BFF"/>
	<path d="M18.3429 41.6571H7.88574V43.9714H18.5143V41.6571H18.3429Z" fill="#6C3BFF"/>
	</g>
	<defs>
	<clipPath id="clip0_2_22890">
	<rect width="56.5714" height="60" fill="white"/>
	</clipPath>
	</defs>
	</svg>
