<?xml version="1.0" encoding="utf-8"?>
<!-- Generator: Adobe Illustrator 23.0.0, SVG Export Plug-In . SVG Version: 6.00 Build 0)  -->
<svg version="1.1" id="Layer_1" xmlns="http://www.w3.org/2000/svg" xmlns:xlink="http://www.w3.org/1999/xlink" x="0px" y="0px"
	 viewBox="0 0 70 70" style="enable-background:new 0 0 70 70;" xml:space="preserve">
<style type="text/css">
	.st0{fill:url(#SVGID_1_);}
	.st1{fill:url(#SVGID_2_);}
	.st2{fill:url(#SVGID_3_);}
</style>
<g>
	<linearGradient id="SVGID_1_" gradientUnits="userSpaceOnUse" x1="-16.0817" y1="32.8081" x2="86.5566" y2="37.2123">
		<stop  offset="0" style="stop-color:#1A6DFF"/>
		<stop  offset="1" style="stop-color:#C822FF"/>
	</linearGradient>
	<path class="st0" d="M63.4,0H6.6C3,0,0,3,0,6.6v56.8C0,67,3,70,6.6,70h56.8c3.6,0,6.6-3,6.6-6.6V6.6C70,3,67,0,63.4,0z M67,63.4
		c0,2-1.6,3.6-3.6,3.6H6.6c-2,0-3.6-1.6-3.6-3.6V6.6C3,4.6,4.6,3,6.6,3h56.8c2,0,3.6,1.6,3.6,3.6V63.4z"/>
	<linearGradient id="SVGID_2_" gradientUnits="userSpaceOnUse" x1="-16.7633" y1="48.6932" x2="85.875" y2="53.0974">
		<stop  offset="0" style="stop-color:#1A6DFF"/>
		<stop  offset="1" style="stop-color:#C822FF"/>
	</linearGradient>
	<path class="st1" d="M58.8,50.1H44.9c-0.8,0-1.5,0.7-1.5,1.5s0.7,1.5,1.5,1.5h13.9c0.8,0,1.5-0.7,1.5-1.5S59.6,50.1,58.8,50.1z"/>
	<linearGradient id="SVGID_3_" gradientUnits="userSpaceOnUse" x1="-16.0873" y1="32.94" x2="86.551" y2="37.3442">
		<stop  offset="0" style="stop-color:#1A6DFF"/>
		<stop  offset="1" style="stop-color:#C822FF"/>
	</linearGradient>
	<path class="st2" d="M45.4,25.2v-6.1c0-1.3-1.2-2.2-2.2-2.2h-11c0,0,0,0,0,0H11.9c-1.3,0-2.2,1.2-2.2,2.2v6.1
		c0,0.7,0.3,1.3,0.7,1.6c0.4,0.4,1.1,0.7,1.6,0.7h2.7c1.3,0,2.2-1.2,2.2-2.2v-0.8H24V46h-3.2c-1.3,0-2.2,1.2-2.2,2.2v2.7
		c0,1.3,1.2,2.2,2.2,2.2h5.1c0.1,0,0.2,0,0.2,0H35c1.3,0,2.2-1.2,2.2-2.2l0-2.6c0.1-0.5-0.1-1-0.5-1.4c-0.4-0.5-1-0.8-1.7-0.8h-3.8
		V24.4h7.1v0.8c0,1.3,1.2,2.2,2.2,2.2h2.7C44.5,27.4,45.4,26.3,45.4,25.2z M39.5,21.9H30c-0.7,0-1.2,0.5-1.2,1.2v24.1
		c0,0.7,0.5,1.2,1.2,1.2h4.8v2.2h-9.4c-0.1,0-0.2,0-0.2,0h-4.1v-2.2h4.2c0.7,0,1.2-0.5,1.2-1.2V23.2c0-0.7-0.5-1.2-1.2-1.2h-9.6
		c-0.7,0-1.2,0.5-1.2,1.2V25h-2.4v-5.7h20.1c0.1,0,0.1,0,0.2,0H43v5.6h-2.2v-1.8C40.7,22.5,40.2,21.9,39.5,21.9z"/>
</g>
</svg>
