<svg width="60" height="60" viewBox="0 0 60 60" fill="none" xmlns="http://www.w3.org/2000/svg">
	<path d="M54.3429 0H5.65714C2.57143 0 0 2.57143 0 5.65714V54.3429C0 57.4286 2.57143 60 5.65714 60H54.3429C57.4286 60 60 57.4286 60 54.3429V5.65714C60 2.57143 57.4286 0 54.3429 0ZM57.4286 54.3429C57.4286 56.0571 56.0571 57.4286 54.3429 57.4286H5.65714C3.94286 57.4286 2.57143 56.0571 2.57143 54.3429V5.65714C2.57143 3.94286 3.94286 2.57143 5.65714 2.57143H54.3429C56.0571 2.57143 57.4286 3.94286 57.4286 5.65714V54.3429Z" fill="#6C3BFF"/>
	<path d="M50.4 42.9429H38.4857C37.8 42.9429 37.2 43.5429 37.2 44.2286C37.2 44.9143 37.8 45.5143 38.4857 45.5143H50.4C51.0857 45.5143 51.6857 44.9143 51.6857 44.2286C51.6857 43.5429 51.0857 42.9429 50.4 42.9429Z" fill="#6C3BFF"/>
	<path d="M38.9143 21.6V16.3714C38.9143 15.2571 37.8857 14.4857 37.0286 14.4857H27.6H10.2C9.0857 14.4857 8.31427 15.5143 8.31427 16.3714V21.6C8.31427 22.2 8.57141 22.7143 8.91427 22.9714C9.25713 23.3143 9.85713 23.5714 10.2857 23.5714H12.6C13.7143 23.5714 14.4857 22.5429 14.4857 21.6857V21H20.5714V39.4286H17.8286C16.7143 39.4286 15.9428 40.4571 15.9428 41.3143V43.6286C15.9428 44.7429 16.9714 45.5143 17.8286 45.5143H22.2C22.2857 45.5143 22.3714 45.5143 22.3714 45.5143H30C31.1143 45.5143 31.8857 44.4857 31.8857 43.6286V41.4C31.9714 40.9714 31.8 40.5429 31.4571 40.2C31.1143 39.7714 30.6 39.5143 30 39.5143H26.7428V20.9143H32.8286V21.6C32.8286 22.7143 33.8571 23.4857 34.7143 23.4857H37.0286C38.1428 23.4857 38.9143 22.5429 38.9143 21.6ZM33.8571 18.7714H25.7143C25.1143 18.7714 24.6857 19.2 24.6857 19.8V40.4571C24.6857 41.0571 25.1143 41.4857 25.7143 41.4857H29.8286V43.3714H21.7714C21.6857 43.3714 21.6 43.3714 21.6 43.3714H18.0857V41.4857H21.6857C22.2857 41.4857 22.7143 41.0571 22.7143 40.4571V19.8857C22.7143 19.2857 22.2857 18.8571 21.6857 18.8571H13.4571C12.8571 18.8571 12.4286 19.2857 12.4286 19.8857V21.4286H10.3714V16.5429H27.6C27.6857 16.5429 27.6857 16.5429 27.7714 16.5429H36.8571V21.3429H34.9714V19.8C34.8857 19.2857 34.4571 18.7714 33.8571 18.7714Z" fill="#6C3BFF"/>
	</svg>
