<svg width="512" height="512" viewBox="0 0 512 512" fill="none" xmlns="http://www.w3.org/2000/svg"><path d="M439.52 409.508C443.94 409.508 447.572 413.024 447.572 417.444C447.572 421.864 443.944 425.5 439.52 425.5H23.464C17.12 425.5 11.224 422.892 6.912 418.58C2.608 414.384 0 408.492 0 402.028V23.468C0 17.004 2.608 11.22 6.912 6.916C11.224 2.608 17.004 0 23.464 0H488.412C494.88 0 500.772 2.608 505.084 6.916C509.28 11.224 512 17.004 512 23.468V402.028C512 408.492 509.28 414.384 505.084 418.58C500.772 422.892 494.88 425.5 488.412 425.5H442.732C438.312 425.5 434.684 421.868 434.684 417.444C434.684 413.02 438.308 409.508 442.732 409.508H488.412C490.568 409.508 492.38 408.6 493.748 407.244C495.108 405.884 496.012 404.076 496.012 402.028V87.188H15.988V402.028C15.988 404.076 16.896 405.884 18.256 407.244V407.352C19.616 408.72 21.424 409.508 23.464 409.508H439.52ZM454.292 35.596C458.712 35.596 462.228 39.112 462.228 43.532C462.228 47.952 458.712 51.584 454.292 51.584H182.08C177.66 51.584 174.028 47.956 174.028 43.532C174.028 39.108 177.656 35.596 182.08 35.596H454.292ZM496.016 71.2V23.468C496.016 21.428 495.108 19.612 493.752 18.252C492.384 16.892 490.572 15.984 488.416 15.984H23.464C21.424 15.984 19.616 16.892 18.256 18.252C16.892 19.612 15.988 21.428 15.988 23.468V71.2H496.016Z" fill="url(#paint0_linear_1248_2)"></path><path fill-rule="evenodd" clip-rule="evenodd" d="M47.6201 35.824C51.9241 35.824 55.3281 39.34 55.3281 43.536C55.3281 47.844 51.9241 51.36 47.6201 51.36C43.3081 51.36 39.9121 47.844 39.9121 43.536C39.9121 39.34 43.3081 35.824 47.6201 35.824ZM115.192 35.824C119.496 35.824 122.9 39.34 122.9 43.536C122.9 47.844 119.496 51.36 115.192 51.36C110.88 51.36 107.364 47.844 107.364 43.536C107.364 39.34 110.88 35.824 115.192 35.824ZM81.4081 35.824C85.7121 35.824 89.1121 39.34 89.1121 43.536C89.1121 47.844 85.7081 51.36 81.4081 51.36C77.0961 51.36 73.5801 47.844 73.5801 43.536C73.5801 39.34 77.0921 35.824 81.4081 35.824Z" fill="#2A5DFF"></path><path d="M117.104 123.916H195.784C200.204 123.916 204.172 125.732 207.12 128.564C210.068 131.512 211.768 135.48 211.768 139.9V218.696C211.768 223.004 209.844 227.764 206.552 230.484C203.716 233.092 199.864 234.68 195.78 234.68H117.1C108.26 234.68 101 227.424 101 218.696V139.904C101.004 131.06 108.26 123.916 117.104 123.916V123.916ZM195.784 139.904H117.104V218.7H195.784V139.904Z" fill="#285EFF"></path><path d="M306.804 123.916H385.6C394.444 123.916 401.584 131.06 401.584 139.904V218.7C401.584 223.008 399.656 227.768 396.256 230.488C393.42 233.096 389.676 234.684 385.6 234.684H306.804C298.068 234.684 290.816 227.428 290.816 218.7V139.904C290.816 131.06 298.068 123.916 306.804 123.916ZM385.6 139.904H306.804V218.7H385.6V139.904Z" fill="#285EFF"></path><rect x="322" y="154" width="35" height="14" rx="5" fill="#285EFF"></rect><rect x="322" y="302" width="35" height="14" rx="5" fill="#285EFF"></rect><rect x="135" y="302" width="35" height="14" rx="5" fill="#285EFF"></rect><path d="M306.804 274H385.6C394.444 274 401.584 281.144 401.584 289.988V368.784C401.584 373.092 399.656 377.852 396.256 380.572C393.42 383.18 389.676 384.768 385.6 384.768H306.804C298.068 384.768 290.816 377.512 290.816 368.784V289.988C290.816 281.144 298.068 274 306.804 274ZM385.6 289.988H306.804V368.784H385.6V289.988Z" fill="#285EFF"></path><path d="M117.104 273.688H195.784C204.624 273.688 211.772 280.832 211.772 289.676V368.356C211.772 377.2 204.628 384.456 195.784 384.456H117.104C108.264 384.456 101.004 377.2 101.004 368.356V289.676C101.004 280.832 108.26 273.688 117.104 273.688ZM117.104 289.676V368.356H195.784C195.784 368.356 195.784 368.464 195.784 368.356V289.676H117.104Z" fill="#285EFF"></path><rect x="135" y="154" width="35" height="14" rx="5" fill="#285EFF"></rect><defs><linearGradient id="paint0_linear_1248_2" x1="512" y1="218.5" x2="7.32606e-07" y2="218.5" gradientUnits="userSpaceOnUse"><stop stop-color="#275EFF"></stop><stop offset="1" stop-color="#A913FF"></stop></linearGradient></defs></svg>