<svg width="60" height="60" viewBox="0 0 60 60" fill="none" xmlns="http://www.w3.org/2000/svg">
	<path d="M51.5062 47.9892C52.0242 47.9892 52.4498 48.4012 52.4498 48.9192C52.4498 49.4372 52.0247 49.8633 51.5062 49.8633H2.74969C2.00625 49.8633 1.31531 49.5577 0.81 49.0523C0.305625 48.5606 0 47.8702 0 47.1127V2.75016C0 1.99266 0.305625 1.31484 0.81 0.810469C1.31531 0.305625 1.99266 0 2.74969 0H57.2358C57.9937 0 58.6842 0.305625 59.1895 0.810469C59.6813 1.31531 60 1.99266 60 2.75016V47.1127C60 47.8702 59.6813 48.5606 59.1895 49.0523C58.6842 49.5577 57.9937 49.8633 57.2358 49.8633H51.8827C51.3647 49.8633 50.9395 49.4377 50.9395 48.9192C50.9395 48.4008 51.3642 47.9892 51.8827 47.9892H57.2358C57.4884 47.9892 57.7008 47.8828 57.8611 47.7239C58.0205 47.5645 58.1264 47.3527 58.1264 47.1127V10.2173H1.87359V47.1127C1.87359 47.3527 1.98 47.5645 2.13937 47.7239V47.7366C2.29875 47.8969 2.51063 47.9892 2.74969 47.9892H51.5062ZM53.2373 4.17141C53.7553 4.17141 54.1673 4.58344 54.1673 5.10141C54.1673 5.61938 53.7553 6.045 53.2373 6.045H21.3375C20.8195 6.045 20.3939 5.61984 20.3939 5.10141C20.3939 4.58297 20.8191 4.17141 21.3375 4.17141H53.2373ZM58.1269 8.34375V2.75016C58.1269 2.51109 58.0205 2.29828 57.8616 2.13891C57.7013 1.97953 57.4889 1.87313 57.2362 1.87313H2.74969C2.51063 1.87313 2.29875 1.97953 2.13937 2.13891C1.97953 2.29828 1.87359 2.51109 1.87359 2.75016V8.34375H58.1269Z" fill="#6C3BFF"/>
	<path fill-rule="evenodd" clip-rule="evenodd" d="M5.58048 4.19812C6.08486 4.19812 6.48376 4.61015 6.48376 5.10187C6.48376 5.60671 6.08486 6.01875 5.58048 6.01875C5.07517 6.01875 4.6772 5.60671 4.6772 5.10187C4.6772 4.61015 5.07517 4.19812 5.58048 4.19812ZM13.4991 4.19812C14.0034 4.19812 14.4023 4.61015 14.4023 5.10187C14.4023 5.60671 14.0034 6.01875 13.4991 6.01875C12.9938 6.01875 12.5817 5.60671 12.5817 5.10187C12.5817 4.61015 12.9938 4.19812 13.4991 4.19812ZM9.54001 4.19812C10.0444 4.19812 10.4428 4.61015 10.4428 5.10187C10.4428 5.60671 10.0439 6.01875 9.54001 6.01875C9.0347 6.01875 8.62267 5.60671 8.62267 5.10187C8.62267 4.61015 9.03423 4.19812 9.54001 4.19812Z" fill="#6C3BFF"/>
	<path d="M13.7231 14.5214H22.9434C23.4614 14.5214 23.9264 14.7342 24.2719 15.0661C24.6173 15.4115 24.8166 15.8765 24.8166 16.3945V25.6284C24.8166 26.1333 24.5911 26.6911 24.2053 27.0098C23.873 27.3155 23.4216 27.5015 22.943 27.5015H13.7227C12.6867 27.5015 11.8359 26.6512 11.8359 25.6284V16.395C11.8364 15.3586 12.6867 14.5214 13.7231 14.5214ZM22.9434 16.395H13.7231V25.6289H22.9434V16.395Z" fill="#6C3BFF"/>
	<path d="M35.9536 14.5214H45.1875C46.2239 14.5214 47.0606 15.3586 47.0606 16.395V25.6289C47.0606 26.1337 46.8347 26.6915 46.4363 27.0103C46.1039 27.3159 45.6652 27.502 45.1875 27.502H35.9536C34.9298 27.502 34.08 26.6517 34.08 25.6289V16.395C34.08 15.3586 34.9298 14.5214 35.9536 14.5214ZM45.1875 16.395H35.9536V25.6289H45.1875V16.395Z" fill="#6C3BFF"/>
	<path d="M41.25 18.0469H38.3203C37.9967 18.0469 37.7344 18.3092 37.7344 18.6328V19.1016C37.7344 19.4252 37.9967 19.6875 38.3203 19.6875H41.25C41.5736 19.6875 41.8359 19.4252 41.8359 19.1016V18.6328C41.8359 18.3092 41.5736 18.0469 41.25 18.0469Z" fill="#6C3BFF"/>
	<path d="M41.25 35.3906H38.3203C37.9967 35.3906 37.7344 35.653 37.7344 35.9766V36.4453C37.7344 36.7689 37.9967 37.0312 38.3203 37.0312H41.25C41.5736 37.0312 41.8359 36.7689 41.8359 36.4453V35.9766C41.8359 35.653 41.5736 35.3906 41.25 35.3906Z" fill="#6C3BFF"/>
	<path d="M19.3359 35.3906H16.4062C16.0826 35.3906 15.8203 35.653 15.8203 35.9766V36.4453C15.8203 36.7689 16.0826 37.0312 16.4062 37.0312H19.3359C19.6595 37.0312 19.9219 36.7689 19.9219 36.4453V35.9766C19.9219 35.653 19.6595 35.3906 19.3359 35.3906Z" fill="#6C3BFF"/>
	<path d="M35.9536 32.1094H45.1875C46.2239 32.1094 47.0606 32.9466 47.0606 33.983V43.2169C47.0606 43.7217 46.8347 44.2795 46.4363 44.5983C46.1039 44.9039 45.6652 45.09 45.1875 45.09H35.9536C34.9298 45.09 34.08 44.2397 34.08 43.2169V33.983C34.08 32.9466 34.9298 32.1094 35.9536 32.1094ZM45.1875 33.983H35.9536V43.2169H45.1875V33.983Z" fill="#6C3BFF"/>
	<path d="M13.7231 32.0728H22.9434C23.9794 32.0728 24.817 32.91 24.817 33.9464V43.1667C24.817 44.2031 23.9798 45.0534 22.9434 45.0534H13.7231C12.6872 45.0534 11.8364 44.2031 11.8364 43.1667V33.9464C11.8364 32.91 12.6867 32.0728 13.7231 32.0728ZM13.7231 33.9464V43.1667H22.9434V33.9464H13.7231Z" fill="#6C3BFF"/>
	<path d="M19.3359 18.0469H16.4062C16.0826 18.0469 15.8203 18.3092 15.8203 18.6328V19.1016C15.8203 19.4252 16.0826 19.6875 16.4062 19.6875H19.3359C19.6595 19.6875 19.9219 19.4252 19.9219 19.1016V18.6328C19.9219 18.3092 19.6595 18.0469 19.3359 18.0469Z" fill="#6C3BFF"/>
	</svg>
