<svg id="Layer_1" xmlns="http://www.w3.org/2000/svg" x="0" y="0" viewBox="0 0 66 70" xml:space="preserve"><style>.st0{fill:#b8b8ff}</style><path class="st0" d="M61.5 0h-57C2.1 0 0 2.1 0 4.5v57.1C0 63.9 2.1 66 4.5 66h57.1c2.4 0 4.5-2.1 4.5-4.5V4.5C66 2.1 63.9 0 61.5 0zM2.4 4.5c0-1.3 1-2.1 2.1-2.1h57.1c1.3 0 2.1 1 2.1 2.1V9H2.2V4.5h.2zm59.1 59.1h-57c-1.3 0-2.1-1-2.1-2.1V11h61.2v50.5c0 1.1-1 2.1-2.1 2.1z"></path><path class="st0" d="M48.5 32.5h-38c-1.3 0-2.1 1-2.1 2.1v13.1c0 1.3 1 2.1 2.1 2.1h38c1.3 0 2.1-1 2.1-2.1V34.6c0-1.1-.8-2.1-2.1-2.1zm0 15.4h-38V34.8h38v13.1zM6.6 4.5h-1c-.5 0-1 .5-1 1s.5 1 1 1h1c.5 0 1-.5 1-1s-.3-1-1-1zM12.1 4.5h-1c-.5 0-1 .5-1 1s.5 1 1 1h1c.5 0 1-.5 1-1s-.3-1-1-1zM17.6 4.5h-1c-.5 0-1 .5-1 1s.5 1 1 1h1c.5 0 1-.5 1-1s-.3-1-1-1zM9.4 20.4h16.9c.5 0 1-.5 1-1s-.5-1-1-1H9.4c-.5 0-1 .5-1 1s.5 1 1 1zM32.5 20.4h16.9c.5 0 1-.5 1-1s-.5-1-1-1H32.5c-.5 0-1 .5-1 1-.1.5.5 1 1 1zM22 56H10.3c-.5 0-1 .5-1 1s.5 1 1 1H22c.5 0 1-.5 1-1 .1-.4-.2-1-1-1z"></path><path class="st0" d="M61.5 0h-57C1.8 0 0 2.1 0 4.5v57.1C0 64.2 2.1 66 4.5 66h57.1c2.6 0 4.5-2.1 4.5-4.5v-57C66 1.8 63.9 0 61.5 0zm2.1 61.5c0 1-1 2.1-2.1 2.1h-57c-1 0-2.1-1-2.1-2.1V11h61.3v50.5zm0-52.9H2.4V4.5c0-1 1-2.1 2.1-2.1h57.1c1 0 2.1 1 2.1 2.1v4.1z"></path><path class="st0" d="M10.5 50.3h38c1.3 0 2.4-1 2.4-2.4V34.8c0-1.3-1-2.4-2.4-2.4h-38c-1.3 0-2.4 1-2.4 2.4v13.1c0 1.3 1.1 2.4 2.4 2.4zm.3-15.5h37.7v12.8H10.8V34.8zM6.6 4.2h-1c-.8 0-1.3.5-1.3 1.3s.5 1.3 1.3 1.3h1c.8 0 1.3-.5 1.3-1.3s-.6-1.3-1.3-1.3zM12.1 4.2h-1c-.8 0-1.3.5-1.3 1.3s.5 1.3 1.3 1.3h1c.8 0 1.3-.5 1.3-1.3s-.6-1.3-1.3-1.3zM17.6 4.2h-1c-.8 0-1.3.5-1.3 1.3s.5 1.3 1.3 1.3h1c.8 0 1.3-.5 1.3-1.3s-.6-1.3-1.3-1.3zM9.4 20.4h17.3c.8 0 1.3-.5 1.3-1.3s-.5-1.3-1.3-1.3H9.4c-.8 0-1.3.5-1.3 1.3s.8 1.3 1.3 1.3zM32.5 20.4h17.3c.8 0 1.3-.5 1.3-1.3s-.5-1.3-1.3-1.3H32.5c-.8 0-1.3.5-1.3 1.3.2.8.8 1.3 1.3 1.3zM22 55.8H10c-.8 0-1.3.5-1.3 1.3s.5 1.3 1.3 1.3h12c.8 0 1.3-.5 1.3-1.3s-.5-1.3-1.3-1.3zM9.4 27.8H50c.8 0 1.3-.5 1.3-1.3s-.5-1.3-1.3-1.3H9.4c-.8 0-1.3.5-1.3 1.3 0 .7.8 1.3 1.3 1.3z"></path><path class="st0" d="M50 25.4H9.4c-.5 0-1 .5-1 1s.5 1 1 1h40.2c.5 0 1-.5 1-1 .7-.5.2-1-.6-1z"></path></svg>