<svg width="60" height="40" viewBox="0 0 60 40" fill="none" xmlns="http://www.w3.org/2000/svg">
	<path
		d="M2.8125 0C1.26343 0 0 1.26343 0 2.8125V25.3125C0 26.8616 1.26343 28.125 2.8125 28.125H18.7976C19.281 34.4055 24.5361 39.375 30.9375 39.375C37.3389 39.375 42.594 34.4055 43.0774 28.125H57.1875C58.7366 28.125 60 26.8616 60 25.3125V2.8125C60 1.26343 58.7366 0 57.1875 0H2.8125ZM2.8125 1.875H57.1875C57.7039 1.875 58.125 2.29614 58.125 2.8125V25.3125C58.125 25.8289 57.7039 26.25 57.1875 26.25H43.0774C42.6196 20.2771 37.8479 15.5054 31.875 15.0476V4.6875C31.875 4.17114 31.4575 3.75 30.9375 3.75C30.4175 3.75 30 4.17114 30 4.6875V15.0476C24.0271 15.5054 19.2554 20.2771 18.7976 26.25H2.8125C2.29614 26.25 1.875 25.8289 1.875 25.3125V2.8125C1.875 2.29614 2.29614 1.875 2.8125 1.875ZM4.6875 3.75C4.16748 3.75 3.75 4.17114 3.75 4.6875C3.75 5.20386 4.16748 5.625 4.6875 5.625H6.5625C7.08252 5.625 7.5 5.20386 7.5 4.6875C7.5 4.17114 7.08252 3.75 6.5625 3.75H4.6875ZM15.9375 3.75C15.4175 3.75 15 4.17114 15 4.6875V23.4375C15 23.9539 15.4175 24.375 15.9375 24.375C16.4575 24.375 16.875 23.9539 16.875 23.4375V4.6875C16.875 4.17114 16.4575 3.75 15.9375 3.75ZM45.9375 3.75C45.4175 3.75 45 4.17114 45 4.6875V23.4375C45 23.9539 45.4175 24.375 45.9375 24.375C46.4575 24.375 46.875 23.9539 46.875 23.4375V4.6875C46.875 4.17114 46.4575 3.75 45.9375 3.75ZM4.6875 8.4375C4.16748 8.4375 3.75 8.85864 3.75 9.375C3.75 9.89136 4.16748 10.3125 4.6875 10.3125H6.5625C7.08252 10.3125 7.5 9.89136 7.5 9.375C7.5 8.85864 7.08252 8.4375 6.5625 8.4375H4.6875ZM4.6875 13.125C4.16748 13.125 3.75 13.5461 3.75 14.0625C3.75 14.5789 4.16748 15 4.6875 15H6.5625C7.08252 15 7.5 14.5789 7.5 14.0625C7.5 13.5461 7.08252 13.125 6.5625 13.125H4.6875ZM30.9375 16.875C36.6248 16.875 41.25 21.5002 41.25 27.1875C41.25 32.8748 36.6248 37.5 30.9375 37.5C25.2502 37.5 20.625 32.8748 20.625 27.1875C20.625 21.5002 25.2502 16.875 30.9375 16.875ZM4.6875 17.8125C4.16748 17.8125 3.75 18.2336 3.75 18.75C3.75 19.2664 4.16748 19.6875 4.6875 19.6875H6.5625C7.08252 19.6875 7.5 19.2664 7.5 18.75C7.5 18.2336 7.08252 17.8125 6.5625 17.8125H4.6875ZM30.9375 20.625C30.4175 20.625 30 21.0461 30 21.5625V26.25H25.3125C24.7925 26.25 24.375 26.6711 24.375 27.1875C24.375 27.7039 24.7925 28.125 25.3125 28.125H30V32.8125C30 33.3289 30.4175 33.75 30.9375 33.75C31.4575 33.75 31.875 33.3289 31.875 32.8125V28.125H36.5625C37.0825 28.125 37.5 27.7039 37.5 27.1875C37.5 26.6711 37.0825 26.25 36.5625 26.25H31.875V21.5625C31.875 21.0461 31.4575 20.625 30.9375 20.625ZM4.6875 22.5C4.16748 22.5 3.75 22.9211 3.75 23.4375C3.75 23.9539 4.16748 24.375 4.6875 24.375H6.5625C7.08252 24.375 7.5 23.9539 7.5 23.4375C7.5 22.9211 7.08252 22.5 6.5625 22.5H4.6875Z"
		fill="#6C3BFF" />
</svg>
