<?xml version="1.0" encoding="UTF-8"?>
<svg viewBox="0 0 64 42" version="1.1" xmlns="http://www.w3.org/2000/svg" xmlns:xlink="http://www.w3.org/1999/xlink">
    <!-- Generator: Sketch 52.4 (67378) - http://www.bohemiancoding.com/sketch -->
    <title>eb-wrapper</title>
    <desc>Created with Sketch.</desc>
    <defs>
        <linearGradient x1="50%" y1="-0.961538462%" x2="50%" y2="102.035385%" id="linearGradient-1">
            <stop stop-color="#1A6DFF" offset="0%"></stop>
            <stop stop-color="#C822FF" offset="100%"></stop>
        </linearGradient>
    </defs>
    <g id="Page-1" stroke="none" stroke-width="1" fill="none" fill-rule="evenodd">
        <g id="eb-wrapper" fill="url(#linearGradient-1)" fill-rule="nonzero">
            <path d="M3,0 C1.347656,0 0,1.347656 0,3 L0,27 C0,28.652344 1.347656,30 3,30 L20.050781,30 C20.566406,36.699219 26.171875,42 33,42 C39.828125,42 45.433594,36.699219 45.949219,30 L61,30 C62.652344,30 64,28.652344 64,27 L64,3 C64,1.347656 62.652344,0 61,0 L3,0 Z M3,2 L61,2 C61.550781,2 62,2.449219 62,3 L62,27 C62,27.550781 61.550781,28 61,28 L45.949219,28 C45.460938,21.628906 40.371094,16.539063 34,16.050781 L34,5 C34,4.449219 33.554688,4 33,4 C32.445313,4 32,4.449219 32,5 L32,16.050781 C25.628906,16.539063 20.539063,21.628906 20.050781,28 L3,28 C2.449219,28 2,27.550781 2,27 L2,3 C2,2.449219 2.449219,2 3,2 Z M5,4 C4.445313,4 4,4.449219 4,5 C4,5.550781 4.445313,6 5,6 L7,6 C7.554688,6 8,5.550781 8,5 C8,4.449219 7.554688,4 7,4 L5,4 Z M17,4 C16.445313,4 16,4.449219 16,5 L16,25 C16,25.550781 16.445313,26 17,26 C17.554688,26 18,25.550781 18,25 L18,5 C18,4.449219 17.554688,4 17,4 Z M49,4 C48.445313,4 48,4.449219 48,5 L48,25 C48,25.550781 48.445313,26 49,26 C49.554688,26 50,25.550781 50,25 L50,5 C50,4.449219 49.554688,4 49,4 Z M5,9 C4.445313,9 4,9.449219 4,10 C4,10.550781 4.445313,11 5,11 L7,11 C7.554688,11 8,10.550781 8,10 C8,9.449219 7.554688,9 7,9 L5,9 Z M5,14 C4.445313,14 4,14.449219 4,15 C4,15.550781 4.445313,16 5,16 L7,16 C7.554688,16 8,15.550781 8,15 C8,14.449219 7.554688,14 7,14 L5,14 Z M33,18 C39.066406,18 44,22.933594 44,29 C44,35.066406 39.066406,40 33,40 C26.933594,40 22,35.066406 22,29 C22,22.933594 26.933594,18 33,18 Z M5,19 C4.445313,19 4,19.449219 4,20 C4,20.550781 4.445313,21 5,21 L7,21 C7.554688,21 8,20.550781 8,20 C8,19.449219 7.554688,19 7,19 L5,19 Z M33,22 C32.445313,22 32,22.449219 32,23 L32,28 L27,28 C26.445313,28 26,28.449219 26,29 C26,29.550781 26.445313,30 27,30 L32,30 L32,35 C32,35.550781 32.445313,36 33,36 C33.554688,36 34,35.550781 34,35 L34,30 L39,30 C39.554688,30 40,29.550781 40,29 C40,28.449219 39.554688,28 39,28 L34,28 L34,23 C34,22.449219 33.554688,22 33,22 Z M5,24 C4.445313,24 4,24.449219 4,25 C4,25.550781 4.445313,26 5,26 L7,26 C7.554688,26 8,25.550781 8,25 C8,24.449219 7.554688,24 7,24 L5,24 Z" id="Shape"></path>
        </g>
    </g>
</svg>