<svg width="100" height="100" viewBox="0 0 100 100" fill="none" xmlns="http://www.w3.org/2000/svg">
<g clipPath="url(#clip0_268_6)">
<path d="M91.8261 75.7584H6.9814C4.96934 75.7584 3.33337 77.3943 3.33337 79.4064V85.3861C3.33337 87.3982 4.96934 89.0342 6.9814 89.0342H91.8261C93.8382 89.0342 95.4742 87.3982 95.4742 85.3861V79.4064C95.4742 77.3943 93.8382 75.7584 91.8261 75.7584Z" fill="#E6E6E8"/>
<path d="M91.8073 10H7.0002C4.98815 10 3.33337 11.6548 3.33337 13.6668V67.729C3.33337 69.7411 4.98815 71.3959 7.0002 71.3959H91.8073C93.8194 71.3959 95.4742 69.7411 95.4742 67.729V13.6668C95.4742 11.6548 93.8194 10 91.8073 10Z" fill="#EAEAEE"/>
<path d="M47.5234 38.8269V27.5443H51.2842V38.8269H62.5668V42.5877H51.2842V53.8703H47.5234V42.5877H36.2408V38.8269H47.5234Z" fill="white"/>
</g>
<defs>
<clipPath id="clip0_268_6">
<rect width="92.1408" height="79.053" fill="white" transform="translate(3.33337 10)"/>
</clipPath>
</defs>
</svg>
