<svg width="100" height="100" viewBox="0 0 100 100" fill="none" xmlns="http://www.w3.org/2000/svg">
<g clipPath="url(#clip0_268_17)">
<path d="M92.4612 5H7.20544C4.91156 5 3 6.91156 3 9.20544V16.2782C3 18.5721 4.91156 20.4837 7.20544 20.4837H92.4612C94.7551 20.4837 96.6667 18.5721 96.6667 16.2782V9.20544C96.6667 6.91156 94.7551 5 92.4612 5Z" fill="#EAEAEE"/>
<path d="M92.4612 78.9776H64.6097C62.3159 78.9776 60.4043 80.8891 60.4043 83.183V90.2558C60.4043 92.5497 62.3159 94.4612 64.6097 94.4612H92.4612C94.7551 94.4612 96.6667 92.5497 96.6667 90.2558V83.183C96.6667 80.8891 94.7551 78.9776 92.4612 78.9776Z" fill="#E6E6E8"/>
<path d="M92.4612 45.5252H7.20544C4.91156 45.5252 3 47.4368 3 49.7306V69.9932C3 72.2871 4.91156 74.1987 7.20544 74.1987H92.4612C94.7551 74.1987 96.6667 72.2871 96.6667 69.9932V49.7306C96.6667 47.4368 94.7551 45.5252 92.4612 45.5252Z" fill="#EAEAEE"/>
<path d="M92.4612 25.2626H7.20544C4.88284 25.2626 3 27.1454 3 29.468V36.5408C3 38.8634 4.88284 40.7462 7.20544 40.7462H92.4612C94.7838 40.7462 96.6667 38.8634 96.6667 36.5408V29.468C96.6667 27.1454 94.7838 25.2626 92.4612 25.2626Z" fill="#EAEAEE"/>
</g>
<defs>
<clipPath id="clip0_268_17">
<rect width="93.6667" height="89.4612" fill="white" transform="translate(3 5)"/>
</clipPath>
</defs>
</svg>
