<svg width="18" height="18" viewBox="0 0 18 18" fill="none" xmlns="http://www.w3.org/2000/svg">
<path d="M0 2.25C0 1.00736 1.00736 0 2.25 0H15.75C16.9926 0 18 1.00736 18 2.25V15.75C18 16.9926 16.9926 18 15.75 18H2.25C1.00736 18 0 16.9926 0 15.75V2.25Z" fill="url(#paint0_linear_321_1201)"/>
<path d="M12.6307 5.03292C12.7753 5.20028 12.9851 5.29628 13.2062 5.29628C13.4274 5.29628 13.6372 5.20028 13.7818 5.03271L14.8901 3.74935C15.1189 3.4845 15.0896 3.08421 14.8247 2.85557C14.5597 2.6265 14.1596 2.65607 13.9307 2.92114L13.2062 3.76007L12.4817 2.92114C12.2529 2.65607 11.8526 2.62671 11.5877 2.85557C11.3229 3.08442 11.2935 3.4845 11.5224 3.74935L12.6307 5.03292Z" fill="white"/>
<path d="M0 6.59999H18V7.79999H0V6.59999Z" fill="white"/>
<path d="M3.92958 11.3571H13.9436C14.2937 11.3571 14.5774 11.0644 14.5774 10.7143C14.5774 10.3641 14.2937 10.0714 13.9436 10.0714H3.92958C3.57944 10.0714 3.29572 10.3641 3.29572 10.7143C3.29572 11.0644 3.57944 11.3571 3.92958 11.3571Z" fill="white"/>
<path d="M3.92958 14.5714H10.6479C10.998 14.5714 11.2817 14.2787 11.2817 13.9286C11.2817 13.5784 10.998 13.2857 10.6479 13.2857H3.92958C3.57944 13.2857 3.29572 13.5784 3.29572 13.9286C3.29572 14.2787 3.57944 14.5714 3.92958 14.5714Z" fill="white"/>
<defs>
<linearGradient id="paint0_linear_321_1201" x1="0" y1="9" x2="18" y2="9" gradientUnits="userSpaceOnUse">
<stop stop-color="#FEA590"/>
<stop offset="1" stop-color="#F87E5B"/>
</linearGradient>
</defs>
</svg>
